<svg xmlns="http://www.w3.org/2000/svg" width="170" height="54" fill="none" xmlns:v="https://vecta.io/nano"><g clip-path="url(#A)"><path fill-rule="evenodd" d="M60.783 43.839c-2.207-.518-4.934-.777-7.661-.777-2.337-.13-4.804 0-9.219 1.036s-10.777 2.85-14.933 3.886-6.233 1.295-8.31 1.295c-1.039 0-2.078-.13-2.857-.259-.909-.13-1.688-.389-2.337-.648s-1.299-.648-1.688-.907c-.519-.389-.909-.777-1.299-1.166s-.649-.907-.909-1.425-.389-1.036-.649-1.554c-.13-.648-.26-1.166-.26-1.943v-2.072c.13-1.036.389-2.073.779-3.627l2.207-5.57 4.155-7.383s3.506-5.181 5.194-7.383 3.376-3.886 4.804-5.311 2.597-2.461 3.766-3.238c1.039-.777 1.948-1.295 2.727-1.684s1.428-.648 2.078-.777 1.169-.259 1.688-.259c.39 0 .649 0 .909.259s.26.518.26.907v.648c-.779.389-1.688 1.036-2.337 1.554l-.779.777a3.09 3.09 0 0 0-.909 1.684c-.13.389.389 1.166.649 1.295 1.039.777 2.207.259 3.376-1.166.26-.259.519-.648.649-.907.26-.389.39-.777.519-1.166.649-1.554.909-3.109 0-4.534l-.779-.777c-.26-.259-.649-.389-1.169-.518-.39-.13-.909-.259-1.688-.13-.779 0-1.688.13-2.857.389s-2.337.648-3.766 1.295-2.986 1.425-4.675 2.591-3.636 2.591-5.583 4.275l-5.843 5.959c-3.766 4.404-6.752 9.197-8.44 12.824-.909 1.943-1.428 3.497-1.948 5.052-.39 1.425-.649 2.72-.779 4.016 0 2.072.13 3.756.39 5.181.13.648.26 1.295.519 1.813.26.648.519 1.166.779 1.554.26.518.649.907 1.039 1.425.39.389.909.777 1.428 1.166s1.169.648 2.078 1.036c.779.259 1.688.518 2.857.777 1.169.13 2.467.259 3.896.259 2.207.13 4.285-.13 7.921-.907s8.7-2.202 12.466-2.979c3.636-.777 5.843-.907 8.051-.907 1.428 0 2.727.13 3.766.259s1.948.389 2.727.777a10.59 10.59 0 0 1 2.207 1.425c.779.648 1.558 1.425 2.337 2.332 2.337-1.554 4.804-2.591 6.622-2.85.909-.13 1.818-.259 2.597-.259.389 0 .649 0 1.169.13.39 0 .909.13 2.207.518s3.506 1.166 5.584 2.072c-2.078-1.943-4.415-3.757-6.493-4.922-2.078-1.295-3.895-2.072-6.233-2.461zm27.398-29.016h-4.934l-2.467 4.534h4.804l2.597-4.534zm72.326-7.902c-2.077 1.166-3.895 2.073-5.973 2.591s-4.544.777-6.882.777l-4.285 5.181c.39 0 .65.13 1.039.13.52.13 1.169.13 2.078.13 1.558 0 3.116-.259 4.674-.648 3.247-.907 7.012-2.72 9.869-5.181 1.428-1.166 2.727-2.461 3.636-3.756 1.038-1.295 1.688-2.591 2.337-3.886-2.078 1.813-4.415 3.497-6.493 4.663zm-5.583 32.643l-2.597 3.238c-.779.907-1.299 1.425-1.818 1.943-.389.389-.779.777-1.039.907-.259.259-.519.389-.649.518-.39.259-.649.259-1.039.259-.389-.13-.389-.389-.389-.648 0-.13 0 0 .389-.907.39-.777 1.169-2.072 1.818-3.497l8.57-14.508h-4.155l-1.428 1.295c-.52-.389-1.039-.648-1.429-.907s-.649-.259-.909-.259-.519-.13-.779-.13c-1.428 0-2.856.518-4.415 1.425-.519.259-.909.648-1.558 1.036-.519.389-1.168.907-1.948 1.684-.779.648-1.558 1.554-3.116 3.497s-3.766 4.922-5.324 6.995-2.467 3.109-3.116 3.886l-1.169 1.166c-.26.13-.519.259-.649.389-.26.13-.39.13-.649.13-.39 0-.909-.648-.909-1.036-.13-.777 0-1.036.259-2.202.13-.648.39-1.684.909-2.979.39-1.295.909-2.85 1.559-4.404 3.246-2.073 6.362-4.404 8.829-6.347s4.156-3.756 5.844-5.699c1.688-2.073 3.506-4.404 5.194-6.995l-1.948.259c-1.299 1.813-2.597 3.497-4.155 5.311s-3.376 3.627-5.454 5.44-4.155 3.497-6.493 5.052c1.429-2.72 2.987-5.311 4.545-8.031 1.558-2.591 3.246-5.181 4.935-7.513s3.246-4.404 4.804-6.218c1.428-1.813 2.857-3.109 3.895-4.145s1.948-1.684 2.597-2.202 1.169-.648 1.429-.907c.389-.13.649-.259.779-.259s.26 0 .389.13c.39.389.39.648.26 1.036 0 .13 0 .259-.26.777s-.519 1.425-.909 2.202l1.689-.259c.259-.518.649-1.036.779-1.425s.259-.518.259-.777.13-.518.13-.777c0-.907-.13-1.684-.909-2.332-.259-.13-.389-.259-.649-.389-.909-.259-1.688-.13-2.727.13-.779.259-1.558.518-2.597 1.036s-2.077 1.295-3.506 2.332-2.986 2.591-4.804 4.534-3.896 4.275-5.973 7.124c-2.078 2.72-4.285 5.959-6.363 9.197-1.948 3.238-3.766 6.606-5.454 9.974h-2.337c.39-.907.909-1.943 1.169-2.591s.389-1.166.519-1.554c.26-1.166.26-2.461-.13-3.497-.13-.259-.259-.648-.519-.777-.779-.907-1.428-1.036-2.337-1.036-.39 0-.78 0-1.299.259-.519.13-1.039.259-1.818.648-.649.259-1.428.777-2.207 1.295-.909.648-1.818 1.295-2.727 2.332-1.039.907-2.078 2.073-2.987 3.238-2.077 2.461-3.635 5.181-4.544 7.254-.52 1.036-.779 1.943-1.039 2.85-.26.777-.39 1.554-.39 2.202v1.554c.13.518.26.907.39 1.295s.389.648.779.907a2.83 2.83 0 0 0 1.039.648c.389.13.779.259 1.298.259.909 0 1.818-.259 2.857-.777.519-.259 1.169-.648 1.948-1.166s1.558-1.295 2.467-2.202 1.948-2.202 3.116-3.757 2.597-3.497 3.766-5.57h2.337c-.779 1.943-1.428 4.015-1.948 5.311-.389 1.295-.519 1.813-.649 2.332-.13 1.036-.26 1.943-.26 2.72 0 .389.13.777.26 1.036s.26.648.39.907.389.518.649.648.519.389.909.389c.26.13.649.13 1.039.13 1.298 0 2.467-.389 4.025-1.425.519-.389 1.169-.907 1.948-1.684s1.688-1.684 2.597-2.72c0 .648-.13 1.295-.13 1.813s0 .907.13 1.295c0 .389.13.648.259.777.13.259.13.389.26.648.26.389.39.518.649.777.52.259.909.389 1.429.389.259 0 .519 0 .909-.13.649-.13 1.298-.389 2.077-.777.39-.259.909-.518 1.429-1.166.649-.518 1.428-1.295 2.207-2.072 0 .518-.13 1.166-.13 1.554s0 .777.13.907c0 .259.13.389.13.648.13.518.649 1.036 1.039 1.036 1.298.389 2.337 0 3.765-.648.52-.259 1.169-.648 1.818-1.166s1.429-1.166 2.338-2.073 1.817-2.073 2.856-3.497 2.078-3.109 3.117-4.922h-1.169zm-37.786 1.295c-.65.907-1.299 1.684-1.948 2.461s-1.169 1.295-1.688 1.814a7.46 7.46 0 0 1-1.299 1.036c-.389.259-.649.389-.779.518-.259.13-.389.13-.519.13-.519 0-.909-.259-1.299-.777-.129-.13-.259-.389-.259-.648-.13-.518-.26-1.036-.13-1.684 0-.389.13-.907.26-1.425a11.85 11.85 0 0 1 .519-1.684c.909-1.943 2.467-4.145 4.545-5.959.259.518.519.907.909 1.425.13.259.389.389.649.648s.649.389 1.169.648 1.168.518 1.817.648c-.779 1.036-1.298 2.073-1.947 2.85zm4.025-8.808c0 .259-.13.648-.13.907s-.13.648-.389 1.166c-.26.648-.779 1.555-1.169 2.461-.519-.13-1.039-.389-1.428-.518s-.65-.389-.779-.518-.39-.259-.39-.389c-.26-.259-.39-.518-.519-.907-.39-1.554-.13-3.238 1.688-4.404.519-.389 1.038-.518 1.558-.518s.909 0 1.298.389.39.777.39 1.425c-.13.259-.13.648-.13.907zm22.594 9.974l-1.818 2.461c-.519.648-.909 1.036-1.298 1.295s-.65.518-.909.648c-.52.259-1.169.259-1.559 0-.389-.389-.259-.777-.259-1.295 0-.259.13-.648.13-1.036.129-.389.259-.907.389-1.295.13-.518.39-1.036.779-1.684s.779-1.425 1.299-2.202 1.168-1.813 1.947-2.72 1.559-1.943 2.338-2.72c.779-.907 1.558-1.554 2.207-2.202.649-.518 1.169-.907 1.558-1.166s.65-.389.909-.518.39-.13.52-.13c.259 0 .519 0 .779.13.259.259.13.648 0 1.036-.13.259-.13.518-.39.907-.13.389-.389.777-.649 1.166l-5.973 9.326zm-37.916-8.161c.26-1.036.389-2.073.519-2.979.13-.777 0-1.425-.13-2.072-.129-.259-.259-.518-.259-.648-.26-.518-.65-.648-1.039-.907-.26-.13-.52-.259-.779-.259-.26-.13-.649-.13-1.169-.13-.389 0-.909 0-1.428.13-1.948.389-4.026 1.425-6.103 3.756-.519.648-1.039 1.295-1.558 2.073s-1.039 1.684-1.558 2.72-.909 2.073-1.299 3.238-.649 2.332-.909 3.497c1.039-.907 2.207-1.813 2.987-2.332.779-.648 1.299-.907 1.948-1.295s1.428-.777 2.337-1.166c.26-1.295.779-2.591 1.299-3.756.26-.518.519-1.036.779-1.425s.519-.777.779-1.036c.65-.777 1.299-1.295 1.948-1.554.909-.259 1.688-.389 2.467.259.39.389.39.777.39 1.166 0 1.554-.39 2.979-.909 4.663-.26.777-.649 1.425-1.039 2.332-.39.777-.909 1.554-1.558 2.461a21.47 21.47 0 0 1-4.805 4.922c-1.818 1.425-3.636 2.461-4.934 2.85-.649.13-1.039.259-1.558.259-.39 0-.779 0-1.298-.13-.779-.259-1.558-.777-2.208-1.554-.26-.389-.519-.777-.779-1.295-.389-.907-.519-1.943-.389-2.85.13-1.036.389-2.072 1.039-3.886s1.818-4.404 3.246-7.254c1.558-2.85 3.376-6.088 5.194-8.808s3.506-5.181 5.194-6.995c1.299-1.943 2.727-3.497 4.026-4.663s2.337-2.202 3.376-2.979 1.818-1.295 2.727-1.813c.779-.389 1.558-.777 2.207-1.036 1.818-.648 3.376-.777 5.194-.648-1.428.777-2.727 1.684-3.896 2.591-2.467 1.943-4.155 3.886-5.323 5.57-.65.907-1.039 1.684-1.429 2.332-.389.777-.649 1.425-.779 2.073s-.259 1.295-.389 1.684v1.166c0 .259.13.518.259.777s.26.389.39.648l.519.518c.26.13.52.259.779.259.26.13.65.13 1.039.13.779 0 1.429-.13 2.338-.648.519-.259 1.038-.518 1.558-.907a16.96 16.96 0 0 0 1.818-1.554c.649-.648 1.298-1.295 1.817-2.202.65-.777 1.169-1.684 1.689-2.591.908-1.684 1.688-3.368 1.947-4.793l.39-1.943v-.648-1.166-.777c1.558 0 3.116.13 4.674.518 1.429.389 2.857 1.036 4.805 2.202 1.948 1.295 4.545 3.109 7.012 5.181l4.674-4.793c-1.558-1.295-3.116-2.591-4.544-3.497s-2.597-1.554-3.636-1.943-2.078-.777-2.857-.907c-1.298-.259-2.467-.389-3.895-.13-.52 0-1.039.13-2.078.389s-2.597.777-4.155 1.295c-.779-.518-1.688-1.036-2.337-1.295s-1.039-.389-1.429-.389c-1.558-.259-2.986-.13-4.804.518-1.429.389-2.987 1.036-4.935 2.073s-4.155 2.461-6.492 4.145-4.675 3.756-6.752 5.829c-2.207 2.202-4.155 4.404-5.843 6.606s-3.116 4.275-4.155 6.218c-1.169 1.943-2.078 3.756-2.727 5.57a50.61 50.61 0 0 0-1.558 4.793c-.39 1.554-.649 2.85-.649 4.016-.13 1.166-.13 1.943 0 2.85.13.777.26 1.554.649 2.332.26.777.779 1.425 1.169 2.073.519.648 1.169 1.166 1.818 1.684.649.389 1.428.777 2.207 1.036 1.688.518 3.246.518 5.194 0 .909-.259 2.078-.777 3.246-1.425 2.467-1.295 5.194-3.497 7.271-5.959 2.208-2.461 3.766-4.922 4.675-7.254.13-.907.519-2.072.779-3.109zm12.595-27.72c-.13.907-.259 1.813-.519 2.85s-.649 2.332-1.169 3.368l-1.428 3.109c-.52.907-.909 1.554-1.429 2.202-1.168 1.425-2.077 2.202-3.116 2.72-1.039.389-1.948.518-2.857 0-.259-.13-.519-.518-.519-.777-.13-1.036.13-1.943.519-2.979.13-.518.39-.907.78-1.554.259-.518.779-1.166 1.298-1.814s1.169-1.425 2.078-2.202l2.986-2.591c1.039-.907 2.208-1.684 3.376-2.332zM72.729 31.404c-.909 1.036-1.299 1.425-1.558 1.684s-.519.389-.649.518c-.389.259-.779.389-1.039.259a.56.56 0 0 1-.519-.518c0-.13 0-.13.13-.648.13-.259.26-.648.779-1.554l2.078-4.016 7.272-12.306h-4.545l-.909 1.036c-.649-.389-1.299-.648-1.688-.907s-.779-.259-1.039-.259-.649-.13-.909-.13c-1.039 0-2.207.259-3.506 1.036-.519.259-1.039.648-1.818 1.295-.649.518-1.558 1.295-3.246 3.109L55.589 27c-1.948 2.332-3.506 4.145-4.675 5.311s-1.818 1.684-2.337 2.073-.909.648-1.298.777c-.13.389-.519.518-.779.518-.779.13-1.558.13-2.208-.259-.389-.259-.389-.518-.519-.907-.13-.907 0-1.554.13-2.461.13-.518.26-1.036.519-1.684s.519-1.425 1.039-2.202c.389-.907 1.039-1.814 1.688-2.85 1.428-2.073 3.376-4.404 4.934-5.829.779-.777 1.428-1.295 1.948-1.554a5.78 5.78 0 0 1 1.039-.648c.26-.13.39-.13.649-.13s.519 0 .649.259c.26.259.26.389.39.777v.648c-.39.13-.909.13-1.169.259-.389.13-.649.259-.779.389-.26.13-.389.259-.519.389-1.039.777-1.169 1.814-1.169 2.461 0 .259.26.648.519.907.779.648 1.818.259 2.986-1.036.13-.259.39-.518.519-.777.649-.907.909-1.813 1.169-2.591.26-1.166.26-2.591-1.169-3.757-.519-.389-1.039-.518-1.688-.518-.39 0-.779 0-1.299.13s-.909.259-1.558.518c-.519.259-1.169.518-2.337 1.425s-2.857 2.461-4.155 3.627-2.337 1.814-3.116 2.332-1.558.907-2.207 1.166-1.299.518-1.948.648c.39-.907.779-1.813 1.039-2.591s.519-1.425.649-1.943.13-.777.26-1.166c0-.648 0-1.425-.26-1.943-.13-.259-.26-.518-.39-.648-.389-.518-.649-.777-1.169-.907-1.039-.518-1.948-.389-3.116-.13-.649.13-1.298.389-1.948.777-.779.389-1.558.907-2.597 1.554-.909.648-1.948 1.554-2.987 2.461-1.039 1.036-2.078 2.073-2.986 3.238-1.818 2.332-3.246 4.663-4.025 6.606a33.34 33.34 0 0 0-.909 2.72c-.519.648-.649 1.425-.649 1.943v1.425c0 .389.13.777.26 1.036.13.389.26.648.389.907s.39.518.649.648.519.389.909.389c.39.13.779.13 1.169.13s.909-.13 1.428-.13c.519-.13 1.039-.259 1.558-.518s1.169-.648 1.818-1.036c.649-.518 1.428-1.166 2.337-1.943.909-.907 1.818-1.943 3.116-3.627 1.299-1.554 2.727-3.756 4.155-5.959l3.506-.777c-1.039 1.943-1.948 3.756-2.597 5.052-.519 1.295-.779 1.813-.779 2.332-.39 1.813-.519 3.627.26 5.052.26.389.519.777.909 1.166.39.259.909.518 1.428.777.519.13 1.169.259 1.818.259 1.558 0 2.986-.389 4.934-1.554a11.51 11.51 0 0 0 2.337-1.813c1.039-.907 2.207-2.072 3.506-3.497-.13 1.166-.13 2.332-.13 2.979 0 .777 0 1.036.13 1.295 0 .259.13.518.13.648.13.13.13.259.26.389.26.518.649.648 1.039.777 1.298.389 2.337.13 3.636-.389.519-.259 1.039-.518 1.688-1.036s1.558-1.166 2.337-1.943c0 .518-.13.907 0 1.295 0 .389 0 .518.13.777 0 .259.13.518.26.777.39.518.909.648 1.558.777h.909c1.169 0 2.467-.389 3.895-1.425.779-.518 1.558-1.166 2.467-2.073s1.948-2.072 2.986-3.497 2.078-3.109 3.116-4.922l-.909-.259c-1.428 1.943-2.727 3.497-3.636 4.534zm-40.643-.13c-.909 1.295-1.428 1.684-1.688 1.943-.389.259-.649.518-.779.648-.26.13-.389.259-.649.389-.909.389-1.948.518-2.597-.518-.26-.389-.26-.777-.26-1.295 0-.259.13-.777.26-1.295s.389-1.166.909-2.073c.39-.907 1.039-1.943 1.818-3.109s1.818-2.461 2.857-3.627c.39.648.909 1.166 1.299 1.684.39.389.649.648 1.169.907.389.259 1.039.518 1.688.777-1.558 2.073-3.116 4.275-4.025 5.57zm6.363-11.399c0 .259-.13.648-.13.907-.13.259-.13.648-.39 1.166l-1.039 2.073c-.519-.13-1.039-.389-1.428-.518-.39-.259-.649-.389-.909-.518a1.01 1.01 0 0 1-.519-.518l-.389-.389c-.649-1.166-.649-2.461.649-3.627.13-.13.39-.389.649-.518l.779-.389c.779-.259 1.428-.518 2.078 0 .779.777.649 1.554.649 2.332zm26.23 10.363c-.389.648-.909 1.295-1.298 1.814s-.649.907-1.039 1.166c-.26.259-.519.518-.779.648-.389.259-.649.389-.909.518-.39.13-.909 0-1.298-.389-.39-.518-.39-.777-.39-1.295 0-.259.13-.518.13-.907.13-.389.26-.907.519-1.425.26-.648.649-1.295 1.169-2.332.519-.907 1.298-2.073 2.078-3.238.909-1.166 1.818-2.461 2.727-3.368.909-1.036 1.688-1.813 2.337-2.461s1.169-.907 1.428-1.166c.389-.259.649-.389.779-.389.389-.13.649-.13 1.039 0 .519.389.26 1.036.26 1.425 0 .13-.13.259-.39.648s-.779 1.166-1.169 1.943l-5.194 8.808zm90.376 20.078l-.39-1.554h-.649v2.332h.39V49.28l.519 1.813h.519l.52-1.813v1.813h.389v-2.332h-.649l-.649 1.554zm3.116 0c-.13-.13-.13-.13-.259-.13.259 0 .389-.13.519-.259s.13-.259.13-.389 0-.259-.13-.389l-.26-.259h-.519-1.039v2.332h.519v-.907h.13.26s.13 0 .13.13c0 0 .13.13.26.389l.389.518h.519l-.259-.389c-.26-.518-.39-.648-.39-.648zm-.779-.518h-.389v-.518h.389.39c.129 0 .13 0 .13.13v.13.13l-.13.13h-.39z" fill="#ccc"/></g><defs><clipPath id="A"><path fill="#fff" d="M3 2h164v50H3z"/></clipPath></defs></svg>