<svg xmlns="http://www.w3.org/2000/svg" width="170" height="54" fill="#ccc" fill-rule="evenodd" xmlns:v="https://vecta.io/nano"><path d="M14.851 44.592c.532-.975 1.152-1.95 1.861-2.836l-1.773.266C12.813 45.478 9.179 49.2 4.747 49.2c-1.595 0-2.57-.709-2.57-1.773 0-.62.443-1.152.975-1.152s.975.266.975.886-.443.886-.798.886c-.177 0-.355 0-.355.177 0 .443.975.62 1.773.62 3.988 0 6.558-4.254 8.42-6.736-2.127.443-3.988 1.418-5.229 2.57l-.177-.089c.886-1.064 3.634-2.57 5.584-2.748 1.595-2.304 4.963-6.204 7.711-7.977v-.089c-1.152.709-2.127 1.152-3.191 1.152-1.861 0-2.482-1.861-4.786-1.861s-4.875 2.127-4.875 4.431c0 1.418 1.064 2.038 2.038 2.038 1.95 0 4.609-2.216 5.052-3.988h.177c-.443 2.127-2.57 4.254-4.963 4.254-1.595 0-2.57-.798-2.57-2.482 0-2.482 3.722-5.052 6.027-5.052 2.038 0 3.191 2.038 5.052 2.038 1.152 0 2.393-.886 3.368-1.684l.089.266c-3.191 2.304-5.318 5.495-7.445 8.685l1.772-.266c.886-1.329 2.127-2.659 2.659-3.102l.089.089c-.798.709-1.684 1.95-2.304 3.013l1.773-.266c1.418-1.861 7.179-8.508 9.572-8.508.443 0 .709.266.709.62 0 2.836-5.849 7.445-8.686 7.888-.975 1.418-3.634 4.697-3.634 6.47 0 .886.798 1.329 1.595 1.329 3.368 0 6.824-4.165 6.824-5.761 0-.709-.355-1.152-.975-1.152-1.507 0-3.191 1.773-4.077 2.748h-.266c.975-1.152 2.659-3.013 4.343-3.013.886 0 1.329.62 1.329 1.595 0 2.747-4.343 5.938-6.824 5.938-1.773 0-2.393-.886-2.393-2.393 0-1.773 1.595-3.988 2.482-5.318l-1.684.266c-.532.709-1.152 1.773-1.684 2.836h-.798zm13.826-11.699c-1.595 0-7.002 7.002-7.799 7.977 3.013-.62 8.242-5.495 8.242-7.711 0-.177-.177-.266-.443-.266zm6.647 12.053c-.355.266-1.064.709-1.773.709-.532 0-.886-.177-1.152-.443-2.216 2.747-4.077 3.988-5.849 3.988-.62 0-1.418-.532-1.418-1.418 0-2.216 4.254-6.204 6.736-6.204.443 0 .798.177.886.532.089-.089.177-.089.266-.089.354 0 .443.266.443.62 0 .798-.532 1.95-.975 2.393a1.7 1.7 0 0 0 1.063.355c.355 0 1.064-.266 1.684-.709l.089.266zm-2.836-2.659c0-.177-.177-.443-.532-.443-.975 0-2.836 2.216-5.318 5.052-.532.62-.62.975-.62 1.418 0 .266.177.62.798.62 1.595 0 3.722-1.772 5.318-3.9-.177-.354-.266-.709-.266-1.152 0-.709.266-1.329.62-1.595z"/><path d="M42.326 37.235h1.507l-2.925 3.102h1.507l-.177.266h-1.507l-5.672 6.115c-.975 1.064-1.507 1.595-1.507 1.861 0 .177.266.266.532.266.62 0 2.038-.62 5.761-3.988l.177.177c-3.191 2.925-5.052 4.166-6.027 4.166-.532 0-.798-.355-.798-.886 0-.62.355-1.507 1.684-2.925l4.343-4.697h-1.507l.177-.266h1.595l2.836-3.191z"/><path d="M47.112 45.301c-2.127 1.861-4.875 3.9-7.356 3.9-.709 0-1.507-.266-1.507-1.063 0-2.482 4.52-6.293 7.002-6.293.532 0 .975.443.975.975 0 2.127-4.077 3.279-5.672 3.279-1.418 1.507-1.595 2.038-1.595 2.304 0 .443.443.532.886.532 2.038 0 4.431-1.684 7.179-3.9v.266h.089zm-1.861-3.279c-.886 0-2.127 1.064-4.52 3.722 2.481 0 4.963-2.127 4.963-3.279 0-.266-.177-.443-.443-.443z"/><path d="M53.316 45.566c-3.457 3.102-5.229 3.545-6.204 3.545-.886 0-1.329-.532-1.329-1.418 0-2.747 11.61-15.067 13.915-15.067a.74.74 0 0 1 .798.798c0 2.659-6.736 7.002-10.192 9.306 0 0-4.077 4.963-4.077 5.495a.51.51 0 0 0 .532.532c1.329 0 3.013-.709 5.672-3.013l.886-.177zm6.558-12.585c-.886 0-4.166 3.013-9.04 9.217h.089c4.431-3.102 9.395-6.293 9.395-8.597 0-.443-.177-.62-.443-.62zm15.51 9.041c-1.507 1.418-3.545 3.722-5.229 5.495-.355.443-.532.709-.532.886 0 .354.266.443.532.443 1.418 0 4.874-2.747 5.938-3.988l.266.177c-1.152 1.152-4.609 4.077-6.292 4.077-.62 0-.975-.443-.975-.886 0-.355.089-.62.266-.886h-.089c-1.329 1.152-2.482 1.861-3.368 1.861s-1.507-.532-1.507-1.507c0-2.836 5.052-5.938 6.913-5.938.709 0 1.418.355 1.418.886 0 .177 0 .266-.089.532h.089l1.152-1.152h1.507zm-3.811 0c-.975 0-1.861.443-5.672 4.52-.886.975-.886 1.507-.886 1.773 0 .354.266.62.886.62 2.127 0 6.558-4.875 6.558-6.027-.089-.62-.532-.886-.886-.886z"/><path d="M78.929 42.021h1.418l-2.038 2.127.089.089c1.064-.975 2.836-2.393 3.9-2.393.798 0 1.418.532 1.418 1.418 0 1.861-3.9 4.609-3.9 5.406 0 .177.089.266.355.266.709 0 2.216-1.063 5.406-3.988v.266c-2.482 2.304-4.52 3.988-5.406 3.988-.532 0-.886-.266-.886-.975 0-1.773 3.9-4.52 3.9-5.406 0-.355-.266-.62-.709-.62-1.418 0-5.052 3.102-8.154 6.736h-1.595l6.204-6.913z"/><path d="M99.845 35.197h1.684L89.919 47.25c-.709.709-.886 1.063-.886 1.329s.177.355.62.355c1.329 0 2.925-1.063 6.027-3.988l.089.177c-3.279 3.013-4.697 4.077-6.293 4.077-.355 0-.975-.177-.975-.798 0-.355 0-.62.177-.886-.975.975-2.216 1.773-3.191 1.773-1.063 0-1.418-.709-1.418-1.507 0-2.482 4.254-5.85 6.736-5.85.798 0 1.507.266 1.507.886 0 .266-.089.443-.177.709l7.711-8.331zm-8.774 6.913c-1.063 0-4.52 2.836-5.761 4.609-.62.886-.709 1.152-.709 1.507 0 .443.355.709.886.709 1.861 0 6.47-4.963 6.47-6.027-.089-.532-.443-.798-.886-.798zm22.245-7.356c0 3.102-3.013 6.824-6.115 6.824-1.329 0-2.038-.886-2.038-2.127 0-3.456 5.849-7.09 11.255-7.09 1.507 0 2.836.266 3.545.62a5.64 5.64 0 0 1 1.596-.532l.088.177c-.443.177-.886.355-1.329.443 1.152.62 2.127 1.684 2.127 3.013 0 2.393-2.836 3.9-4.874 4.254.177.355.265.62.265.975 0 1.595-3.456 4.077-3.456 6.115 0 .975.886 1.418 1.772 1.418 2.039 0 5.673-3.368 5.673-5.406 0-.62-.532-1.064-1.152-1.064-.887 0-2.039 1.064-2.571 1.773l-.266-.089c.621-.709 1.773-1.95 2.837-1.95.709 0 1.506.443 1.506 1.507 0 2.393-3.19 5.584-5.938 5.584-1.507 0-2.57-.975-2.57-2.57 0-2.393 3.545-4.52 3.545-6.204-.266.089-.709.177-1.329.177-.798 0-1.507-.532-1.507-1.152h-.089c-2.747 3.9-6.204 9.838-11.787 9.838-1.684 0-2.748-.709-2.748-1.861 0-.709.621-1.152 1.064-1.152a1.02 1.02 0 0 1 1.063 1.064c0 .798-1.152.709-1.152.886 0 .355.798.709 1.861.709 5.938 0 10.459-13.383 17.017-15.687-.886-.443-2.393-.532-3.013-.532-6.204 0-11.167 4.077-11.167 6.647 0 1.064.531 2.038 1.772 2.038 2.127 0 5.85-3.634 5.85-6.559h.265v-.089zm6.647-1.507c-1.506.886-3.013 2.216-5.494 5.672l.088.089c.177-.177.532-.177.886-.177.532 0 1.596.266 2.039 1.152 1.861-.443 3.9-2.481 3.9-4.343 0-1.152-.621-1.861-1.419-2.393zm-2.836 6.913c-.177-.709-.975-.975-1.772-.975-.443 0-.709.089-.709.355s.443.709 1.329.709c.443 0 .887 0 1.152-.089zm13.915 5.141c-2.127 1.861-5.229 3.9-7.622 3.9-.709 0-1.506-.266-1.506-1.063 0-2.482 4.52-6.293 7.001-6.293.532 0 .975.443.975.975 0 2.127-4.077 3.279-5.672 3.279-1.418 1.507-1.595 2.038-1.595 2.304 0 .443.443.532.886.532 2.038 0 4.786-1.684 7.445-3.9v.266h.088zm-2.127-3.279c-.886 0-2.127 1.064-4.52 3.722 2.482 0 4.963-2.127 4.963-3.279 0-.266-.177-.443-.443-.443zm17.903 2.924c-.443.266-1.064.709-1.861.709-.532 0-.798-.177-1.152-.443-2.216 2.747-4.077 3.988-5.761 3.988-.709 0-1.507-.532-1.507-1.418 0-2.216 4.343-6.204 6.736-6.204.443 0 .797.177.975.532.088-.089.177-.089.266-.089.265 0 .443.266.443.62 0 .798-.621 1.95-.975 2.393.266.266.62.355.975.355.443 0 1.152-.266 1.684-.709l.177.266zm-2.836-2.659c-.089-.177-.266-.443-.532-.443-.975 0-2.836 2.216-5.318 5.052-.531.62-.709.975-.709 1.418 0 .266.266.62.887.62 1.595 0 3.722-1.772 5.317-3.9-.177-.354-.266-.709-.266-1.152 0-.709.266-1.329.621-1.595z"/><path d="M149.122 42.022h1.596l-2.925 3.191c.709-.532 1.684-.886 2.836-1.329.177-.975 1.418-2.127 1.95-2.127.354 0 .532.089.532.443 0 .798-1.507 1.684-2.216 1.861 0 .62.266 1.152.798 1.152.443 0 3.988-1.684 4.165-1.861l.089.177c-.178.177-3.9 1.95-4.254 1.95-.621 0-1.064-.532-1.064-1.418-1.95.443-3.279 1.507-4.609 2.925l-1.418 1.684h-1.506l6.026-6.647z"/><path d="M160.467 37.235h1.595l-2.925 3.102h1.418l-.177.266h-1.507l-5.672 6.115c-.886 1.064-1.418 1.595-1.418 1.861 0 .177.266.266.443.266.709 0 3.102-.443 6.913-3.722l-.088.177c-2.925 2.925-5.761 3.9-6.913 3.9-.532 0-.798-.355-.798-.886 0-.62.443-1.507 1.772-2.925l4.343-4.697h-1.595l.266-.266h1.506l2.837-3.191zM4.836 5.064H2v-.709h15.776l.177 5.761h-.709c-.443-1.861-.798-3.9-2.748-4.697-.62-.266-1.772-.355-2.925-.355H8.558v8.154c2.659 0 4.166-.443 4.343-3.457h.709v7.977h-.709c-.266-3.191-1.329-3.9-4.343-3.722v8.597h2.747v.709H2v-.709h2.836V5.064zm13.56 10.901c0-3.456 3.013-7.002 6.647-7.002 3.457 0 6.647 3.456 6.647 7.002 0 3.9-2.393 7.799-6.647 7.799s-6.647-3.988-6.647-7.799zM28.5 13.749c0-.798-.089-1.507-.355-2.127-.354-1.329-1.329-2.216-3.102-2.216-1.95 0-2.836.886-3.191 2.216-.266.62-.354 1.241-.354 2.127v4.609c0 .798 0 1.684.177 2.393.443 1.507 1.329 2.482 3.279 2.482 2.038 0 2.836-.975 3.191-2.482.177-.709.266-1.595.266-2.393v-4.609h.089zm19.41-4.52v.532h-2.127v8.863c0 2.127-.443 3.102-1.329 3.988-.886.709-2.216 1.064-4.166 1.064-1.507 0-2.836-.443-3.722-1.152-.886-.62-1.329-2.038-1.329-4.431V9.761H33.11v-.532h6.913v.532h-2.127v7.711c0 2.925-.266 5.495 3.545 5.495 2.481 0 3.456-1.595 3.456-3.9V9.761h-2.038v-.532h5.052zm6.381 13.56h2.127v.532h-6.913v-.532h2.127V9.761h-2.127v-.532h7.09c2.304 0 5.052.266 5.052 3.191 0 2.393-2.481 3.191-4.52 3.456 3.279.532 4.077 2.304 4.077 5.761 0 .709.089 1.595 2.127 1.152v.443c-.532.177-1.152.266-1.773.266-2.216 0-3.279-1.064-3.279-3.191 0-1.773-.266-3.102-.798-3.545-.62-.443-1.329-.709-1.95-.709h-1.152v6.736h-.089zm0-7.268h1.773c1.95 0 2.659-.886 2.659-2.836 0-2.304-.62-2.925-2.57-2.925h-1.861v5.761zm17.902 8.066h-.443v-5.672h.798c.532 2.747 2.216 5.229 5.229 5.229 2.216 0 4.254-1.684 4.254-3.988 0-2.659-2.393-3.191-4.52-3.988l-1.772-.532c-2.57-.798-3.988-2.747-3.988-5.495 0-2.925 2.216-5.14 5.229-5.14 1.684 0 2.836.355 4.166 1.418l1.063-1.064h.443v5.318h-.886C81.5 7.014 79.728 4.71 76.891 4.71c-1.861 0-3.545 1.418-3.545 3.279 0 2.216 1.595 2.393 3.279 2.836l1.773.532 1.95.62c2.393 1.152 3.191 3.013 3.191 5.584 0 3.545-2.304 6.204-5.938 6.204-1.418 0-3.102-.532-4.077-1.507l-1.329 1.329zM91.071 9.761v6.027c2.038 0 3.102-.266 3.191-2.57h.532v5.849h-.532c-.177-2.304-.886-2.836-3.191-2.748v6.47h2.925c2.747 0 3.368-1.595 3.9-3.988h.532l-.177 4.52H86.197v-.532h2.127V9.761h-2.127v-.532h11.787l.089 3.9h-.532c-.443-2.038-1.329-2.836-2.393-3.102-.532-.177-1.064-.177-1.861-.177h-2.216v-.089zm8.951 13.649v-.532h1.773l5.052-13.826h.709l4.786 13.826h1.772v.532h-6.735v-.532h2.215l-1.329-3.634h-4.609l-1.329 3.634h2.127v.532h-4.432zm3.811-4.786h4.166l-1.95-5.938-2.216 5.938z"/><path d="M116.241 23.587h-.354v-4.254h.531c.444 2.038 1.684 3.9 3.989 3.9 1.684 0 3.102-1.329 3.102-2.925 0-2.038-1.773-2.393-3.28-2.925-.443-.177-.886-.266-1.329-.443-2.038-.532-2.925-2.038-2.925-4.077a3.82 3.82 0 0 1 3.9-3.9c1.152 0 2.127.266 3.013.975l.798-.798h.354v4.077h-.62c-.266-2.038-1.595-3.722-3.634-3.722-1.418 0-2.658.975-2.658 2.482 0 1.595 1.152 1.773 2.481 2.127l1.33.443c.443.089.974.266 1.506.443 1.773.798 2.393 2.216 2.393 4.166 0 2.659-1.772 4.697-4.52 4.697-.975 0-2.304-.443-3.013-1.063l-1.064.798zm11.256-7.622c0-3.456 3.013-7.002 6.647-7.002 3.457 0 6.559 3.456 6.559 7.002 0 3.9-2.393 7.799-6.559 7.799-4.254 0-6.647-3.988-6.647-7.799zm10.015-2.216c0-.798-.089-1.507-.266-2.127-.443-1.329-1.329-2.216-3.102-2.216-1.95 0-2.836.886-3.19 2.216-.178.62-.266 1.329-.266 2.127v4.609c0 .798 0 1.684.177 2.393.354 1.507 1.329 2.482 3.279 2.482 2.039 0 2.836-.975 3.191-2.482.177-.709.177-1.595.177-2.393v-4.609zm17.194 9.926h-.621l-8.951-13.471v12.585h2.038v.62h-4.786v-.62h2.039V9.761h-2.039v-.532h5.407l6.292 9.306V9.761h-2.038v-.532h4.786v.532h-2.127v13.915zm4.697-.088h-.354v-4.254h.62c.443 2.038 1.684 3.9 3.9 3.9 1.684 0 3.19-1.329 3.19-2.925 0-2.038-1.861-2.393-3.368-2.925-.354-.177-.797-.266-1.329-.443-1.95-.532-2.925-2.038-2.925-4.077a3.82 3.82 0 0 1 3.9-3.9c1.329 0 2.127.266 3.102.975l.797-.798h.355v4.077h-.709c-.177-2.038-1.507-3.722-3.545-3.722-1.418 0-2.659.975-2.659 2.482 0 1.595 1.064 1.773 2.393 2.127l1.418.443c.354.089.886.266 1.418.443 1.773.798 2.393 2.216 2.393 4.166 0 2.659-1.773 4.697-4.431 4.697-.975 0-2.305-.443-3.014-1.063l-1.152.798zm6.47 21.891c-.266.266-2.216 1.684-4.077 2.393.177-.266.355-.443.532-.62.532-.62.797-1.329.797-2.216-.088-.975-.886-1.684-1.506-2.482.354-.355 1.063-1.063 1.063-1.773 0-.177-.177-.355-.354-.355-.798 0-1.152.886-1.152 1.595 0 .177.177.532.177.532-1.064 1.684-3.279 3.102-3.9 3.634-.177.177-.797.886-.797 1.684-.089.798.088 1.595 1.329 1.595.798 0 2.127-.354 3.191-1.063 2.393-.709 4.786-2.659 4.786-2.659l-.089-.266zm-8.065 3.722c-.709 0-.798-.62-.798-1.152a2.41 2.41 0 0 1 .709-1.418c.443-.532 2.659-2.038 3.9-3.9 0 0 .62 1.063.62 1.684.177 2.216-3.013 4.609-4.431 4.786zm-19.764-3.811c-.266.177-2.216 1.595-4.077 2.304.177-.177.354-.443.531-.62.532-.62.798-1.329.798-2.216-.089-.975-.886-1.684-1.507-2.393.355-.443 1.064-1.152 1.064-1.773 0-.177-.177-.443-.355-.443-.797 0-1.152.886-1.152 1.595 0 .266.178.532.178.532-1.064 1.684-3.28 3.191-3.9 3.634-.177.266-.798.975-.798 1.684-.088.798.089 1.595 1.33 1.595.797 0 2.127-.355 3.19-1.064 2.393-.709 4.786-2.659 4.786-2.659l-.088-.177zm-8.154 3.634c-.709.089-.798-.532-.798-1.152.089-.532.355-.975.709-1.418.443-.532 2.659-2.038 3.9-3.9 0 0 .62 1.063.62 1.684.177 2.216-3.013 4.697-4.431 4.786zm-69.218-3.634c-.355.266-2.216 1.684-4.165 2.304.177-.177.443-.355.532-.62.532-.62.886-1.152.798-2.216-.089-.975-.886-1.684-1.507-2.393.355-.355 1.063-1.064 1.063-1.773 0-.177-.177-.354-.355-.354-.709 0-1.063.886-1.063 1.595 0 .177.089.532.089.532-1.063 1.684-3.191 3.102-3.722 3.634-.266.177-.798.886-.886 1.684s.089 1.507 1.329 1.507c.798 0 2.127-.266 3.191-1.064 2.393-.62 4.786-2.57 4.786-2.57l-.089-.266zm-8.154 3.634c-.709.089-.798-.532-.709-1.152 0-.532.355-.975.62-1.418.443-.532 2.659-2.038 3.988-3.722 0 0 .532.975.532 1.684.177 2.127-2.925 4.52-4.431 4.609z"/></svg>