<svg xmlns="http://www.w3.org/2000/svg" width="170" height="54" fill="#ccc" xmlns:v="https://vecta.io/nano"><path d="M2 9h16.863v17.126H2V9zm18.585 0h16.863v17.126H20.585V9zm133.479 6.521c1.56-1.029 3.565-1.121 5.317-.638l.01 3.178c-.83-.37-1.813-.617-2.684-.247-.699.278-1.104 1.008-1.215 1.728-.132.915-.041 1.851-.071 2.777h5.337l.021-3.518 3.605-1.111.01 4.639 3.606-.01v3.003l-3.626-.02v5.184l.061 2.87c.071.566.263 1.183.79 1.481.871.494 1.975.278 2.775-.267v3.034c-1.043.463-2.208.596-3.332.514-1.074-.082-2.178-.473-2.876-1.337-.811-.977-1.013-2.294-1.034-3.538v-7.961h-5.337v12.497h-3.646V25.293c-.841-.021-1.692 0-2.542-.01V22.31l2.532-.01c.06-1.316-.132-2.664.253-3.95.324-1.131 1.053-2.17 2.046-2.829zm-78.078.216c.739-.113 1.529.144 2.015.73.567.638.679 1.656.253 2.407-.466.843-1.519 1.234-2.431 1.029-.942-.175-1.732-1.07-1.691-2.067-.03-1.039.841-1.975 1.853-2.098zm-27.953.463h5.307l4.963 12.765 1.256 3.199 6.391-15.953 5.105-.01v21.6c-1.226 0-2.451.01-3.677-.01l.01-15.943-.02-.72a3.56 3.56 0 0 0-.192.35l-6.35 16.303-2.623.021-6.482-16.334-.182-.329-.02 6.984v9.669h-3.474l-.01-21.59zm37.99 6.099c1.762-.514 3.656-.494 5.419.021a4.42 4.42 0 0 1 1.043.442l-.01 3.538c-1.175-.915-2.664-1.491-4.163-1.296-1.185.113-2.319.73-3.028 1.707-.912 1.203-1.124 2.808-.962 4.289.122 1.152.588 2.314 1.469 3.075.922.833 2.208 1.121 3.413 1.029 1.185-.144 2.309-.648 3.271-1.368l.01 3.353c-1.489.905-3.282 1.131-4.983 1.049-1.742-.093-3.484-.761-4.75-2.016-1.377-1.347-2.117-3.261-2.208-5.184-.091-1.995.314-4.083 1.438-5.75.942-1.409 2.421-2.417 4.041-2.89zm39.834-.226c1.681-.298 3.454-.082 5.044.535v3.405c-1.114-.782-2.482-1.193-3.829-1.152-.678.031-1.428.319-1.742.977-.243.648-.081 1.502.527 1.892 1.033.7 2.269.998 3.342 1.636.841.483 1.661 1.111 2.087 2.016.8 1.697.466 3.95-.952 5.215-1.347 1.275-3.292 1.635-5.075 1.563-1.266-.082-2.542-.339-3.707-.864l.011-3.579c.982.72 2.106 1.245 3.312 1.45.83.134 1.742.144 2.521-.237.74-.37.882-1.45.436-2.108-.415-.504-1.023-.782-1.59-1.059-1.074-.494-2.208-.905-3.15-1.635-.668-.525-1.165-1.265-1.367-2.098-.294-1.234-.203-2.623.506-3.693.8-1.255 2.198-2.006 3.626-2.263zm-25.229.484c1.002-.617 2.289-.668 3.382-.288v3.703c-.719-.473-1.62-.679-2.461-.586-1.033.123-1.853.926-2.279 1.851-.466.977-.547 2.088-.517 3.158V37.8h-3.596V22.33h3.596v2.654c.385-.967.962-1.903 1.874-2.428zm-26.161-.237l3.626.01-.01 15.47h-3.616V22.32z"/><path d="M115.941 22.67c-1.62-.751-3.463-.854-5.216-.627-1.833.226-3.625 1.111-4.79 2.613-1.064 1.327-1.58 3.034-1.681 4.731-.142 1.995.182 4.114 1.337 5.781.982 1.44 2.532 2.427 4.213 2.787a10.32 10.32 0 0 0 4.274 0c1.631-.339 3.17-1.265 4.183-2.623.992-1.275 1.489-2.89 1.6-4.505.111-1.656-.051-3.363-.729-4.886-.638-1.43-1.783-2.623-3.191-3.271zm-1.073 3.353c-.79-.802-1.955-1.121-3.049-1.049-.871.051-1.752.35-2.42.967-.892.823-1.297 2.037-1.408 3.23-.122 1.306-.031 2.685.557 3.878.456.926 1.296 1.646 2.289 1.913.972.257 2.036.237 2.977-.134.811-.319 1.449-.998 1.793-1.79.527-1.183.577-2.51.517-3.785-.091-1.162-.416-2.386-1.256-3.23zm30.344-3.24c-1.661-.854-3.586-.977-5.409-.751-1.468.195-2.917.761-4.041 1.759-1.377 1.193-2.177 2.952-2.41 4.752-.223 1.8-.142 3.693.577 5.38.699 1.656 2.066 2.993 3.707 3.651 1.62.648 3.423.72 5.135.442 1.752-.298 3.403-1.224 4.487-2.664 1.154-1.491 1.65-3.405 1.65-5.277.021-1.245-.131-2.52-.567-3.693-.557-1.532-1.681-2.87-3.129-3.6zm-1.509 3.075c-.79-.71-1.884-.946-2.917-.874-1.013.051-2.016.494-2.674 1.296-.719.854-1.023 1.985-1.104 3.086-.081 1.131 0 2.314.436 3.374.364.895 1.043 1.666 1.924 2.047.82.36 1.742.422 2.613.288.81-.123 1.6-.514 2.127-1.162s.8-1.461.942-2.273c.172-1.101.182-2.222-.031-3.312-.182-.936-.587-1.851-1.316-2.469z" fill-rule="evenodd"/><path d="M2 27.874h16.863V45H2V27.874zm18.585 0h16.863V45H20.585V27.874z"/></svg>