<svg xmlns="http://www.w3.org/2000/svg" width="170" height="54" fill="none" xmlns:v="https://vecta.io/nano"><g clip-path="url(#A)" fill="#ccc"><path d="M65.632 20.21c0-4.484-3.039-6.631-9.183-6.631-2.522 0-4.979.126-6.402.253 0 0-.453.063-.453.505v21.789s0 .442.453.442h3.686s.453 0 .453-.442v-8.21s0-.442.453-.442h2.069s.453 0 .647.379L61.3 36.19s.194.379.647.379h4.139s.453 0 .259-.379l-4.785-9.474s-.194-.379-.194-.442c0 0 0 .063 0 0 0 0 0-.063.453-.189 2.005-.695 3.815-2.905 3.815-5.874zm-4.656.253c0 2.147-1.617 3.474-4.139 3.474h-2.134s-.453 0-.453-.442v-5.81s0-.442.259-.442 1.099-.063 2.263-.063c2.587-.063 4.203.695 4.203 3.284zm106.571 16.042s.453 0 .453-.442V14.084s0-.442-.453-.442h-3.492s-.453 0-.453.442v8.337.884l.13 5.937v.442h0s-.065 0-.194-.379c-2.328-4.989-5.497-10.358-8.278-15.284 0 0-.194-.379-.646-.379h-4.398s-.452 0-.452.442v21.979s0 .442.452.442h3.492s.453 0 .453-.442v-8.716-.884l-.129-5.937s0-.442.064-.442c0 0-.064 0 0 0 0 0 .065 0 .259.379 1.552 3.284 4.074 7.642 8.536 15.6 0 0 .194.379.647.379h4.009v.063zm-31.04.316c6.337 0 9.247-3.41 9.247-10.168V14.084s0-.442-.452-.442h-3.816s-.452 0-.452.442V27.6c0 3.663-1.552 5.558-4.462 5.558-2.781 0-4.398-2.084-4.398-5.558V14.084s0-.442-.452-.442h-3.816s-.452 0-.452.442v13.263c.064 6.505 3.362 9.474 9.053 9.474zm-36.084-23.179s-.453 0-.647.379l-2.199 5.116-1.875 5.053h-.065s-.065 0-.194-.379L93.698 19.2l-2.134-5.116s-.194-.379-.582-.379h-4.397s-.453 0-.259.379l6.661 13.263a2.02 2.02 0 0 0 .194.821v7.958s0 .442.453.442h4.009s.453 0 .453-.442v-8.021s0-.442.194-.821l6.725-13.263s.194-.379-.258-.379h-4.333zm19.465 13.389s-.453 0-.453.442v4.863s0 .442-.258.505-1.1.189-2.134.189c-4.333 0-7.114-2.968-7.114-7.958 0-5.179 2.91-7.895 7.308-7.895 2.263 0 4.526.379 5.949.947l.129-3.284s0-.442-.388-.632c-.905-.379-3.168-.884-5.82-.884-7.566 0-12.092 4.8-12.092 11.874 0 6.758 3.815 11.495 11.64 11.495 2.716 0 5.561-.568 6.79-1.011 0 0 .388-.126.388-.569v-7.642s0-.442-.453-.442h-3.492zm-44.879.001l1.099-4.295 1.358-5.368h.129s.129 0 .194.442l1.229 4.926 1.164 4.295h4.721l-4.009-13.01s-.129-.442-.582-.442h-5.109s-.453 0-.582.442l-4.074 13.011h4.462zm10.993 3.536h-4.85L82.64 36l.065.253s.065.253.517.253h4.139s.453 0 .323-.379l-1.681-5.558zm-16.554 0l-1.681 5.495s-.129.379.323.379h4.009s.453 0 .582-.379l1.423-5.495h-4.656zm-46.755-5.999l-1.94-.316.841-4.105-3.427 5.179 2.005.316-.97 4.295 3.492-5.368zm5.885 11.684l-.323-5.621-1.487.126a8.57 8.57 0 0 1-6.208 2.653c-3.169 0-6.143-1.768-7.631-4.484l-.582-.19.259.632-1.099-.126c-.323-.063-.711-.063-1.035-.126.841 1.642 2.263 3.158 4.009 4.295 1.099 1.137 1.746 2.716 1.746 4.421a6.5 6.5 0 0 1-.711 2.968c-.065.189-.065.568.194.695.841.316 1.746.568 2.651.568.453 0 .841-.063 1.229-.126l-.129-1.326c0-1.705.647-3.284 1.746-4.421.905.19 2.457.316 2.199.316 0 .947.259 1.768.647 2.59l.582-.568c-.194-.505-.259-1.074-.259-1.642v-.316h1.035l3.169-.316zm-8.019-19.579a8.46 8.46 0 0 1 6.208 2.653c.517 0 .97.063 1.487.126l.323-5.558v-.063l-3.104-.253c-7.566 0-13.903 3.726-15.585 8.779.97-.442 2.005-.821 3.039-1.2 1.487-2.716 4.397-4.484 7.631-4.484zm20.888 8.463c0-1.2-1.035-2.21-2.263-2.21s-2.263 1.011-2.263 2.21 1.035 2.21 2.263 2.21c1.229-.063 2.263-1.011 2.263-2.21z"/><path d="M17.456 13.516c.841 0 1.617.063 2.393.126.647-.189 1.358-.316 2.069-.442a22.4 22.4 0 0 0-7.437-1.263c-2.263 0-4.397.316-6.467.947l.97 2.589c2.522-1.263 5.432-1.958 8.471-1.958zm11.316 11.558c0 3.726.129 7.453.453 11.116.711-.126 1.358-.253 2.005-.442.259-3.537.388-7.074.388-10.674A145.84 145.84 0 0 0 31.23 14.4c-.647-.19-1.293-.316-2.005-.442-.259 3.663-.453 7.326-.453 11.116zM18.167 14.148h-.711c-3.492 0-6.855 1.01-9.765 2.842l2.651 2.968c1.681-2.589 4.462-4.61 7.825-5.81zm18.301 11.873a2.49 2.49 0 0 1-.194-.947c0-.315.065-.632.194-.947a7.82 7.82 0 0 1-4.203-1.263v2.147 2.274c1.229-.758 2.651-1.2 4.203-1.263zm-15.909 5.621c-3.686 0-6.725-2.968-6.725-6.568s3.039-6.568 6.725-6.568 6.725 2.968 6.725 6.568-3.039 6.568-6.725 6.568zm7.566-6.568l.065-4.989-1.746-.126c-1.423-1.579-3.557-2.589-5.949-2.589-3.169 0-5.885 1.768-7.113 4.421a34.1 34.1 0 0 0-7.243 3.347l3.039 1.642c-2.587.505-5.044 1.516-7.178 2.905 2.134-.821 4.462-1.326 6.919-1.326.905 0 1.746.063 2.651.189-.259-.695-.453-1.389-.582-2.084a5.92 5.92 0 0 0 .582 1.326c.582.253 1.229.442 1.811.631 1.293 2.59 4.009 4.421 7.113 4.421 2.393 0 4.462-1.011 5.949-2.59.582 0 1.164-.063 1.746-.126l-.065-5.053z"/></g><defs><clipPath id="A"><path fill="#fff" d="M2 12h166v30H2z"/></clipPath></defs></svg>