<svg xmlns="http://www.w3.org/2000/svg" width="170" height="54" fill="none" xmlns:v="https://vecta.io/nano"><g clip-path="url(#A)" fill-rule="evenodd" fill="#ccc"><path d="M71.54 32.207l-3.467.074h-3.467c-.516 0-.516.221-.516.443s.147.295.442.295c.59 0 1.328 0 1.696.369.148.148.664.886.664 1.477v12.777c0 1.994-.664 2.511-1.401 2.585-.664 0-1.475-.295-2.213-1.255l-5.089-6.352c.074-.222 1.106-.738 2.139-1.403 2.36-1.625 2.434-3.176 2.36-4.579-.074-2.29-1.844-4.801-5.237-4.801-3.835-.074-6.269.369-9.441 0-.443-.074-.516.222-.516.517 0 .222.148.295.443.295.59 0 1.18.074 1.623.369.221.148.737.665.737 1.256v14.697c0 .665-.221 1.182-1.106 1.182-.959 0-1.475-1.551-1.696-2.289l-4.942-15.879h-1.844L33.26 49.858c-.811 1.034-1.18.591-1.254.074-.147-.886.443-1.625.369-2.437l-.369-.148c-.295.443-.442.96-.738 1.403-.664 1.108-1.549 1.477-2.508 1.846-1.992.812-4.499.665-7.228-1.699-1.77-1.625-2.655-3.988-2.877-6.352-.148-2.216.295-4.505 1.475-6.425 1.918-2.954 6.269-4.21 9.367-2.585 1.549.812 1.918 1.994 2.139 3.25.074.369.516.517.811.295.221-.148.148-.443.148-.812-.221-1.403 0-2.806.295-4.21-1.401.074-2.729-.148-4.13-.295-1.475-.148-3.319-.148-5.237.369-5.974 1.551-7.671 6.425-7.523 10.487.148 4.579 2.877 7.238 5.753 8.493 2.065.886 4.647.96 7.007.739l2.434-.221a81.53 81.53 0 0 1 6.417-.074c.516 0 .59-.222.59-.517 0-.222-.147-.295-.442-.295h-.369c-.516-.074-1.254-.148-1.475-.295-.295-.148-.516-1.034-.295-1.625l1.844-4.579h6.417l1.401 4.653c.221.812.074 1.255-.221 1.551s-.885.369-1.475.369h-.516c-.295 0-.442.074-.442.295 0 .295 0 .443.442.517h12.318c.516 0 .516-.222.516-.517 0-.222-.148-.295-.443-.295-1.106 0-2.36-.369-2.36-1.846V34.349c0-.738.221-1.182.516-1.255.738-.369 1.549-.369 2.36-.295 3.319.369 3.835 2.068 4.057 3.693.443 3.767-1.844 5.096-4.278 5.465-.59.074-1.254 0-1.696.148s-.443.886-.074 1.034c.369.074.959-.074 1.328.074l5.311 6.868c.221.295 1.328 1.625 1.623 1.625h9.072c.516 0 .516-.222.516-.443s-.148-.295-.443-.295c-1.106 0-1.623-.591-1.696-1.182-.074-.369-.074-.96-.074-1.477V34.94c0-.665.369-1.329.516-1.477.443-.443.738-.443 1.328-.443.295 0 .442-.074.442-.295 0-.295.074-.591-.369-.517zM37.98 42.768l3.098-7.755 2.213 7.681-5.31.074zm115.504-10.709h-6.196c-.443 0-.516.222-.516.517 0 .222.147.295.442.295s.59.074.885.148c.517.148.959.369 1.18.665s.443.812.443 1.699v11.226c0 .517-.148.886-.811.074L137.552 32.06h-4.425c-.517 0-.517.222-.517.443s.148.295.443.295c.369 0 .664 0 .885.074.738.295 1.475 1.477 1.475 2.585v12.999c0 1.92-3.467 1.994-3.983.369l-5.237-16.913h-1.548l-7.376 17.578c-.517 1.182-1.623.886-1.549.222l.295-1.92c0-.222-.295-.296-.516-.222-.369.148-.295.739-.443 1.108-.369 1.108-1.623 1.551-2.581 1.551h-2.508c-.517 0-1.254-.222-1.475-.591-.369-.665-.517-1.477-.517-2.363v-5.17c0-.222.295-.443.664-.443h3.909a1.5 1.5 0 0 1 1.18.665c.221.37.222.886.295 1.329 0 .148.074.295.148.369.147.148.369.222.516.074v-5.982c0-.148-.442-.148-.516.148-.221.591-.148 1.108-.516 1.551-.148.222-.369.369-.59.517-.295.148-.738.221-1.107.295h-3.393c-.59 0-.59-.222-.59-.665v-5.687c0-.739.295-1.034.738-1.034h4.13c1.033 0 1.475.369 1.844.886.148.148.443.739.517.96s-.074.517.147.665c.295.148.738.221.738-.591l.073-3.176c-4.278.222-8.555.222-12.907-.074-.443 0-.369.221-.369.443s.148.295.443.295c.368 0 .663 0 .958.148.148.074.369.222.517.295.516.369.442 1.182.442 1.846l-.073 14.476c0 .221-.295.517-.517.738l-.664.443c-.295.148-.59.148-.958.148-.295 0-.443.074-.443.295 0 .295 0 .443.516.443h18.145c.516 0 .516-.221.516-.443s-.148-.295-.443-.295-.516 0-.737-.074c-.221 0-.811-.148-.959-.369-.516-.517-.59-1.034-.221-1.994l1.622-3.988h6.196l1.18 3.988c.369 1.329.59 1.846 0 2.216-.221.148-.811.148-.811.148h-.664c-.295 0-.443.074-.443.295 0 .295 0 .443.517.443l11.875-.074c.368 0 .516-.222.516-.517 0-.221-.148-.295-.443-.295h-.59c-.368-.074-.737-.148-1.032-.369s-.664-.591-.664-1.92v-12.63c0-.517.221-.591.442-.369l12.761 16.322h1.18v-16.47c0-.665.147-1.329.59-1.625.295-.221.664-.369.959-.517.295-.074.59-.148.958-.148.295 0 .443-.074.443-.295 0-.295 0-.443-.516-.443zM121.62 43.137l3.172-7.681 2.213 7.755-5.385-.074zm14.678-19.941c-.147-.074-.442 0-.516.222l-.516 1.403c-.443 1.108-1.549 1.477-2.213 1.625-.959.222-2.655.148-3.393-.148-.516-.222-1.106-.665-1.106-1.477V10.567c0-.295-.074-.665.221-1.108.295-.591 1.254-.812 1.844-.812.295 0 .442-.074.442-.295 0-.295 0-.443-.516-.443h-7.376c-.516 0-.516.222-.516.443s.148.295.443.295c.59 0 1.253.222 1.696.665.148.148.369.665.369 1.108v14.771c0 .443-.074.738-.369 1.034-.221.222-.59.295-.885.295-.221 0-.369-.222-.443-.443l-5.826-18.094h-1.844l-7.45 17.578c-.516.591-.811.96-1.18 1.034-.443.148-.664.148-.959.074-.737-.148-1.254-.739-1.254-1.329v-4.727l5.311-10.118c.221-.443.737-1.034 1.032-1.256.443-.295.812-.517 1.402-.517.295 0 .442-.074.442-.295 0-.295 0-.517-.442-.443H106.5c-.442 0-.442.222-.442.443s.147.295.442.295c.59 0 1.18.074 1.844.96.148.222 0 .812-.074 1.182l-3.688 7.312c-.221.517-.663.517-.811.074l-3.466-7.533c-.148-.369-.295-.739-.074-1.108.59-.96 1.549-.96 2.139-.96.295 0 .442-.074.442-.295 0-.295 0-.517-.516-.443l-4.057.074h-3.098c-.516 0-.516.222-.516.443s.148.295.443.295c.59 0 1.18.295 1.549.812.148.222.443.591.59.96l5.015 10.34v4.505c0 .591-.737 1.182-.811 1.255a4.38 4.38 0 0 1-1.918.517c-.295 0-.442.074-.442.295 0 .443.074.517.738.517h13.277c.516 0 .442-.222.442-.443s-.147-.295-.442-.295c-.664 0-1.328-.222-1.697-.369-.737-.222-1.032-1.256-.59-2.216l1.77-4.284h6.27l1.549 5.17c.147.443-.443 1.108-.664 1.329-.443.369-.959.443-1.549.443-.295 0-.443.074-.443.295 0 .296 0 .443.517.443h17.996c.074-1.625 0-1.699.59-4.357 0-.369-.295-.443-.516-.443zm-23.233-4.431l3.024-7.238 2.286 7.312-5.31-.074zM58.263 15.22v-3.324H35.398v3.324h8.777v8.863l-4.352.591c-.59.074-1.623-.812-.885-1.92l1.328-1.994-4.942-3.84 1.106 9.38 10.4 3.323 10.4-3.323 1.106-9.38-4.942 3.84 1.328 1.92c.811 1.182-.221 2.068-.811 1.994l-4.352-.591V15.22h8.703z"/><path d="M53.985 7.835c.369.369.369.591 0 .812l-2.213 1.403-2.36-1.477c-.295-.148-.295-.369 0-.739l1.549-1.625L46.831 2l-4.057 4.284 1.401 1.625c.295.369.295.517-.074.812l-2.213 1.403-2.36-1.477c-.295-.148-.295-.369 0-.739l1.549-1.625-5.753-3.693 1.106 8.272h20.726l1.106-8.272-5.679 3.693 1.401 1.551zM96.1 12.044c-1.77-4.136-6.933-5.465-11.211-3.988-3.614 1.256-6.933 4.284-7.302 9.306-.221 3.767.885 8.272 4.942 9.97s9.293.812 12.17-2.511c2.95-3.545 3.098-8.863 1.401-12.777zm-1.696 6.425c-.221 6.352-4.13 8.863-7.892 8.42-3.319-.369-6.491-3.545-6.269-9.232.148-4.431 2.729-9.084 7.154-8.936 5.679.074 7.154 5.613 7.007 9.749zm-22.422.296c.516-.221 1.328-.591 1.623-.812 2.803-1.846 3.024-3.323 3.024-4.579.074-1.846-.738-3.767-2.36-4.653-.442-.222-.885-.369-1.328-.517-.885-.222-1.844-.369-2.729-.369l-5.606.148c-.959 0-1.475-.074-2.508-.074-.516 0-.516.222-.516.443s.148.295.443.295c.59 0 1.18.148 1.696.591.221.148.59.665.59.96v15.14c0 .369-.295.886-.516 1.034-.148.148-.59.369-.885.443s-.59.148-.959.148c-.295 0-.443.074-.443.295 0 .295 0 .443.516.443h7.302c.516 0 .516-.221.516-.443s-.147-.295-.443-.295a2.85 2.85 0 0 1-1.623-.443c-.443-.295-.516-.812-.516-1.256V9.238c0-.148 1.401-.295 2.36-.295.664 0 1.328 0 1.992.222 1.401.443 2.729 1.625 2.508 4.579-.148 1.994-.959 3.545-3.835 4.21-.59.148-1.18.148-1.77.148-.147 0-.516.074-.59.295s0 .517 0 .517a.71.71 0 0 0 .59.295h.959l6.564 8.641h3.54c.516 0 .516-.221.516-.443s-.148-.295-.442-.295c-.443-.074-.516-.074-.811-.295-.221-.148-.516-.443-.811-.812l-6.048-7.238zm30.388 24.151c-.295-.591-1.697-1.625-3.909-1.699 1.622-.517 2.729-1.92 3.171-2.954.812-2.289.443-4.801-1.918-5.835-.738-.295-1.77-.665-4.425-.443l-6.933.074c-.516 0-.443.222-.443.443s.147.295.443.295c.59 0 1.18.148 1.623.517.295.222.664.96.664 1.255v12.777c0 .517-.074 1.034-.148 1.551-.369 1.403-.811 1.772-1.991 1.772-.295 0-.443.074-.443.295 0 .295 0 .443.516.517 3.098 0 2.287.074 6.638.369 1.549.074 3.762-.222 5.311-1.256 2.139-1.256 3.688-4.062 1.844-7.681zm-9.294-9.01c0-.295.59-.739 1.401-.886.738-.074 1.696-.148 2.434 0 1.77.295 2.729 1.846 2.655 3.767-.074 2.659-1.401 3.397-2.877 3.767-.516.148-3.688.517-3.688-.221v-6.425h.074zm5.163 16.618c-1.254.591-2.803.591-3.835.221-.664-.221-1.254-.591-1.254-1.403v-7.238c0-.665 2.877-.517 4.13-.295 2.434.517 3.097 1.92 3.392 3.323.222 1.625-.221 4.357-2.434 5.392zm-10.768-7.608c-.295-.591-1.696-1.625-3.909-1.699 1.623-.517 2.729-1.92 3.171-2.954.811-2.289.443-4.801-1.918-5.835-.738-.295-1.77-.665-4.425-.443l-6.933.074c-.516 0-.443.222-.443.443s.148.295.443.295c.59 0 1.18.148 1.623.517.295.222.664.96.664 1.255v12.777c0 .591-.074 1.108-.221 1.625-.295 1.108-.664 1.699-1.918 1.699-.295 0-.442.074-.442.295 0 .295 0 .443.516.517 3.098 0 2.286.074 6.638.369 1.549.074 3.762-.222 5.311-1.256 2.139-1.256 3.614-4.062 1.844-7.681zm-9.293-9.01c0-.295.59-.739 1.401-.886.738-.074 1.696-.148 2.434 0 1.77.295 2.729 1.846 2.655 3.767-.074 2.659-1.401 3.397-2.877 3.767-.516.148-3.688.517-3.688-.221v-6.425h.074zm5.163 16.618a5.37 5.37 0 0 1-3.835.221c-.664-.221-1.254-.591-1.254-1.403v-7.238c0-.665 2.877-.517 4.13-.295 2.434.517 3.098 1.92 3.393 3.323.221 1.625-.221 4.357-2.434 5.392z"/></g><defs><clipPath id="A"><path fill="#fff" d="M16 2h138v50H16z"/></clipPath></defs></svg>