<svg xmlns="http://www.w3.org/2000/svg" width="170" height="54" fill="#ccc" xmlns:v="https://vecta.io/nano"><path d="M168 17.366a2.617 2.617 0 1 1-5.233 0 2.617 2.617 0 1 1 5.233 0zm-.539 0c0-1.151-.923-2.072-2.078-2.072s-2.078.921-2.078 2.072.924 2.072 2.078 2.072 2.078-.921 2.078-2.072zm-1.462.384l.539.844h-.616l-.385-.691h-.077-.539v.691h-.538v-2.533h1.077c.693 0 1.001.307 1.001.844.077.384-.154.691-.462.844zm-.539-.384c.308 0 .539-.153.539-.46s-.154-.46-.539-.46h-.539v.921h.539zM26.627 42.235c-3.771-2.226-6.08-6.447-5.772-11.129.231-4.835 2.386-8.52 6.772-10.746 4.464-2.226 11.005-1.075 14.084 2.456 2.617 2.994 3.078 6.678 2.694 10.515H28.782c.154.537.154.998.385 1.382 1.462 2.763 6.234 3.3 7.773.23.385-.767.847-.921 1.693-.691 1.462.461 3.001.844 4.541 1.305.924.307 1.077.537.77 1.458-.924 2.533-2.463 4.221-4.464 5.373 0 0-2.463 1.612-6.388 1.612s-6.465-1.765-6.465-1.765zm2.617-13.969h7.234c-.385-1.765-1.616-2.533-3.925-2.533-1.847.077-3.078.998-3.309 2.533zm-22.857-.538c0-.461-.231-.691-.693-.691H3.308C2.154 27.037 2 26.884 2 25.809V21.05c0-1.075.077-1.151 1.154-1.151h3.232v-2.686-2.84c0-.691.308-.998 1-.998h6.003c.693 0 .923.307.923.921v5.526h3.232c1.077 0 1.154.154 1.154 1.151v4.759c0 1.151-.154 1.228-1.308 1.228h-2.386c-.462 0-.693.23-.693.691v7.138c0 1.228.539 1.612 1.77 1.612l1.693-.077c.616-.077.924.23.924.768v5.066c0 .307-.385.844-.77.921-2.771.844-5.464.844-8.081-.537-2.155-1.151-3.232-3.147-3.386-5.45l-.154-8.673.077-.691zm99.738-1.151V11.149c0-1.305.077-1.305 1.308-1.305h5.618c.847 0 1.155.23 1.155 1.075v13.432c0 .614-.231 1.305-.462 1.842l-2.001 4.298c-.385.844-.385 1.612 0 2.456l.923 1.996c1.386 2.303 1.694 4.759 1.54 7.368-.077.768-.308 1.075-1.078.998h-5.926c-.846 0-1.077-.384-1.077-1.151V26.577zM46.559 26.5V11.149c0-1.305.077-1.382 1.385-1.382h5.695c.77 0 1.001.307 1.001.998v13.509c0 .537-.154 1.151-.385 1.689l-2.001 4.375a2.92 2.92 0 0 0 0 2.533l1.924 4.145c.231.614.385 1.305.462 1.996.077 1.075 0 2.226 0 3.3 0 .461-.154.768-.693.768h-6.541c-.693 0-.77-.461-.77-.921v-4.835V26.5h-.077zm32.631.691v-6.294c0-.307.385-.691.616-.844 5.233-2.686 11.698.768 12.313 6.601.154 1.458.154 2.993.154 4.452v10.976c0 .844-.231 1.151-1.077 1.151-2.232-.077-4.617 0-6.926 0v-1.919c0-3.838.077-7.675-.077-11.513-.077-2.686-1.77-3.684-4.387-2.917l-.616.307zm-16.316-7.138h3.386c1.154 0 1.308.23.847 1.305l-4.156 9.134c-.385.844-.385 1.535 0 2.303l4.156 8.904c.539 1.151.385 1.382-.924 1.458h-6.772c-.77 0-1.231-.307-1.462-.998l-4.387-9.671c-.231-.46-.231-1.228 0-1.688 1.385-3.224 2.924-6.447 4.387-9.671.385-.768.846-1.075 1.693-1.075 1.077.077 2.155 0 3.232 0zm59.49 0h3.386c1.154 0 1.308.23.846 1.305l-4.155 9.134c-.385.844-.385 1.535 0 2.303l4.155 8.904c.539 1.151.385 1.382-.923 1.458H118.9c-.769 0-1.231-.307-1.462-.998l-4.386-9.671c-.231-.46-.231-1.228 0-1.688 1.385-3.224 2.924-6.447 4.386-9.671.385-.768.847-1.075 1.693-1.075 1.001.077 2.078 0 3.233 0zM102.97 31.566v10.515c0 .844-.231 1.151-1.078 1.151h-5.849c-.846 0-1.154-.384-1.154-1.151V20.974c0-.768.308-1.151 1.154-1.151h5.849c.847 0 1.155.384 1.078 1.151v10.592zm34.708.077v10.439c0 .844-.231 1.228-1.154 1.228h-5.849c-.77 0-1.077-.307-1.077-1.075V21.051c0-.768.231-1.151 1.077-1.151h5.926c.77 0 1.077.307 1.077 1.075v10.669zm-59.951 11.59h-6.849c-.77 0-.924-.461-.924-1.075v-8.75-12.127c0-1.228.154-1.381 1.385-1.381h5.618c.616 0 .923.23.923.921l-.154 22.412zm60.644-29.551c0 2.61-2.155 4.682-4.771 4.682s-4.772-2.072-4.772-4.682S130.983 9 133.6 9s4.771 2.072 4.771 4.682zm-34.631 0c0 2.61-2.155 4.682-4.772 4.682s-4.771-2.072-4.771-4.682S96.352 9 98.968 9s4.772 2.072 4.772 4.682zm48.329 22.873c0-.23-.153-.46-.461-.537-2.001-.537-3.54-2.379-3.54-4.529s1.462-3.991 3.54-4.529c.231-.077.461-.307.461-.537v-6.371c0-.384-.307-.614-.692-.614-6.234.691-11.159 5.91-11.159 12.204s4.848 11.436 11.159 12.204c.385.077.692-.23.692-.614v-6.678zm1.617-16.579v6.371c0 .23.153.46.384.537a4.7 4.7 0 0 1 0 9.057c-.231.077-.384.307-.384.537v6.678c0 .384.307.614.692.614 6.234-.691 11.159-5.91 11.159-12.204s-4.848-11.436-11.159-12.204c-.385 0-.692.307-.692.614z"/></svg>