<?xml version="1.0" encoding="utf-8"?>
<!-- Generator: Adobe Illustrator 24.1.3, SVG Export Plug-In . SVG Version: 6.00 Build 0)  -->
<svg version="1.1" id="Layer_1" xmlns="http://www.w3.org/2000/svg" xmlns:xlink="http://www.w3.org/1999/xlink" x="0px" y="0px"
	 viewBox="0 0 197.4 64.1" style="enable-background:new 0 0 197.4 64.1;" xml:space="preserve">
<style type="text/css">
	.st0{fill:url(#SVGID_1_);}
	.st1{fill:url(#SVGID_2_);}
	.st2{fill:url(#SVGID_3_);}
	.st3{fill:url(#SVGID_4_);}
	.st4{fill:url(#SVGID_5_);}
	.st5{fill:#03070A;}
	.st6{fill:url(#SVGID_6_);}
	.st7{fill:#373B3E;}
	.st8{font-family:'ArialMT';}
	.st9{font-size:11.416px;}
	.st10{fill:url(#SVGID_7_);}
	.st11{fill:url(#SVGID_8_);}
	.st12{fill:url(#SVGID_9_);}
	.st13{fill:url(#SVGID_10_);}
</style>
<g>
	<g>
		<g>
			
				<linearGradient id="SVGID_1_" gradientUnits="userSpaceOnUse" x1="39.3437" y1="-26.1262" x2="159.4163" y2="93.9462" gradientTransform="matrix(1 0 0 -1 0 66)">
				<stop  offset="0" style="stop-color:#E2B356"/>
				<stop  offset="0.4081" style="stop-color:#F8F5A6"/>
				<stop  offset="0.7476" style="stop-color:#E2B356"/>
				<stop  offset="0.952" style="stop-color:#956529"/>
			</linearGradient>
			<path class="st0" d="M12.3,61.4c-4.9,0-8.8-4-8.8-8.8v-41c0-4.9,4-8.8,8.8-8.8h174.2c4.9,0,8.8,4,8.8,8.8v41c0,4.9-4,8.8-8.8,8.8
				H12.3z"/>
			
				<linearGradient id="SVGID_2_" gradientUnits="userSpaceOnUse" x1="40.1431" y1="93.1469" x2="158.6169" y2="-25.3269" gradientTransform="matrix(1 0 0 -1 0 66)">
				<stop  offset="0" style="stop-color:#E2B356"/>
				<stop  offset="0.4081" style="stop-color:#F8F5A6"/>
				<stop  offset="0.7476" style="stop-color:#E2B356"/>
				<stop  offset="0.952" style="stop-color:#956529"/>
			</linearGradient>
			<path class="st1" d="M12.3,60.3c-4.3,0-7.7-3.5-7.7-7.7v-41c0-4.3,3.5-7.7,7.7-7.7h174.2c4.3,0,7.7,3.4,7.7,7.7v41
				c0,4.3-3.5,7.7-7.7,7.7H12.3z"/>
			
				<linearGradient id="SVGID_3_" gradientUnits="userSpaceOnUse" x1="41.7312" y1="-23.7388" x2="157.0287" y2="91.5587" gradientTransform="matrix(1 0 0 -1 0 66)">
				<stop  offset="0" style="stop-color:#E2B356"/>
				<stop  offset="0.4081" style="stop-color:#F8F5A6"/>
				<stop  offset="0.7476" style="stop-color:#E2B356"/>
				<stop  offset="0.952" style="stop-color:#956529"/>
			</linearGradient>
			<path class="st2" d="M186.5,58H12.3c-3,0-5.4-2.4-5.4-5.5v-41c0-3,2.4-5.4,5.4-5.4h174.2c3,0,5.4,2.4,5.4,5.4v41
				C191.9,55.6,189.5,58,186.5,58z"/>
		</g>
		<g>
			
				<linearGradient id="SVGID_4_" gradientUnits="userSpaceOnUse" x1="42.5325" y1="-22.9375" x2="156.2275" y2="90.7575" gradientTransform="matrix(1 0 0 -1 0 66)">
				<stop  offset="0" style="stop-color:#BCBEC1"/>
				<stop  offset="0.4081" style="stop-color:#EDEDEE"/>
				<stop  offset="0.7476" style="stop-color:#BCBEC1"/>
				<stop  offset="0.952" style="stop-color:#838588"/>
			</linearGradient>
			<path class="st3" d="M12.3,56.9C9.9,56.9,8,55,8,52.6v-41c0-2.4,1.9-4.3,4.3-4.3h174.2c2.4,0,4.3,1.9,4.3,4.3v41
				c0,2.4-1.9,4.3-4.3,4.3H12.3z"/>
			
				<linearGradient id="SVGID_5_" gradientUnits="userSpaceOnUse" x1="43.2938" y1="89.9963" x2="155.4662" y2="-22.1763" gradientTransform="matrix(1 0 0 -1 0 66)">
				<stop  offset="0" style="stop-color:#BCBEC1"/>
				<stop  offset="0.4081" style="stop-color:#EDEDEE"/>
				<stop  offset="0.7476" style="stop-color:#BCBEC1"/>
				<stop  offset="0.952" style="stop-color:#838588"/>
			</linearGradient>
			<path class="st4" d="M12.3,55.8c-1.8,0-3.2-1.5-3.2-3.2v-41c0-1.8,1.4-3.2,3.2-3.2h174.2c1.8,0,3.2,1.4,3.2,3.2v41
				c0,1.8-1.4,3.2-3.2,3.2H12.3z"/>
		</g>
		<path class="st5" d="M12.3,7.3C9.9,7.3,8,9.2,8,11.6v41c0,2.4,1.9,4.3,4.3,4.3h84.9V7.3H12.3z"/>
		
			<linearGradient id="SVGID_6_" gradientUnits="userSpaceOnUse" x1="32.755" y1="9.09" x2="32.755" y2="58.73" gradientTransform="matrix(1 0 0 -1 0 66)">
			<stop  offset="0" style="stop-color:#303032;stop-opacity:0.6"/>
			<stop  offset="1" style="stop-color:#303032"/>
		</linearGradient>
		<path class="st6" d="M12.3,7.3C9.9,7.3,8,9.2,8,11.6v41c0,2.4,1.9,4.3,4.3,4.3h45.3V7.3H12.3z"/>
		<path class="st5" d="M97.2,7.3H12.3C9.9,7.3,8,9.2,8,11.6v41c0,1.7,1,3.1,2.3,3.8c-0.3-0.6-0.5-1.3-0.5-2v-41
			c0-2.4,1.9-4.3,4.3-4.3h83.1L97.2,7.3L97.2,7.3z"/>
	</g>
	<g>
		<g>
			<text transform="matrix(1 0 0 1 101.0586 29.8081)" class="st7 st8 st9">SATISFACTION</text>
		</g>
		<g>
			<text transform="matrix(1 0 0 1 101.1953 42.9248)" class="st7 st8 st9">GUARANTEED</text>
		</g>
	</g>
	<g>
		
			<image style="overflow:visible;opacity:0.5;enable-background:new    ;" width="97" height="83" xlink:href="E747D00E.png"  transform="matrix(1 0 0 1 8.6897 -5.4483)">
		</image>
		<g>
			<g>
				<g>
					
						<linearGradient id="SVGID_7_" gradientUnits="userSpaceOnUse" x1="12.6925" y1="42.9725" x2="58.0315" y2="-2.3665" gradientTransform="matrix(1 0 0 -1 0 66)">
						<stop  offset="0" style="stop-color:#FFFB7C"/>
						<stop  offset="1" style="stop-color:#FFBC17"/>
					</linearGradient>
					<path class="st10" d="M20,50.2V22.2c-0.4,0.5-1.1,1-1.9,1.2s-1.6,0.4-2.4,0.4V20c1.1-0.2,2.2-0.6,3.2-1.4s1.8-1.7,2.3-2.9h4.1
						v34.5H20z"/>
					
						<linearGradient id="SVGID_8_" gradientUnits="userSpaceOnUse" x1="20.4026" y1="50.6807" x2="65.7416" y2="5.3417" gradientTransform="matrix(1 0 0 -1 0 66)">
						<stop  offset="0" style="stop-color:#FFFB7C"/>
						<stop  offset="1" style="stop-color:#FFBC17"/>
					</linearGradient>
					<path class="st11" d="M43.9,48.1c-1.2,1.6-3.2,2.5-5.9,2.5s-4.7-0.8-5.9-2.5s-1.9-4.1-1.9-7.2V24.4c0-3,0.6-5.3,1.9-6.8
						s3.2-2.3,5.9-2.3s4.7,0.8,5.9,2.3s1.9,3.8,1.9,6.8v16.5C45.8,44,45.1,46.5,43.9,48.1z M37.9,46c0.8,0,1.5-0.3,1.9-1
						c0.5-0.7,0.7-2,0.7-4.1V24.2c0-2.5-0.6-4-1.8-4.3c-0.2,0-0.6-0.1-1.1-0.1s-1,0.3-1.5,0.8c-0.5,0.5-0.7,1.7-0.7,3.6V41
						c0,2.1,0.2,3.5,0.6,4.2S37.1,46,37.9,46z"/>
					
						<linearGradient id="SVGID_9_" gradientUnits="userSpaceOnUse" x1="30.2826" y1="60.5607" x2="75.6216" y2="15.2217" gradientTransform="matrix(1 0 0 -1 0 66)">
						<stop  offset="0" style="stop-color:#FFFB7C"/>
						<stop  offset="1" style="stop-color:#FFBC17"/>
					</linearGradient>
					<path class="st12" d="M63.7,48.1c-1.2,1.6-3.2,2.5-5.9,2.5s-4.7-0.8-5.9-2.5s-1.8-4.1-1.8-7.2V24.4c0-3,0.6-5.3,1.9-6.8
						s3.2-2.3,5.9-2.3s4.7,0.8,5.9,2.3s1.9,3.8,1.9,6.8v16.5C65.5,44,64.9,46.5,63.7,48.1z M57.7,46c0.8,0,1.5-0.3,1.9-1
						c0.5-0.7,0.7-2,0.7-4.1V24.2c0-2.5-0.6-4-1.8-4.3c-0.2,0-0.6-0.1-1.1-0.1s-1,0.3-1.5,0.8c-0.5,0.5-0.7,1.7-0.7,3.6V41
						c0,2.1,0.2,3.5,0.6,4.2S56.8,46,57.7,46z"/>
					
						<linearGradient id="SVGID_10_" gradientUnits="userSpaceOnUse" x1="44.6284" y1="74.9065" x2="89.9674" y2="29.5676" gradientTransform="matrix(1 0 0 -1 0 66)">
						<stop  offset="0" style="stop-color:#FFFB7C"/>
						<stop  offset="1" style="stop-color:#FFBC17"/>
					</linearGradient>
					<path class="st13" d="M75.9,29c-0.6,0.8-1.6,1.2-2.9,1.2c-1.3,0-2.3-0.4-2.9-1.2s-0.9-2-0.9-3.7v-4.1c0-1.7,0.3-2.9,0.9-3.7
						c0.6-0.7,1.6-1.1,3-1.1s2.4,0.4,3,1.1c0.6,0.7,0.9,2,0.9,3.7v4.1C76.9,27,76.6,28.3,75.9,29z M72,27.6c0.2,0.3,0.5,0.5,1,0.5
						s0.8-0.1,1-0.5c0.2-0.3,0.3-0.8,0.3-1.5v-5.6c0-0.7-0.1-1.2-0.3-1.4c-0.2-0.3-0.5-0.4-1-0.4s-0.8,0.1-1,0.4s-0.3,0.8-0.3,1.4
						v5.6C71.7,26.8,71.8,27.3,72,27.6z M75.2,36.8L83,16.7h2.3l-7.7,20.1H75.2z M90.5,35.9c-0.6,0.8-1.6,1.2-2.9,1.2
						c-1.3,0-2.3-0.4-2.9-1.2s-0.9-2-0.9-3.7v-4.1c0-1.7,0.3-2.9,0.9-3.7c0.6-0.7,1.6-1.1,3-1.1s2.4,0.4,3,1.1s0.9,2,0.9,3.7v4.1
						C91.4,33.9,91.1,35.1,90.5,35.9z M86.5,34.5c0.2,0.3,0.5,0.5,1,0.5s0.8-0.2,1-0.5c0.2-0.3,0.3-0.8,0.3-1.5v-5.6
						c0-0.7-0.1-1.2-0.3-1.4c-0.2-0.3-0.5-0.4-1-0.4s-0.8,0.1-1,0.4s-0.3,0.8-0.3,1.4V33C86.3,33.7,86.3,34.2,86.5,34.5z"/>
				</g>
			</g>
		</g>
	</g>
</g>
</svg>
