<?xml version="1.0" encoding="utf-8"?>
<!-- Generator: Adobe Illustrator 24.1.3, SVG Export Plug-In . SVG Version: 6.00 Build 0)  -->
<svg version="1.1" id="Layer_1" xmlns="http://www.w3.org/2000/svg" xmlns:xlink="http://www.w3.org/1999/xlink" x="0px" y="0px"
	 viewBox="0 0 175.1 64.1" style="enable-background:new 0 0 175.1 64.1;" xml:space="preserve">
<style type="text/css">
	.st0{fill:url(#SVGID_1_);}
	.st1{opacity:0.3;}
	.st2{fill:#D0FFF2;}
	.st3{opacity:0.2;fill:#FFFFFF;enable-background:new    ;}
	.st4{opacity:0.4;}
	.st5{fill:#E7FAFF;}
	.st6{opacity:0.4;fill:#D9F0FF;enable-background:new    ;}
	.st7{opacity:0.4;fill:#FFFFFF;enable-background:new    ;}
	.st8{fill:#00CC83;}
	.st9{opacity:0.2;}
	.st10{fill:#080A00;}
	.st11{opacity:0.3;fill:#CCFF00;enable-background:new    ;}
	.st12{opacity:0.2;fill:#99BF00;enable-background:new    ;}
	.st13{opacity:0.2;fill:#6A8500;enable-background:new    ;}
	.st14{opacity:0.2;fill:#070047;enable-background:new    ;}
	.st15{opacity:0.5;fill:#99BF00;enable-background:new    ;}
	.st16{fill:#FDFFE3;}
	.st17{opacity:0.2;fill:#FDFFE3;enable-background:new    ;}
	.st18{opacity:0.3;fill:#FDFFE3;enable-background:new    ;}
	.st19{fill:#FFFFFF;}
</style>
<g>
	<g>
		
			<linearGradient id="SVGID_1_" gradientUnits="userSpaceOnUse" x1="5.0469" y1="1.8547" x2="65.4663" y2="94.036" gradientTransform="matrix(1 0 0 -1 0 66)">
			<stop  offset="0" style="stop-color:#9DABC2"/>
			<stop  offset="0.2254" style="stop-color:#586B8A"/>
			<stop  offset="0.4845" style="stop-color:#9DABC2"/>
			<stop  offset="0.7642" style="stop-color:#CEE1FF"/>
			<stop  offset="1" style="stop-color:#9DABC2"/>
		</linearGradient>
		<path class="st0" d="M60.4,19c0.1-6.2-8.9-2.6-14.3-6.8c-5.2-4.1-6.6-10.6-14.6-11c-0.1,0-1,0-1,0c-8,0.4-9.4,6.9-14.6,11
			C10.5,16.4,1.5,12.7,1.6,19c0.1,6.2,11.8,43,29.1,44c0,0,0.7,0,0.7,0C48.7,62,60.3,25.1,60.4,19z"/>
		<g class="st1">
			<path class="st2" d="M14.8,14.3c0.8-0.6,1.5-1.3,2.2-2c-0.2,0.2-0.4,0.4-0.6,0.5C11.7,16.4,4.4,14,2.8,17.6
				C5.7,16.2,11.1,17.2,14.8,14.3z"/>
			<path class="st2" d="M45.7,12.8c-5-3.9-6.4-10.2-14.1-10.6c-0.1,0-1,0-1,0c-3.9,0.2-6.1,1.9-8.1,4C24,4.8,26,3.8,28.9,3.6
				c0.1,0,1,0,1,0c7.8,0.4,9.1,6.7,14.1,10.6c5.2,4.1,13.9,0.5,13.8,6.5c-0.1,4.5-6.5,25.8-16.8,36.5c11.2-10,18.3-33.3,18.3-38
				C59.6,13.3,50.9,16.9,45.7,12.8z"/>
		</g>
		<path class="st3" d="M15.3,13.4c5.2-4.1,6.6-10.6,14.6-11c0.1,0,1,0,1,0c8,0.4,9.4,6.9,14.6,11c5.4,4.2,14.4,0.5,14.3,6.8
			c0,3.1-3,13.8-8.1,23.9c5.5-10.4,8.6-21.9,8.7-25.1c0.1-6.2-8.9-2.6-14.3-6.8c-5.2-4.1-6.6-10.6-14.6-11c-0.1,0-1,0-1,0
			c-8,0.4-9.4,6.9-14.6,11C10.9,16.1,3,13.4,1.8,17.6C4.1,15,10.9,16.8,15.3,13.4z"/>
		<g class="st4">
			<path class="st5" d="M31.6,62.6c0,0-0.7,0-0.7,0c-17.3-1-29-37.8-29.1-44c0-1,0.2-1.8,0.7-2.3c-0.6,0.6-1,1.4-0.9,2.7
				c0.1,6.2,11.8,43,29.1,44c0,0,0.7,0,0.7,0c5.4-0.3,10.3-4.1,14.4-9.4C41.7,58.7,36.9,62.3,31.6,62.6z"/>
			<path class="st5" d="M19.5,8.5c0.4-0.5,0.8-1,1.2-1.5C20.3,7.6,19.9,8,19.5,8.5z"/>
		</g>
		<path class="st6" d="M55.4,21.8c0.1-5.3-7.5-2.2-12-5.7C39,12.7,37.8,7.2,31,6.8c0,0-0.8,0-0.9,0c-6.8,0.4-7.9,5.9-12.3,9.3
			c-4.5,3.5-12.1,0.4-12,5.7c0.1,5.2,9.9,36.3,24.5,37.1c0,0,0.6,0,0.6,0C45.5,58.1,55.3,27,55.4,21.8z"/>
		<path class="st7" d="M56.2,20.7c0.1-5.3-7.5-2.2-12-5.7c-4.4-3.4-5.6-8.9-12.3-9.3c0,0-0.8,0-0.9,0C24.1,6.1,23,11.5,18.6,15
			c-4.5,3.5-12.1,0.4-12,5.7C6.6,25.9,16.4,57,31,57.8c0,0,0.6,0,0.6,0C46.2,57,56.1,25.9,56.2,20.7z"/>
		<path class="st6" d="M55.7,21.3c0.1-5.3-7.5-2.2-12-5.7c-4.4-3.4-5.6-8.9-12.3-9.3c0,0-0.8,0-0.9,0c-6.8,0.4-7.9,5.9-12.3,9.3
			C13.6,19.1,6,16,6.1,21.3c0.1,5.2,9.9,36.3,24.5,37.1c0,0,0.6,0,0.6,0C45.8,57.6,55.6,26.5,55.7,21.3z"/>
		<path class="st8" d="M55.8,21c0.1-5.3-7.5-2.2-12-5.7c-4.4-3.4-5.6-8.9-12.3-9.3c0,0-0.8,0-0.9,0c-6.8,0.4-7.9,5.9-12.3,9.3
			c-4.5,3.5-12.1,0.4-12,5.7c0.1,5.2,9.9,36.3,24.5,37.1c0,0,0.6,0,0.6,0C45.9,57.3,55.7,26.3,55.8,21z"/>
		<g class="st9">
			<path class="st10" d="M17.7,16.1c0.5-0.4,1-0.9,1.5-1.4c-0.2,0.2-0.4,0.4-0.7,0.6c-3.8,3-9.8,1.3-11.5,3.8
				C9.4,17.8,14.4,18.7,17.7,16.1z"/>
			<path class="st10" d="M44.1,15.4c-4.4-3.4-5.6-8.9-12.3-9.3c0,0-0.8,0-0.9,0c-3,0.2-4.8,1.3-6.4,2.8C25.9,7.8,27.6,7,30,6.8
				c0,0,0.8,0,0.9,0c6.8,0.4,7.9,5.9,12.3,9.3c4.5,3.5,12.1,0.4,12,5.7c0,4-6,23.5-15.4,32.5c9.9-8.6,16.2-29.2,16.3-33.3
				C56.2,15.8,48.7,18.9,44.1,15.4z"/>
		</g>
		<path class="st11" d="M31.8,57.5c0,0-0.6,0-0.6,0C16.6,56.7,6.8,25.6,6.7,20.4c0-0.6,0.1-1.2,0.3-1.6C6.5,19.3,6.2,20,6.2,21
			c0.1,5.2,9.9,36.3,24.5,37.1c0,0,0.6,0,0.6,0c4.8-0.3,9.1-3.8,12.6-8.6C40.5,54,36.4,57.2,31.8,57.5z"/>
		<path class="st12" d="M34.7,49.4c0,0-0.6,0-0.6,0C22.2,48.8,13.5,28,10.6,17.5c-2.5,0.3-4.5,0.8-4.4,3.5
			c0.1,5.2,9.9,36.3,24.5,37.1c0,0,0.6,0,0.6,0C42,57.6,50.1,40.8,53.7,29.7C49.4,39.2,42.8,49,34.7,49.4z"/>
		<path class="st13" d="M16.7,17.4C21.1,14,22.2,8.5,29,8.1c0,0,0.8,0,0.9,0c6.8,0.4,7.9,5.9,12.3,9.3c4.5,3.5,12.1,0.4,12,5.7
			c0,3.4-4.2,17.7-11.1,27.5C51,40.8,55.8,24.7,55.8,21c0.1-5.3-7.5-2.2-12-5.7c-4.4-3.4-5.6-8.9-12.3-9.3c0,0-0.8,0-0.9,0
			c-6.8,0.4-7.9,5.9-12.3,9.3c-4.3,3.3-11.3,0.8-12,4.9C8.7,19.1,13.4,19.9,16.7,17.4z"/>
		<path class="st14" d="M32,60.7c0,0-0.7,0-0.7,0c-17.3-1-29-37.8-29.1-44c0,0,0,0,0,0c-0.4,0.6-0.7,1.3-0.7,2.4
			c0.1,6.2,11.8,43,29.1,44c0,0,0.7,0,0.7,0c14.1-0.8,24.5-25.4,27.9-37.8C55.3,38.1,45.3,59.9,32,60.7z"/>
		<g>
			<path class="st15" d="M21.3,36.6l8.8,6.8c0.3,0.2,0.7,0.2,0.9-0.1l12.3-15.8c0.2-0.3,0.2-0.6-0.1-0.9l-3.6-2.9
				c-0.3-0.2-0.7-0.2-0.9,0.1l-8.3,11.5c-0.2,0.3-0.6,0.3-0.9,0.1l-4.5-3.8c-0.3-0.2-0.7-0.2-0.9,0.1l-2.8,4
				C21,36.1,21,36.4,21.3,36.6z"/>
			<path class="st16" d="M21.3,36l8.8,6.8c0.3,0.2,0.7,0.2,0.9-0.1l12.3-15.8c0.2-0.3,0.2-0.6-0.1-0.9l-3.6-2.9
				c-0.3-0.2-0.7-0.2-0.9,0.1l-8.4,11.5c-0.2,0.3-0.6,0.3-0.9,0.1l-4.5-3.8c-0.3-0.2-0.7-0.2-0.9,0.1l-2.8,4
				C21,35.5,21.1,35.8,21.3,36z"/>
		</g>
		<path class="st17" d="M43.5,15.8c-4.2-3.3-5.4-8.6-11.9-9c0,0-0.8,0-0.9,0c-6.5,0.4-7.7,5.7-11.9,9C18,16.5,17,16.9,16,17.2
			c15.3,8.2,22.5,21.4,25.8,33.9C50,41.9,55.1,25,55.1,21.3C55.2,16.2,47.9,19.2,43.5,15.8z"/>
		<path class="st18" d="M13.4,41.3c0,0,7.9,14.2,14.3,16.1c6.4,1.9,12.1-3.5,12.1-3.5s-7.2,4.9-13,2.1
			C19.2,52.4,13.4,41.3,13.4,41.3z"/>
	</g>
	<g>
		<g>
			<path class="st8" d="M64.4,55.6c-0.6-0.7-0.9-1.7-1-3.2l2.5-0.4c0,0.8,0.1,1.4,0.3,1.8s0.5,0.5,0.8,0.5c0.5,0,0.7-0.3,0.7-1
				c0-0.5-0.1-0.9-0.3-1.3c-0.2-0.4-0.6-0.8-1.1-1.2l-1.1-1c-0.6-0.5-1-1-1.3-1.5c-0.3-0.5-0.5-1.2-0.5-1.9c0-1.1,0.3-1.9,1-2.5
				c0.7-0.6,1.5-0.9,2.7-0.9c1.2,0,2.1,0.4,2.5,1.1c0.4,0.7,0.7,1.6,0.7,2.6l-2.5,0.3c0-0.7-0.1-1.2-0.2-1.5
				c-0.1-0.3-0.3-0.4-0.7-0.4c-0.3,0-0.4,0.1-0.6,0.3c-0.1,0.2-0.2,0.4-0.2,0.7c0,0.4,0.1,0.8,0.3,1.1c0.2,0.3,0.5,0.6,1,1l1.1,1
				c0.6,0.5,1.1,1.1,1.5,1.7c0.3,0.6,0.5,1.3,0.5,2.2c0,0.6-0.1,1.2-0.4,1.7c-0.3,0.5-0.7,0.9-1.2,1.2c-0.5,0.3-1.1,0.4-1.8,0.4
				C65.9,56.6,65,56.3,64.4,55.6z"/>
			<path class="st8" d="M72.4,55.6c-0.6-0.7-0.9-1.7-1-3.2l2.5-0.4c0,0.8,0.1,1.4,0.3,1.8s0.5,0.5,0.8,0.5c0.5,0,0.7-0.3,0.7-1
				c0-0.5-0.1-0.9-0.3-1.3c-0.2-0.4-0.6-0.8-1.1-1.2l-1.1-1c-0.6-0.5-1-1-1.3-1.5c-0.3-0.5-0.5-1.2-0.5-1.9c0-1.1,0.3-1.9,1-2.5
				s1.5-0.9,2.7-0.9c1.2,0,2.1,0.4,2.5,1.1s0.7,1.6,0.7,2.6l-2.5,0.3c0-0.7-0.1-1.2-0.2-1.5c-0.1-0.3-0.3-0.4-0.7-0.4
				c-0.3,0-0.4,0.1-0.6,0.3c-0.1,0.2-0.2,0.4-0.2,0.7c0,0.4,0.1,0.8,0.3,1.1c0.2,0.3,0.5,0.6,1,1l1.1,1c0.6,0.5,1.1,1.1,1.5,1.7
				c0.3,0.6,0.5,1.3,0.5,2.2c0,0.6-0.1,1.2-0.4,1.7c-0.3,0.5-0.7,0.9-1.2,1.2s-1.1,0.4-1.8,0.4C73.9,56.6,73,56.3,72.4,55.6z"/>
			<path class="st8" d="M80,43.4h2.9v11.1h3v2H80C80,56.4,80,43.4,80,43.4z"/>
			<path class="st8" d="M91.2,43.4h5.9v2h-3v3.2h2.3v2h-2.3v3.9h3v2h-5.9V43.4z"/>
			<path class="st8" d="M98.4,43.4h2l2.7,6.3v-6.3h2.4v13h-1.9l-2.7-6.8v6.8h-2.5V43.4z"/>
			<path class="st8" d="M108.2,55.5c-0.6-0.8-0.9-1.8-0.9-3.2v-4.7c0-1.4,0.3-2.5,0.9-3.3c0.6-0.7,1.6-1.1,3-1.1
				c1.4,0,2.3,0.3,2.9,1c0.6,0.7,0.8,1.6,0.8,2.8v1.1h-2.8v-1.3c0-0.5-0.1-0.9-0.2-1.2s-0.4-0.4-0.8-0.4c-0.4,0-0.7,0.1-0.8,0.4
				c-0.1,0.3-0.2,0.7-0.2,1.2V53c0,0.5,0.1,0.9,0.2,1.2s0.4,0.4,0.8,0.4s0.7-0.1,0.8-0.4c0.1-0.3,0.2-0.7,0.2-1.2v-1.4h2.8v1.1
				c0,1.2-0.3,2.2-0.8,2.9s-1.5,1-2.9,1C109.8,56.6,108.8,56.2,108.2,55.5z"/>
			<path class="st8" d="M116.5,43.4h3.6c1.4,0,2.5,0.3,3.2,0.8c0.7,0.5,1.1,1.4,1.1,2.7c0,0.9-0.1,1.6-0.3,2.1
				c-0.2,0.5-0.6,0.9-1.3,1.2l1.8,6.3h-3l-1.4-5.8h-0.8v5.8h-2.9C116.5,56.4,116.5,43.4,116.5,43.4z M120.2,48.9
				c0.6,0,1-0.2,1.2-0.5c0.2-0.3,0.3-0.8,0.3-1.4c0-0.6-0.1-1-0.3-1.3s-0.6-0.4-1.1-0.4h-0.9v3.6H120.2z"/>
			<path class="st8" d="M127.5,51.1l-2.5-7.7h2.7l1.2,4.1l1.1-4.1h2.6l-2.4,7.7v5.3h-2.8L127.5,51.1L127.5,51.1z"/>
			<path class="st8" d="M133.8,43.4h4.4c1.1,0,2,0.3,2.6,1c0.6,0.7,0.9,1.6,0.9,2.8c0,1.4-0.3,2.4-1,2.9c-0.7,0.5-1.6,0.8-2.8,0.8
				h-1.2v5.5h-2.9L133.8,43.4L133.8,43.4z M137.6,48.9c0.5,0,0.8-0.1,1-0.4c0.2-0.3,0.3-0.7,0.3-1.3c0-0.6-0.1-1-0.2-1.3
				c-0.2-0.3-0.5-0.4-1-0.4h-0.9v3.5H137.6z"/>
			<path class="st8" d="M144.2,45.5h-2v-2.1h6.8v2.1h-1.9v10.9h-2.9V45.5z"/>
			<path class="st8" d="M150.2,43.4h2.9v13h-2.9V43.4z"/>
			<path class="st8" d="M155.7,55.5c-0.6-0.7-0.9-1.8-0.9-3.2v-4.8c0-1.4,0.3-2.5,0.9-3.2c0.6-0.7,1.6-1.1,3-1.1
				c1.4,0,2.4,0.4,3,1.1c0.6,0.7,0.9,1.8,0.9,3.2v4.8c0,1.4-0.3,2.5-0.9,3.2c-0.6,0.7-1.6,1.1-3,1.1
				C157.3,56.6,156.3,56.3,155.7,55.5z M159.5,54.2c0.1-0.3,0.2-0.7,0.2-1.1v-6.3c0-0.5-0.1-0.9-0.2-1.1s-0.4-0.4-0.8-0.4
				c-0.4,0-0.6,0.1-0.8,0.4s-0.2,0.7-0.2,1.1V53c0,0.5,0.1,0.8,0.2,1.1s0.4,0.4,0.8,0.4C159.1,54.6,159.4,54.4,159.5,54.2z"/>
			<path class="st8" d="M164.4,43.4h2l2.7,6.3v-6.3h2.4v13h-1.9l-2.7-6.8v6.8h-2.5V43.4z"/>
		</g>
		<g>
			<path class="st19" d="M67.2,35.9c-1.4-1.6-2.1-3.8-2.3-6.6l3.8-1c0.1,2,0.5,3.6,1.2,4.8c0.7,1.2,1.7,1.8,3.2,1.8
				c1.1,0,2-0.3,2.5-0.9s0.9-1.5,0.9-2.7c0-1.3-0.3-2.3-0.8-3.2c-0.5-0.8-1.4-1.8-2.6-2.8L68,20.8c-1-0.9-1.8-1.9-2.3-3
				c-0.5-1-0.7-2.3-0.7-3.9c0-2.3,0.7-4,1.9-5.3c1.3-1.2,3.1-1.9,5.3-1.9c2.4,0,4.3,0.7,5.5,1.9c1.2,1.3,2,3.3,2.3,6l-3.7,1
				c-0.1-1.8-0.5-3.2-1.1-4.2s-1.6-1.5-3.1-1.5c-1.1,0-1.9,0.3-2.5,0.9s-0.9,1.4-0.9,2.5c0,0.9,0.2,1.7,0.5,2.3
				c0.3,0.6,0.8,1.3,1.6,1.9l5.2,4.6c1.3,1.2,2.4,2.5,3.2,3.9c0.8,1.4,1.2,3,1.2,4.8c0,2.3-0.7,4.1-2.1,5.4c-1.4,1.3-3.2,2-5.3,2
				C70.5,38.3,68.6,37.5,67.2,35.9z"/>
			<path class="st19" d="M83.9,7.1h12v3.2h-7.7v10.2h6.2v3h-6.2v11.3h7.7V38h-12V7.1z"/>
			<path class="st19" d="M100.7,35.6c-1.3-1.8-1.9-4.3-1.9-7.5V17.2c0-3.4,0.6-5.9,1.8-7.7s3.4-2.6,6.5-2.6c2.8,0,4.8,0.8,6,2.3
				c1.2,1.5,1.8,3.7,1.8,6.6v2.4h-4.1V16c0-1.4-0.1-2.5-0.2-3.3c-0.1-0.8-0.4-1.4-1-1.8c-0.5-0.5-1.3-0.7-2.5-0.7
				c-1.2,0-2,0.3-2.6,0.7s-0.9,1.2-1.1,2.1c-0.2,0.9-0.3,2.1-0.3,3.5v12.2c0,1.6,0.1,2.8,0.4,3.7s0.7,1.5,1.2,1.9s1.4,0.6,2.4,0.6
				c1.1,0,1.9-0.2,2.4-0.7s0.9-1.1,1-2s0.2-2,0.2-3.4v-2.3h4.1v2.3c0,3.1-0.6,5.4-1.7,7.1c-1.2,1.6-3.2,2.5-6,2.5
				C104.1,38.3,101.9,37.4,100.7,35.6z"/>
			<path class="st19" d="M121.9,37c-1.2-0.9-2-2.1-2.5-3.6s-0.7-3.5-0.7-5.8V7.1h4.1v20.7c0,2.3,0.3,4.1,0.8,5.3s1.6,1.8,3.3,1.8
				c1.7,0,2.8-0.6,3.3-1.8c0.6-1.2,0.8-3,0.8-5.3V7.1h4.1v20.5c0,2.3-0.2,4.3-0.7,5.8c-0.5,1.5-1.3,2.8-2.5,3.6
				c-1.2,0.9-2.9,1.3-5,1.3C124.8,38.3,123.1,37.9,121.9,37z"/>
			<path class="st19" d="M139.7,7.1h6.2c3.1,0,5.4,0.6,6.9,1.9c1.5,1.3,2.2,3.4,2.2,6.3c0,4-1.3,6.4-3.8,7.2l4.4,15.5h-4.1l-4-14.5
				H144V38h-4.3L139.7,7.1L139.7,7.1z M145.6,20.4c1.9,0,3.2-0.4,4-1.1c0.8-0.7,1.2-2.1,1.2-4c0-1.3-0.1-2.3-0.4-3
				c-0.3-0.7-0.8-1.3-1.5-1.6s-1.7-0.5-3-0.5H144v10.2L145.6,20.4L145.6,20.4z"/>
			<path class="st19" d="M159.5,7.1h12v3.2h-7.7v10.2h6.2v3h-6.2v11.3h7.7V38h-12V7.1z"/>
		</g>
	</g>
</g>
</svg>
