<svg id="svg" version="1.1" xmlns="http://www.w3.org/2000/svg" xmlns:xlink="http://www.w3.org/1999/xlink" width="400" height="343.32648870636547" viewBox="0, 0, 400,343.32648870636547"><g id="svgg"><path id="path0" d="M145.322 0.242 C 144.860 0.331,144.467 0.725,144.342 1.223 C 144.227 1.681,143.995 1.970,143.826 1.866 C 143.657 1.762,143.519 1.994,143.519 2.383 C 143.519 2.783,143.295 3.090,143.004 3.090 C 142.645 3.090,142.489 3.453,142.489 4.292 C 142.489 4.953,142.335 5.494,142.146 5.494 C 141.957 5.494,141.803 6.235,141.803 7.142 C 141.803 8.048,141.623 8.969,141.404 9.188 C 140.796 9.796,140.734 16.560,141.327 17.702 C 141.588 18.207,141.803 19.536,141.803 20.656 L 141.803 22.693 143.348 22.613 C 144.354 22.561,144.893 22.375,144.893 22.082 C 144.893 21.795,145.331 21.631,146.094 21.631 C 146.755 21.631,147.296 21.476,147.296 21.288 C 147.296 21.099,147.760 20.944,148.326 20.944 C 148.893 20.944,149.356 21.067,149.356 21.217 C 149.356 21.683,151.690 21.677,151.991 21.211 C 152.147 20.970,152.374 18.609,152.495 15.966 C 152.771 9.937,153.170 8.126,154.500 6.867 C 154.600 6.773,154.896 6.083,155.158 5.334 C 155.420 4.586,155.852 3.756,156.119 3.489 C 156.882 2.725,156.543 0.948,155.536 0.442 C 154.714 0.028,147.197 -0.119,145.322 0.242 M233.820 26.630 C 233.820 26.924,233.683 27.080,233.515 26.977 C 233.081 26.708,232.754 28.212,233.144 28.683 C 233.324 28.899,233.369 29.178,233.245 29.302 C 233.120 29.426,233.199 29.528,233.419 29.528 C 233.658 29.528,233.820 30.084,233.820 30.901 C 233.820 31.657,233.974 32.275,234.163 32.275 C 234.352 32.275,234.509 32.545,234.512 32.876 C 234.516 33.206,234.902 33.840,235.371 34.285 C 235.840 34.730,236.223 35.232,236.223 35.401 C 236.223 35.570,236.418 35.708,236.657 35.708 C 236.895 35.708,237.380 36.094,237.735 36.567 C 238.089 37.039,238.667 37.425,239.018 37.425 C 239.369 37.425,239.657 37.579,239.657 37.768 C 239.657 37.957,239.927 38.117,240.258 38.123 C 240.588 38.129,241.158 38.360,241.525 38.638 C 241.891 38.915,242.634 39.142,243.176 39.142 C 243.718 39.142,244.080 39.273,243.980 39.433 C 243.881 39.594,244.906 39.757,246.257 39.797 C 247.608 39.836,248.839 39.946,248.992 40.040 C 249.390 40.286,249.337 42.494,248.927 42.747 C 248.287 43.142,248.515 48.819,249.227 50.214 C 249.580 50.908,249.966 51.378,250.085 51.260 C 250.203 51.141,250.300 51.225,250.300 51.445 C 250.300 52.087,253.067 54.592,253.775 54.592 C 254.130 54.592,254.421 54.747,254.421 54.936 C 254.421 55.124,254.895 55.279,255.475 55.279 C 256.055 55.279,256.761 55.511,257.045 55.794 C 257.328 56.077,258.038 56.309,258.623 56.309 C 259.207 56.309,259.590 56.404,259.474 56.520 C 259.087 56.907,263.103 60.429,263.932 60.429 C 264.366 60.429,264.721 60.584,264.721 60.773 C 264.721 60.961,265.498 61.116,266.449 61.116 C 267.556 61.116,268.238 61.277,268.349 61.566 C 268.481 61.912,270.080 62.032,275.291 62.087 C 281.607 62.154,285.322 62.581,285.322 63.241 C 285.322 63.394,285.657 63.519,286.066 63.519 C 286.475 63.519,286.714 63.615,286.596 63.733 C 286.190 64.139,288.347 65.923,289.244 65.923 C 289.731 65.923,290.140 65.884,290.153 65.837 C 290.515 64.552,290.417 62.528,289.975 62.161 C 289.682 61.917,289.442 61.428,289.442 61.074 C 289.442 60.719,289.210 60.429,288.927 60.429 C 288.644 60.429,288.412 60.275,288.412 60.086 C 288.412 59.897,288.103 59.742,287.725 59.742 C 287.348 59.742,287.039 59.544,287.039 59.302 C 287.039 59.060,286.621 58.828,286.110 58.785 C 285.599 58.743,285.027 58.555,284.839 58.367 C 284.651 58.179,283.514 58.026,282.312 58.026 C 281.110 58.026,279.789 57.841,279.377 57.615 C 278.711 57.250,276.904 57.120,271.139 57.023 C 270.131 57.007,269.570 56.862,269.700 56.652 C 269.829 56.442,269.294 56.309,268.322 56.309 C 267.367 56.309,266.527 56.103,266.217 55.794 C 265.759 55.336,265.817 55.279,266.736 55.279 C 267.305 55.279,267.866 55.124,267.983 54.936 C 268.100 54.747,268.446 54.592,268.753 54.592 C 269.061 54.592,269.694 54.245,270.162 53.820 C 270.630 53.395,270.898 53.279,270.760 53.562 C 270.608 53.872,270.703 53.838,271.000 53.476 C 271.270 53.146,271.668 52.876,271.883 52.876 C 272.099 52.876,272.276 52.760,272.277 52.618 C 272.278 52.476,272.819 51.993,273.479 51.544 C 274.138 51.094,274.678 50.506,274.678 50.236 C 274.678 49.966,274.803 49.822,274.955 49.916 C 275.107 50.010,275.510 49.517,275.851 48.820 C 276.192 48.124,276.608 47.285,276.776 46.957 C 277.154 46.219,277.176 44.979,276.811 44.979 C 276.663 44.979,276.521 44.707,276.495 44.375 C 276.369 42.697,276.070 42.284,274.368 41.439 C 273.065 40.792,268.345 40.616,267.983 41.202 C 267.866 41.391,267.494 41.545,267.157 41.545 C 265.042 41.545,259.227 46.601,259.227 48.441 C 259.227 50.074,256.666 51.491,256.195 50.119 C 256.132 49.935,255.940 49.785,255.769 49.785 C 255.270 49.785,254.077 48.643,254.077 48.164 C 254.077 47.923,253.923 47.725,253.734 47.725 C 253.238 47.725,253.309 43.399,253.820 42.487 C 254.467 41.332,255.451 40.043,255.451 40.350 C 255.451 40.498,255.766 40.257,256.150 39.813 C 256.535 39.369,257.112 38.968,257.432 38.921 C 257.752 38.874,258.068 38.673,258.134 38.474 C 258.200 38.275,258.542 38.112,258.892 38.112 C 259.243 38.112,259.626 37.957,259.742 37.768 C 259.859 37.579,260.193 37.425,260.484 37.425 C 260.775 37.425,261.554 36.884,262.215 36.223 C 262.876 35.562,263.555 35.021,263.725 35.021 C 263.895 35.021,264.034 34.860,264.034 34.664 C 264.034 34.327,264.303 33.938,265.322 32.802 C 265.999 32.047,265.849 29.746,265.064 28.841 C 264.687 28.406,264.373 28.189,264.367 28.359 C 264.361 28.530,264.199 28.399,264.007 28.069 C 263.744 27.617,263.213 27.469,261.871 27.472 C 259.753 27.478,258.476 27.772,258.737 28.194 C 258.840 28.361,258.695 28.498,258.414 28.498 C 258.134 28.498,257.604 28.879,257.238 29.345 C 256.872 29.810,256.495 30.114,256.401 30.021 C 256.307 29.927,255.952 30.280,255.611 30.805 C 255.271 31.330,254.632 32.074,254.191 32.457 C 253.751 32.841,253.391 33.343,253.391 33.573 C 253.391 33.803,253.236 33.991,253.047 33.991 C 252.858 33.991,252.704 34.223,252.704 34.506 C 252.704 35.076,251.755 35.177,247.725 35.036 C 246.262 34.985,245.110 34.764,244.780 34.472 C 244.482 34.208,243.915 33.991,243.521 33.991 C 243.127 33.991,242.753 33.851,242.690 33.680 C 242.627 33.508,242.273 33.315,241.903 33.250 C 240.945 33.083,238.627 30.688,238.627 29.866 C 238.627 28.876,237.187 26.790,236.501 26.785 C 236.182 26.783,235.825 26.627,235.708 26.438 C 235.358 25.872,233.820 26.028,233.820 26.630 M271.015 46.152 C 271.215 46.675,270.193 48.069,269.610 48.069 C 269.416 48.069,269.165 48.310,269.052 48.605 C 268.939 48.901,268.703 49.054,268.528 48.946 C 268.353 48.838,267.977 48.982,267.692 49.267 C 267.407 49.552,266.931 49.785,266.634 49.785 C 266.337 49.785,266.094 49.940,266.094 50.129 C 266.094 50.318,265.759 50.472,265.349 50.472 C 264.939 50.472,264.347 50.705,264.033 50.989 C 262.845 52.063,263.434 50.521,264.778 49.035 C 265.502 48.236,266.094 47.708,266.094 47.863 C 266.094 48.018,266.376 47.797,266.721 47.371 C 267.768 46.078,270.670 45.255,271.015 46.152 M105.751 156.933 C 101.082 157.813,96.200 160.597,93.860 163.716 C 93.338 164.410,92.826 165.056,92.722 165.150 C 92.428 165.416,91.741 166.590,91.217 167.725 C 90.171 169.986,89.840 170.880,89.499 172.361 C 88.963 174.693,88.762 283.853,89.289 286.352 C 89.814 288.837,90.715 291.502,91.031 291.502 C 91.169 291.502,91.332 291.850,91.392 292.275 C 91.453 292.700,91.455 267.476,91.396 236.223 C 91.286 176.805,91.292 176.499,92.774 172.189 C 94.913 165.963,99.541 161.694,106.094 159.902 C 110.933 158.578,111.437 158.573,213.648 158.687 C 281.615 158.763,312.790 158.687,312.790 158.444 C 312.790 158.053,310.861 157.431,308.022 156.908 C 305.719 156.483,108.007 156.508,105.751 156.933 M313.685 171.588 L 314.838 173.906 314.844 229.948 L 314.850 285.990 313.923 287.973 C 313.413 289.064,312.838 290.065,312.645 290.196 C 312.452 290.327,312.376 290.516,312.476 290.616 C 312.862 291.002,315.212 289.017,316.040 287.605 L 316.910 286.120 316.910 229.980 C 316.910 167.492,317.129 172.882,314.496 170.503 C 312.544 168.740,312.379 168.961,313.685 171.588 M48.911 174.577 C 48.045 175.443,47.581 180.944,48.375 180.944 C 48.543 180.944,48.778 181.330,48.896 181.803 C 49.015 182.275,49.263 182.661,49.449 182.661 C 49.634 182.661,49.785 182.895,49.785 183.181 C 49.785 183.466,49.973 184.000,50.202 184.367 C 50.430 184.733,50.521 185.130,50.403 185.248 C 50.094 185.556,48.381 184.363,48.607 183.997 C 48.711 183.829,48.401 183.691,47.917 183.691 C 47.434 183.691,47.039 183.553,47.039 183.385 C 47.039 183.216,46.652 182.982,46.180 182.863 C 45.708 182.745,45.322 182.496,45.322 182.311 C 45.322 181.813,42.843 181.923,42.146 182.452 C 41.815 182.703,41.545 183.153,41.545 183.451 C 41.545 183.750,41.391 184.089,41.202 184.206 C 41.013 184.323,40.858 185.191,40.858 186.135 C 40.858 187.192,40.990 187.770,41.202 187.639 C 41.404 187.515,41.550 187.896,41.556 188.563 C 41.562 189.188,41.789 189.993,42.060 190.351 C 42.331 190.709,42.472 191.134,42.372 191.295 C 42.273 191.456,42.432 191.588,42.727 191.588 C 43.069 191.588,43.262 191.898,43.262 192.446 C 43.262 192.918,43.416 193.305,43.605 193.305 C 43.794 193.305,43.936 193.575,43.921 193.906 C 43.905 194.265,43.825 194.334,43.721 194.077 C 43.626 193.841,43.342 193.648,43.089 193.648 C 42.837 193.648,42.193 193.431,41.659 193.165 C 39.007 191.847,38.690 191.747,38.542 192.189 C 38.463 192.425,38.179 192.618,37.911 192.618 C 37.573 192.618,37.425 193.035,37.425 193.991 C 37.425 194.747,37.579 195.365,37.768 195.365 C 37.957 195.365,38.112 195.577,38.112 195.836 C 38.112 196.405,40.439 198.455,41.085 198.455 C 41.338 198.455,41.545 198.609,41.545 198.798 C 41.545 198.987,42.227 199.142,43.062 199.142 C 43.896 199.142,44.634 199.308,44.701 199.512 C 44.897 200.098,47.283 200.190,47.748 199.629 C 47.971 199.361,48.426 199.142,48.761 199.142 C 49.095 199.142,49.461 198.900,49.575 198.605 C 49.688 198.310,49.936 198.164,50.126 198.282 C 50.317 198.399,50.472 198.250,50.472 197.949 C 50.472 197.649,50.676 197.325,50.925 197.230 C 51.850 196.874,51.423 195.078,50.066 193.623 C 49.345 192.850,48.755 191.998,48.755 191.731 C 48.755 191.463,48.601 191.245,48.412 191.245 C 48.223 191.245,48.069 191.013,48.069 190.730 C 48.069 190.446,48.300 190.215,48.584 190.215 C 48.867 190.215,49.099 190.369,49.099 190.558 C 49.099 191.082,54.357 190.982,55.406 190.438 C 55.897 190.184,56.202 189.878,56.083 189.760 C 55.964 189.641,56.121 189.447,56.432 189.328 C 57.408 188.953,56.912 184.392,55.894 184.380 C 55.681 184.378,53.562 180.130,53.562 179.707 C 53.562 179.619,54.000 179.977,54.535 180.503 C 56.060 182.002,56.963 182.661,57.490 182.661 C 57.758 182.661,58.189 182.873,58.447 183.132 C 59.032 183.716,61.130 183.698,61.741 183.103 C 61.991 182.860,62.428 182.661,62.712 182.661 C 63.380 182.661,65.236 180.808,65.236 180.141 C 65.236 179.859,65.411 179.570,65.624 179.499 C 66.462 179.220,66.186 174.949,65.322 174.826 C 64.897 174.766,64.549 174.881,64.549 175.083 C 64.549 175.285,64.098 175.451,63.547 175.451 C 62.847 175.451,62.204 175.812,61.412 176.652 C 60.054 178.092,57.854 178.206,57.854 176.837 C 57.854 176.641,57.733 176.486,57.584 176.493 C 57.436 176.500,57.077 176.268,56.787 175.978 C 56.497 175.688,56.030 175.451,55.749 175.451 C 55.468 175.451,55.334 175.296,55.451 175.107 C 55.567 174.918,55.422 174.764,55.128 174.764 C 54.833 174.764,54.592 174.532,54.592 174.249 C 54.592 173.275,49.945 173.543,48.911 174.577 M169.354 272.361 L 169.442 303.691 173.734 303.691 L 178.026 303.691 178.113 272.361 L 178.201 241.030 173.734 241.030 L 169.267 241.030 169.354 272.361 M147.296 272.452 L 147.296 276.750 155.794 276.658 L 164.292 276.567 164.388 272.361 L 164.485 268.155 155.890 268.155 L 147.296 268.155 147.296 272.452 M183.348 272.446 L 183.348 276.738 193.820 276.738 L 204.292 276.738 204.292 272.446 L 204.292 268.155 193.820 268.155 L 183.348 268.155 183.348 272.446 M210.472 272.465 L 210.472 276.776 212.103 276.671 L 213.734 276.567 213.830 272.361 L 213.927 268.155 212.199 268.155 L 210.472 268.155 210.472 272.465 M64.893 309.638 C 64.893 313.703,70.025 321.352,74.117 323.385 C 75.181 323.914,76.361 324.509,76.738 324.708 C 77.879 325.309,79.057 325.725,80.777 326.134 C 83.121 326.692,330.956 326.692,333.300 326.134 C 334.971 325.737,336.165 325.321,337.278 324.748 C 337.623 324.571,338.550 324.092,339.338 323.685 C 342.620 321.987,348.155 314.885,348.155 312.372 C 348.155 312.057,348.309 311.705,348.498 311.588 C 348.687 311.471,348.841 310.844,348.841 310.194 L 348.841 309.013 295.316 309.013 L 241.791 309.013 241.559 309.957 C 240.922 312.544,238.243 315.687,235.393 317.191 L 233.648 318.112 206.668 318.112 L 179.688 318.112 177.803 317.158 C 174.882 315.680,172.210 312.602,171.552 309.957 L 171.317 309.013 118.105 309.013 C 66.856 309.013,64.893 309.036,64.893 309.638 M176.137 309.448 C 176.137 310.230,178.228 312.448,179.649 313.173 C 181.653 314.195,231.155 314.030,233.063 312.995 C 234.469 312.231,236.625 310.047,236.460 309.553 C 236.266 308.969,176.137 308.865,176.137 309.448 " stroke="none" fill="#dbc2a2" fill-rule="evenodd"></path><path id="path1" d="M92.361 74.850 C 92.361 75.039,91.953 75.193,91.454 75.193 C 90.956 75.193,90.326 75.464,90.055 75.794 C 89.782 76.128,89.683 76.166,89.833 75.881 C 89.981 75.598,89.494 75.868,88.750 76.482 C 88.006 77.095,87.217 77.597,86.997 77.597 C 86.777 77.597,86.508 77.828,86.399 78.112 C 86.291 78.395,86.026 78.627,85.811 78.627 C 85.596 78.627,85.116 79.014,84.743 79.488 C 84.370 79.962,83.923 80.262,83.749 80.155 C 83.576 80.047,83.433 80.181,83.433 80.451 C 83.433 80.721,82.738 81.583,81.888 82.367 C 81.039 83.150,80.343 83.942,80.343 84.127 C 80.343 84.312,80.157 84.425,79.930 84.378 C 79.702 84.330,79.502 84.524,79.485 84.807 C 79.468 85.090,79.273 85.285,79.053 85.240 C 78.832 85.195,78.736 85.379,78.839 85.648 C 78.943 85.918,78.713 86.407,78.329 86.735 C 77.946 87.064,77.711 87.461,77.808 87.617 C 77.904 87.774,77.742 87.995,77.447 88.108 C 77.151 88.221,76.910 88.529,76.910 88.792 C 76.910 89.055,76.693 89.270,76.427 89.270 C 76.104 89.270,76.007 89.512,76.135 90.001 C 76.258 90.472,76.126 90.843,75.760 91.048 C 75.448 91.222,75.193 91.589,75.193 91.863 C 75.193 92.136,75.039 92.361,74.850 92.361 C 74.661 92.361,74.506 92.576,74.506 92.839 C 74.506 93.102,74.291 93.400,74.029 93.500 C 73.006 93.893,73.516 96.597,74.678 96.944 C 75.245 97.113,76.133 97.473,76.653 97.744 C 77.173 98.015,77.738 98.150,77.910 98.044 C 78.387 97.749,79.339 98.222,79.087 98.630 C 78.959 98.836,79.028 98.889,79.248 98.753 C 79.459 98.622,79.919 98.804,80.271 99.155 C 80.623 99.507,81.179 99.898,81.507 100.024 C 81.835 100.150,82.014 100.398,81.905 100.575 C 81.795 100.752,81.863 100.994,82.054 101.112 C 82.246 101.231,82.403 101.158,82.403 100.951 C 82.403 100.708,82.574 100.732,82.880 101.017 C 83.176 101.290,83.227 101.541,83.015 101.674 C 82.534 101.976,83.270 102.375,84.462 102.457 C 85.105 102.502,85.596 102.294,85.896 101.850 C 86.147 101.478,86.622 100.891,86.953 100.544 C 87.283 100.198,87.554 99.781,87.554 99.619 C 87.554 99.456,88.094 98.750,88.755 98.049 C 89.416 97.349,89.957 96.623,89.957 96.436 C 89.957 96.249,90.112 96.192,90.300 96.309 C 90.489 96.426,90.644 96.346,90.644 96.131 C 90.644 95.638,92.736 93.533,93.111 93.648 C 93.265 93.695,93.352 93.565,93.305 93.359 C 93.258 93.152,93.522 92.805,93.892 92.586 C 94.263 92.368,94.999 91.774,95.528 91.266 C 96.057 90.759,96.783 90.251,97.140 90.137 C 97.498 90.024,97.877 89.705,97.983 89.429 C 98.089 89.153,98.490 88.927,98.873 88.927 C 99.257 88.927,99.571 88.773,99.571 88.584 C 99.571 88.395,99.944 88.240,100.401 88.240 C 100.857 88.240,101.285 88.077,101.351 87.878 C 101.417 87.679,101.701 87.471,101.980 87.416 C 102.260 87.361,102.908 87.144,103.420 86.933 C 103.932 86.723,104.726 86.500,105.185 86.439 C 106.504 86.262,107.125 85.532,107.119 84.164 C 107.115 83.233,107.030 83.049,106.781 83.433 C 106.512 83.850,106.447 83.801,106.443 83.176 C 106.440 82.751,106.308 82.403,106.150 82.403 C 105.900 82.403,105.504 81.741,105.025 80.522 C 104.952 80.337,104.468 79.779,103.948 79.283 C 103.429 78.787,103.004 78.237,103.004 78.063 C 103.004 77.888,102.538 77.469,101.968 77.133 C 101.398 76.796,101.020 76.378,101.128 76.204 C 101.235 76.030,101.077 75.982,100.776 76.098 C 100.427 76.232,100.266 76.143,100.329 75.852 C 100.432 75.382,100.242 75.313,98.627 75.231 C 97.884 75.193,97.792 75.112,98.197 74.850 C 98.551 74.622,97.714 74.515,95.536 74.512 C 93.645 74.509,92.361 74.645,92.361 74.850 M180.462 172.780 C 180.822 173.200,181.502 173.955,181.974 174.459 C 183.911 176.528,184.133 176.894,183.640 177.206 C 183.385 177.368,167.771 177.503,148.943 177.505 C 113.415 177.511,113.667 177.501,112.279 178.889 C 110.929 180.239,110.901 180.682,110.896 201.304 C 110.891 221.277,110.818 222.675,109.849 221.538 C 109.571 221.211,108.458 219.899,107.375 218.622 L 105.408 216.300 105.408 234.460 C 105.408 250.295,105.475 252.675,105.930 253.053 C 106.217 253.292,107.415 254.572,108.591 255.899 L 110.730 258.310 110.901 273.275 L 111.073 288.240 126.180 288.240 L 141.288 288.240 141.288 263.691 L 141.288 239.142 139.407 236.738 C 138.372 235.416,137.444 234.258,137.345 234.163 C 137.245 234.069,136.709 233.373,136.154 232.618 C 135.598 231.863,135.052 231.167,134.940 231.073 C 134.828 230.979,133.358 229.124,131.674 226.953 C 129.989 224.781,128.520 222.927,128.408 222.833 C 128.296 222.738,127.750 222.043,127.194 221.288 C 126.639 220.532,126.102 219.837,126.002 219.742 C 125.483 219.252,122.276 215.004,121.938 214.357 C 120.973 212.516,121.736 209.743,123.567 208.439 C 124.564 207.729,124.731 207.725,155.308 207.725 L 186.046 207.725 187.189 208.841 C 187.817 209.455,188.871 210.639,189.531 211.473 C 190.190 212.306,190.890 213.156,191.085 213.361 C 191.281 213.566,191.898 214.352,192.457 215.107 C 193.015 215.863,193.559 216.558,193.664 216.652 C 193.770 216.747,194.311 217.439,194.868 218.191 C 195.873 219.548,196.928 220.856,197.609 221.591 C 197.805 221.802,198.422 222.592,198.980 223.348 C 199.539 224.103,200.082 224.798,200.188 224.893 C 200.293 224.987,200.835 225.682,201.392 226.438 C 201.948 227.193,202.558 227.978,202.747 228.182 C 202.936 228.386,203.863 229.578,204.807 230.831 C 206.727 233.378,207.338 233.784,207.966 232.925 C 208.203 232.601,208.747 231.932,209.177 231.438 C 209.606 230.944,210.884 229.316,212.017 227.820 C 213.150 226.325,214.589 224.475,215.214 223.709 C 216.825 221.737,216.913 221.627,219.575 218.198 C 225.912 210.037,226.686 209.178,228.622 208.155 C 230.090 207.379,293.641 207.545,294.327 208.326 C 295.432 209.585,295.377 211.316,294.192 212.565 C 293.940 212.830,293.279 213.665,292.722 214.421 C 292.165 215.176,291.617 215.871,291.504 215.966 C 291.391 216.060,290.569 217.094,289.678 218.264 C 288.787 219.434,287.862 220.592,287.622 220.839 C 287.382 221.086,286.736 221.906,286.187 222.661 C 285.639 223.416,285.026 224.189,284.826 224.378 C 284.627 224.567,284.003 225.339,283.439 226.094 C 282.876 226.850,282.229 227.700,282.001 227.983 C 281.144 229.049,279.062 231.614,278.512 232.281 C 278.197 232.663,277.482 233.590,276.922 234.342 C 276.363 235.093,275.745 235.874,275.549 236.076 C 275.353 236.279,274.807 237.012,274.335 237.705 C 273.863 238.398,273.361 238.966,273.219 238.968 C 273.077 238.969,272.961 250.100,272.961 263.703 L 272.961 288.437 289.758 288.339 L 306.555 288.240 307.470 287.382 C 309.467 285.510,309.356 288.835,309.356 230.859 L 309.356 177.511 296.529 177.511 C 282.941 177.511,280.515 177.374,280.515 176.606 C 280.515 176.010,279.892 176.027,278.798 176.652 C 277.624 177.324,275.708 177.324,275.708 176.652 C 275.708 176.332,276.032 176.137,276.567 176.137 C 277.039 176.137,277.425 175.983,277.425 175.794 C 277.425 175.605,277.734 175.451,278.112 175.451 C 278.489 175.451,278.798 175.240,278.798 174.982 C 278.798 174.724,278.489 174.120,278.112 173.640 C 277.734 173.160,277.425 172.598,277.425 172.392 C 277.425 172.127,272.850 172.017,261.735 172.017 L 246.046 172.017 247.088 173.133 C 251.473 177.829,251.792 177.593,241.246 177.444 L 233.767 177.339 232.388 175.816 C 231.630 174.978,230.620 173.780,230.142 173.155 L 229.275 172.017 204.541 172.017 L 179.808 172.017 180.462 172.780 M357.753 190.869 C 357.289 191.170,356.858 191.532,356.795 191.674 C 356.732 191.815,356.385 191.931,356.023 191.931 C 355.661 191.931,355.365 192.100,355.365 192.306 C 355.365 192.861,354.118 194.347,353.865 194.094 C 353.746 193.975,353.648 194.203,353.648 194.601 C 353.648 194.999,353.494 195.420,353.305 195.536 C 353.116 195.653,352.961 196.032,352.961 196.378 C 352.961 197.052,352.074 197.590,351.772 197.101 C 351.474 196.619,348.155 196.832,348.155 197.333 C 348.155 197.620,347.629 197.768,346.609 197.768 C 343.900 197.768,344.875 200.201,347.983 201.193 C 348.738 201.434,349.588 201.808,349.871 202.023 C 350.155 202.239,350.690 202.412,351.062 202.408 C 351.871 202.400,353.771 204.159,353.473 204.640 C 353.358 204.826,353.514 204.979,353.820 204.979 C 354.125 204.979,354.281 205.131,354.166 205.318 C 354.048 205.509,354.177 205.572,354.462 205.463 C 354.741 205.356,355.276 205.577,355.653 205.953 C 356.030 206.330,356.404 206.572,356.485 206.490 C 356.566 206.409,357.159 206.559,357.801 206.823 C 359.417 207.487,362.378 207.418,363.894 206.681 C 364.811 206.235,365.216 206.178,365.401 206.469 C 365.636 206.838,365.803 206.538,365.706 205.923 C 365.684 205.781,365.897 205.665,366.180 205.665 C 366.464 205.665,366.695 205.464,366.695 205.219 C 366.695 204.973,366.881 204.587,367.108 204.359 C 367.545 203.923,367.787 200.780,367.364 201.041 C 367.228 201.125,366.938 200.979,366.719 200.715 C 366.316 200.230,365.538 200.184,365.103 200.620 C 364.972 200.751,364.594 200.858,364.263 200.858 C 363.933 200.858,363.600 201.046,363.523 201.276 C 363.359 201.769,359.485 202.005,359.485 201.522 C 359.485 201.346,359.215 201.197,358.884 201.191 C 358.554 201.184,359.015 200.857,359.909 200.462 C 360.803 200.068,361.450 199.610,361.348 199.444 C 361.245 199.277,361.479 199.142,361.868 199.142 C 362.257 199.142,362.536 199.023,362.489 198.877 C 362.442 198.732,362.799 198.185,363.283 197.663 C 365.122 195.677,365.381 193.024,363.911 191.245 C 363.521 190.773,363.304 190.618,363.429 190.901 C 363.565 191.211,363.454 191.169,363.150 190.796 C 362.502 190.004,359.015 190.051,357.753 190.869 M128.412 213.388 C 128.412 213.541,129.397 214.767,130.313 215.754 C 130.509 215.965,131.126 216.755,131.684 217.511 C 132.243 218.266,132.786 218.961,132.892 219.056 C 132.997 219.150,133.539 219.845,134.095 220.601 C 134.652 221.356,135.262 222.147,135.451 222.358 C 136.332 223.342,137.264 224.492,138.201 225.751 C 138.764 226.506,139.306 227.202,139.406 227.296 C 139.506 227.391,140.121 228.163,140.773 229.013 C 141.424 229.863,142.039 230.635,142.139 230.730 C 142.239 230.824,142.779 231.519,143.337 232.275 C 143.896 233.030,144.548 233.849,144.787 234.094 C 145.026 234.340,145.352 234.775,145.513 235.063 C 145.713 235.420,146.208 235.550,147.084 235.475 L 148.362 235.365 145.855 232.220 C 144.476 230.490,142.498 227.965,141.459 226.610 C 140.421 225.254,139.411 223.965,139.215 223.746 C 139.019 223.527,138.401 222.730,137.842 221.975 C 137.282 221.219,136.536 220.292,136.185 219.914 C 134.506 218.109,132.831 215.594,132.938 215.038 C 133.051 214.451,134.315 214.416,158.534 214.333 C 180.967 214.255,183.988 214.183,183.814 213.732 C 183.622 213.232,128.412 212.889,128.412 213.388 M147.296 252.189 L 147.296 262.661 148.670 262.661 L 150.043 262.661 150.043 252.189 L 150.043 241.717 148.670 241.717 L 147.296 241.717 147.296 252.189 M147.296 292.704 L 147.296 303.519 148.670 303.519 L 150.043 303.519 150.043 292.704 L 150.043 281.888 148.670 281.888 L 147.296 281.888 147.296 292.704 " stroke="none" fill="#29e1f3" fill-rule="evenodd"></path><path id="path2" d="M187.986 49.039 C 187.890 49.135,187.811 50.213,187.811 51.436 C 187.811 53.146,187.673 53.766,187.210 54.125 C 186.638 54.570,186.638 54.615,187.210 55.059 C 187.541 55.316,187.811 55.702,187.811 55.918 C 187.811 56.144,188.380 56.309,189.164 56.309 C 189.909 56.309,190.613 56.464,190.730 56.652 C 190.846 56.841,191.319 56.996,191.780 56.996 C 192.241 56.996,192.618 57.140,192.618 57.316 C 192.618 57.492,192.966 57.746,193.391 57.880 C 193.815 58.014,194.413 58.411,194.718 58.762 C 195.024 59.112,195.388 59.399,195.527 59.399 C 195.667 59.399,196.085 59.785,196.456 60.258 C 197.453 61.525,199.828 61.199,199.828 59.796 C 199.828 59.609,200.019 59.393,200.252 59.315 C 202.236 58.654,200.308 51.502,198.146 51.502 C 197.722 51.502,197.425 51.282,197.425 50.967 C 197.425 50.672,197.298 50.510,197.143 50.606 C 196.988 50.702,196.442 50.563,195.931 50.298 C 195.420 50.033,194.317 49.781,193.479 49.737 C 192.588 49.691,191.883 49.468,191.780 49.200 C 191.611 48.758,188.403 48.621,187.986 49.039 M75.580 90.272 C 75.321 90.433,75.167 90.732,75.237 90.936 C 75.314 91.161,75.552 91.192,75.836 91.016 C 76.095 90.855,76.249 90.556,76.179 90.351 C 76.102 90.127,75.865 90.095,75.580 90.272 M93.047 93.219 C 92.604 93.691,92.366 94.077,92.518 94.077 C 92.776 94.077,94.077 92.744,94.077 92.480 C 94.077 92.214,93.814 92.402,93.047 93.219 M91.238 95.107 C 90.915 95.485,90.769 95.794,90.914 95.794 C 91.059 95.794,91.442 95.485,91.766 95.107 C 92.089 94.730,92.235 94.421,92.090 94.421 C 91.945 94.421,91.562 94.730,91.238 95.107 M83.433 102.736 C 83.433 102.883,83.820 103.004,84.292 103.004 C 84.764 103.004,85.150 102.852,85.150 102.665 C 85.150 102.478,84.764 102.357,84.292 102.396 C 83.820 102.435,83.433 102.588,83.433 102.736 M223.405 111.817 C 223.279 111.943,223.176 113.029,223.176 114.231 C 223.176 115.720,223.032 116.472,222.724 116.590 C 222.458 116.692,222.239 117.426,222.190 118.381 C 222.145 119.272,221.962 120.147,221.783 120.326 C 221.605 120.506,221.459 121.146,221.459 121.749 C 221.459 122.409,221.253 122.924,220.941 123.044 C 220.656 123.153,220.443 123.363,220.467 123.510 C 220.595 124.294,220.385 124.992,220.077 124.802 C 219.884 124.682,219.761 124.712,219.804 124.867 C 219.947 125.386,218.923 127.725,218.553 127.725 C 218.352 127.725,217.932 128.316,217.619 129.038 C 217.306 129.761,216.576 130.726,215.996 131.184 C 215.279 131.751,214.941 132.320,214.939 132.961 C 214.937 133.481,214.762 133.867,214.549 133.820 C 214.337 133.773,214.092 133.927,214.006 134.163 C 213.919 134.399,214.093 134.592,214.392 134.592 C 214.691 134.592,214.936 134.835,214.936 135.132 C 214.936 135.889,215.785 136.652,216.628 136.652 C 217.031 136.652,217.339 136.875,217.339 137.167 C 217.339 137.513,217.685 137.682,218.389 137.682 C 218.967 137.682,219.355 137.820,219.251 137.987 C 219.147 138.157,220.814 138.316,223.008 138.346 C 225.561 138.382,226.953 138.274,226.953 138.042 C 226.953 137.844,227.339 137.682,227.811 137.682 C 228.345 137.682,228.670 137.488,228.670 137.167 C 228.670 136.884,228.831 136.652,229.028 136.652 C 229.585 136.652,231.073 135.031,231.073 134.425 C 231.073 134.128,231.305 133.795,231.588 133.686 C 231.871 133.578,232.103 133.119,232.103 132.667 C 232.103 132.215,232.258 131.845,232.446 131.845 C 232.635 131.845,232.790 131.373,232.790 130.795 C 232.790 130.218,232.928 129.830,233.097 129.935 C 233.469 130.165,233.820 129.339,233.820 128.233 C 233.820 127.787,233.974 127.327,234.163 127.210 C 234.352 127.094,234.506 126.089,234.506 124.979 C 234.506 123.868,234.661 122.863,234.850 122.747 C 235.054 122.621,235.193 120.449,235.193 117.389 L 235.193 112.243 233.648 112.323 C 232.798 112.367,232.103 112.529,232.103 112.682 C 232.103 112.836,230.944 112.961,229.528 112.961 C 228.040 112.961,226.953 112.816,226.953 112.618 C 226.953 112.429,226.421 112.275,225.771 112.275 C 225.122 112.275,224.494 112.120,224.378 111.931 C 224.133 111.535,223.734 111.488,223.405 111.817 M108.326 171.401 C 106.941 171.885,105.763 172.984,105.192 174.324 C 104.473 176.011,104.492 284.011,105.211 285.709 C 106.539 288.843,108.043 289.085,126.238 289.093 C 134.201 289.096,140.961 289.005,141.259 288.890 C 141.964 288.620,142.101 240.170,141.401 238.862 C 141.181 238.449,140.009 236.876,138.796 235.365 C 137.584 233.854,136.413 232.385,136.193 232.101 C 134.573 230.004,132.001 226.751,131.852 226.609 C 131.752 226.515,131.215 225.820,130.660 225.064 C 130.105 224.309,129.558 223.614,129.446 223.519 C 129.335 223.425,127.863 221.571,126.175 219.399 C 124.488 217.227,122.917 215.253,122.683 215.010 C 120.968 213.231,122.614 208.156,124.944 208.042 C 125.291 208.024,125.337 207.951,125.069 207.843 C 123.808 207.333,121.545 210.237,121.545 212.366 C 121.545 213.889,123.859 217.719,126.002 219.742 C 126.102 219.837,126.639 220.532,127.194 221.288 C 127.750 222.043,128.296 222.738,128.408 222.833 C 128.520 222.927,129.989 224.781,131.674 226.953 C 133.358 229.124,134.828 230.979,134.940 231.073 C 135.052 231.167,135.598 231.863,136.154 232.618 C 136.709 233.373,137.245 234.069,137.345 234.163 C 137.444 234.258,138.372 235.416,139.407 236.738 L 141.288 239.142 141.288 263.691 L 141.288 288.240 126.180 288.240 L 111.073 288.240 110.901 273.275 L 110.730 258.310 108.591 255.899 C 107.415 254.572,106.217 253.292,105.930 253.053 C 105.475 252.675,105.408 250.295,105.408 234.460 L 105.408 216.300 107.375 218.622 C 108.458 219.899,109.571 221.211,109.849 221.538 C 110.818 222.675,110.891 221.277,110.896 201.304 C 110.901 180.682,110.929 180.239,112.279 178.889 C 113.667 177.501,113.415 177.511,148.943 177.505 C 167.771 177.503,183.385 177.368,183.640 177.206 C 184.152 176.882,184.077 176.770,181.366 173.797 L 179.900 172.189 204.542 172.097 L 229.185 172.004 230.214 173.277 C 230.780 173.978,231.811 175.178,232.505 175.945 L 233.767 177.339 241.246 177.444 C 251.792 177.593,251.473 177.829,247.088 173.133 L 246.046 172.017 261.735 172.017 C 272.850 172.017,277.425 172.127,277.425 172.392 C 277.425 172.598,277.734 173.160,278.112 173.640 C 278.489 174.120,278.798 174.724,278.798 174.982 C 278.798 175.240,278.489 175.451,278.112 175.451 C 277.734 175.451,277.425 175.605,277.425 175.794 C 277.425 175.983,277.039 176.137,276.567 176.137 C 276.032 176.137,275.708 176.332,275.708 176.652 C 275.708 177.324,277.624 177.324,278.798 176.652 C 279.892 176.027,280.515 176.010,280.515 176.606 C 280.515 177.374,282.941 177.511,296.529 177.511 L 309.356 177.511 309.356 230.859 C 309.356 288.835,309.467 285.510,307.470 287.382 L 306.555 288.240 289.758 288.339 L 272.961 288.437 272.878 263.789 L 272.794 239.142 272.697 263.348 C 272.644 276.661,272.685 287.901,272.787 288.326 L 272.974 289.099 289.019 289.089 L 305.064 289.079 306.609 288.291 C 307.602 287.785,308.430 287.021,308.925 286.155 L 309.696 284.807 309.612 230.043 C 309.535 179.826,309.481 175.193,308.960 174.249 C 308.124 172.735,306.958 171.788,305.408 171.365 C 303.510 170.848,109.808 170.883,108.326 171.401 M354.413 193.291 C 353.984 193.649,353.753 194.014,353.898 194.103 C 354.044 194.192,354.441 193.894,354.780 193.441 C 355.518 192.457,355.448 192.428,354.413 193.291 M363.145 197.769 C 362.610 198.336,362.408 198.709,362.696 198.598 C 363.132 198.431,364.512 196.738,364.213 196.738 C 364.161 196.738,363.680 197.202,363.145 197.769 M344.768 198.555 C 344.722 199.485,345.881 201.186,346.285 200.782 C 346.394 200.673,346.179 200.298,345.806 199.949 C 345.434 199.599,345.059 198.927,344.972 198.455 C 344.819 197.623,344.813 197.627,344.768 198.555 M360.777 201.788 C 361.204 201.870,361.822 201.867,362.150 201.781 C 362.478 201.695,362.129 201.628,361.373 201.632 C 360.618 201.635,360.349 201.706,360.777 201.788 M363.994 206.569 C 363.359 206.846,362.919 207.154,363.018 207.253 C 363.208 207.443,365.322 206.450,365.322 206.171 C 365.322 205.976,365.419 205.948,363.994 206.569 M357.082 206.867 C 357.554 207.137,358.172 207.357,358.455 207.356 C 358.738 207.356,358.450 207.129,357.815 206.854 C 356.353 206.219,355.960 206.226,357.082 206.867 M185.751 208.278 C 186.423 208.567,187.634 209.653,188.498 210.741 C 189.348 211.811,190.232 212.923,190.464 213.211 C 190.696 213.498,191.982 215.124,193.322 216.824 C 194.663 218.524,196.021 220.223,196.340 220.601 C 196.660 220.979,197.381 221.906,197.944 222.661 C 198.506 223.416,199.049 224.112,199.149 224.206 C 199.250 224.300,200.408 225.768,201.722 227.468 C 205.532 232.395,207.264 234.414,207.464 234.160 C 209.087 232.104,213.382 226.646,213.677 226.265 C 213.897 225.981,214.614 225.054,215.270 224.205 C 215.926 223.356,216.550 222.584,216.657 222.489 C 216.763 222.395,217.617 221.313,218.554 220.086 C 219.491 218.858,220.339 217.777,220.439 217.682 C 220.539 217.588,221.692 216.120,223.002 214.421 C 226.353 210.072,227.370 209.057,229.069 208.368 C 229.888 208.036,230.305 207.755,229.996 207.745 C 229.392 207.724,228.228 208.272,227.120 209.099 C 226.293 209.715,224.218 212.219,219.575 218.198 C 216.913 221.627,216.825 221.737,215.214 223.709 C 214.589 224.475,213.150 226.325,212.017 227.820 C 210.884 229.316,209.606 230.944,209.177 231.438 C 208.747 231.932,208.203 232.601,207.966 232.925 C 207.338 233.784,206.727 233.378,204.807 230.831 C 203.863 229.578,202.936 228.386,202.747 228.182 C 202.558 227.978,201.948 227.193,201.392 226.438 C 200.835 225.682,200.293 224.987,200.188 224.893 C 200.082 224.798,199.536 224.103,198.974 223.348 C 198.037 222.089,197.104 220.939,196.223 219.954 C 196.034 219.743,195.424 218.953,194.868 218.197 C 194.311 217.442,193.770 216.747,193.664 216.652 C 193.559 216.558,193.015 215.863,192.457 215.107 C 191.898 214.352,191.281 213.566,191.085 213.361 C 190.890 213.156,190.190 212.306,189.531 211.473 C 187.623 209.062,186.105 207.724,185.297 207.743 C 184.715 207.757,184.815 207.875,185.751 208.278 M293.979 208.538 C 294.411 208.985,294.827 209.295,294.905 209.227 C 295.105 209.051,293.861 207.725,293.497 207.725 C 293.331 207.725,293.548 208.091,293.979 208.538 M294.544 211.101 C 294.093 212.114,291.076 216.045,284.554 224.120 C 284.320 224.411,284.323 224.549,284.565 224.549 C 284.762 224.549,285.238 224.047,285.624 223.433 C 286.009 222.820,286.734 221.854,287.234 221.288 C 287.734 220.721,288.853 219.330,289.721 218.197 C 290.589 217.064,291.391 216.060,291.504 215.966 C 291.617 215.871,292.165 215.176,292.722 214.421 C 293.279 213.666,293.991 212.762,294.306 212.413 C 294.840 211.820,295.441 210.176,295.209 209.944 C 295.152 209.888,294.853 210.408,294.544 211.101 M127.725 213.179 C 127.725 213.347,128.394 214.312,129.211 215.325 C 130.530 216.960,137.090 225.208,137.777 226.094 C 137.923 226.283,139.700 228.524,141.725 231.073 L 145.408 235.708 173.047 235.790 C 189.170 235.838,200.891 235.742,201.177 235.560 C 201.570 235.311,201.288 234.778,199.774 232.903 C 198.733 231.613,194.891 226.773,191.237 222.146 C 187.583 217.519,184.401 213.541,184.167 213.305 C 183.654 212.789,127.725 212.665,127.725 213.179 M229.481 214.335 C 228.183 215.752,223.517 221.639,221.146 224.851 C 220.501 225.724,219.881 226.515,219.768 226.609 C 218.749 227.457,212.862 235.310,213.091 235.515 C 213.256 235.663,217.829 235.708,223.254 235.616 L 233.117 235.449 234.567 233.527 C 236.055 231.557,236.812 230.606,237.438 229.919 C 237.634 229.704,239.408 227.442,241.381 224.893 C 243.353 222.343,245.161 220.056,245.397 219.809 C 245.633 219.562,246.559 218.404,247.454 217.234 C 248.349 216.064,249.356 214.808,249.691 214.442 C 251.094 212.910,250.895 212.876,240.559 212.876 L 230.817 212.876 229.481 214.335 M271.057 213.138 C 270.859 213.277,269.675 214.704,268.425 216.309 C 267.176 217.914,265.860 219.538,265.500 219.918 C 265.141 220.298,264.703 220.855,264.526 221.156 C 264.350 221.456,263.715 222.304,263.114 223.040 C 262.514 223.776,261.278 225.329,260.368 226.491 C 259.457 227.654,257.708 229.881,256.481 231.442 C 255.253 233.002,254.047 234.561,253.800 234.907 C 253.369 235.512,253.654 235.536,261.182 235.519 L 269.013 235.501 272.790 230.665 C 274.867 228.005,276.727 225.656,276.922 225.446 C 277.118 225.236,277.736 224.449,278.296 223.698 C 278.855 222.946,279.577 222.019,279.898 221.638 C 281.563 219.664,286.349 213.356,286.350 213.133 C 286.352 212.800,271.532 212.805,271.057 213.138 M183.814 213.732 C 183.988 214.183,180.967 214.255,158.534 214.333 C 134.315 214.416,133.051 214.451,132.938 215.038 C 132.831 215.594,134.506 218.109,136.185 219.914 C 136.536 220.292,137.282 221.219,137.842 221.975 C 138.401 222.730,139.019 223.527,139.215 223.746 C 139.411 223.965,140.421 225.254,141.459 226.610 C 142.498 227.965,144.476 230.490,145.855 232.220 L 148.362 235.365 147.084 235.475 C 146.208 235.550,145.713 235.420,145.513 235.063 C 145.352 234.775,145.026 234.340,144.787 234.094 C 144.548 233.849,143.896 233.030,143.337 232.275 C 142.779 231.519,142.239 230.824,142.139 230.730 C 142.039 230.635,141.424 229.863,140.773 229.013 C 140.121 228.163,139.506 227.391,139.406 227.296 C 139.306 227.202,138.764 226.506,138.201 225.751 C 137.264 224.492,136.332 223.342,135.451 222.358 C 135.262 222.147,134.652 221.356,134.095 220.601 C 133.539 219.845,132.997 219.150,132.892 219.056 C 132.786 218.961,132.243 218.266,131.684 217.511 C 131.126 216.755,130.509 215.965,130.313 215.754 C 129.397 214.767,128.412 213.541,128.412 213.388 C 128.412 212.889,183.622 213.232,183.814 213.732 M281.303 228.230 C 277.919 232.449,277.668 232.794,278.006 232.770 C 278.159 232.759,279.056 231.737,280.000 230.498 C 280.944 229.259,281.877 228.070,282.073 227.856 C 282.885 226.968,284.359 224.893,284.176 224.893 C 284.068 224.893,282.775 226.394,281.303 228.230 M275.495 235.622 C 274.417 236.991,273.387 238.305,273.206 238.541 C 273.025 238.777,273.012 238.969,273.177 238.968 C 273.342 238.966,273.863 238.398,274.335 237.705 C 274.807 237.012,275.353 236.279,275.549 236.076 C 276.280 235.320,277.842 233.133,277.652 233.133 C 277.543 233.133,276.572 234.253,275.495 235.622 M148.751 240.940 L 146.943 241.066 147.034 252.121 L 147.124 263.176 155.880 263.176 L 164.635 263.176 164.726 252.144 L 164.816 241.113 164.039 240.904 C 163.237 240.690,151.959 240.716,148.751 240.940 M183.200 241.226 C 182.445 241.981,182.381 262.344,183.131 262.967 C 183.466 263.245,186.623 263.332,194.033 263.267 L 204.464 263.176 204.560 252.704 C 204.612 246.944,204.571 241.884,204.467 241.459 L 204.279 240.687 194.009 240.687 C 185.131 240.687,183.667 240.760,183.200 241.226 M210.386 241.036 C 209.752 241.428,209.434 261.962,210.048 262.857 C 210.222 263.110,213.582 263.177,220.858 263.072 L 231.416 262.920 231.416 251.975 L 231.416 241.030 222.918 241.027 C 218.245 241.025,213.648 240.943,212.704 240.845 C 211.739 240.744,210.724 240.828,210.386 241.036 M249.957 252.017 L 249.957 263.004 258.712 263.004 L 267.468 263.004 267.468 252.017 L 267.468 241.030 258.712 241.030 L 249.957 241.030 249.957 252.017 M150.043 252.189 L 150.043 262.661 148.670 262.661 L 147.296 262.661 147.296 252.189 L 147.296 241.717 148.670 241.717 L 150.043 241.717 150.043 252.189 M147.182 281.431 C 147.056 281.557,146.953 286.655,146.953 292.761 L 146.953 303.863 155.880 303.863 L 164.807 303.863 164.807 292.741 C 164.807 282.915,164.744 281.594,164.264 281.410 C 163.522 281.125,147.468 281.145,147.182 281.431 M183.016 281.866 C 182.634 282.580,182.510 301.718,182.879 303.095 L 183.087 303.872 193.775 303.782 L 204.464 303.691 204.560 293.219 C 204.612 287.459,204.571 282.399,204.467 281.974 L 204.279 281.202 193.825 281.202 C 183.842 281.202,183.356 281.232,183.016 281.866 M210.201 281.630 C 209.878 282.019,209.797 284.739,209.866 292.917 L 209.957 303.691 220.687 303.782 L 231.416 303.872 231.416 292.709 L 231.416 281.545 223.262 281.543 C 218.777 281.541,214.099 281.445,212.867 281.329 C 211.108 281.162,210.535 281.227,210.201 281.630 M249.957 292.704 L 249.957 303.863 258.169 303.863 C 262.686 303.863,266.626 303.769,266.925 303.654 C 267.750 303.338,267.750 282.070,266.925 281.753 C 266.626 281.639,262.686 281.545,258.169 281.545 L 249.957 281.545 249.957 292.704 M150.043 292.704 L 150.043 303.519 148.670 303.519 L 147.296 303.519 147.296 292.704 L 147.296 281.888 148.670 281.888 L 150.043 281.888 150.043 292.704 " stroke="none" fill="#367ee3" fill-rule="evenodd"></path><path id="path3" d="M262.323 43.933 C 261.853 44.293,261.544 44.656,261.636 44.739 C 261.728 44.821,262.186 44.523,262.654 44.075 C 263.675 43.099,263.504 43.025,262.323 43.933 M155.870 69.718 C 155.395 70.605,155.657 73.917,156.217 74.104 C 156.409 74.168,156.567 74.594,156.567 75.050 C 156.567 75.506,156.721 75.880,156.910 75.880 C 157.099 75.880,157.253 76.172,157.253 76.530 C 157.253 76.887,157.485 77.269,157.768 77.377 C 159.117 77.895,156.958 81.717,155.317 81.717 C 155.060 81.717,154.850 81.948,154.850 82.232 C 154.850 82.515,154.550 82.747,154.183 82.747 C 153.817 82.747,153.421 82.901,153.305 83.090 C 153.188 83.279,152.867 83.433,152.592 83.433 C 152.119 83.433,150.843 84.610,149.099 86.654 C 148.618 87.217,148.326 88.012,148.326 88.758 C 148.326 89.462,148.156 89.957,147.914 89.957 C 147.594 89.957,147.594 90.049,147.914 90.369 C 148.141 90.596,148.326 91.183,148.326 91.675 C 148.326 92.888,150.280 94.764,151.543 94.764 C 152.067 94.764,152.702 94.971,152.955 95.224 C 153.632 95.900,157.591 95.959,158.455 95.305 C 158.878 94.985,159.901 94.782,161.121 94.775 C 162.209 94.769,163.399 94.577,163.766 94.348 C 164.132 94.119,164.527 94.027,164.643 94.143 C 164.939 94.438,164.042 95.794,163.551 95.794 C 163.329 95.794,163.096 95.910,163.033 96.052 C 162.970 96.193,162.070 97.004,161.032 97.854 C 157.113 101.064,156.567 101.757,156.567 103.519 C 156.567 105.123,157.900 107.124,158.968 107.124 C 159.185 107.124,159.583 107.345,159.853 107.615 C 160.549 108.312,168.574 108.324,169.491 107.629 C 169.842 107.364,170.677 107.141,171.348 107.135 C 172.018 107.129,172.738 106.953,172.948 106.742 C 174.498 105.193,173.673 107.091,172.033 108.847 C 170.890 110.071,169.868 111.343,169.761 111.674 C 169.655 112.004,169.423 112.275,169.247 112.275 C 169.071 112.275,168.927 112.661,168.927 113.133 C 168.927 113.605,168.773 113.991,168.584 113.991 C 168.395 113.991,168.240 114.300,168.240 114.678 C 168.240 115.129,168.469 115.365,168.907 115.365 C 169.273 115.365,169.669 115.519,169.785 115.708 C 170.051 116.138,172.110 116.160,172.549 115.738 C 172.729 115.565,173.339 115.372,173.906 115.309 C 174.857 115.202,176.423 114.066,177.802 112.481 C 178.114 112.122,178.639 111.542,178.970 111.193 C 179.300 110.844,179.571 110.397,179.571 110.200 C 179.571 110.003,179.880 109.511,180.258 109.105 C 180.650 108.684,180.944 107.894,180.944 107.260 C 180.944 106.650,181.132 106.089,181.362 106.012 C 181.997 105.801,182.064 101.987,181.437 101.746 C 181.166 101.642,180.944 101.188,180.944 100.736 C 180.944 100.284,180.779 99.914,180.576 99.914 C 180.374 99.914,179.977 99.682,179.693 99.399 C 179.005 98.711,175.478 98.703,174.572 99.388 C 174.205 99.665,173.416 99.897,172.818 99.903 C 172.220 99.909,171.680 100.062,171.617 100.242 C 171.554 100.423,170.915 100.610,170.197 100.657 C 169.480 100.705,168.727 100.943,168.524 101.187 C 168.322 101.431,167.673 101.613,167.082 101.591 C 166.492 101.569,166.279 101.481,166.609 101.394 C 166.940 101.308,167.210 101.127,167.210 100.993 C 167.210 100.859,167.661 100.483,168.212 100.157 C 172.287 97.750,173.616 88.862,170.138 87.277 C 169.089 86.799,165.494 86.722,165.494 87.177 C 165.494 87.474,164.205 87.690,159.932 88.108 C 158.855 88.213,157.794 88.518,157.572 88.785 C 157.350 89.052,156.872 89.270,156.509 89.270 C 155.735 89.270,156.886 87.900,158.027 87.462 C 158.357 87.335,158.627 87.072,158.627 86.878 C 158.627 86.683,158.858 86.524,159.142 86.524 C 159.425 86.524,159.657 86.369,159.657 86.180 C 159.657 85.991,159.822 85.837,160.025 85.837 C 160.227 85.837,160.608 85.644,160.871 85.408 C 161.932 84.456,162.386 84.120,162.609 84.120 C 162.959 84.120,163.753 82.984,163.766 82.465 C 163.772 82.215,164.009 81.779,164.292 81.496 C 164.663 81.124,164.807 80.220,164.807 78.248 C 164.807 76.135,164.690 75.470,164.292 75.317 C 164.009 75.209,163.777 74.893,163.777 74.615 C 163.777 74.337,163.352 73.668,162.833 73.128 C 162.313 72.588,161.525 71.750,161.080 71.266 C 160.635 70.782,160.034 70.386,159.744 70.386 C 159.454 70.386,159.046 70.157,158.836 69.876 C 158.129 68.928,156.343 68.833,155.870 69.718 M274.678 87.187 C 274.678 87.363,274.385 87.600,274.026 87.714 C 273.083 88.014,271.588 89.606,271.588 90.311 C 271.588 90.642,271.355 91.003,271.070 91.113 C 270.785 91.222,270.592 91.509,270.641 91.750 C 270.704 92.061,270.027 92.239,268.326 92.361 L 265.923 92.532 265.812 93.886 C 265.679 95.520,266.641 96.461,268.458 96.473 C 269.628 96.481,269.918 96.703,271.553 98.838 C 272.007 99.430,272.586 99.914,272.841 99.914 C 273.096 99.914,273.305 100.069,273.305 100.258 C 273.305 100.446,274.155 100.601,275.193 100.601 C 276.232 100.601,277.082 100.752,277.082 100.936 C 277.082 101.153,277.390 101.153,277.962 100.936 C 278.447 100.752,279.298 100.601,279.854 100.601 C 281.660 100.601,282.918 99.097,282.918 96.939 L 282.918 95.107 281.717 95.107 C 281.056 95.107,280.515 95.262,280.515 95.451 C 280.515 95.639,280.064 95.794,279.514 95.794 C 278.963 95.794,278.453 95.971,278.381 96.187 C 278.283 96.480,278.063 96.479,277.507 96.181 C 276.712 95.756,276.800 94.764,277.633 94.764 C 277.896 94.764,278.112 94.609,278.112 94.421 C 278.112 94.232,278.287 94.077,278.501 94.077 C 278.995 94.077,280.514 92.329,280.515 91.760 C 280.515 91.524,280.670 91.330,280.858 91.330 C 281.591 91.330,281.234 88.390,280.407 87.613 C 279.570 86.827,274.678 86.463,274.678 87.187 M326.867 110.183 C 326.867 110.391,326.263 110.558,325.514 110.558 C 324.770 110.558,324.065 110.712,323.948 110.901 C 323.832 111.090,323.436 111.245,323.070 111.245 C 322.703 111.245,322.403 111.389,322.403 111.565 C 322.403 111.741,322.056 111.994,321.631 112.126 C 321.206 112.259,320.781 112.470,320.687 112.597 C 320.592 112.723,319.897 113.281,319.142 113.838 C 316.953 115.450,315.731 117.768,317.070 117.768 C 317.360 117.768,317.597 117.974,317.597 118.225 C 317.597 118.477,317.983 118.889,318.455 119.142 C 318.927 119.394,319.313 119.729,319.313 119.886 C 319.313 120.043,319.622 120.172,320.000 120.172 C 320.381 120.172,320.687 120.401,320.687 120.687 C 320.687 120.970,320.853 121.202,321.057 121.202 C 321.480 121.202,324.097 123.963,324.111 124.424 C 324.116 124.591,324.479 125.061,324.917 125.467 C 325.356 125.873,325.934 126.702,326.203 127.309 C 326.472 127.916,326.791 128.412,326.914 128.412 C 327.036 128.412,327.233 128.798,327.351 129.270 C 327.470 129.742,327.718 130.129,327.904 130.129 C 328.089 130.129,328.240 130.515,328.240 130.987 C 328.240 131.459,328.395 131.845,328.584 131.845 C 328.773 131.845,328.927 132.142,328.927 132.504 C 328.927 133.475,329.298 134.272,329.650 134.055 C 329.819 133.951,329.957 134.329,329.957 134.895 C 329.957 135.462,330.112 136.021,330.300 136.137 C 330.489 136.254,330.644 136.752,330.644 137.244 C 330.644 140.230,332.635 141.601,334.768 140.083 C 335.300 139.704,336.213 139.298,336.795 139.182 C 337.378 139.065,337.854 138.840,337.854 138.681 C 337.854 138.522,339.515 138.348,341.545 138.295 L 345.236 138.197 345.192 135.794 C 345.140 133.005,344.630 130.156,344.125 129.836 C 343.932 129.714,343.687 128.996,343.581 128.240 C 343.218 125.671,342.930 124.658,342.452 124.261 C 342.189 124.043,341.974 123.510,341.974 123.077 C 341.974 122.643,341.858 122.237,341.717 122.175 C 341.311 121.994,340.258 119.952,340.258 119.346 C 340.258 119.045,340.103 118.798,339.914 118.798 C 339.725 118.798,339.571 118.567,339.571 118.283 C 339.571 118.000,339.416 117.768,339.227 117.768 C 339.039 117.768,338.884 117.459,338.884 117.082 C 338.884 116.700,338.655 116.395,338.369 116.395 C 338.086 116.395,337.854 116.118,337.854 115.779 C 337.854 115.089,335.378 112.275,334.771 112.275 C 334.556 112.275,334.476 112.120,334.592 111.931 C 334.709 111.742,334.575 111.588,334.294 111.588 C 334.013 111.588,333.574 111.379,333.318 111.123 C 332.500 110.305,326.867 109.484,326.867 110.183 M104.893 156.424 C 98.669 157.897,90.300 164.727,90.300 168.335 C 90.300 168.585,90.155 168.936,89.977 169.116 C 88.802 170.299,88.774 171.620,88.667 229.356 C 88.570 281.238,88.610 286.358,89.126 288.229 C 90.859 294.514,95.902 299.895,102.377 302.369 L 104.893 303.331 122.857 303.447 C 136.360 303.535,140.942 303.462,141.312 303.156 C 142.252 302.376,142.001 294.308,141.030 294.083 C 140.605 293.984,132.764 293.865,123.605 293.819 L 106.953 293.734 105.283 292.881 C 103.225 291.830,101.638 290.232,100.562 288.127 L 99.742 286.524 99.645 230.730 C 99.571 188.124,99.645 174.570,99.960 173.391 C 100.901 169.866,103.557 167.298,107.288 166.304 C 109.900 165.609,304.262 165.623,306.781 166.319 C 310.327 167.299,312.957 169.954,313.811 173.417 C 314.076 174.491,314.157 191.270,314.089 230.730 C 313.983 291.310,314.098 287.372,312.377 289.614 C 309.052 293.945,310.262 293.716,290.141 293.832 C 277.290 293.907,273.094 294.032,272.893 294.347 C 272.536 294.910,272.554 302.544,272.915 303.112 C 273.147 303.478,276.603 303.542,291.193 303.447 L 309.185 303.331 311.749 302.352 C 318.110 299.924,322.508 295.195,324.502 288.636 C 325.119 286.609,325.145 284.238,325.148 229.842 L 325.150 173.161 324.428 170.960 C 322.659 165.572,317.948 159.893,313.648 157.966 C 308.654 155.728,316.937 155.888,206.867 155.914 C 121.833 155.934,106.646 156.010,104.893 156.424 M308.022 156.908 C 310.861 157.431,312.790 158.053,312.790 158.444 C 312.790 158.687,281.615 158.763,213.648 158.687 C 111.437 158.573,110.933 158.578,106.094 159.902 C 99.541 161.694,94.913 165.963,92.774 172.189 C 91.292 176.499,91.286 176.805,91.396 236.223 C 91.455 267.476,91.453 292.700,91.392 292.275 C 91.332 291.850,91.169 291.502,91.031 291.502 C 90.715 291.502,89.814 288.837,89.289 286.352 C 88.762 283.853,88.963 174.693,89.499 172.361 C 89.840 170.880,90.171 169.986,91.217 167.725 C 91.741 166.590,92.428 165.416,92.722 165.150 C 92.826 165.056,93.338 164.410,93.860 163.716 C 96.200 160.597,101.082 157.813,105.751 156.933 C 108.007 156.508,305.719 156.483,308.022 156.908 M314.496 170.503 C 317.129 172.882,316.910 167.492,316.910 229.980 L 316.910 286.120 316.040 287.605 C 315.212 289.017,312.862 291.002,312.476 290.616 C 312.376 290.516,312.452 290.327,312.645 290.196 C 312.838 290.065,313.413 289.064,313.923 287.973 L 314.850 285.990 314.844 229.948 L 314.838 173.906 313.685 171.588 C 312.379 168.961,312.544 168.740,314.496 170.503 M190.962 170.901 C 197.888 170.953,209.321 170.953,216.370 170.901 C 223.418 170.849,217.751 170.807,203.777 170.807 C 189.803 170.807,184.036 170.849,190.962 170.901 M252.790 170.901 C 257.275 170.955,264.614 170.955,269.099 170.901 C 273.584 170.847,269.914 170.802,260.944 170.802 C 251.974 170.802,248.305 170.847,252.790 170.901 M304.578 171.110 C 304.657 171.178,305.185 171.338,305.751 171.464 C 306.503 171.633,306.642 171.601,306.266 171.346 C 305.802 171.032,304.233 170.813,304.578 171.110 M106.009 172.618 C 105.513 173.137,104.944 173.997,104.743 174.529 C 104.088 176.261,104.269 284.591,104.929 285.665 C 105.218 286.137,105.329 286.215,105.174 285.837 C 104.856 285.062,104.586 176.929,104.898 175.186 C 105.008 174.568,105.570 173.525,106.147 172.868 C 107.393 171.449,107.294 171.271,106.009 172.618 M307.683 172.562 C 308.905 173.916,309.347 174.848,309.408 176.201 C 309.458 177.316,309.462 177.318,309.607 176.341 C 309.799 175.051,308.877 173.054,307.704 172.219 L 306.781 171.562 307.683 172.562 M140.197 207.983 C 148.473 208.034,161.916 208.034,170.069 207.983 C 178.222 207.931,171.451 207.890,155.021 207.890 C 138.592 207.890,131.921 207.932,140.197 207.983 M246.120 207.983 C 254.869 208.034,269.083 208.034,277.708 207.983 C 286.334 207.932,279.176 207.890,261.803 207.890 C 244.429 207.890,237.372 207.932,246.120 207.983 M226.760 209.871 L 225.751 210.987 226.951 209.957 C 227.611 209.391,228.216 208.888,228.296 208.841 C 228.375 208.794,228.289 208.755,228.104 208.755 C 227.919 208.755,227.314 209.258,226.760 209.871 M294.458 209.614 C 294.741 210.876,294.937 211.150,294.930 210.272 C 294.927 209.910,294.768 209.382,294.577 209.099 C 294.322 208.723,294.290 208.861,294.458 209.614 M224.115 212.895 C 223.404 213.829,222.940 214.583,223.085 214.573 C 223.229 214.562,223.929 213.789,224.640 212.856 C 225.351 211.923,225.815 211.168,225.670 211.178 C 225.526 211.189,224.826 211.962,224.115 212.895 M127.382 213.025 C 127.382 213.298,127.535 213.616,127.721 213.731 C 127.916 213.852,127.974 213.714,127.856 213.408 C 127.673 212.929,130.493 212.876,155.712 212.876 L 183.772 212.876 184.812 213.991 L 185.852 215.107 184.985 213.906 L 184.118 212.704 155.750 212.616 C 131.186 212.540,127.382 212.595,127.382 213.025 M232.017 212.781 C 232.631 212.857,233.635 212.857,234.249 212.781 C 234.863 212.704,234.361 212.642,233.133 212.642 C 231.906 212.642,231.403 212.704,232.017 212.781 M256.978 212.861 C 256.591 213.018,255.828 213.742,255.283 214.470 C 254.737 215.198,252.881 217.571,251.159 219.742 C 249.437 221.914,245.979 226.277,243.476 229.438 C 240.973 232.599,239.021 235.341,239.139 235.532 C 239.263 235.734,240.984 235.880,243.225 235.880 C 247.723 235.880,246.813 236.497,251.835 230.043 C 253.525 227.871,254.998 226.017,255.107 225.923 C 255.217 225.828,256.685 223.974,258.369 221.803 C 260.054 219.631,261.523 217.777,261.635 217.682 C 261.747 217.588,262.294 216.893,262.851 216.138 C 263.407 215.382,264.133 214.465,264.464 214.099 C 265.251 213.226,265.222 212.998,264.292 212.749 C 263.162 212.446,257.800 212.528,256.978 212.861 M291.626 214.850 C 289.886 217.040,289.674 217.339,289.860 217.339 C 289.947 217.339,290.738 216.412,291.618 215.279 C 292.498 214.146,293.151 213.219,293.070 213.219 C 292.988 213.219,292.339 213.953,291.626 214.850 M128.445 214.764 C 128.701 215.142,129.300 215.926,129.777 216.507 C 130.254 217.088,131.107 218.164,131.674 218.898 C 132.240 219.632,133.095 220.702,133.573 221.275 C 134.051 221.849,134.893 222.936,135.443 223.691 C 135.994 224.446,136.530 225.142,136.636 225.236 C 136.741 225.330,137.721 226.528,138.814 227.897 C 139.908 229.266,140.873 230.386,140.959 230.386 C 141.099 230.386,138.120 226.343,137.670 225.923 C 137.569 225.828,135.792 223.600,133.722 220.971 C 130.238 216.547,127.355 213.157,128.445 214.764 M268.627 215.708 C 267.613 216.865,267.021 217.682,267.197 217.682 C 267.283 217.682,267.850 217.064,268.457 216.309 C 269.635 214.843,269.755 214.422,268.627 215.708 M197.768 222.833 C 198.172 223.399,198.579 223.863,198.673 223.863 C 198.768 223.863,198.515 223.399,198.112 222.833 C 197.708 222.266,197.301 221.803,197.206 221.803 C 197.112 221.803,197.365 222.266,197.768 222.833 M283.590 224.979 C 282.953 225.781,282.702 226.220,283.034 225.953 C 283.659 225.451,285.130 223.519,284.888 223.519 C 284.812 223.519,284.228 224.176,283.590 224.979 M260.166 226.313 C 259.455 227.231,258.943 227.983,259.028 227.983 C 259.276 227.983,261.741 224.887,261.594 224.759 C 261.520 224.695,260.877 225.395,260.166 226.313 M257.496 229.785 C 256.858 230.588,256.608 231.027,256.940 230.760 C 257.564 230.258,259.036 228.326,258.793 228.326 C 258.718 228.326,258.134 228.983,257.496 229.785 M141.365 231.159 C 143.410 233.789,145.055 235.732,145.325 235.835 C 145.507 235.905,144.690 234.785,143.509 233.346 C 142.328 231.907,141.287 230.730,141.196 230.730 C 141.106 230.730,141.182 230.923,141.365 231.159 M277.067 233.219 C 276.429 234.021,276.179 234.460,276.510 234.194 C 277.135 233.692,278.607 231.760,278.364 231.760 C 278.288 231.760,277.705 232.416,277.067 233.219 M254.550 233.562 C 253.536 234.719,252.944 235.536,253.119 235.536 C 253.205 235.536,253.772 234.918,254.379 234.163 C 255.558 232.697,255.677 232.276,254.550 233.562 M220.878 235.793 C 223.107 235.853,226.661 235.853,228.775 235.793 C 230.889 235.732,229.064 235.683,224.721 235.684 C 220.378 235.684,218.648 235.733,220.878 235.793 M257.615 235.793 C 259.656 235.854,262.900 235.853,264.826 235.792 C 266.751 235.731,265.082 235.682,261.116 235.682 C 257.150 235.682,255.575 235.732,257.615 235.793 M273.673 237.503 C 273.093 238.207,272.618 238.937,272.618 239.125 C 272.618 239.312,272.874 239.084,273.187 238.617 C 273.499 238.150,274.067 237.421,274.448 236.996 C 274.829 236.571,275.048 236.223,274.935 236.223 C 274.821 236.223,274.253 236.799,273.673 237.503 M141.721 263.771 C 141.793 283.413,141.722 288.601,141.378 288.844 C 141.053 289.074,141.073 289.116,141.459 289.010 C 142.022 288.857,142.447 239.820,141.891 239.264 C 141.748 239.121,141.672 250.149,141.721 263.771 M169.085 240.773 C 168.995 241.009,168.961 255.339,169.010 272.618 L 169.099 304.034 173.707 304.131 C 177.164 304.203,178.385 304.117,178.595 303.787 C 179.074 303.031,178.954 241.237,178.472 240.755 C 177.881 240.165,169.311 240.180,169.085 240.773 M146.622 241.351 C 146.399 241.766,146.266 245.832,146.266 252.189 C 146.266 258.545,146.399 262.612,146.622 263.027 C 146.960 263.660,147.384 263.687,155.634 263.614 L 164.292 263.537 155.708 263.357 L 147.124 263.176 147.034 252.121 L 146.943 241.066 148.751 240.940 L 150.558 240.814 148.767 240.750 C 147.309 240.698,146.911 240.810,146.622 241.351 M235.964 272.351 L 236.052 304.034 240.000 304.134 C 242.172 304.189,244.297 304.147,244.723 304.041 L 245.497 303.849 245.410 272.354 L 245.322 240.858 240.599 240.763 L 235.876 240.667 235.964 272.351 M178.113 272.361 L 178.026 303.691 173.734 303.691 L 169.442 303.691 169.354 272.361 L 169.267 241.030 173.734 241.030 L 178.201 241.030 178.113 272.361 M164.960 252.017 C 164.960 257.966,165.007 260.399,165.064 257.425 C 165.121 254.451,165.121 249.584,165.064 246.609 C 165.007 243.635,164.960 246.069,164.960 252.017 M249.767 252.017 C 249.767 257.966,249.813 260.399,249.871 257.425 C 249.928 254.451,249.928 249.584,249.871 246.609 C 249.813 243.635,249.767 246.069,249.767 252.017 M267.621 252.017 C 267.621 257.966,267.668 260.399,267.725 257.425 C 267.782 254.451,267.782 249.584,267.725 246.609 C 267.668 243.635,267.621 246.069,267.621 252.017 M182.960 263.090 C 183.458 263.725,204.027 264.054,204.411 263.433 C 204.498 263.292,199.855 263.219,194.092 263.272 C 185.987 263.346,183.486 263.268,183.051 262.928 C 182.550 262.537,182.540 262.555,182.960 263.090 M218.091 263.261 C 220.488 263.320,224.505 263.320,227.018 263.261 C 229.532 263.202,227.571 263.154,222.661 263.154 C 217.751 263.154,215.695 263.202,218.091 263.261 M254.143 263.261 C 256.539 263.320,260.557 263.320,263.070 263.261 C 265.583 263.202,263.622 263.154,258.712 263.154 C 253.803 263.154,251.746 263.202,254.143 263.261 M211.249 263.594 C 211.771 263.673,212.544 263.671,212.966 263.589 C 213.388 263.508,212.961 263.443,212.017 263.446 C 211.073 263.448,210.727 263.515,211.249 263.594 M146.989 267.940 C 146.718 268.266,146.619 269.803,146.684 272.666 L 146.781 276.910 155.880 276.910 L 164.979 276.910 164.979 272.275 L 164.979 267.639 156.184 267.548 C 148.961 267.473,147.318 267.543,146.989 267.940 M182.813 267.911 C 182.717 268.160,182.682 270.287,182.736 272.637 L 182.833 276.910 193.744 277.001 L 204.655 277.091 204.559 272.365 L 204.464 267.639 193.725 267.549 C 185.084 267.476,182.953 267.547,182.813 267.911 M209.854 267.880 C 209.238 268.496,209.288 276.183,209.912 276.701 C 210.247 276.979,213.448 277.065,220.985 277.001 L 231.588 276.910 231.688 272.961 C 231.742 270.790,231.701 268.665,231.595 268.240 L 231.403 267.468 220.835 267.468 C 213.072 267.468,210.157 267.577,209.854 267.880 M249.764 267.916 C 249.669 268.163,249.635 270.287,249.688 272.637 L 249.785 276.910 258.712 276.910 L 267.639 276.910 267.735 272.403 C 267.829 267.966,267.818 267.893,267.048 267.687 C 265.375 267.238,249.945 267.443,249.764 267.916 M164.388 272.361 L 164.292 276.567 155.794 276.658 L 147.296 276.750 147.296 272.452 L 147.296 268.155 155.890 268.155 L 164.485 268.155 164.388 272.361 M204.292 272.446 L 204.292 276.738 193.820 276.738 L 183.348 276.738 183.348 272.446 L 183.348 268.155 193.820 268.155 L 204.292 268.155 204.292 272.446 M213.830 272.361 L 213.734 276.567 212.103 276.671 L 210.472 276.776 210.472 272.465 L 210.472 268.155 212.199 268.155 L 213.927 268.155 213.830 272.361 M146.806 281.398 C 146.165 282.039,145.973 303.298,146.605 303.688 C 146.824 303.824,146.975 299.929,147.034 292.635 L 147.124 281.373 149.013 281.172 L 150.901 280.970 149.123 280.914 C 147.905 280.876,147.175 281.028,146.806 281.398 M267.116 281.771 C 267.345 281.885,267.468 285.699,267.468 292.704 C 267.468 299.709,267.345 303.523,267.116 303.637 C 266.922 303.733,266.961 303.771,267.202 303.722 C 267.545 303.653,267.639 301.287,267.639 292.704 C 267.639 284.121,267.545 281.755,267.202 281.685 C 266.961 281.636,266.922 281.675,267.116 281.771 M164.960 292.704 C 164.960 298.747,165.007 301.171,165.064 298.090 C 165.121 295.009,165.121 290.065,165.064 287.103 C 165.007 284.140,164.960 286.661,164.960 292.704 M249.767 292.704 C 249.767 298.747,249.814 301.171,249.871 298.090 C 249.928 295.009,249.928 290.065,249.870 287.103 C 249.813 284.140,249.767 286.661,249.767 292.704 M108.498 288.745 C 108.781 288.934,109.541 289.091,110.186 289.093 C 111.725 289.100,111.451 288.906,109.528 288.627 C 108.448 288.470,108.138 288.506,108.498 288.745 M148.069 304.109 C 148.588 304.187,149.438 304.187,149.957 304.109 C 150.476 304.030,150.052 303.966,149.013 303.966 C 147.974 303.966,147.549 304.030,148.069 304.109 M64.778 308.898 C 63.958 309.719,66.030 315.902,67.978 318.447 C 68.831 319.561,72.222 322.887,72.961 323.334 C 75.407 324.813,76.797 325.537,78.538 326.240 L 80.515 327.039 206.163 327.127 C 344.336 327.224,333.354 327.387,337.987 325.163 C 341.977 323.247,345.342 319.929,347.291 315.988 C 349.060 312.413,349.143 312.178,349.257 310.386 L 349.356 308.841 295.566 308.754 L 241.775 308.667 240.666 310.943 C 239.519 313.299,237.326 315.744,235.644 316.543 C 235.113 316.795,234.307 317.174,233.854 317.385 C 232.598 317.969,179.761 317.924,179.176 317.339 C 178.940 317.103,178.536 316.910,178.278 316.910 C 176.513 316.910,172.699 312.482,171.845 309.442 L 171.628 308.670 118.317 308.670 C 88.997 308.670,64.904 308.773,64.778 308.898 M175.613 309.028 C 175.116 309.832,177.783 312.826,179.813 313.745 C 181.470 314.495,226.733 314.867,230.787 314.164 C 234.192 313.574,237.745 310.789,237.132 309.192 C 236.883 308.543,176.013 308.381,175.613 309.028 M171.552 309.957 C 172.210 312.602,174.882 315.680,177.803 317.158 L 179.688 318.112 206.668 318.112 L 233.648 318.112 235.393 317.191 C 238.243 315.687,240.922 312.544,241.559 309.957 L 241.791 309.013 295.316 309.013 L 348.841 309.013 348.841 310.194 C 348.841 310.844,348.687 311.471,348.498 311.588 C 348.309 311.705,348.155 312.057,348.155 312.372 C 348.155 314.885,342.620 321.987,339.338 323.685 C 338.550 324.092,337.623 324.571,337.278 324.748 C 336.165 325.321,334.971 325.737,333.300 326.134 C 330.956 326.692,83.121 326.692,80.777 326.134 C 79.057 325.725,77.879 325.309,76.738 324.708 C 76.361 324.509,75.181 323.914,74.117 323.385 C 70.025 321.352,64.893 313.703,64.893 309.638 C 64.893 309.036,66.856 309.013,118.105 309.013 L 171.317 309.013 171.552 309.957 M236.460 309.553 C 236.625 310.047,234.469 312.231,233.063 312.995 C 231.155 314.030,181.653 314.195,179.649 313.173 C 178.228 312.448,176.137 310.230,176.137 309.448 C 176.137 308.865,236.266 308.969,236.460 309.553 " stroke="none" fill="#577090" fill-rule="evenodd"></path><path id="path4" d="M155.745 69.213 C 155.407 70.093,155.504 70.218,156.000 69.540 C 156.306 69.122,156.716 68.972,157.202 69.099 C 157.609 69.205,157.854 69.152,157.748 68.981 C 157.428 68.463,155.968 68.632,155.745 69.213 M281.288 95.001 C 281.618 95.087,282.159 95.087,282.489 95.001 C 282.820 94.914,282.549 94.844,281.888 94.844 C 281.227 94.844,280.957 94.914,281.288 95.001 M277.233 95.947 C 278.026 96.582,278.455 96.629,278.455 96.080 C 278.455 95.860,278.357 95.777,278.238 95.896 C 278.119 96.016,277.694 95.956,277.294 95.763 C 276.587 95.423,276.585 95.428,277.233 95.947 M168.927 115.668 C 168.927 116.508,172.111 116.613,172.731 115.794 C 173.118 115.283,173.114 115.257,172.704 115.622 C 172.130 116.135,170.086 116.195,169.785 115.708 C 169.523 115.284,168.927 115.256,168.927 115.668 M103.128 151.245 C 102.994 151.594,102.446 151.760,101.422 151.760 C 100.593 151.760,99.914 151.914,99.914 152.103 C 99.914 152.292,99.528 152.446,99.056 152.446 C 98.584 152.446,98.197 152.601,98.197 152.790 C 98.197 152.979,97.811 153.133,97.339 153.133 C 96.805 153.133,96.481 153.328,96.481 153.648 C 96.481 153.931,96.201 154.163,95.859 154.163 C 95.517 154.163,94.905 154.472,94.500 154.850 C 94.094 155.227,93.603 155.536,93.407 155.536 C 92.811 155.536,88.379 160.161,87.867 161.318 C 87.602 161.915,87.269 162.403,87.126 162.403 C 86.984 162.403,86.867 162.712,86.867 163.090 C 86.867 163.472,86.638 163.777,86.352 163.777 C 86.069 163.777,85.837 164.077,85.837 164.443 C 85.837 164.810,85.682 165.205,85.494 165.322 C 85.305 165.439,85.150 165.911,85.150 166.372 C 85.150 166.888,84.952 167.210,84.635 167.210 C 84.277 167.210,84.120 167.570,84.120 168.392 C 84.120 169.042,83.966 169.669,83.777 169.785 C 83.301 170.079,83.301 289.663,83.777 289.957 C 83.966 290.074,84.120 290.706,84.120 291.362 C 84.120 292.105,84.314 292.628,84.635 292.751 C 84.918 292.860,85.150 293.319,85.150 293.771 C 85.150 294.223,85.305 294.592,85.494 294.592 C 85.682 294.592,85.837 294.901,85.837 295.279 C 85.837 295.660,86.066 295.966,86.352 295.966 C 86.672 295.966,86.867 296.290,86.867 296.824 C 86.867 297.296,87.021 297.682,87.210 297.682 C 87.399 297.682,87.554 297.914,87.554 298.197 C 87.554 298.481,87.708 298.712,87.897 298.712 C 88.086 298.712,88.240 298.949,88.240 299.238 C 88.240 299.527,88.472 299.853,88.755 299.962 C 89.039 300.070,89.270 300.313,89.270 300.500 C 89.270 300.687,89.750 301.289,90.337 301.836 L 91.403 302.833 76.500 302.833 C 61.368 302.833,59.752 302.957,59.745 304.120 C 59.744 304.356,59.511 304.549,59.227 304.549 C 58.808 304.549,58.712 305.118,58.712 307.603 C 58.712 310.000,58.823 310.699,59.227 310.854 C 59.599 310.996,59.742 311.579,59.742 312.951 C 59.742 313.995,59.897 314.850,60.086 314.850 C 60.275 314.850,60.429 315.236,60.429 315.708 C 60.429 316.180,60.584 316.567,60.773 316.567 C 60.961 316.567,61.116 316.936,61.116 317.388 C 61.116 317.840,61.348 318.299,61.631 318.407 C 61.914 318.516,62.146 318.919,62.146 319.303 C 62.146 319.686,62.300 320.000,62.489 320.000 C 62.678 320.000,62.833 320.287,62.833 320.639 C 62.833 320.990,63.219 321.567,63.691 321.922 C 64.163 322.276,64.549 322.742,64.549 322.958 C 64.549 323.173,65.186 324.024,65.964 324.850 L 67.378 326.352 47.351 326.441 C 34.690 326.497,27.200 326.654,26.984 326.870 C 26.797 327.057,25.759 327.210,24.677 327.210 C 23.386 327.210,22.533 327.387,22.195 327.725 C 21.912 328.009,21.446 328.240,21.161 328.240 C 20.875 328.240,20.546 328.395,20.429 328.584 C 20.312 328.773,19.387 328.927,18.373 328.927 C 17.192 328.927,16.345 329.112,16.015 329.442 C 15.638 329.819,14.717 329.957,12.577 329.957 C 10.969 329.957,9.559 330.112,9.442 330.300 C 9.325 330.489,8.244 330.644,7.039 330.644 C 5.833 330.644,4.752 330.798,4.635 330.987 C 4.518 331.176,3.902 331.330,3.266 331.330 C 2.630 331.330,1.877 331.562,1.594 331.845 C 1.311 332.129,0.836 332.361,0.540 332.361 C 0.129 332.361,0.000 332.730,0.000 333.906 C 0.000 335.193,0.109 335.451,0.650 335.451 C 1.007 335.451,1.389 335.682,1.498 335.966 C 1.627 336.304,2.163 336.481,3.059 336.481 C 3.809 336.481,4.518 336.635,4.635 336.824 C 4.752 337.013,5.833 337.167,7.039 337.167 C 8.244 337.167,9.325 337.322,9.442 337.511 C 9.559 337.700,10.940 337.854,12.510 337.854 C 14.630 337.854,15.477 337.987,15.794 338.369 C 16.128 338.771,17.072 338.884,20.108 338.884 C 22.328 338.884,24.085 339.031,24.206 339.227 C 24.332 339.431,26.476 339.571,29.479 339.571 C 32.972 339.571,34.669 339.699,34.955 339.985 C 35.238 340.268,37.403 340.442,41.805 340.535 C 45.344 340.610,48.387 340.810,48.567 340.979 C 48.746 341.149,52.561 341.288,57.044 341.288 C 62.108 341.288,65.276 341.418,65.408 341.631 C 65.542 341.848,69.457 341.974,76.019 341.974 C 85.249 341.974,86.550 342.042,87.587 342.575 C 89.403 343.509,310.597 343.509,312.413 342.575 C 313.450 342.042,314.751 341.974,323.981 341.974 C 330.543 341.974,334.458 341.848,334.592 341.631 C 334.724 341.418,337.892 341.288,342.956 341.288 C 347.439 341.288,351.254 341.149,351.433 340.979 C 351.613 340.810,354.618 340.608,358.112 340.530 C 362.123 340.442,364.740 340.239,365.213 339.980 C 365.693 339.718,367.697 339.571,370.773 339.571 C 373.608 339.571,375.669 339.430,375.794 339.227 C 375.915 339.031,377.672 338.884,379.892 338.884 C 382.844 338.884,383.877 338.766,384.186 338.393 C 384.457 338.067,385.595 337.840,387.576 337.719 C 392.595 337.411,395.006 337.124,395.348 336.795 C 395.527 336.622,396.266 336.481,396.989 336.481 C 397.842 336.481,398.374 336.299,398.502 335.966 C 398.611 335.682,398.993 335.451,399.350 335.451 C 399.891 335.451,400.000 335.193,400.000 333.906 C 400.000 332.730,399.871 332.361,399.460 332.361 C 399.164 332.361,398.689 332.129,398.406 331.845 C 398.123 331.562,397.392 331.330,396.782 331.330 C 396.173 331.330,395.527 331.189,395.348 331.016 C 395.012 330.693,392.731 330.418,387.659 330.090 C 386.001 329.983,384.462 329.694,384.063 329.415 C 383.641 329.119,382.518 328.927,381.211 328.927 C 380.003 328.927,379.056 328.776,379.056 328.584 C 379.056 328.395,378.736 328.240,378.345 328.240 C 377.953 328.240,377.402 328.009,377.118 327.725 C 376.735 327.342,375.793 327.210,373.435 327.210 C 371.692 327.210,370.114 327.058,369.927 326.872 C 369.722 326.666,365.092 326.497,358.171 326.442 L 346.752 326.352 348.140 324.864 C 348.903 324.046,349.528 323.194,349.528 322.971 C 349.528 322.749,349.885 322.298,350.322 321.970 C 350.759 321.642,351.329 320.833,351.588 320.172 C 351.847 319.511,352.185 318.970,352.339 318.970 C 352.492 318.970,352.618 318.600,352.618 318.148 C 352.618 317.696,352.850 317.238,353.133 317.129 C 353.434 317.014,353.648 316.499,353.648 315.891 C 353.648 315.318,353.803 314.850,353.991 314.850 C 354.180 314.850,354.335 314.221,354.335 313.452 C 354.335 312.667,354.561 311.828,354.850 311.539 C 355.235 311.154,355.365 310.206,355.365 307.787 C 355.365 305.138,355.271 304.549,354.850 304.549 C 354.567 304.549,354.334 304.356,354.332 304.120 C 354.325 302.959,352.703 302.833,337.786 302.833 C 324.952 302.833,323.090 302.767,323.090 302.318 C 323.090 302.034,323.256 301.803,323.458 301.803 C 323.916 301.803,324.807 300.936,324.807 300.490 C 324.807 300.308,325.039 300.070,325.322 299.962 C 325.605 299.853,325.837 299.527,325.837 299.238 C 325.837 298.949,325.991 298.712,326.180 298.712 C 326.369 298.712,326.524 298.481,326.524 298.197 C 326.524 297.914,326.678 297.682,326.867 297.682 C 327.056 297.682,327.210 297.296,327.210 296.824 C 327.210 296.290,327.405 295.966,327.725 295.966 C 328.011 295.966,328.240 295.660,328.240 295.279 C 328.240 294.901,328.395 294.592,328.584 294.592 C 328.773 294.592,328.927 294.206,328.927 293.734 C 328.927 293.262,329.082 292.876,329.270 292.876 C 329.459 292.876,329.614 292.351,329.614 291.711 C 329.614 290.992,329.811 290.470,330.129 290.348 C 330.523 290.197,330.644 289.549,330.644 287.585 C 330.644 286.174,330.798 284.924,330.987 284.807 C 331.214 284.667,331.330 265.919,331.330 229.679 C 331.330 193.298,331.215 174.764,330.987 174.764 C 330.789 174.764,330.644 173.677,330.644 172.189 C 330.644 170.129,330.541 169.614,330.129 169.614 C 329.769 169.614,329.614 169.251,329.614 168.412 C 329.614 167.751,329.459 167.210,329.270 167.210 C 329.082 167.210,328.927 166.848,328.927 166.405 C 328.927 165.431,328.180 163.867,327.226 162.842 C 326.840 162.428,326.524 161.870,326.524 161.602 C 326.524 161.014,324.014 158.283,323.473 158.283 C 323.263 158.283,323.090 158.110,323.090 157.899 C 323.090 157.392,321.107 155.650,319.914 155.110 C 319.395 154.875,318.970 154.565,318.970 154.423 C 318.970 154.280,318.677 154.163,318.320 154.163 C 317.963 154.163,317.581 153.931,317.472 153.648 C 317.364 153.365,316.961 153.133,316.577 153.133 C 316.194 153.133,315.880 152.979,315.880 152.790 C 315.880 152.601,315.494 152.446,315.021 152.446 C 314.549 152.446,314.163 152.292,314.163 152.103 C 314.163 151.914,313.463 151.760,312.607 151.760 C 311.541 151.760,310.989 151.598,310.854 151.245 C 310.553 150.460,103.429 150.460,103.128 151.245 M309.013 156.403 C 311.196 156.905,311.539 157.021,313.648 157.966 C 317.948 159.893,322.659 165.572,324.428 170.960 L 325.150 173.161 325.148 229.842 C 325.145 284.238,325.119 286.609,324.502 288.636 C 322.508 295.195,318.110 299.924,311.749 302.352 L 309.185 303.331 291.193 303.447 C 276.603 303.542,273.147 303.478,272.915 303.112 C 272.554 302.544,272.536 294.910,272.893 294.347 C 273.094 294.032,277.290 293.907,290.141 293.832 C 310.262 293.716,309.052 293.945,312.377 289.614 C 314.098 287.372,313.983 291.310,314.089 230.730 C 314.157 191.270,314.076 174.491,313.811 173.417 C 312.957 169.954,310.327 167.299,306.781 166.319 C 304.262 165.623,109.900 165.609,107.288 166.304 C 103.557 167.298,100.901 169.866,99.960 173.391 C 99.645 174.570,99.571 188.124,99.645 230.730 L 99.742 286.524 100.562 288.127 C 101.638 290.232,103.225 291.830,105.283 292.881 L 106.953 293.734 123.605 293.819 C 132.764 293.865,140.605 293.984,141.030 294.083 C 142.001 294.308,142.252 302.376,141.312 303.156 C 140.942 303.462,136.360 303.535,122.857 303.447 L 104.893 303.331 102.377 302.369 C 95.902 299.895,90.859 294.514,89.126 288.229 C 88.610 286.358,88.570 281.238,88.667 229.356 C 88.774 171.620,88.802 170.299,89.977 169.116 C 90.155 168.936,90.300 168.585,90.300 168.335 C 90.300 166.303,95.968 160.206,99.447 158.496 C 105.134 155.699,95.115 155.940,206.867 155.914 C 294.366 155.893,307.058 155.954,309.013 156.403 M278.716 170.896 L 305.929 171.080 307.260 171.943 C 309.907 173.660,309.700 168.698,309.700 230.231 L 309.700 285.332 308.927 286.512 C 307.194 289.162,307.681 289.099,289.138 289.099 L 272.618 289.099 272.618 263.924 L 272.618 238.750 273.750 237.401 C 274.372 236.659,278.113 231.957,282.064 226.953 C 286.014 221.948,289.330 217.777,289.432 217.682 C 289.534 217.588,290.256 216.661,291.037 215.622 C 291.817 214.584,292.743 213.417,293.095 213.030 C 294.659 211.306,294.938 210.089,294.058 208.832 L 293.523 208.069 261.848 208.069 C 225.122 208.069,228.727 207.687,225.337 211.933 C 224.244 213.301,223.264 214.498,223.159 214.592 C 223.054 214.687,222.514 215.382,221.958 216.137 C 221.403 216.893,220.864 217.588,220.762 217.682 C 220.659 217.777,219.048 219.785,217.180 222.146 C 214.293 225.795,212.567 227.971,210.368 230.731 C 210.142 231.015,209.442 231.903,208.812 232.705 C 208.183 233.507,207.476 234.163,207.242 234.163 C 206.815 234.163,203.685 230.349,195.690 220.086 C 194.734 218.858,193.381 217.173,192.684 216.341 C 191.987 215.509,191.185 214.501,190.901 214.102 C 189.074 211.524,186.827 208.963,186.031 208.551 C 185.251 208.148,180.168 208.069,154.985 208.069 L 124.872 208.069 123.770 208.909 C 122.145 210.148,121.575 213.984,122.874 214.935 C 123.091 215.094,129.188 222.801,131.159 225.408 C 131.631 226.032,133.639 228.580,135.622 231.069 C 137.605 233.559,139.881 236.471,140.679 237.540 L 142.130 239.485 142.052 264.206 L 141.974 288.927 125.494 289.005 L 109.013 289.083 107.468 288.293 C 106.475 287.785,105.648 287.021,105.154 286.155 L 104.385 284.807 104.467 229.639 C 104.559 167.709,104.301 173.817,106.913 171.867 C 108.195 170.909,202.222 170.378,278.716 170.896 M185.585 214.678 C 186.442 215.858,187.564 217.353,188.078 217.999 C 188.592 218.645,191.533 222.354,194.614 226.239 C 197.694 230.125,200.579 233.763,201.025 234.324 C 201.472 234.884,201.762 235.463,201.671 235.611 C 201.579 235.759,188.806 235.879,173.284 235.877 L 145.064 235.874 143.176 233.432 C 141.359 231.082,138.246 227.182,137.045 225.751 C 136.729 225.373,136.013 224.446,135.456 223.691 C 134.899 222.936,134.051 221.849,133.573 221.275 C 133.095 220.702,132.240 219.632,131.674 218.898 C 131.107 218.164,130.248 217.088,129.764 216.507 C 128.420 214.894,127.382 213.326,127.382 212.908 C 127.382 212.639,135.404 212.532,155.704 212.532 L 184.026 212.532 185.585 214.678 M244.001 212.876 C 247.655 212.876,250.644 213.005,250.644 213.164 C 250.644 213.427,247.840 217.130,245.059 220.541 C 244.026 221.807,242.516 223.724,235.880 232.195 C 234.464 234.002,232.996 235.569,232.618 235.676 C 231.583 235.969,212.940 235.919,212.759 235.622 C 212.672 235.481,214.015 233.568,215.743 231.373 C 217.470 229.177,221.047 224.628,223.691 221.263 C 226.335 217.898,229.075 214.534,229.781 213.787 L 231.065 212.429 234.212 212.652 C 235.943 212.775,240.348 212.876,244.001 212.876 M264.292 212.749 C 265.222 212.998,265.251 213.226,264.464 214.099 C 264.133 214.465,263.407 215.382,262.851 216.138 C 262.294 216.893,261.747 217.588,261.635 217.682 C 261.523 217.777,260.054 219.631,258.369 221.803 C 256.685 223.974,255.217 225.828,255.107 225.923 C 254.998 226.017,253.525 227.871,251.835 230.043 C 246.813 236.497,247.723 235.880,243.225 235.880 C 240.984 235.880,239.263 235.734,239.139 235.532 C 239.021 235.341,240.973 232.599,243.476 229.438 C 245.979 226.277,249.437 221.914,251.159 219.742 C 252.881 217.571,254.737 215.198,255.283 214.470 C 256.639 212.659,260.912 211.843,264.292 212.749 M286.695 213.070 C 286.695 213.252,285.028 215.589,284.629 215.966 C 284.529 216.060,283.605 217.219,282.575 218.541 C 281.546 219.863,280.614 221.021,280.505 221.116 C 280.396 221.210,279.853 221.906,279.297 222.661 C 278.742 223.416,278.205 224.112,278.105 224.206 C 278.004 224.300,276.587 226.100,274.955 228.205 C 273.323 230.310,271.682 232.396,271.308 232.840 C 270.934 233.285,270.240 234.112,269.765 234.678 L 268.902 235.708 262.091 235.816 C 253.670 235.949,252.765 235.829,253.633 234.695 C 255.399 232.389,261.482 224.670,261.790 224.344 C 261.986 224.136,263.382 222.377,264.893 220.435 C 266.403 218.492,268.387 215.997,269.300 214.889 L 270.961 212.876 278.828 212.876 C 283.155 212.876,286.695 212.963,286.695 213.070 M178.472 240.755 C 178.954 241.237,179.074 303.031,178.595 303.787 C 178.385 304.117,177.164 304.203,173.707 304.131 L 169.099 304.034 169.010 272.618 C 168.961 255.339,168.995 241.009,169.085 240.773 C 169.311 240.180,177.881 240.165,178.472 240.755 M164.738 241.099 C 165.435 241.795,165.315 262.447,164.611 263.151 C 163.696 264.066,147.116 263.951,146.622 263.027 C 146.399 262.612,146.266 258.545,146.266 252.189 C 146.266 245.832,146.399 241.766,146.622 241.351 C 147.058 240.535,163.940 240.300,164.738 241.099 M204.464 252.189 L 204.464 263.519 194.033 263.610 C 186.623 263.675,183.466 263.588,183.131 263.311 C 182.472 262.763,182.432 241.181,183.090 240.912 C 183.326 240.815,188.232 240.763,193.991 240.797 L 204.464 240.858 204.464 252.189 M223.915 241.030 L 231.416 241.030 231.416 252.152 L 231.416 263.273 221.030 263.418 C 214.875 263.503,210.469 263.432,210.215 263.241 C 209.733 262.881,209.568 241.372,210.043 240.876 C 210.185 240.728,211.676 240.702,213.357 240.819 C 215.039 240.935,219.790 241.030,223.915 241.030 M245.410 272.354 L 245.497 303.849 244.723 304.041 C 244.297 304.147,242.172 304.189,240.000 304.134 L 236.052 304.034 235.964 272.351 L 235.876 240.667 240.599 240.763 L 245.322 240.858 245.410 272.354 M267.736 251.502 C 267.788 257.167,267.747 262.150,267.643 262.575 L 267.455 263.348 258.743 263.348 C 251.115 263.348,250.005 263.280,249.822 262.805 C 249.534 262.052,249.558 241.543,249.848 241.253 C 249.977 241.124,254.033 241.060,258.861 241.110 L 267.639 241.202 267.736 251.502 M164.979 272.275 L 164.979 276.910 155.880 276.910 L 146.781 276.910 146.684 272.666 C 146.554 266.954,145.655 267.438,156.184 267.548 L 164.979 267.639 164.979 272.275 M204.559 272.365 L 204.655 277.091 193.744 277.001 L 182.833 276.910 182.736 272.637 C 182.682 270.287,182.717 268.160,182.813 267.911 C 182.953 267.547,185.084 267.476,193.725 267.549 L 204.464 267.639 204.559 272.365 M231.595 268.240 C 231.701 268.665,231.742 270.790,231.688 272.961 L 231.588 276.910 220.985 277.001 C 208.337 277.109,209.442 277.559,209.442 272.301 C 209.442 266.999,208.336 267.468,220.835 267.468 L 231.403 267.468 231.595 268.240 M267.048 267.687 C 267.818 267.893,267.829 267.966,267.735 272.403 L 267.639 276.910 258.712 276.910 L 249.785 276.910 249.688 272.637 C 249.635 270.287,249.669 268.163,249.764 267.916 C 249.945 267.443,265.375 267.238,267.048 267.687 M164.726 281.633 C 165.063 281.903,165.139 284.412,165.069 292.836 L 164.979 303.691 156.223 303.902 C 151.248 304.021,147.208 303.979,146.867 303.804 C 146.040 303.379,145.934 282.270,146.754 281.449 C 147.343 280.860,163.973 281.030,164.726 281.633 M204.554 292.618 L 204.645 303.863 193.653 303.863 L 182.661 303.863 182.661 293.075 C 182.661 287.142,182.756 282.041,182.871 281.740 C 183.059 281.252,184.247 281.202,193.772 281.283 L 204.464 281.373 204.554 292.618 M224.120 281.543 L 231.416 281.545 231.416 292.704 L 231.416 303.863 220.601 303.863 L 209.785 303.863 209.785 292.761 C 209.785 286.655,209.901 281.538,210.043 281.390 C 210.185 281.242,211.768 281.216,213.562 281.331 C 215.356 281.447,220.107 281.542,224.120 281.543 M267.639 292.704 L 267.639 303.691 258.712 303.691 L 249.785 303.691 249.694 293.051 C 249.644 287.198,249.679 282.213,249.772 281.972 C 249.903 281.629,251.861 281.553,258.790 281.625 L 267.639 281.717 267.639 292.704 M171.845 309.442 C 172.699 312.482,176.513 316.910,178.278 316.910 C 178.536 316.910,178.940 317.103,179.176 317.339 C 179.761 317.924,232.598 317.969,233.854 317.385 C 234.307 317.174,235.113 316.795,235.644 316.543 C 237.326 315.744,239.519 313.299,240.666 310.943 L 241.775 308.667 295.566 308.754 L 349.356 308.841 349.257 310.386 C 349.143 312.178,349.060 312.413,347.291 315.988 C 345.342 319.929,341.977 323.247,337.987 325.163 C 333.354 327.387,344.336 327.224,206.163 327.127 L 80.515 327.039 78.538 326.240 C 76.797 325.537,75.407 324.813,72.961 323.334 C 72.222 322.887,68.831 319.561,67.978 318.447 C 66.030 315.902,63.958 309.719,64.778 308.898 C 64.904 308.773,88.997 308.670,118.317 308.670 L 171.628 308.670 171.845 309.442 M237.132 309.192 C 237.745 310.789,234.192 313.574,230.787 314.164 C 226.733 314.867,181.470 314.495,179.813 313.745 C 177.783 312.826,175.116 309.832,175.613 309.028 C 176.013 308.381,236.883 308.543,237.132 309.192 " stroke="none" fill="#060674" fill-rule="evenodd"></path></g></svg>