<svg width="170" height="54" viewBox="0 0 170 54" fill="none" xmlns="http://www.w3.org/2000/svg">
<path d="M77.4443 29.1106L84.8297 11.9539H85.8523L93.0104 29.2242H91.7606L89.3745 23.5432H81.1938L78.8078 29.2242L77.4443 29.1106ZM85.2842 13.5445L81.4211 22.5206H89.0337L85.2842 13.5445Z" fill="#CCCCCC"/>
<path d="M97.4419 29.2241V12.0674H108.577V13.2036H98.6917V20.0208H107.1V21.0434H98.6917V29.2241H97.4419Z" fill="#CCCCCC"/>
<path d="M113.235 29.2241L113.348 12.0674H124.483V13.2036H114.598V20.0208H123.006V21.0434H114.598V29.2241H113.235Z" fill="#CCCCCC"/>
<path d="M125.62 29.3384L133.005 12.1816H134.028L141.299 29.3384H139.936L137.55 23.6573H129.369L126.983 29.3384H125.62ZM133.459 13.6587L129.596 22.6348H137.209L133.459 13.6587Z" fill="#CCCCCC"/>
<path d="M145.503 29.3381L145.617 12.1814H146.866L146.753 29.3381H145.503Z" fill="#CCCCCC"/>
<path d="M153.002 29.3381L153.116 12.1814H160.274C160.956 12.1814 161.638 12.295 162.319 12.6359C162.887 12.9767 163.456 13.3176 163.91 13.8857C164.365 14.3402 164.705 15.0219 164.933 15.59C165.16 16.2717 165.273 16.8399 165.273 17.5216C165.273 18.2033 165.16 18.7714 164.933 19.3395C164.705 19.9076 164.478 20.4757 164.137 20.9302C163.796 21.3847 163.342 21.7255 162.887 22.0664C162.433 22.4073 161.865 22.5209 161.297 22.6345L165.501 29.3381H164.024L159.933 22.8618H154.366V29.3381H153.002ZM154.252 21.7255H160.274C160.842 21.7255 161.297 21.6119 161.751 21.3847C162.206 21.1574 162.547 20.8166 162.887 20.4757C163.228 20.1349 163.456 19.6804 163.683 19.1123C163.91 18.6578 163.91 18.0897 163.91 17.5216C163.91 16.9535 163.796 16.499 163.569 15.9309C163.342 15.3628 163.115 15.0219 162.774 14.5674C162.433 14.2266 161.978 13.8857 161.524 13.6585C161.07 13.4312 160.615 13.3176 160.047 13.3176H154.252V21.7255Z" fill="#CCCCCC"/>
<path d="M52.5614 43.4273C52.675 43.541 52.7887 43.541 53.0159 43.6546C53.2431 43.7682 53.4704 43.7682 53.6976 43.7682C53.9249 43.7682 54.1521 43.7682 54.3794 43.6546C54.6066 43.541 54.7202 43.4273 54.7202 43.2001C54.8338 42.9729 54.8338 42.7456 54.9475 42.4047C54.9475 42.0639 54.9475 41.723 54.9475 41.3822V38.0872H55.97V41.3822C55.97 41.8366 55.97 42.2911 55.8564 42.7456C55.8564 43.2001 55.7428 43.541 55.5156 43.7682C55.4019 44.1091 55.1747 44.3363 54.8338 44.4499C54.493 44.5635 54.1521 44.6772 53.584 44.6772C53.0159 44.6772 52.5614 44.5635 52.1069 44.2227L52.5614 43.4273Z" fill="#CCCCCC"/>
<path d="M60.9692 44.6772V43.541H61.7646V44.6772H60.9692Z" fill="#CCCCCC"/>
<path d="M72.104 44.6772V38.0872H74.8309C75.1718 38.0872 75.399 38.2008 75.6263 38.3144C75.8535 38.428 76.0807 38.6553 76.308 38.7689C76.5352 38.9961 76.6488 39.2234 76.7625 39.4506C76.8761 39.6779 76.8761 40.0187 76.8761 40.246C76.8761 40.4732 76.8761 40.8141 76.7625 41.0413C76.6488 41.2685 76.5352 41.4958 76.308 41.723C76.0807 41.9503 75.9671 42.0639 75.6263 42.1775C75.399 42.2911 75.0581 42.4047 74.8309 42.4047H73.013V44.6772H72.104ZM73.2402 41.4958H74.9445C75.0581 41.4958 75.1718 41.4958 75.399 41.3822C75.5126 41.2685 75.6263 41.2685 75.7399 41.1549C75.8535 41.0413 75.8535 40.9277 75.9671 40.8141C75.9671 40.7004 76.0807 40.4732 76.0807 40.3596C76.0807 40.1323 76.0807 40.0187 75.9671 39.9051C75.9671 39.7915 75.8535 39.6778 75.7399 39.5642C75.6263 39.4506 75.5126 39.337 75.399 39.337C75.2854 39.2234 75.1718 39.2234 75.0581 39.2234H73.3538L73.2402 41.4958Z" fill="#CCCCCC"/>
<path d="M80.6255 44.6772L83.2388 38.0872H84.0341L86.6474 44.6772H85.5112L84.9431 42.9729H82.4434L81.7617 44.7908L80.6255 44.6772ZM83.6933 39.337L82.557 42.1775H84.7158L83.6933 39.337Z" fill="#CCCCCC"/>
<path d="M91.3057 44.7904V38.2004H94.1462C94.487 38.2004 94.7143 38.3141 94.9415 38.4277C95.1688 38.5413 95.396 38.7685 95.6233 38.8822C95.8505 39.1094 95.9641 39.3366 96.0777 39.5639C96.1914 39.7911 96.1914 40.132 96.1914 40.3592C96.1914 40.5865 96.1914 40.8137 96.0777 41.041C95.9641 41.2682 95.9641 41.3818 95.8505 41.6091C95.7369 41.8363 95.6233 41.9499 95.396 42.0635C95.2824 42.1772 95.0552 42.2908 94.8279 42.2908L96.4186 44.7904H95.2824L93.8053 42.518H92.3283V44.7904H91.3057ZM92.3283 41.6091H94.1462C94.2598 41.6091 94.3734 41.6091 94.6007 41.4954C94.7143 41.3818 94.8279 41.3818 94.9415 41.2682C95.0552 41.1546 95.0552 41.041 95.1688 40.9273C95.1688 40.8137 95.2824 40.5865 95.2824 40.4729C95.2824 40.3592 95.2824 40.132 95.1688 40.0184C95.0552 39.9048 95.0552 39.7911 94.9415 39.6775C94.8279 39.5639 94.7143 39.4503 94.6007 39.4503C94.487 39.3366 94.3734 39.3366 94.2598 39.3366H92.5555L92.3283 41.6091Z" fill="#CCCCCC"/>
<path d="M101.191 44.7904V38.2004H102.213V44.7904H101.191Z" fill="#CCCCCC"/>
<path d="M111.303 39.7913C111.19 39.6777 111.19 39.6777 111.076 39.5641C110.962 39.4505 110.849 39.4505 110.621 39.3368C110.508 39.2232 110.281 39.2232 110.053 39.2232C109.826 39.2232 109.712 39.1096 109.485 39.1096C109.031 39.1096 108.803 39.2232 108.576 39.3368C108.349 39.4505 108.235 39.6777 108.235 40.0186C108.235 40.1322 108.235 40.3594 108.349 40.3594C108.463 40.473 108.463 40.5867 108.69 40.5867C108.917 40.5867 109.031 40.7003 109.144 40.8139C109.372 40.9275 109.599 40.9275 109.826 41.0412C110.167 41.1548 110.394 41.2684 110.735 41.2684C110.962 41.382 111.19 41.4956 111.417 41.6093C111.644 41.7229 111.758 41.9501 111.871 42.1774C111.985 42.4046 111.985 42.6318 111.985 42.9727C111.985 43.3136 111.871 43.6544 111.758 43.8817C111.644 44.1089 111.417 44.3362 111.19 44.4498C110.962 44.5634 110.735 44.677 110.394 44.7906C110.053 44.9043 109.826 44.9043 109.485 44.9043C109.031 44.9043 108.463 44.7906 108.008 44.677C107.554 44.5634 107.099 44.3362 106.758 43.9953L107.213 43.0863C107.326 43.1999 107.44 43.1999 107.554 43.3136C107.667 43.4272 107.895 43.5408 108.122 43.5408C108.349 43.6544 108.576 43.6544 108.803 43.768C109.031 43.8817 109.258 43.8817 109.599 43.8817C109.94 43.8817 110.281 43.7681 110.508 43.6544C110.735 43.5408 110.849 43.3136 110.849 42.9727C110.849 42.8591 110.849 42.6318 110.735 42.5182C110.621 42.4046 110.508 42.291 110.394 42.1774C110.281 42.0637 110.053 42.0637 109.826 41.9501C109.599 41.8365 109.372 41.8365 109.031 41.7229C108.69 41.6093 108.463 41.4956 108.122 41.4956C107.895 41.382 107.667 41.2684 107.554 41.1548C107.44 41.0412 107.326 40.8139 107.213 40.7003C107.099 40.473 107.099 40.2458 107.099 40.0186C107.099 39.6777 107.213 39.4505 107.326 39.1096C107.44 38.8824 107.667 38.6551 107.781 38.4279C108.008 38.3142 108.235 38.087 108.576 38.087C108.917 37.9734 109.144 37.9734 109.485 37.9734C109.94 37.9734 110.394 38.087 110.735 38.2006C111.076 38.3143 111.417 38.5415 111.758 38.7687L111.303 39.7913Z" fill="#CCCCCC"/>
<path fill-rule="evenodd" clip-rule="evenodd" d="M166.068 9.11362C166.977 9.11362 167.773 9.90897 167.773 10.8179C167.773 11.7269 166.977 12.5222 166.068 12.5222C165.159 12.5222 164.364 11.7269 164.364 10.8179C164.364 9.90897 165.159 9.11362 166.068 9.11362ZM166.068 9C167.091 9 168 9.90897 168 10.9316C168 11.9541 167.091 12.8631 166.068 12.8631C165.046 12.8631 164.137 11.9541 164.137 10.9316C164.137 9.79535 165.046 9 166.068 9Z" fill="#CCCCCC"/>
<path d="M165.273 12.1813V9.68164H166.296C166.409 9.68164 166.523 9.68164 166.636 9.79526C166.75 9.79526 166.75 9.90888 166.864 10.0225C166.977 10.1361 166.977 10.1361 166.977 10.2497C166.977 10.3634 166.977 10.477 166.977 10.5906C166.977 10.7042 166.977 10.8178 166.977 10.8178C166.977 10.9315 166.864 10.9315 166.864 11.0451C166.864 11.1587 166.75 11.1587 166.636 11.1587C166.523 11.1587 166.523 11.2723 166.409 11.2723L166.977 12.1813H166.75L166.182 11.2723H165.387V12.1813H165.273ZM165.5 11.0451H166.296C166.409 11.0451 166.409 11.0451 166.523 11.0451C166.636 11.0451 166.636 10.9315 166.636 10.9315C166.636 10.9315 166.75 10.8178 166.75 10.7042C166.75 10.5906 166.75 10.5906 166.75 10.477C166.75 10.3634 166.75 10.3634 166.75 10.2497C166.75 10.1361 166.636 10.1361 166.636 10.0225L166.523 9.90888C166.523 9.90888 166.409 9.90888 166.296 9.90888H165.5V11.0451Z" fill="#CCCCCC"/>
<path d="M2.34082 28.6563L2.45444 11.4995H4.15875V27.1792H14.0438V28.6563H2.34082Z" fill="#CCCCCC"/>
<path d="M16.4297 28.77L23.7014 11.6133H25.0649L32.223 28.77H30.4051L28.1326 23.4298H20.4064L18.2476 28.77H16.4297ZM24.3831 13.6585L20.8609 22.0664H27.7918L24.3831 13.6585Z" fill="#CCCCCC"/>
<path d="M45.9711 14.9081C45.5166 14.34 44.8349 13.8855 44.0396 13.5447C43.2442 13.2038 42.3353 12.9766 41.3127 12.9766C39.8356 12.9766 38.6994 13.2038 38.0177 13.7719C37.3359 14.34 36.9951 15.1354 36.9951 16.0443C36.9951 16.6124 37.1087 16.9533 37.2223 17.2942C37.4496 17.635 37.6768 17.8623 38.1313 18.2031C38.5858 18.544 39.0402 18.6576 39.6084 18.8849C40.1765 19.1121 40.9718 19.2257 41.7671 19.453C42.6761 19.6802 43.4715 19.9075 44.2668 20.1347C44.9485 20.3619 45.6303 20.7028 46.0847 21.0437C46.6528 21.3845 46.9937 21.839 47.2209 22.4071C47.4482 22.9752 47.6754 23.5433 47.6754 24.3387C47.6754 25.134 47.5618 25.8157 47.2209 26.3838C46.8801 26.9519 46.5392 27.4064 45.9711 27.8609C45.403 28.2018 44.7213 28.5426 44.0396 28.6563C43.2442 28.8835 42.4489 28.8835 41.5399 28.8835C38.813 28.8835 36.5406 28.0882 34.7227 26.3838L35.518 25.0204C36.1997 25.7021 36.9951 26.2702 38.0177 26.7247C39.0402 27.1792 40.2901 27.4064 41.5399 27.4064C42.9034 27.4064 43.9259 27.1792 44.7213 26.7247C45.5166 26.2702 45.8575 25.4749 45.8575 24.4523C45.8575 23.8842 45.7439 23.4297 45.5166 23.0888C45.2894 22.748 44.9485 22.4071 44.4941 22.1799C44.0396 21.9526 43.4715 21.7254 42.9034 21.4981C42.2216 21.2709 41.5399 21.1573 40.6309 20.93C39.722 20.7028 38.9266 20.4756 38.2449 20.2483C37.5632 20.0211 36.9951 19.7938 36.5406 19.453C36.0861 19.1121 35.7452 18.6576 35.518 18.2031C35.2908 17.7487 35.1771 17.1806 35.1771 16.4988C35.1771 15.7035 35.2908 15.0218 35.6316 14.34C35.9725 13.7719 36.3133 13.2038 36.8815 12.7493C37.4496 12.2949 38.0177 12.0676 38.813 11.8404C39.6084 11.6131 40.4037 11.4995 41.3127 11.4995C42.4489 11.4995 43.4715 11.7268 44.3804 12.0676C45.2894 12.4085 46.0847 12.863 46.7665 13.5447L45.9711 14.9081Z" fill="#CCCCCC"/>
<path d="M65.8547 11.7268L65.7411 28.8836H64.0368V20.8165H53.9245V28.8836H52.2202L52.3338 11.7268H54.0381V19.3394H64.1504V11.7268H65.8547Z" fill="#CCCCCC"/>
<line x1="2" y1="41.2229" x2="45.1759" y2="41.2229" stroke="#CCCCCC"/>
<line x1="122.438" y1="41.2229" x2="165.614" y2="41.2229" stroke="#CCCCCC"/>
</svg>
