<svg width="170" height="54" viewBox="0 0 170 54" fill="none" xmlns="http://www.w3.org/2000/svg">
<path d="M2 9H18.8633C18.8633 14.7086 18.8633 20.4171 18.8633 26.1257C13.2422 26.1257 7.62111 26.1257 2 26.1257V9Z" fill="#CCCCCC"/>
<path d="M20.5852 9H37.4485C37.4485 14.7086 37.4485 20.4171 37.4485 26.1257C31.8274 26.1257 26.2063 26.1257 20.5852 26.1257C20.5852 20.4171 20.5852 14.7086 20.5852 9Z" fill="#CCCCCC"/>
<path d="M154.064 15.5211C155.624 14.4926 157.629 14.4 159.381 14.8834C159.391 15.9429 159.381 17.0023 159.391 18.0617C158.561 17.6914 157.578 17.4446 156.707 17.8149C156.008 18.0926 155.603 18.8229 155.492 19.5429C155.36 20.4583 155.451 21.3943 155.421 22.32C157.204 22.32 158.976 22.32 160.758 22.32C160.769 21.1474 160.748 19.9749 160.779 18.8023C161.984 18.4526 163.189 18.0617 164.384 17.6914C164.394 19.2343 164.374 20.7771 164.394 22.3303C165.6 22.3097 166.805 22.3303 168 22.32V25.3234C166.795 25.272 165.59 25.3131 164.374 25.3029C164.384 27.0309 164.374 28.7589 164.374 30.4869C164.394 31.4434 164.324 32.4103 164.435 33.3566C164.506 33.9223 164.698 34.5394 165.225 34.8377C166.096 35.3314 167.2 35.1154 168 34.5703V37.6046C166.957 38.0674 165.792 38.2011 164.668 38.1189C163.594 38.0366 162.49 37.6457 161.792 36.7817C160.981 35.8046 160.779 34.488 160.758 33.2434C160.748 30.5897 160.758 27.936 160.758 25.2823C158.976 25.2823 157.204 25.2823 155.421 25.2823C155.421 29.448 155.421 33.6137 155.421 37.7794C154.206 37.7794 152.99 37.7794 151.775 37.7794C151.775 33.6137 151.765 29.448 151.775 25.2926C150.934 25.272 150.083 25.2926 149.233 25.2823C149.233 24.2949 149.243 23.3074 149.233 22.3097C150.073 22.2891 150.914 22.2994 151.765 22.2994C151.825 20.9829 151.633 19.6354 152.018 18.3497C152.342 17.2183 153.071 16.1794 154.064 15.5211Z" fill="#CCCCCC"/>
<path d="M75.986 15.737C76.7254 15.6239 77.5154 15.881 78.0015 16.4673C78.5687 17.105 78.6801 18.1233 78.2547 18.8742C77.7888 19.7176 76.7355 20.1084 75.824 19.9027C74.8821 19.7279 74.0921 18.833 74.1326 17.8353C74.1022 16.7964 74.9732 15.8604 75.986 15.737Z" fill="#CCCCCC"/>
<path d="M48.0325 16.2001C49.8049 16.2001 51.5672 16.2001 53.3396 16.2001C54.9905 20.4584 56.6515 24.7064 58.3024 28.9646C58.7278 30.0344 59.1228 31.1041 59.5583 32.1635C61.6852 26.8458 63.8323 21.5384 65.9491 16.2104C67.6506 16.1795 69.3522 16.2001 71.0537 16.2001C71.0537 23.4001 71.0537 30.6001 71.0537 37.8001C69.8282 37.8001 68.6027 37.8104 67.3772 37.7898C67.3873 32.4824 67.3772 27.1646 67.3873 21.8469C67.3873 21.6104 67.3772 21.3738 67.367 21.1269C67.2962 21.2401 67.2354 21.3532 67.1746 21.4766C65.068 26.9178 62.9208 32.3384 60.8243 37.7795C59.9533 37.8104 59.0822 37.7795 58.2011 37.8001C56.0236 32.3589 53.8764 26.9075 51.7191 21.4664C51.6583 21.3532 51.5976 21.2401 51.5368 21.1372C51.4963 23.4618 51.5267 25.7966 51.5165 28.1212C51.5165 31.3406 51.5165 34.5704 51.5165 37.7898C50.3619 37.7898 49.1972 37.7898 48.0426 37.7898C48.0325 30.6001 48.0325 23.4001 48.0325 16.2001Z" fill="#CCCCCC"/>
<path d="M86.023 22.2994C87.7853 21.7851 89.6792 21.8057 91.4415 22.32C91.8061 22.4228 92.1505 22.5668 92.4847 22.7623C92.4645 23.9451 92.4847 25.128 92.4746 26.3006C91.2997 25.3851 89.8109 24.8091 88.3119 25.0046C87.1269 25.1177 85.9926 25.7348 85.2836 26.712C84.3721 27.9154 84.1594 29.52 84.3214 31.0011C84.443 32.1531 84.9089 33.3154 85.79 34.0766C86.7117 34.9097 87.9979 35.1977 89.2032 35.1051C90.3882 34.9611 91.5124 34.4571 92.4746 33.7371C92.4847 34.8583 92.4746 35.9691 92.4847 37.0903C90.9959 37.9954 89.2032 38.2217 87.5017 38.1394C85.7596 38.0468 84.0176 37.3783 82.7516 36.1234C81.3741 34.776 80.6348 32.8628 80.5436 30.9394C80.4525 28.944 80.8576 26.856 81.9818 25.1897C82.9238 23.7806 84.4025 22.7726 86.023 22.2994Z" fill="#CCCCCC"/>
<path d="M125.857 22.0731C127.538 21.7748 129.311 21.9908 130.901 22.6079C130.901 23.7394 130.901 24.8811 130.901 26.0125C129.787 25.2308 128.419 24.8194 127.072 24.8605C126.394 24.8914 125.644 25.1794 125.33 25.8377C125.087 26.4857 125.249 27.3394 125.857 27.7302C126.89 28.4297 128.126 28.7279 129.199 29.3657C130.04 29.8491 130.86 30.4765 131.286 31.3817C132.086 33.0788 131.752 35.3314 130.334 36.5965C128.987 37.8719 127.042 38.2319 125.259 38.1599C123.993 38.0777 122.717 37.8205 121.552 37.2959C121.563 36.1028 121.542 34.9097 121.563 33.7165C122.545 34.4365 123.669 34.9611 124.875 35.1668C125.705 35.3005 126.617 35.3108 127.396 34.9302C128.136 34.5599 128.278 33.4799 127.832 32.8217C127.417 32.3177 126.809 32.0399 126.242 31.7622C125.168 31.2685 124.034 30.8571 123.092 30.1268C122.424 29.6022 121.927 28.8617 121.725 28.0285C121.431 26.7942 121.522 25.4057 122.231 24.3359C123.031 23.0811 124.429 22.3302 125.857 22.0731Z" fill="#CCCCCC"/>
<path d="M100.628 22.5566C101.63 21.9395 102.917 21.8881 104.01 22.2686C104 23.5029 104.01 24.7372 104.01 25.9715C103.291 25.4984 102.39 25.2926 101.549 25.3852C100.516 25.5086 99.6959 26.3109 99.2705 27.2366C98.8046 28.2138 98.7236 29.3246 98.7539 30.3944C98.7539 32.8629 98.7539 35.3315 98.7539 37.8001C97.5588 37.8001 96.3536 37.8001 95.1584 37.8001C95.1584 32.6469 95.1584 27.4835 95.1584 22.3304C96.3536 22.3098 97.5588 22.3201 98.7539 22.3304C98.7438 23.2149 98.7539 24.0995 98.7539 24.9841C99.1388 24.0172 99.7161 23.0812 100.628 22.5566Z" fill="#CCCCCC"/>
<path d="M74.4668 22.3202C75.672 22.3202 76.8874 22.2996 78.0927 22.3305C78.0825 27.4836 78.0927 32.6471 78.0825 37.8002C76.8773 37.8002 75.672 37.8002 74.4668 37.8002C74.4668 32.6368 74.4668 27.4836 74.4668 22.3202Z" fill="#CCCCCC"/>
<path fill-rule="evenodd" clip-rule="evenodd" d="M115.941 22.6696C114.321 21.9188 112.478 21.8159 110.725 22.0422C108.892 22.2685 107.1 23.1531 105.935 24.6548C104.871 25.9816 104.355 27.6891 104.254 29.3862C104.112 31.3816 104.436 33.5005 105.591 35.1668C106.573 36.6068 108.123 37.5942 109.804 37.9542C111.212 38.2525 112.68 38.2525 114.078 37.9542C115.709 37.6148 117.248 36.6891 118.261 35.3313C119.253 34.0559 119.75 32.4411 119.861 30.8262C119.972 29.1702 119.81 27.4628 119.132 25.9405C118.494 24.5108 117.349 23.3176 115.941 22.6696ZM114.868 26.0226C114.078 25.2203 112.913 24.9015 111.819 24.9735C110.948 25.0249 110.067 25.3232 109.399 25.9403C108.507 26.7632 108.102 27.9769 107.991 29.17C107.869 30.4763 107.96 31.8546 108.548 33.0478C109.004 33.9735 109.844 34.6935 110.837 34.9609C111.809 35.218 112.873 35.1975 113.814 34.8272C114.625 34.5083 115.263 33.8295 115.607 33.0375C116.134 31.8546 116.184 30.5278 116.124 29.2523C116.033 28.09 115.708 26.866 114.868 26.0226Z" fill="#CCCCCC"/>
<path fill-rule="evenodd" clip-rule="evenodd" d="M145.212 22.7829C143.551 21.9292 141.626 21.8058 139.803 22.0321C138.335 22.2275 136.886 22.7932 135.762 23.7909C134.385 24.9841 133.585 26.7429 133.352 28.5429C133.129 30.3429 133.21 32.2355 133.929 33.9224C134.628 35.5784 135.995 36.9155 137.636 37.5738C139.256 38.2218 141.059 38.2938 142.771 38.0161C144.523 37.7178 146.174 36.7921 147.258 35.3521C148.412 33.8607 148.908 31.9475 148.908 30.0755C148.929 28.8309 148.777 27.5555 148.341 26.3829C147.784 24.8504 146.66 23.5132 145.212 22.7829ZM143.703 25.8583C142.913 25.1486 141.819 24.9121 140.786 24.9841C139.773 25.0355 138.77 25.4778 138.112 26.2801C137.393 27.1338 137.089 28.2652 137.008 29.3658C136.927 30.4972 137.008 31.6801 137.444 32.7395C137.808 33.6343 138.487 34.4058 139.368 34.7863C140.188 35.1463 141.11 35.2081 141.981 35.0743C142.791 34.9509 143.581 34.5601 144.108 33.9121C144.635 33.2641 144.908 32.4515 145.05 31.6389C145.222 30.5383 145.232 29.4172 145.019 28.3269C144.837 27.3909 144.432 26.4755 143.703 25.8583Z" fill="#CCCCCC"/>
<path d="M2 27.8743C7.62111 27.8743 13.2422 27.8743 18.8633 27.8743C18.8633 33.5828 18.8633 39.2914 18.8633 45H2V27.8743Z" fill="#CCCCCC"/>
<path d="M20.5852 27.8743C26.2063 27.8743 31.8274 27.8743 37.4485 27.8743C37.4485 33.5828 37.4485 39.2914 37.4485 45H20.5852C20.5852 39.2914 20.5852 33.5828 20.5852 27.8743Z" fill="#CCCCCC"/>
</svg>
