<svg width="170" height="54" viewBox="0 0 170 54" fill="none" xmlns="http://www.w3.org/2000/svg">
<path d="M168 17.3662C168 18.8246 166.845 19.9759 165.383 19.9759C163.921 19.9759 162.767 18.8246 162.767 17.3662C162.767 15.9079 163.921 14.7566 165.383 14.7566C166.845 14.7566 168 15.9079 168 17.3662ZM167.461 17.3662C167.461 16.2149 166.538 15.2939 165.383 15.2939C164.229 15.2939 163.305 16.2149 163.305 17.3662C163.305 18.5176 164.229 19.4386 165.383 19.4386C166.538 19.4386 167.461 18.5176 167.461 17.3662ZM165.999 17.75L166.538 18.5943H165.922L165.537 17.9035H165.46H164.921V18.5943H164.383V16.0614H165.46C166.153 16.0614 166.461 16.3684 166.461 16.9057C166.538 17.2895 166.307 17.5965 165.999 17.75ZM165.46 17.3662C165.768 17.3662 165.999 17.2127 165.999 16.9057C165.999 16.5987 165.845 16.4452 165.46 16.4452H164.921V17.3662H165.46Z" fill="#CCCCCC"/>
<path d="M26.6269 42.2346C22.856 40.0087 20.5472 35.7872 20.855 31.1052C21.0859 26.2697 23.2408 22.5855 27.6274 20.3596C32.091 18.1337 38.6325 19.285 41.7109 22.8157C44.3275 25.8092 44.7892 29.4934 44.4044 33.3311H28.7818C28.9357 33.8684 28.9357 34.3289 29.1666 34.7127C30.6288 37.4758 35.4002 38.0131 36.9394 34.9429C37.3242 34.1754 37.786 34.0219 38.6325 34.2521C40.0947 34.7127 41.6339 35.0964 43.1731 35.557C44.0966 35.864 44.2505 36.0942 43.9427 37.0153C43.0192 39.5482 41.48 41.2368 39.4791 42.3881C39.4791 42.3881 37.0164 43.9999 33.0915 43.9999C29.1666 43.9999 26.6269 42.2346 26.6269 42.2346ZM29.2435 28.2653H36.4777C36.0929 26.5 34.8615 25.7324 32.5528 25.7324C30.7058 25.8092 29.4744 26.7302 29.2435 28.2653Z" fill="#CCCCCC"/>
<path d="M6.38665 27.7281C6.38665 27.2675 6.15577 27.0373 5.69402 27.0373C4.92443 27.0373 4.07789 27.0373 3.3083 27.0373C2.15392 27.0373 2 26.8838 2 25.8092C2 24.1974 2 22.6623 2 21.0504C2 19.9759 2.07696 19.8991 3.15438 19.8991C4.2318 19.8991 5.23227 19.8991 6.38665 19.8991C6.38665 18.9781 6.38665 18.1338 6.38665 17.2127C6.38665 16.2917 6.38665 15.3706 6.38665 14.3728C6.38665 13.682 6.69448 13.375 7.38711 13.375C9.38804 13.375 11.389 13.375 13.3899 13.375C14.0825 13.375 14.3134 13.682 14.3134 14.2961C14.3134 16.1382 14.3134 17.9035 14.3134 19.8224C15.4678 19.8224 16.5452 19.8224 17.5457 19.8224C18.6231 19.8224 18.7 19.9759 18.7 20.9737C18.7 22.5855 18.7 24.1206 18.7 25.7325C18.7 26.8838 18.5461 26.9605 17.3917 26.9605C16.6222 26.9605 15.7756 26.9605 15.006 26.9605C14.5443 26.9605 14.3134 27.1908 14.3134 27.6513C14.3134 30.0307 14.2364 32.4101 14.3134 34.7895C14.3134 36.0175 14.8521 36.4013 16.0835 36.4013C16.6222 36.4013 17.2378 36.3246 17.7765 36.3246C18.3922 36.2478 18.7 36.5548 18.7 37.0921C18.7 38.7807 18.777 40.4693 18.7 42.1579C18.7 42.4649 18.3153 43.0022 17.9305 43.0789C15.1599 43.9232 12.4664 43.9232 9.84979 42.5417C7.69495 41.3904 6.61753 39.3947 6.46361 37.0921C6.30969 34.1754 6.30969 31.2588 6.30969 28.4189L6.38665 27.7281Z" fill="#CCCCCC"/>
<path d="M106.125 26.5767C106.125 21.4341 106.125 16.2916 106.125 11.1491C106.125 9.84424 106.202 9.84424 107.433 9.84424C109.28 9.84424 111.127 9.84424 113.051 9.84424C113.898 9.84424 114.206 10.0745 114.206 10.9188C114.206 15.3706 114.206 19.8991 114.206 24.3508C114.206 24.9649 113.975 25.6556 113.744 26.1929C113.128 27.6513 112.436 29.1096 111.743 30.4912C111.358 31.3355 111.358 32.103 111.743 32.9473C112.051 33.6381 112.359 34.3289 112.666 34.9429C114.052 37.2456 114.36 39.7017 114.206 42.3113C114.129 43.0789 113.898 43.3859 113.128 43.3092C111.127 43.3092 109.126 43.3092 107.202 43.3092C106.356 43.3092 106.125 42.9254 106.125 42.1578C106.125 36.9385 106.125 31.7192 106.125 26.5767Z" fill="#CCCCCC"/>
<path d="M46.5591 26.5C46.5591 21.3575 46.5591 16.2149 46.5591 11.1492C46.5591 9.84433 46.636 9.76758 47.9443 9.76758C49.8683 9.76758 51.7153 9.76758 53.6393 9.76758C54.4089 9.76758 54.6398 10.0746 54.6398 10.7654C54.6398 15.2939 54.6398 19.8224 54.6398 24.2742C54.6398 24.8114 54.4858 25.4255 54.255 25.9628C53.6393 27.4211 52.9467 28.8794 52.254 30.3378C51.8692 31.1821 51.8692 32.0264 52.254 32.8706C52.9467 34.2522 53.5623 35.6338 54.178 37.0154C54.4089 37.6294 54.5628 38.3202 54.6398 39.011C54.7167 40.0856 54.6398 41.2369 54.6398 42.3114C54.6398 42.772 54.4858 43.079 53.9471 43.079C51.7923 43.079 49.5605 43.079 47.4056 43.079C46.713 43.079 46.636 42.6185 46.636 42.1579C46.636 40.5461 46.636 38.9342 46.636 37.3224V26.5H46.5591Z" fill="#CCCCCC"/>
<path d="M79.1895 27.1908C79.1895 25.0417 79.1895 22.9693 79.1895 20.8969C79.1895 20.5899 79.5742 20.2061 79.8051 20.0526C85.0383 17.3662 91.5028 20.8202 92.1185 26.6535C92.2724 28.1118 92.2724 29.6469 92.2724 31.1053C92.2724 34.7895 92.2724 38.3969 92.2724 42.0811C92.2724 42.9254 92.0416 43.2325 91.195 43.2325C88.9632 43.1557 86.5775 43.2325 84.2687 43.2325C84.2687 42.5417 84.2687 41.9276 84.2687 41.3136C84.2687 37.4759 84.3457 33.6382 84.1918 29.8004C84.1148 27.114 82.4217 26.1162 79.8051 26.8838C79.6512 26.9605 79.4973 27.0373 79.1895 27.1908Z" fill="#CCCCCC"/>
<path d="M62.8743 20.0527C64.0287 20.0527 65.1061 20.0527 66.2605 20.0527C67.4149 20.0527 67.5688 20.283 67.1071 21.3576C65.7218 24.4277 64.3365 27.4212 62.9513 30.4913C62.5665 31.3356 62.5665 32.0264 62.9513 32.794C64.3365 35.7874 65.7218 38.7041 67.1071 41.6975C67.6458 42.8488 67.4919 43.0791 66.1836 43.1558C63.9518 43.1558 61.7199 43.1558 59.4112 43.1558C58.6416 43.1558 58.1798 42.8488 57.949 42.158C56.4867 38.9343 54.9476 35.7106 53.5623 32.4869C53.3314 32.0264 53.3314 31.2589 53.5623 30.7984C54.9476 27.5747 56.4867 24.351 57.949 21.1273C58.3338 20.3598 58.7955 20.0527 59.6421 20.0527C60.7195 20.1295 61.7969 20.0527 62.8743 20.0527Z" fill="#CCCCCC"/>
<path d="M122.364 20.0527C123.518 20.0527 124.595 20.0527 125.75 20.0527C126.904 20.0527 127.058 20.283 126.596 21.3576C125.211 24.4277 123.826 27.4212 122.441 30.4913C122.056 31.3356 122.056 32.0264 122.441 32.794C123.826 35.7874 125.211 38.7041 126.596 41.6975C127.135 42.8488 126.981 43.0791 125.673 43.1558C123.441 43.1558 121.209 43.1558 118.9 43.1558C118.131 43.1558 117.669 42.8488 117.438 42.158C115.976 38.9343 114.437 35.7106 113.052 32.4869C112.821 32.0264 112.821 31.2589 113.052 30.7984C114.437 27.5747 115.976 24.351 117.438 21.1273C117.823 20.3598 118.285 20.0527 119.131 20.0527C120.132 20.1295 121.209 20.0527 122.364 20.0527Z" fill="#CCCCCC"/>
<path d="M102.97 31.5657C102.97 35.0964 102.97 38.6271 102.97 42.081C102.97 42.9253 102.739 43.2324 101.892 43.2324C99.9684 43.2324 97.9675 43.2324 96.0435 43.2324C95.197 43.2324 94.8892 42.8486 94.8892 42.081C94.8892 35.0196 94.8892 28.035 94.8892 20.9736C94.8892 20.206 95.197 19.8223 96.0435 19.8223C97.9675 19.8223 99.9684 19.8223 101.892 19.8223C102.739 19.8223 103.047 20.206 102.97 20.9736C102.97 24.581 102.97 28.035 102.97 31.5657Z" fill="#CCCCCC"/>
<path d="M137.678 31.6426C137.678 35.0965 137.678 38.6272 137.678 42.0812C137.678 42.9255 137.447 43.3093 136.524 43.3093C134.6 43.3093 132.599 43.3093 130.675 43.3093C129.905 43.3093 129.598 43.0022 129.598 42.2347C129.598 35.1733 129.598 28.1119 129.598 21.0505C129.598 20.2829 129.829 19.8992 130.675 19.8992C132.676 19.8992 134.677 19.8992 136.601 19.8992C137.371 19.8992 137.678 20.2062 137.678 20.9737C137.678 24.5044 137.678 28.0351 137.678 31.6426Z" fill="#CCCCCC"/>
<path d="M77.7274 43.2325C75.4187 43.2325 73.1099 43.2325 70.8781 43.2325C70.1085 43.2325 69.9546 42.772 69.9546 42.1579C69.9546 39.2413 69.9546 36.3246 69.9546 33.4079C69.9546 29.34 69.9546 25.3487 69.9546 21.2807C69.9546 20.0527 70.1085 19.8992 71.3398 19.8992C73.1869 19.8992 75.0339 19.8992 76.9578 19.8992C77.5735 19.8992 77.8813 20.1294 77.8813 20.8202L77.7274 43.2325Z" fill="#CCCCCC"/>
<path d="M138.371 13.682C138.371 16.2917 136.216 18.364 133.6 18.364C130.983 18.364 128.828 16.2917 128.828 13.682C128.828 11.0724 130.983 9 133.6 9C136.216 9 138.371 11.0724 138.371 13.682Z" fill="#CCCCCC"/>
<path d="M103.74 13.682C103.74 16.2917 101.585 18.364 98.9682 18.364C96.3516 18.364 94.1968 16.2917 94.1968 13.682C94.1968 11.0724 96.3516 9 98.9682 9C101.585 9 103.74 11.0724 103.74 13.682Z" fill="#CCCCCC"/>
<path d="M152.069 36.5547C152.069 36.3244 151.916 36.0942 151.608 36.0174C149.607 35.4801 148.068 33.638 148.068 31.4889C148.068 29.3398 149.53 27.4977 151.608 26.9604C151.839 26.8837 152.069 26.6534 152.069 26.4231V20.0525C152.069 19.6687 151.762 19.4385 151.377 19.4385C145.143 20.1293 140.218 25.3486 140.218 31.6424C140.218 37.9363 145.066 43.0788 151.377 43.8464C151.762 43.9231 152.069 43.6161 152.069 43.2323V36.5547Z" fill="#CCCCCC"/>
<path d="M153.686 19.9759V26.3465C153.686 26.5767 153.839 26.807 154.07 26.8837C156.071 27.421 157.533 29.2631 157.533 31.4123C157.533 33.5614 156.071 35.4035 154.07 35.9408C153.839 36.0175 153.686 36.2478 153.686 36.478V43.1557C153.686 43.5394 153.993 43.7697 154.378 43.7697C160.612 43.0789 165.537 37.8596 165.537 31.5658C165.537 25.2719 160.689 20.1294 154.378 19.3618C153.993 19.3618 153.686 19.6688 153.686 19.9759Z" fill="#CCCCCC"/>
</svg>
