<svg xmlns="http://www.w3.org/2000/svg" xmlns:xlink="http://www.w3.org/1999/xlink" viewBox="0 0 197.4 64.1" xmlns:v="https://vecta.io/nano"><linearGradient id="A" gradientUnits="userSpaceOnUse" x1="39.344" y1="92.126" x2="159.416" y2="-27.946"><stop offset="0" stop-color="#e2b356"/><stop offset=".408" stop-color="#f8f5a6"/><stop offset=".748" stop-color="#e2b356"/><stop offset=".952" stop-color="#956529"/></linearGradient><path d="M12.3 61.4c-4.9 0-8.8-4-8.8-8.8v-41c0-4.9 4-8.8 8.8-8.8h174.2c4.9 0 8.8 4 8.8 8.8v41c0 4.9-4 8.8-8.8 8.8H12.3z" fill="url(#A)"/><linearGradient id="B" gradientUnits="userSpaceOnUse" x1="40.143" y1="-27.147" x2="158.617" y2="91.327"><stop offset="0" stop-color="#e2b356"/><stop offset=".408" stop-color="#f8f5a6"/><stop offset=".748" stop-color="#e2b356"/><stop offset=".952" stop-color="#956529"/></linearGradient><path d="M12.3 60.3c-4.3 0-7.7-3.5-7.7-7.7v-41c0-4.3 3.5-7.7 7.7-7.7h174.2c4.3 0 7.7 3.4 7.7 7.7v41c0 4.3-3.5 7.7-7.7 7.7H12.3z" fill="url(#B)"/><linearGradient id="C" gradientUnits="userSpaceOnUse" x1="41.731" y1="89.739" x2="157.029" y2="-25.559"><stop offset="0" stop-color="#e2b356"/><stop offset=".408" stop-color="#f8f5a6"/><stop offset=".748" stop-color="#e2b356"/><stop offset=".952" stop-color="#956529"/></linearGradient><path d="M186.5 58H12.3c-3 0-5.4-2.4-5.4-5.5v-41c0-3 2.4-5.4 5.4-5.4h174.2c3 0 5.4 2.4 5.4 5.4v41c0 3.1-2.4 5.5-5.4 5.5z" fill="url(#C)"/><linearGradient id="D" gradientUnits="userSpaceOnUse" x1="42.533" y1="88.938" x2="156.228" y2="-24.757"><stop offset="0" stop-color="#bcbec1"/><stop offset=".408" stop-color="#ededee"/><stop offset=".748" stop-color="#bcbec1"/><stop offset=".952" stop-color="#838588"/></linearGradient><path d="M12.3 56.9C9.9 56.9 8 55 8 52.6v-41c0-2.4 1.9-4.3 4.3-4.3h174.2c2.4 0 4.3 1.9 4.3 4.3v41c0 2.4-1.9 4.3-4.3 4.3H12.3z" fill="url(#D)"/><linearGradient id="E" gradientUnits="userSpaceOnUse" x1="43.294" y1="-23.996" x2="155.466" y2="88.176"><stop offset="0" stop-color="#bcbec1"/><stop offset=".408" stop-color="#ededee"/><stop offset=".748" stop-color="#bcbec1"/><stop offset=".952" stop-color="#838588"/></linearGradient><path d="M12.3 55.8c-1.8 0-3.2-1.5-3.2-3.2v-41c0-1.8 1.4-3.2 3.2-3.2h174.2c1.8 0 3.2 1.4 3.2 3.2v41c0 1.8-1.4 3.2-3.2 3.2H12.3z" fill="url(#E)"/><path d="M12.3,7.3C9.9,7.3,8,9.2,8,11.6v41c0,2.4,1.9,4.3,4.3,4.3h84.9V7.3H12.3z" fill="#03070a"/><linearGradient id="F" gradientUnits="userSpaceOnUse" x1="32.755" y1="56.91" x2="32.755" y2="7.27"><stop offset="0" stop-color="#303032" stop-opacity=".6"/><stop offset="1" stop-color="#303032"/></linearGradient><path d="M12.3,7.3C9.9,7.3,8,9.2,8,11.6v41c0,2.4,1.9,4.3,4.3,4.3h45.3V7.3H12.3z" fill="url(#F)"/><path d="M97.2 7.3H12.3C9.9 7.3 8 9.2 8 11.6v41c0 1.7 1 3.1 2.3 3.8-.3-.6-.5-1.3-.5-2v-41c0-2.4 1.9-4.3 4.3-4.3h83.1V7.3h0z" fill="#03070a"/><text transform="translate(101.059 29.808)" fill="#373b3e" font-family="ArialMT" font-size="11.416">SATISFACTION</text><text transform="translate(101.195 42.925)" fill="#373b3e" font-family="ArialMT" font-size="11.416">GUARANTEED</text><image width="97" height="83" xlink:href="E747D00E.png" transform="translate(8.69 -5.448)" overflow="visible" opacity=".5"/><linearGradient id="G" gradientUnits="userSpaceOnUse" x1="12.693" y1="23.028" x2="58.032" y2="68.367"><stop offset="0" stop-color="#fffb7c"/><stop offset="1" stop-color="#ffbc17"/></linearGradient><path d="M20 50.2v-28a3.68 3.68 0 0 1-1.9 1.2c-.8.2-1.6.4-2.4.4V20c1.1-.2 2.2-.6 3.2-1.4s1.8-1.7 2.3-2.9h4.1v34.5H20z" fill="url(#G)"/><linearGradient id="H" gradientUnits="userSpaceOnUse" x1="20.403" y1="15.319" x2="65.742" y2="60.658"><stop offset="0" stop-color="#fffb7c"/><stop offset="1" stop-color="#ffbc17"/></linearGradient><path d="M43.9 48.1c-1.2 1.6-3.2 2.5-5.9 2.5s-4.7-.8-5.9-2.5-1.9-4.1-1.9-7.2V24.4c0-3 .6-5.3 1.9-6.8s3.2-2.3 5.9-2.3 4.7.8 5.9 2.3 1.9 3.8 1.9 6.8v16.5c0 3.1-.7 5.6-1.9 7.2zm-6-2.1c.8 0 1.5-.3 1.9-1 .5-.7.7-2 .7-4.1V24.2c0-2.5-.6-4-1.8-4.3-.2 0-.6-.1-1.1-.1s-1 .3-1.5.8-.7 1.7-.7 3.6V41c0 2.1.2 3.5.6 4.2s1.1.8 1.9.8z" fill="url(#H)"/><linearGradient id="I" gradientUnits="userSpaceOnUse" x1="30.283" y1="5.439" x2="75.622" y2="50.778"><stop offset="0" stop-color="#fffb7c"/><stop offset="1" stop-color="#ffbc17"/></linearGradient><path d="M63.7 48.1c-1.2 1.6-3.2 2.5-5.9 2.5s-4.7-.8-5.9-2.5-1.8-4.1-1.8-7.2V24.4c0-3 .6-5.3 1.9-6.8s3.2-2.3 5.9-2.3 4.7.8 5.9 2.3 1.9 3.8 1.9 6.8v16.5c-.2 3.1-.8 5.6-2 7.2zm-6-2.1c.8 0 1.5-.3 1.9-1 .5-.7.7-2 .7-4.1V24.2c0-2.5-.6-4-1.8-4.3-.2 0-.6-.1-1.1-.1s-1 .3-1.5.8-.7 1.7-.7 3.6V41c0 2.1.2 3.5.6 4.2s1 .8 1.9.8z" fill="url(#I)"/><linearGradient id="J" gradientUnits="userSpaceOnUse" x1="44.628" y1="-8.906" x2="89.967" y2="36.432"><stop offset="0" stop-color="#fffb7c"/><stop offset="1" stop-color="#ffbc17"/></linearGradient><path d="M75.9 29c-.6.8-1.6 1.2-2.9 1.2s-2.3-.4-2.9-1.2-.9-2-.9-3.7v-4.1c0-1.7.3-2.9.9-3.7.6-.7 1.6-1.1 3-1.1s2.4.4 3 1.1.9 2 .9 3.7v4.1c-.1 1.7-.4 3-1.1 3.7zM72 27.6c.2.3.5.5 1 .5s.8-.1 1-.5c.2-.3.3-.8.3-1.5v-5.6c0-.7-.1-1.2-.3-1.4-.2-.3-.5-.4-1-.4s-.8.1-1 .4-.3.8-.3 1.4v5.6c0 .7.1 1.2.3 1.5zm3.2 9.2L83 16.7h2.3l-7.7 20.1h-2.4zm15.3-.9c-.6.8-1.6 1.2-2.9 1.2s-2.3-.4-2.9-1.2-.9-2-.9-3.7v-4.1c0-1.7.3-2.9.9-3.7.6-.7 1.6-1.1 3-1.1s2.4.4 3 1.1.9 2 .9 3.7v4.1c-.2 1.7-.5 2.9-1.1 3.7zm-4-1.4c.2.3.5.5 1 .5s.8-.2 1-.5.3-.8.3-1.5v-5.6c0-.7-.1-1.2-.3-1.4-.2-.3-.5-.4-1-.4s-.8.1-1 .4-.3.8-.3 1.4V33c.1.7.1 1.2.3 1.5z" fill="url(#J)"/></svg>