<svg xmlns="http://www.w3.org/2000/svg" xmlns:xlink="http://www.w3.org/1999/xlink" viewBox="0 0 175.1 64.1" xmlns:v="https://vecta.io/nano"><style><![CDATA[.U{enable-background:new}.V{opacity:.2}]]></style><linearGradient id="A" gradientUnits="userSpaceOnUse" x1="5.047" y1="64.145" x2="65.466" y2="-28.036"><stop offset="0" stop-color="#9dabc2"/><stop offset=".225" stop-color="#586b8a"/><stop offset=".485" stop-color="#9dabc2"/><stop offset=".764" stop-color="#cee1ff"/><stop offset="1" stop-color="#9dabc2"/></linearGradient><path d="M60.4 19c.1-6.2-8.9-2.6-14.3-6.8-5.2-4.1-6.6-10.6-14.6-11h-1c-8 .4-9.4 6.9-14.6 11-5.4 4.2-14.4.5-14.3 6.8.1 6.2 11.8 43 29.1 44h.7c17.3-1 28.9-37.9 29-44z" fill="url(#A)"/><path d="M14.8 14.3c.8-.6 1.5-1.3 2.2-2-.2.2-.4.4-.6.5-4.7 3.6-12 1.2-13.6 4.8 2.9-1.4 8.3-.4 12-3.3zm30.9-1.5c-5-3.9-6.4-10.2-14.1-10.6h-1c-3.9.2-6.1 1.9-8.1 4C24 4.8 26 3.8 28.9 3.6h1C37.7 4 39 10.3 44 14.2c5.2 4.1 13.9.5 13.8 6.5-.1 4.5-6.5 25.8-16.8 36.5 11.2-10 18.3-33.3 18.3-38 .3-5.9-8.4-2.3-13.6-6.4z" opacity=".3" fill="#d0fff2"/><path d="M15.3 13.4c5.2-4.1 6.6-10.6 14.6-11h1c8 .4 9.4 6.9 14.6 11 5.4 4.2 14.4.5 14.3 6.8 0 3.1-3 13.8-8.1 23.9 5.5-10.4 8.6-21.9 8.7-25.1.1-6.2-8.9-2.6-14.3-6.8-5.2-4.1-6.6-10.6-14.6-11h-1c-8 .4-9.4 6.9-14.6 11-5 3.9-12.9 1.2-14.1 5.4 2.3-2.6 9.1-.8 13.5-4.2z" fill="#fff" class="U V"/><path d="M31.6 62.6h-.7c-17.3-1-29-37.8-29.1-44 0-1 .2-1.8.7-2.3-.6.6-1 1.4-.9 2.7.1 6.2 11.8 43 29.1 44h.7c5.4-.3 10.3-4.1 14.4-9.4-4.1 5.1-8.9 8.7-14.2 9zM19.5 8.5L20.7 7c-.4.6-.8 1-1.2 1.5z" opacity=".4" fill="#e7faff"/><path d="M55.4 21.8c.1-5.3-7.5-2.2-12-5.7C39 12.7 37.8 7.2 31 6.8h-.9c-6.8.4-7.9 5.9-12.3 9.3-4.5 3.5-12.1.4-12 5.7.1 5.2 9.9 36.3 24.5 37.1h.6c14.6-.8 24.4-31.9 24.5-37.1z" opacity=".4" fill="#d9f0ff" class="U"/><path d="M56.2 20.7c.1-5.3-7.5-2.2-12-5.7-4.4-3.4-5.6-8.9-12.3-9.3H31c-6.9.4-8 5.8-12.4 9.3-4.5 3.5-12.1.4-12 5.7 0 5.2 9.8 36.3 24.4 37.1h.6c14.6-.8 24.5-31.9 24.6-37.1z" opacity=".4" fill="#fff" class="U"/><path d="M55.7 21.3c.1-5.3-7.5-2.2-12-5.7-4.4-3.4-5.6-8.9-12.3-9.3h-.9c-6.8.4-7.9 5.9-12.3 9.3-4.6 3.5-12.2.4-12.1 5.7.1 5.2 9.9 36.3 24.5 37.1h.6c14.6-.8 24.4-31.9 24.5-37.1z" opacity=".4" fill="#d9f0ff" class="U"/><path d="M55.8 21c.1-5.3-7.5-2.2-12-5.7-4.4-3.4-5.6-8.9-12.3-9.3h-.9c-6.8.4-7.9 5.9-12.3 9.3-4.5 3.5-12.1.4-12 5.7.1 5.2 9.9 36.3 24.5 37.1h.6c14.5-.8 24.3-31.8 24.4-37.1z" fill="#00cc83"/><path d="M17.7 16.1c.5-.4 1-.9 1.5-1.4-.2.2-.4.4-.7.6-3.8 3-9.8 1.3-11.5 3.8 2.4-1.3 7.4-.4 10.7-3zm26.4-.7c-4.4-3.4-5.6-8.9-12.3-9.3h-.9c-3 .2-4.8 1.3-6.4 2.8C25.9 7.8 27.6 7 30 6.8h.9c6.8.4 7.9 5.9 12.3 9.3 4.5 3.5 12.1.4 12 5.7 0 4-6 23.5-15.4 32.5C49.7 45.7 56 25.1 56.1 21c.1-5.2-7.4-2.1-12-5.6z" fill="#080a00" class="V"/><path d="M31.8 57.5h-.6C16.6 56.7 6.8 25.6 6.7 20.4c0-.6.1-1.2.3-1.6-.5.5-.8 1.2-.8 2.2.1 5.2 9.9 36.3 24.5 37.1h.6c4.8-.3 9.1-3.8 12.6-8.6-3.4 4.5-7.5 7.7-12.1 8z" opacity=".3" fill="#cf0" class="U"/><path d="M34.7 49.4h-.6C22.2 48.8 13.5 28 10.6 17.5c-2.5.3-4.5.8-4.4 3.5.1 5.2 9.9 36.3 24.5 37.1h.6c10.7-.5 18.8-17.3 22.4-28.4-4.3 9.5-10.9 19.3-19 19.7z" fill="#99bf00" class="U V"/><path d="M16.7 17.4C21.1 14 22.2 8.5 29 8.1h.9c6.8.4 7.9 5.9 12.3 9.3 4.5 3.5 12.1.4 12 5.7 0 3.4-4.2 17.7-11.1 27.5C51 40.8 55.8 24.7 55.8 21c.1-5.3-7.5-2.2-12-5.7-4.4-3.4-5.6-8.9-12.3-9.3h-.9c-6.8.4-7.9 5.9-12.3 9.3-4.3 3.3-11.3.8-12 4.9 2.4-1.1 7.1-.3 10.4-2.8z" fill="#6a8500" class="U V"/><path d="M32 60.7h-.7c-17.3-1-29-37.8-29.1-44-.4.6-.7 1.3-.7 2.4.1 6.2 11.8 43 29.1 44h.7c14.1-.8 24.5-25.4 27.9-37.8C55.3 38.1 45.3 59.9 32 60.7z" fill="#070047" class="U V"/><path d="M21.3 36.6l8.8 6.8c.3.2.7.2.9-.1l12.3-15.8c.2-.3.2-.6-.1-.9l-3.6-2.9c-.3-.2-.7-.2-.9.1l-8.3 11.5c-.2.3-.6.3-.9.1L25 31.6c-.3-.2-.7-.2-.9.1l-2.8 4c-.3.4-.3.7 0 .9z" opacity=".5" fill="#99bf00" class="U"/><g fill="#fdffe3"><path d="M21.3 36l8.8 6.8c.3.2.7.2.9-.1l12.3-15.8c.2-.3.2-.6-.1-.9l-3.6-2.9c-.3-.2-.7-.2-.9.1l-8.4 11.5c-.2.3-.6.3-.9.1L24.9 31c-.3-.2-.7-.2-.9.1l-2.8 4c-.2.4-.1.7.1.9z"/><path d="M43.5 15.8c-4.2-3.3-5.4-8.6-11.9-9h-.9c-6.5.4-7.7 5.7-11.9 9-.8.7-1.8 1.1-2.8 1.4 15.3 8.2 22.5 21.4 25.8 33.9C50 41.9 55.1 25 55.1 21.3c.1-5.1-7.2-2.1-11.6-5.5z" class="U V"/><path d="M13.4 41.3s7.9 14.2 14.3 16.1 12.1-3.5 12.1-3.5-7.2 4.9-13 2.1c-7.6-3.6-13.4-14.7-13.4-14.7z" opacity=".3" class="U"/></g><g fill="#00cc83"><use xlink:href="#C"/><use xlink:href="#C" x="8"/><path d="M80 43.4h2.9v11.1h3v2H80V43.4zm11.2 0h5.9v2h-3v3.2h2.3v2h-2.3v3.9h3v2h-5.9V43.4zm7.2 0h2l2.7 6.3v-6.3h2.4v13h-1.9l-2.7-6.8v6.8h-2.5v-13zm9.8 12.1c-.6-.8-.9-1.8-.9-3.2v-4.7c0-1.4.3-2.5.9-3.3.6-.7 1.6-1.1 3-1.1s2.3.3 2.9 1 .8 1.6.8 2.8v1.1h-2.8v-1.3a3.73 3.73 0 0 0-.2-1.2c-.1-.3-.4-.4-.8-.4s-.7.1-.8.4a3.73 3.73 0 0 0-.2 1.2V53a3.73 3.73 0 0 0 .2 1.2c.1.3.4.4.8.4s.7-.1.8-.4a3.73 3.73 0 0 0 .2-1.2v-1.4h2.8v1.1c0 1.2-.3 2.2-.8 2.9s-1.5 1-2.9 1-2.4-.4-3-1.1zm8.3-12.1h3.6c1.4 0 2.5.3 3.2.8s1.1 1.4 1.1 2.7c0 .9-.1 1.6-.3 2.1s-.6.9-1.3 1.2l1.8 6.3h-3l-1.4-5.8h-.8v5.8h-2.9V43.4zm3.7 5.5c.6 0 1-.2 1.2-.5s.3-.8.3-1.4-.1-1-.3-1.3-.6-.4-1.1-.4h-.9v3.6h.8zm7.3 2.2l-2.5-7.7h2.7l1.2 4.1 1.1-4.1h2.6l-2.4 7.7v5.3h-2.8l.1-5.3h0zm6.3-7.7h4.4c1.1 0 2 .3 2.6 1s.9 1.6.9 2.8c0 1.4-.3 2.4-1 2.9s-1.6.8-2.8.8h-1.2v5.5h-2.9v-13h0zm3.8 5.5c.5 0 .8-.1 1-.4s.3-.7.3-1.3-.1-1-.2-1.3c-.2-.3-.5-.4-1-.4h-.9V49h.8zm6.6-3.4h-2v-2.1h6.8v2.1h-1.9v10.9h-2.9V45.5zm6-2.1h2.9v13h-2.9v-13zm5.5 12.1c-.6-.7-.9-1.8-.9-3.2v-4.8c0-1.4.3-2.5.9-3.2s1.6-1.1 3-1.1 2.4.4 3 1.1.9 1.8.9 3.2v4.8c0 1.4-.3 2.5-.9 3.2s-1.6 1.1-3 1.1-2.4-.3-3-1.1zm3.8-1.3c.1-.3.2-.7.2-1.1v-6.3c0-.5-.1-.9-.2-1.1s-.4-.4-.8-.4-.6.1-.8.4-.2.7-.2 1.1V53c0 .5.1.8.2 1.1s.4.4.8.4c.4.1.7-.1.8-.3zm4.9-10.8h2l2.7 6.3v-6.3h2.4v13h-1.9l-2.7-6.8v6.8h-2.5v-13z"/></g><path d="M67.2 35.9c-1.4-1.6-2.1-3.8-2.3-6.6l3.8-1c.1 2 .5 3.6 1.2 4.8s1.7 1.8 3.2 1.8c1.1 0 2-.3 2.5-.9s.9-1.5.9-2.7c0-1.3-.3-2.3-.8-3.2-.5-.8-1.4-1.8-2.6-2.8L68 20.8c-1-.9-1.8-1.9-2.3-3-.5-1-.7-2.3-.7-3.9 0-2.3.7-4 1.9-5.3 1.3-1.2 3.1-1.9 5.3-1.9 2.4 0 4.3.7 5.5 1.9 1.2 1.3 2 3.3 2.3 6l-3.7 1c-.1-1.8-.5-3.2-1.1-4.2s-1.6-1.5-3.1-1.5c-1.1 0-1.9.3-2.5.9s-.9 1.4-.9 2.5c0 .9.2 1.7.5 2.3a5.4 5.4 0 0 0 1.6 1.9l5.2 4.6c1.3 1.2 2.4 2.5 3.2 3.9s1.2 3 1.2 4.8c0 2.3-.7 4.1-2.1 5.4s-3.2 2-5.3 2c-2.5.1-4.4-.7-5.8-2.3zM83.9 7.1h12v3.2h-7.7v10.2h6.2v3h-6.2v11.3h7.7V38h-12V7.1zm16.8 28.5c-1.3-1.8-1.9-4.3-1.9-7.5V17.2c0-3.4.6-5.9 1.8-7.7s3.4-2.6 6.5-2.6c2.8 0 4.8.8 6 2.3s1.8 3.7 1.8 6.6v2.4h-4.1V16a26.31 26.31 0 0 0-.2-3.3c-.1-.8-.4-1.4-1-1.8-.5-.5-1.3-.7-2.5-.7s-2 .3-2.6.7-.9 1.2-1.1 2.1-.3 2.1-.3 3.5v12.2c0 1.6.1 2.8.4 3.7s.7 1.5 1.2 1.9 1.4.6 2.4.6c1.1 0 1.9-.2 2.4-.7s.9-1.1 1-2 .2-2 .2-3.4v-2.3h4.1v2.3c0 3.1-.6 5.4-1.7 7.1-1.2 1.6-3.2 2.5-6 2.5-3-.1-5.2-1-6.4-2.8zm21.2 1.4c-1.2-.9-2-2.1-2.5-3.6s-.7-3.5-.7-5.8V7.1h4.1v20.7c0 2.3.3 4.1.8 5.3s1.6 1.8 3.3 1.8 2.8-.6 3.3-1.8c.6-1.2.8-3 .8-5.3V7.1h4.1v20.5c0 2.3-.2 4.3-.7 5.8s-1.3 2.8-2.5 3.6c-1.2.9-2.9 1.3-5 1.3s-3.8-.4-5-1.3zm17.8-29.9h6.2c3.1 0 5.4.6 6.9 1.9s2.2 3.4 2.2 6.3c0 4-1.3 6.4-3.8 7.2l4.4 15.5h-4.1l-4-14.5H144V38h-4.3V7.1h0zm5.9 13.3c1.9 0 3.2-.4 4-1.1s1.2-2.1 1.2-4c0-1.3-.1-2.3-.4-3s-.8-1.3-1.5-1.6-1.7-.5-3-.5H144v10.2h1.6 0zm13.9-13.3h12v3.2h-7.7v10.2h6.2v3h-6.2v11.3h7.7V38h-12V7.1z" fill="#fff"/><defs ><path id="C" d="M64.4 55.6c-.6-.7-.9-1.7-1-3.2l2.5-.4c0 .8.1 1.4.3 1.8a.82.82 0 0 0 .8.5c.5 0 .7-.3.7-1 0-.5-.1-.9-.3-1.3s-.6-.8-1.1-1.2l-1.1-1c-.6-.5-1-1-1.3-1.5s-.5-1.2-.5-1.9c0-1.1.3-1.9 1-2.5s1.5-.9 2.7-.9 2.1.4 2.5 1.1a5.28 5.28 0 0 1 .7 2.6l-2.5.3c0-.7-.1-1.2-.2-1.5s-.3-.4-.7-.4c-.3 0-.4.1-.6.3-.1.2-.2.4-.2.7 0 .4.1.8.3 1.1s.5.6 1 1l1.1 1c.6.5 1.1 1.1 1.5 1.7.3.6.5 1.3.5 2.2 0 .6-.1 1.2-.4 1.7s-.7.9-1.2 1.2-1.1.4-1.8.4c-1.2.2-2.1-.1-2.7-.8z"/></defs></svg>