<?xml version="1.0" encoding="utf-8"?>
<!-- Generator: Adobe Illustrator 24.1.2, SVG Export Plug-In . SVG Version: 6.00 Build 0)  -->
<svg version="1.1" id="Layer_1" xmlns="http://www.w3.org/2000/svg" xmlns:xlink="http://www.w3.org/1999/xlink" x="0px" y="0px"
	 viewBox="0 0 2970.7 2560" style="enable-background:new 0 0 2970.7 2560;" xml:space="preserve">
<style type="text/css">
	.st0{fill:#526A88;}
	.st1{opacity:0.6;}
	.st2{fill:#FFFFFF;}
	.st3{fill:#11E2F7;}
	.st4{fill:#000072;}
	.st5{opacity:0.3;}
	.st6{fill:#FFFAE3;}
	.st7{filter:url(#Adobe_OpacityMaskFilter);}
	.st8{filter:url(#Adobe_OpacityMaskFilter_1_);}
	.st9{mask:url(#SVGID_1_);fill:url(#SVGID_2_);}
	.st10{opacity:0.3;fill:url(#SVGID_3_);}
	.st11{filter:url(#Adobe_OpacityMaskFilter_2_);}
	.st12{filter:url(#Adobe_OpacityMaskFilter_3_);}
	.st13{mask:url(#SVGID_4_);fill:url(#SVGID_5_);}
	.st14{opacity:0.3;fill:url(#SVGID_6_);}
	.st15{filter:url(#Adobe_OpacityMaskFilter_4_);}
	.st16{filter:url(#Adobe_OpacityMaskFilter_5_);}
	.st17{mask:url(#SVGID_7_);fill:url(#SVGID_8_);}
	.st18{opacity:0.3;fill:url(#SVGID_9_);}
	.st19{fill:#4A83FF;}
	.st20{opacity:0.55;}
	.st21{fill:#FEB71F;}
	.st22{fill:#EE9623;}
	.st23{fill:#ED4945;}
	.st24{fill:#EF9623;}
	.st25{fill:#BB60EF;}
	.st26{fill:#35B7EB;}
</style>
<g>
	<g>
		<g>
			<g>
				<g>
					<path class="st0" d="M2250.8,2257.5H823.6c-92,0-166.5-74.5-166.5-166.5v-775.9c0-92,74.5-166.5,166.5-166.5h1427.2
						c92,0,166.5,74.5,166.5,166.5V2091C2417.3,2182.9,2342.8,2257.5,2250.8,2257.5z"/>
				</g>
				<g class="st1">
					<path class="st2" d="M2369.1,1206.1c-23.9-13.3-51.4-20.8-80.6-20.8H861.3c-119.1,1.8-168,70.6-166.5,166.5v775.8
						c0,41.7,15.3,79.9,40.7,109.1c-51.2-28.4-85.9-83-85.9-145.7v-775.9c0-92,74.5-166.5,166.5-166.5h1427.2
						C2293.6,1148.6,2338.6,1170.8,2369.1,1206.1z"/>
				</g>
				<g>
					<path class="st3" d="M2302.4,1311.3v783.4c0,30.7-24.8,55.5-55.5,55.5H827.5c-30.6,0-55.5-24.8-55.5-55.5v-783.4
						c0-30.7,24.8-55.5,55.5-55.5h1419.4C2277.6,1255.8,2302.4,1280.7,2302.4,1311.3z"/>
				</g>
				<g class="st1">
					<path class="st2" d="M2340,1311.4v783.4c0,30.6-24.8,55.5-55.5,55.5h-37.6c30.6,0,55.5-24.8,55.5-55.5v-783.4
						c0-30.7-24.9-55.5-55.5-55.5h37.6C2315.2,1255.8,2340,1280.7,2340,1311.4z"/>
				</g>
				<g>
					<path class="st4" d="M2250.8,2275.2H823.6c-101.6,0-184.2-82.7-184.2-184.2v-775.9c0-101.6,82.6-184.2,184.2-184.2h1427.2
						c101.6,0,184.2,82.7,184.2,184.2V2091C2435.1,2192.6,2352.4,2275.2,2250.8,2275.2z M823.6,1166.3c-82,0-148.8,66.7-148.8,148.8
						V2091c0,82,66.7,148.8,148.8,148.8h1427.2c82,0,148.8-66.7,148.8-148.8v-775.9c0-82-66.7-148.8-148.8-148.8H823.6z"/>
				</g>
				<g class="st5">
					<path class="st4" d="M2302.4,1311.4v12.1H869.2c-16.8,0-30.5,13.6-30.5,30.4v796.4h-11.2c-30.6,0-55.5-24.8-55.5-55.5v-783.5
						c0-30.6,24.8-55.5,55.5-55.5h1419.4C2277.6,1255.8,2302.4,1280.7,2302.4,1311.4z"/>
				</g>
				<g>
					<g>
						<path class="st6" d="M2420.6,2428.6H646.3c-93.5,0-169.3-75.8-169.3-169.3v0h2112.9v0
							C2589.9,2352.8,2514.1,2428.6,2420.6,2428.6z"/>
					</g>
					<g>
						<path class="st4" d="M2420.6,2431.1H646.3c-94.7,0-171.8-77.1-171.8-171.8v-2.5h2117.9v2.5
							C2592.4,2354,2515.4,2431.1,2420.6,2431.1z M479.5,2261.8c1.3,90.8,75.6,164.3,166.8,164.3h1774.3
							c91.1,0,165.4-73.5,166.8-164.3H479.5z"/>
					</g>
				</g>
				<g class="st5">
					<path class="st4" d="M2589.9,2259.3c0,46.7-19,89.1-49.6,119.7c-30.6,30.6-73,49.6-119.7,49.6H646.3
						c-48.8,0-92.7-20.6-123.5-53.7c13,3.3,26.7,5,40.8,5h1774.3c46.8,0,89.1-19,119.7-49.6c19.5-19.5,34.4-43.8,42.4-71.1H2589.9z"
						/>
				</g>
				<g>
					<path class="st4" d="M2424.4,2446.3H650c-103.1,0-187-83.9-187-187c0-9.8,7.9-17.7,17.7-17.7h2113c9.8,0,17.7,7.9,17.7,17.7
						c0,49.9-19.5,96.9-54.8,132.2C2521.3,2426.9,2474.3,2446.3,2424.4,2446.3z M499.5,2277c8.8,75.3,73,133.9,150.5,133.9h1774.4
						c40.5,0,78.5-15.8,107.2-44.4c24.4-24.4,39.5-55.7,43.4-89.4H499.5z"/>
				</g>
				<g>
					<path class="st4" d="M1704.8,2346.4h-342.6c-48,0-87.1-39.1-87.1-87.1c0-8.4,6.8-15.2,15.2-15.2h486.5
						c8.4,0,15.2,6.8,15.2,15.2C1791.9,2307.3,1752.8,2346.4,1704.8,2346.4z M1307.5,2274.5c6.7,23.9,28.7,41.6,54.7,41.6h342.6
						c26,0,48-17.6,54.7-41.6H1307.5z"/>
				</g>
				<g class="st5">
					<path class="st4" d="M1766.6,2259.3c0,19.9-8.1,37.9-21.1,50.9c-13,13-31,21.1-50.8,21.1H1352c-17.9,0-34.4-6.6-47-17.4
						c2.8,0.3,5.5,0.5,8.4,0.5h342.6c19.9,0,37.9-8.1,50.9-21.1c9.2-9.2,15.9-20.9,19-34H1766.6z"/>
				</g>
				<defs>
					<filter id="Adobe_OpacityMaskFilter" filterUnits="userSpaceOnUse" x="1796.7" y="1255.8" width="505.7" height="584.6">
						<feFlood  style="flood-color:white;flood-opacity:1" result="back"/>
						<feBlend  in="SourceGraphic" in2="back" mode="normal"/>
					</filter>
				</defs>
				<mask maskUnits="userSpaceOnUse" x="1796.7" y="1255.8" width="505.7" height="584.6" id="SVGID_1_">
					<g class="st7">
						<defs>
							<filter id="Adobe_OpacityMaskFilter_1_" filterUnits="userSpaceOnUse" x="1796.7" y="1255.8" width="505.7" height="584.6">
								<feFlood  style="flood-color:white;flood-opacity:1" result="back"/>
								<feBlend  in="SourceGraphic" in2="back" mode="normal"/>
							</filter>
						</defs>
						<mask maskUnits="userSpaceOnUse" x="1796.7" y="1255.8" width="505.7" height="584.6" id="SVGID_1_">
							<g class="st8">
							</g>
						</mask>
						
							<linearGradient id="SVGID_2_" gradientUnits="userSpaceOnUse" x1="1237.2688" y1="1266.7251" x2="796.3556" y2="1974.0247" gradientTransform="matrix(-1 0 0 1 3195.5613 0)">
							<stop  offset="0" style="stop-color:#FFFFFF"/>
							<stop  offset="1" style="stop-color:#000000"/>
						</linearGradient>
						<polygon class="st9" points="1796.7,1255.8 2302.4,1840.4 2302.4,1570.5 2030.2,1255.8 						"/>
					</g>
				</mask>
				
					<linearGradient id="SVGID_3_" gradientUnits="userSpaceOnUse" x1="1237.2688" y1="1266.7251" x2="796.3556" y2="1974.0247" gradientTransform="matrix(-1 0 0 1 3195.5613 0)">
					<stop  offset="0" style="stop-color:#FFFFFF"/>
					<stop  offset="1" style="stop-color:#25A9E0"/>
				</linearGradient>
				<polygon class="st10" points="1796.7,1255.8 2302.4,1840.4 2302.4,1570.5 2030.2,1255.8 				"/>
				<defs>
					<filter id="Adobe_OpacityMaskFilter_2_" filterUnits="userSpaceOnUse" x="772.1" y="1572.1" width="500.1" height="578.1">
						<feFlood  style="flood-color:white;flood-opacity:1" result="back"/>
						<feBlend  in="SourceGraphic" in2="back" mode="normal"/>
					</filter>
				</defs>
				<mask maskUnits="userSpaceOnUse" x="772.1" y="1572.1" width="500.1" height="578.1" id="SVGID_4_">
					<g class="st11">
						<defs>
							<filter id="Adobe_OpacityMaskFilter_3_" filterUnits="userSpaceOnUse" x="772.1" y="1572.1" width="500.1" height="578.1">
								<feFlood  style="flood-color:white;flood-opacity:1" result="back"/>
								<feBlend  in="SourceGraphic" in2="back" mode="normal"/>
							</filter>
						</defs>
						<mask maskUnits="userSpaceOnUse" x="772.1" y="1572.1" width="500.1" height="578.1" id="SVGID_4_">
							<g class="st12">
							</g>
						</mask>
						
							<linearGradient id="SVGID_5_" gradientUnits="userSpaceOnUse" x1="2337.4551" y1="1806.8632" x2="1754.1605" y2="2477.4224" gradientTransform="matrix(-1 0 0 1 3195.5613 0)">
							<stop  offset="0" style="stop-color:#FFFFFF"/>
							<stop  offset="1" style="stop-color:#000000"/>
						</linearGradient>
						<polygon class="st13" points="772.1,1572.1 772.1,1842 1038.7,2150.3 1272.2,2150.3 						"/>
					</g>
				</mask>
				
					<linearGradient id="SVGID_6_" gradientUnits="userSpaceOnUse" x1="2337.4551" y1="1806.8632" x2="1754.1605" y2="2477.4224" gradientTransform="matrix(-1 0 0 1 3195.5613 0)">
					<stop  offset="0" style="stop-color:#FFFFFF"/>
					<stop  offset="1" style="stop-color:#25A9E0"/>
				</linearGradient>
				<polygon class="st14" points="772.1,1572.1 772.1,1842 1038.7,2150.3 1272.2,2150.3 				"/>
				<defs>
					<filter id="Adobe_OpacityMaskFilter_4_" filterUnits="userSpaceOnUse" x="1313.6" y="1255.8" width="988.8" height="894.5">
						<feFlood  style="flood-color:white;flood-opacity:1" result="back"/>
						<feBlend  in="SourceGraphic" in2="back" mode="normal"/>
					</filter>
				</defs>
				<mask maskUnits="userSpaceOnUse" x="1313.6" y="1255.8" width="988.8" height="894.5" id="SVGID_7_">
					<g class="st15">
						<defs>
							<filter id="Adobe_OpacityMaskFilter_5_" filterUnits="userSpaceOnUse" x="1313.6" y="1255.8" width="988.8" height="894.5">
								<feFlood  style="flood-color:white;flood-opacity:1" result="back"/>
								<feBlend  in="SourceGraphic" in2="back" mode="normal"/>
							</filter>
						</defs>
						<mask maskUnits="userSpaceOnUse" x="1313.6" y="1255.8" width="988.8" height="894.5" id="SVGID_7_">
							<g class="st16">
							</g>
						</mask>
						
							<linearGradient id="SVGID_8_" gradientUnits="userSpaceOnUse" x1="1502.2394" y1="1431.9019" x2="1061.3252" y2="2139.2031" gradientTransform="matrix(-1 0 0 1 3195.5613 0)">
							<stop  offset="0" style="stop-color:#FFFFFF"/>
							<stop  offset="1" style="stop-color:#000000"/>
						</linearGradient>
						<path class="st17" d="M1313.6,1255.8l773.7,894.5h159.6c30.6,0,55.5-24.8,55.5-55.5v-118.8l-622.9-720.1H1313.6z"/>
					</g>
				</mask>
				
					<linearGradient id="SVGID_9_" gradientUnits="userSpaceOnUse" x1="1502.2394" y1="1431.9019" x2="1061.3252" y2="2139.2031" gradientTransform="matrix(-1 0 0 1 3195.5613 0)">
					<stop  offset="0" style="stop-color:#FFFFFF"/>
					<stop  offset="1" style="stop-color:#25A9E0"/>
				</linearGradient>
				<path class="st18" d="M1313.6,1255.8l773.7,894.5h159.6c30.6,0,55.5-24.8,55.5-55.5v-118.8l-622.9-720.1H1313.6z"/>
				<g>
					<path class="st4" d="M2246.9,2168H827.6c-40.4,0-73.2-32.8-73.2-73.2v-783.4c0-40.4,32.8-73.2,73.2-73.2h1419.4
						c40.4,0,73.2,32.8,73.2,73.2v783.4C2320.1,2135.1,2287.3,2168,2246.9,2168z M827.6,1273.6c-20.8,0-37.8,16.9-37.8,37.8v783.4
						c0,20.8,16.9,37.8,37.8,37.8h1419.4c20.8,0,37.8-16.9,37.8-37.8v-783.4c0-20.8-16.9-37.8-37.8-37.8H827.6z"/>
				</g>
			</g>
			<g>
				<g>
					<g>
						<rect x="1079.7" y="1764.4" class="st19" width="458.7" height="494.9"/>
					</g>
					<g>
						<path class="st4" d="M1541,2261.8h-463.7v-499.9H1541V2261.8z M1082.2,2256.8H1536v-489.9h-453.7V2256.8z"/>
					</g>
				</g>
				<g class="st20">
					<rect x="1079.7" y="1764.4" class="st2" width="45.6" height="494.9"/>
				</g>
				<g>
					<g>
						<rect x="1538.5" y="1764.4" class="st19" width="458.7" height="494.9"/>
					</g>
					<g>
						<path class="st4" d="M1999.7,2261.8h-463.8v-500h463.8V2261.8z M1541,2256.8h453.7v-489.8H1541V2256.8z"/>
					</g>
				</g>
				<g>
					<g>
						<polygon class="st19" points="1997.2,1764.4 1538.5,1764.4 1700.5,1559.6 2159.2,1559.6 						"/>
					</g>
					<g>
						<path class="st4" d="M1998.4,1766.9h-465.2l166-209.9h465.2L1998.4,1766.9z M1543.7,1761.8H1996l158-199.8h-452.3
							L1543.7,1761.8z"/>
					</g>
				</g>
				<g>
					<g>
						<rect x="1540.4" y="1961.9" class="st21" width="456.9" height="99.9"/>
					</g>
					<g>
						<path class="st4" d="M1999.7,2064.3h-461.9v-104.9h461.9V2064.3z M1542.9,2059.2h451.8v-94.8h-451.8V2059.2z"/>
					</g>
				</g>
				<g>
					<g>
						<rect x="1080.7" y="1961.9" class="st21" width="456.9" height="99.9"/>
					</g>
					<g>
						<path class="st4" d="M1540.1,2064.3h-461.9v-104.9h461.9V2064.3z M1083.2,2059.2H1535v-94.8h-451.8V2059.2z"/>
					</g>
				</g>
				<g>
					<g>
						<polygon class="st21" points="1997.2,1559.6 1835.2,1764.4 1732.1,1764.4 1894.1,1559.6 						"/>
					</g>
					<g>
						<path class="st4" d="M1836.4,1766.9h-109.6l166-209.8h109.6L1836.4,1766.9z M1737.3,1761.8h96.6l158-199.7h-96.6
							L1737.3,1761.8z"/>
					</g>
				</g>
				<g>
					<g>
						<path class="st19" d="M1079.7,1764.4h458.7l-162-204.8H947.8c-12.2,0-19,14.1-11.4,23.6L1079.7,1764.4z"/>
					</g>
					<g>
						<path class="st4" d="M1543.6,1766.9h-465.1l-0.8-0.9l-143.3-181.2c-4.1-5.2-4.9-12.1-2-18c2.9-5.9,8.8-9.6,15.4-9.6h429.8
							l0.8,0.9L1543.6,1766.9z M1080.9,1761.9h452.4l-158-199.8H947.8c-4.7,0-8.8,2.5-10.9,6.8c-2.1,4.3-1.5,9,1.4,12.7
							L1080.9,1761.9z"/>
					</g>
				</g>
				<g class="st20">
					<path class="st2" d="M1376.5,1554.5H947.8c-10,0-16.4,9.5-14.1,18.2c-0.5,3.7,0.4,7.6,3.1,11l142.9,180.7h49.1l-131.6-166.4
						c-2.6-3.2-0.3-8,3.9-8h385.6l134,169.4h17.9L1376.5,1554.5z"/>
				</g>
				<g>
					<path class="st4" d="M1538.5,2277h-458.7c-9.8,0-17.7-7.9-17.7-17.7v-494.9c0-9.8,7.9-17.7,17.7-17.7h458.7
						c9.8,0,17.7,7.9,17.7,17.7v494.9C1556.2,2269.1,1548.3,2277,1538.5,2277z M1097.5,2241.6h423.3v-459.5h-423.3V2241.6z"/>
				</g>
				<g>
					<path class="st4" d="M1997.2,2277h-458.7c-9.8,0-17.7-7.9-17.7-17.7v-494.9c0-9.8,7.9-17.7,17.7-17.7h458.7
						c9.8,0,17.7,7.9,17.7,17.7v494.9C2014.9,2269.1,2007,2277,1997.2,2277z M1556.2,2241.6h423.3v-459.5h-423.3V2241.6z"/>
				</g>
				<g>
					<path class="st4" d="M1997.2,2077h-456.9c-8.4,0-15.2-6.8-15.2-15.2v-99.9c0-8.4,6.8-15.2,15.2-15.2h456.9
						c8.4,0,15.2,6.8,15.2,15.2v99.9C2012.4,2070.2,2005.6,2077,1997.2,2077z M1555.5,2046.6H1982v-69.5h-426.5V2046.6z"/>
				</g>
				<g>
					<path class="st4" d="M1537.5,2077h-456.9c-8.4,0-15.2-6.8-15.2-15.2v-99.9c0-8.4,6.8-15.2,15.2-15.2h456.9
						c8.4,0,15.2,6.8,15.2,15.2v99.9C1552.7,2070.2,1545.9,2077,1537.5,2077z M1095.9,2046.6h426.5v-69.5h-426.5V2046.6z"/>
				</g>
				<g>
					<path class="st4" d="M1997.2,1782.1h-458.7c-6.8,0-13-3.9-16-10c-3-6.1-2.2-13.4,2.1-18.7l151.4-191.5
						c10.1-12.8,25.2-20.1,41.5-20.1h441.7c6.8,0,13,3.9,16,10c3,6.1,2.2,13.4-2.1,18.7l-162,204.8
						C2007.7,1779.6,2002.6,1782.1,1997.2,1782.1z M1575.1,1746.7h413.5l134-169.4h-405.1c-5.4,0-10.4,2.4-13.7,6.6L1575.1,1746.7z"
						/>
				</g>
				<g>
					<path class="st4" d="M1835.2,1779.5h-103.1c-5.8,0-11.1-3.3-13.7-8.6c-2.5-5.2-1.9-11.5,1.8-16l162-204.8
						c2.9-3.6,7.3-5.8,11.9-5.8h103.1c5.8,0,11.1,3.3,13.7,8.6c2.5,5.2,1.9,11.5-1.8,16l-162,204.8
						C1844.3,1777.4,1839.9,1779.5,1835.2,1779.5z M1763.5,1749.2h64.4l138-174.4h-64.4L1763.5,1749.2z"/>
				</g>
				<g>
					<path class="st4" d="M1538.5,1782.1h-458.7c-5.4,0-10.5-2.5-13.9-6.7l-142.2-179.8c-8-10-9.4-23.5-3.8-35
						c5.6-11.5,17-18.7,29.8-18.7H1369c10.2,0,19.7,4.6,26,12.6l157.4,199c4.2,5.3,5,12.6,2.1,18.7
						C1551.5,1778.2,1545.3,1782.1,1538.5,1782.1z M1088.3,1746.7h413.5l-134-169.4H954.4L1088.3,1746.7z"/>
				</g>
				<g>
					<g>
						<rect x="1731.8" y="1764.4" class="st21" width="99.9" height="494.9"/>
					</g>
					<g>
						<path class="st4" d="M1834.2,2261.8h-104.9v-500h104.9V2261.8z M1734.3,2256.8h94.8v-489.8h-94.8V2256.8z"/>
					</g>
				</g>
				<g>
					<g>
						<rect x="1245.3" y="1764.4" class="st21" width="99.9" height="494.9"/>
					</g>
					<g>
						<path class="st4" d="M1347.7,2261.8h-104.9v-500h104.9V2261.8z M1247.8,2256.8h94.8v-489.8h-94.8V2256.8z"/>
					</g>
				</g>
				<g>
					<path class="st4" d="M1831.6,2274.5h-99.9c-8.4,0-15.2-6.8-15.2-15.2v-494.9c0-8.4,6.8-15.2,15.2-15.2h99.9
						c8.4,0,15.2,6.8,15.2,15.2v494.9C1846.8,2267.7,1840,2274.5,1831.6,2274.5z M1747,2244.1h69.5v-464.5H1747V2244.1z"/>
				</g>
				<g>
					<path class="st4" d="M1345.2,2274.5h-99.9c-8.4,0-15.2-6.8-15.2-15.2v-494.9c0-8.4,6.8-15.2,15.2-15.2h99.9
						c8.4,0,15.2,6.8,15.2,15.2v494.9C1360.4,2267.7,1353.5,2274.5,1345.2,2274.5z M1260.5,2244.1h69.5v-464.5h-69.5V2244.1z"/>
				</g>
				<g class="st5">
					<rect x="1585.7" y="1764.4" class="st4" width="411.5" height="494.9"/>
				</g>
				<g class="st5">
					<polygon class="st4" points="2168.7,1559.6 2006.7,1764.4 1595.2,1764.4 1757.2,1559.6 					"/>
				</g>
			</g>
			<g>
				<path class="st4" d="M2781,2434.5c-27,4.8-54,7.3-81,9.3c-27,2-54,2.7-81,3.2c-54,1.3-108,0.6-162-0.1l-81-0.6l-81,0h-162
					h-648.2H836.5H512.4l-81,0c-27,0-54,0.8-81,1.2c-27,0.4-54-0.2-81-1.7c-13.5-0.8-27-2-40.5-3.9c-13.5-1.8-27-4-40.5-7.4
					c-3.3-0.8-5.2-4.2-4.4-7.4c0.6-2.2,2.3-3.9,4.4-4.4c13.5-3.5,27-5.6,40.5-7.4c13.5-1.9,27-3,40.5-3.9c27-1.5,54-2.1,81-1.7
					c27,0.4,54,1.2,81,1.2l81,0h324.1h648.2h648.2h162l81,0l81-0.6c54-0.7,108-1.4,162-0.1c27,0.6,54,1.2,81,3.2c27,2,54,4.4,81,9.3
					c3.3,0.6,5.4,3.7,4.9,7C2785.4,2432.2,2783.4,2434.1,2781,2434.5z"/>
			</g>
			<g class="st5">
				<path class="st4" d="M2943.3,2460.2c0,38-652.5,68.8-1457.3,68.8c-804.8,0-1457.3-30.8-1457.3-68.8c0-11.4,58.9-22.2,163.2-31.6
					h2588.1C2884.4,2438.1,2943.3,2448.8,2943.3,2460.2z"/>
			</g>
		</g>
		<g>
			<path class="st22" d="M2116.6,465.3c-22.7-10-47-11.7-71.3-13c-26.2-1.4-52.6-1.9-77.9-10.6c-4.6-1.6-11-2.7-11-7.7
				c-0.1-4.6,6.5-4.9,10.5-6.3c25.5-9.3,48.2-22.9,65.4-44.4c8.9-11.2,11-23.2,3.9-36.2c-6.7-12.2-17.9-15.6-30.7-15.6
				c-42,0-79.5,29.4-89.1,70.1c-1.1,4.5-2.6,6.8-7.2,5.5c-21.7-6-38-16.7-41.3-43.4c-2.8-23.5,12-49.7,31-56.3
				c22.2-7.8,41.5-20.1,55.2-39.8c9.2-13.3,4.7-27.9-10.1-33.6c-8.1-3.1-16-1.3-23.4,2.9c-18.4,10.5-31.8,26.2-43.2,43.5
				c-5,7.7-11.1,10.5-20,11.2c-18.2,1.3-35.9-1.6-52.6-7.9c-19.8-7.4-40.1-16.7-44.9-40.2c-2.5-12.1-10.4-14.9-19.3-18.4
				c-5.5-2.1-6.7-0.4-6.9,5.3c-0.6,18.4,4.9,34.2,17.3,47.8c22.6,24.7,52.4,32.9,83.9,36.3c20.8,2.3,20.2,1.5,13.9,22
				c-6.6,21.8-8.2,43.4,6.4,63.8c13.9,19.4,33.6,27.1,55.6,31.3c6.4,1.2,12.6,2.2,16.5,8.7c9.6,15.9,24.7,24.5,42,28.5
				c35.3,8.3,71.4,8.1,107.4,7.7c20.2-0.2,38.7,3.7,51.7,21.2c2,2.7,4,6.2,8.1,6.8C2142.9,488.9,2134.9,473.4,2116.6,465.3z
				 M1926.4,257.9c3.3-1.3,6.9-4,9.6,0.1c2.4,3.6,0.3,7.3-2.3,9.7c-8.4,7.6-18.6,12.2-31.4,16.5
				C1907.8,271.1,1915,262.5,1926.4,257.9z M1942.1,397.7c5.3-18,35.8-41.2,54.3-41.3c10.8-0.1,15.7,5.5,13.2,15
				c-0.7,3.3-2.4,6-4.9,8.2c-16,13.6-34.4,22.4-54.7,27C1943.2,408.1,1940,405.1,1942.1,397.7z"/>
			<path class="st23" d="M1170.8,536c21.6,11,40.6,23.9,50.8,46c9.1,19.6,1.2,44.1-18.2,58.9c-11.1,8.5-22.8,16.1-34.2,24.2
				c-5.7,4-10.9,8.3-14.9,17.8c26.2-0.1,49.3-7.2,72.8-10.8c2.8-0.4,5.5-1.9,8.3-2.7c29.4-8.3,42.9,2.2,42.5,33
				c-0.3,22.3-10.8,38.6-28.5,51.4c-7.9,5.7-17.2,9.7-24.2,20.1c9.7,1.8,18,1.1,26-1c18.6-4.9,37.4-9.2,55.4-15.7
				c24.7-8.9,42.4,3.7,40.4,30.7c-1.5,19.2-10.3,34.8-22.4,50c-16.7,21.1-35.3,34.5-64.2,27.8c5.9-29.4,38.1-41.5,51.4-71.4
				c-27.1,6.1-49.5,14.4-73.2,16.6c-17.7,1.6-35.1,1.6-50.8-7.8c-16.9-10.2-18.9-23.1-5-36.6c12.5-12.1,26.5-22.8,39.9-34
				c7.6-6.4,14.4-13.2,16.7-25.9c-18.4,3.5-35.3,7-52.3,9.7c-17.3,2.8-34.8,4.1-51.9-1.9c-23.5-8.3-30.7-30.1-15.8-50.1
				c8.7-11.7,19-21.7,32.8-28c9.4-4.3,19-8.9,26.4-16.8c9-9.7,10.9-20.6,4.2-32C1170.1,565.7,1169.8,565.9,1170.8,536z"/>
			<path class="st24" d="M351,1450.6c3.7,0.9,8.2,4.5,10.9,0.4c2.2-3.3-2.2-6.6-4.2-9.4c-9.2-13.1-16.4-27.2-22.1-42.1
				c-3.8-9.8-4.2-19.9-0.5-29.9c4.1-11,10.5-14.1,20.8-8.4c13.5,7.5,26.3,16.3,39.6,24.2c1.3,0.8,2.7,1.5,4.1,2
				c2.2,0.9,5.1,1.9,6.9-0.2c1.9-2.2-0.2-4.5-1.3-6.6c-6.2-12.8-12.4-25.6-18.5-38.5c-3.6-7.5-4.5-15.7-4-23.8
				c1-16.2,15.4-25.4,30.5-19.6c11.5,4.5,21.3,11.5,29.7,20.8c15.1,16.8,26.4,15.8,39.4-2.5c6.2-8.7,17.7-4,25.2-10.5
				c-1.9,37.6-25.3,59.5-54.1,48.7c-10.1-3.8-17.4-11.7-25.6-18.4c-5.4-4.4-11.3-13.9-17.9-9.1c-5.5,4,3.7,12.2,5.9,17.7
				c5.3,13.2,11.9,25.7,20,37.3c5.1,7.3,4.5,12.2,0.3,18.1c-11.8,16.7-39.1,18.2-58,2.9c-5.3-4.3-10.5-8.8-17.2-14.4
				c-0.8,8.2,2.5,13.3,5.5,18.1c8.4,13.4,15.3,27.8,25.9,39.8c6.1,6.9,3.6,16.3-5.5,23.1c-12.8,9.5-27,8.2-40.9,3.6
				c-9.6-3.2-18.9-7.7-27.5-12.8c-7.3-4.4-9-12.9-11-20.7c-1.2-5.6,2.1-6.8,6.6-6.7c1.5,0.3,2.9,0.6,4.3,0.9
				C329.6,1439.4,339.4,1446.8,351,1450.6z"/>
			<path class="st22" d="M1061.4,128.2c1.6-22.2,3.1-43.3,10.3-63.6c8.8-25,24.1-36.2,50.7-35.5c13.2,0.3,25.7,4.3,37.7,9.7
				c6.1,2.8,6.6,5.4,2.5,10.8c-27.3,36.4-33.1,78.3-29.7,122.2c0.6,8,0,10.1-8.6,7.8c-16.2-4.4-32-0.5-46.2,7.2
				c-8.9,4.8-9.8,1-11.3-6C1063.2,163.1,1063,145.1,1061.4,128.2z"/>
			<path class="st25" d="M1438.9,396.3c12.5,4.3,24.4,8.4,35,15.7c13,8.9,17.1,19.4,12.6,34.6c-2.2,7.6-6.4,14.1-11.4,20.2
				c-2.5,3.1-4.1,3-6.6-0.2c-16.7-21.3-39.9-31.1-65.6-35.9c-4.7-0.9-5.8-1.6-3.1-6.2c5-8.6,5.2-18.3,3-27.6c-1.4-5.9,1-5.8,5.2-5.6
				C1418.6,392,1429,394.7,1438.9,396.3z"/>
			<path class="st26" d="M611.6,651.6c21.3-23.5,41.6-45.9,67.6-62.4c31.9-20.3,58.9-19.4,88.2,4.9c14.6,12,25.1,27.4,33.8,44.1
				c4.4,8.5,2.6,11.9-6.7,14.4c-62.8,16.8-106.1,58.7-140.9,110.9c-6.4,9.6-8.9,11.4-16.6,1.1c-14.3-19.2-35.4-28.7-58.1-32.6
				c-14.3-2.4-11.9-7.6-7.4-16.6C582.9,692.4,598.6,672,611.6,651.6z"/>
			<path class="st23" d="M2522.5,946.1c-12.6-29.1-24.6-56.9-43.8-80.9c-23.7-29.5-49.4-37.3-85-23.9c-17.7,6.7-32.6,17.8-46.2,30.8
				c-7,6.6-6.4,10.4,1.7,15.8c54,36.2,81.4,89.9,97.5,150.5c3,11.1,4.8,13.7,15.3,6.4c19.7-13.6,42.8-15.7,65.6-12.1
				c14.3,2.3,13.7-3.3,12.4-13.3C2536.5,993.9,2528.2,969.6,2522.5,946.1z"/>
			<path class="st25" d="M1660.2,848c24.5,12.6,48.2,12.7,72.2,4.3c5.4-1.9,7,0.6,6.8,5.7c-2.1,48.5-5.2,96.8-28.9,140.9
				c-18.6,34.5-52.7,43.1-93.4,23.5c-25.5-12.3-26.1-13.6-8.1-34.2c30.7-35.3,44.8-77.2,50-122.8
				C1659.4,860.1,1659.6,854.8,1660.2,848z"/>
			<path class="st26" d="M2699.9,1496.1c-4.4-7.8-11.6,0.9-16.7,3.2c-14.9,6.5-29.3,7.3-43.7-0.4c-2.6-1.4-5.8-3.9-6.3-6.4
				c-0.8-3.8,3.8-4.5,6.4-5.6c12.7-5,23.2-12.9,32.5-22.7c11.9-12.6,14.7-25.5,7.2-35.8c-7.2-10-25.3-12.6-39.2-6
				c-17,8-27.8,21.6-35.8,38c-2.4,4.8-4.3,11.5-11.1,9c-17.2-6.3-31.7,6.2-48.2,6c12.1,13.9,28.3,17.2,44.3,20.7
				c4.6,1,8.5,0.9,11.3,6.9c14.5,30.6,67.8,40.5,93.3,17.6C2701.1,1514,2704.3,1503.7,2699.9,1496.1z M2626.3,1462.7
				c1.2-6.8,15.2-20.8,21.9-21.4c4.2-0.4,8.2,0.6,10.2,4.6c2.1,4.5-0.6,7.9-4.2,9.9c-7.7,4.2-15.7,8-21.9,11.1
				C2626.8,1467.6,2625.6,1466.5,2626.3,1462.7z"/>
			<path class="st23" d="M2085.9,728.3c-3.6-6.4-9.6,0.8-13.8,2.6c-12.3,5.3-24.2,6-36.1-0.3c-2.1-1.2-4.8-3.2-5.2-5.3
				c-0.7-3.1,3.1-3.8,5.3-4.6c10.5-4.1,19.2-10.7,26.9-18.8c9.9-10.4,12.2-21.1,6-29.6c-6-8.3-20.9-10.4-32.4-5
				c-14,6.6-23,17.9-29.6,31.4c-2,4-3.6,9.5-9.1,7.5c-8.6-3.1-16.4-0.6-24.2,1.8c-6.5,2-7.2,11.1-1,13.8c6.9,3.1,14.5,4.7,22,6.4
				c3.8,0.8,7.1,0.8,9.4,5.7c12,25.3,56.1,33.5,77.2,14.5C2086.9,743.2,2089.5,734.7,2085.9,728.3z M2025,700.8
				c1-5.6,12.5-17.2,18.1-17.7c3.5-0.3,6.8,0.5,8.4,3.8c1.8,3.7-0.5,6.5-3.5,8.2c-6.4,3.5-13,6.6-18.1,9.2
				C2025.4,704.8,2024.4,703.9,2025,700.8z"/>
		</g>
	</g>
</g>
</svg>
