<svg width="170" height="54" viewBox="0 0 170 54" fill="none" xmlns="http://www.w3.org/2000/svg">
<g clip-path="url(#clip0)">
<path d="M22.7006 3C11.2295 3 2 12.2938 2 23.8446C2 35.3955 11.2295 44.6893 22.7006 44.6893V49.8672C31.6664 49.8672 43.4011 39.5113 43.4011 23.7119C43.533 12.2938 34.1716 3 22.7006 3ZM22.7006 39.5113C14.1303 39.5113 7.14218 32.4746 7.14218 23.8446C7.14218 15.2147 14.1303 8.17797 22.7006 8.17797C31.2708 8.17797 38.2589 15.2147 38.2589 23.8446C38.2589 32.4746 31.2708 39.5113 22.7006 39.5113Z" fill="#CCCCCC"/>
<path d="M22.7004 13.4888C17.0308 13.4888 12.2842 18.1357 12.2842 23.9775C12.2842 29.8193 16.899 34.4662 22.7004 34.4662C28.5018 34.4662 33.1166 29.8193 33.1166 23.9775C33.1166 18.1357 28.5018 13.4888 22.7004 13.4888ZM22.7004 29.1554C19.7997 29.1554 17.5582 26.7656 17.5582 23.9775C17.5582 21.1893 19.9315 18.7995 22.7004 18.7995C25.4692 18.7995 27.8426 21.1893 27.8426 23.9775C27.8426 26.7656 25.6011 29.1554 22.7004 29.1554Z" fill="#CCCCCC"/>
<path d="M48.6753 24.2431C48.6753 17.6047 52.1034 14.4182 57.9048 14.4182C60.6737 14.4182 63.1789 15.6131 64.4974 17.3391C64.6292 17.4719 64.7611 17.7374 64.7611 17.8702C64.7611 18.4013 64.3655 18.7996 63.8381 18.7996C63.5744 18.7996 63.3107 18.6668 63.047 18.4013C61.9922 17.0736 60.1463 16.0114 57.9048 16.0114C53.4219 16.0114 50.7849 18.6668 50.7849 24.1103C50.7849 29.9521 53.4219 32.0764 57.9048 32.0764C59.8826 32.0764 61.8604 31.4126 63.047 29.8193C63.3107 29.5538 63.5744 29.421 63.8381 29.421C64.3655 29.421 64.7611 29.8193 64.7611 30.3504C64.7611 30.616 64.7611 30.7487 64.6292 30.8815C63.3107 32.6075 60.6737 33.8024 58.0367 33.8024C52.1034 34.0679 48.6753 31.147 48.6753 24.2431Z" fill="#CCCCCC"/>
<path d="M69.7712 14.6837V30.6159C69.7712 31.6781 70.1668 32.2092 70.9579 32.2092C71.4853 32.2092 71.8808 32.6075 71.8808 33.0058C71.8808 33.5368 71.4853 33.8024 70.9579 33.8024C68.9801 33.8024 67.9253 32.7402 67.9253 30.4832V14.551C67.9253 14.0199 68.3208 13.6216 68.8482 13.6216C69.3757 13.7544 69.7712 14.1527 69.7712 14.6837Z" fill="#CCCCCC"/>
<path d="M74.1221 17.0734C74.1221 16.2768 74.5176 16.0112 75.1769 16.0112C75.8361 16.0112 76.2317 16.2768 76.2317 17.0734C76.2317 17.7372 75.8361 18.1355 75.1769 18.1355C74.5176 18.1355 74.1221 17.7372 74.1221 17.0734ZM76.0998 33.0056C76.0998 33.5367 75.7043 33.935 75.1769 33.935C74.6495 33.935 74.2539 33.5367 74.2539 33.0056V21.5875C74.2539 21.0564 74.6495 20.6581 75.1769 20.6581C75.7043 20.6581 76.0998 21.0564 76.0998 21.5875V33.0056Z" fill="#CCCCCC"/>
<path d="M85.1979 20.5254C87.835 20.5254 89.2853 21.8531 89.6809 22.3841C89.8127 22.5169 89.9446 22.7825 89.9446 22.9152C89.9446 23.4463 89.549 23.7118 89.1535 23.7118C88.8898 23.7118 88.6261 23.5791 88.4942 23.3135C88.0987 22.7825 87.3076 21.9858 85.3298 21.9858C82.5609 21.9858 81.2424 23.5791 81.2424 27.031C81.2424 30.483 82.6928 32.0762 85.3298 32.0762C87.0439 32.0762 88.0987 31.4124 88.7579 30.8813C89.0216 30.7486 89.1535 30.7486 89.2853 30.7486C89.8127 30.7486 90.0764 31.1469 90.0764 31.5452C90.0764 31.8107 89.9446 31.9435 89.6809 32.209C89.0216 32.7401 87.5713 33.6695 85.1979 33.6695C81.3743 33.6695 79.1328 31.5452 79.1328 26.8983C79.1328 22.6497 81.3743 20.5254 85.1979 20.5254Z" fill="#CCCCCC"/>
<path d="M101.547 33.4039L96.4052 27.031L94.5593 28.3587V32.8728C94.5593 33.4039 94.1637 33.8022 93.6363 33.8022C93.1089 33.8022 92.7134 33.4039 92.7134 32.8728V14.6835C92.7134 14.1525 93.1089 13.7542 93.6363 13.7542C94.1637 13.7542 94.5593 14.1525 94.5593 14.6835V26.3671L101.547 20.9236C101.811 20.7909 102.075 20.6581 102.207 20.6581C102.734 20.6581 103.13 21.0564 103.13 21.5875C103.13 21.853 102.998 22.1186 102.734 22.2513L97.8555 25.9688L103.13 32.3417C103.261 32.4745 103.393 32.74 103.393 32.8728C103.393 33.4039 102.998 33.8022 102.47 33.8022C102.075 33.8022 101.811 33.6694 101.547 33.4039Z" fill="#CCCCCC"/>
<path d="M116.446 31.8107C116.974 31.8107 117.369 32.209 117.369 32.7401C117.369 33.2712 116.974 33.6695 116.446 33.6695H107.481C106.953 33.6695 106.426 33.2712 106.426 32.7401V15.613C106.426 15.0819 106.821 14.6836 107.481 14.6836C108.14 14.6836 108.535 15.0819 108.535 15.613V31.8107H116.446Z" fill="#CCCCCC"/>
<path d="M125.412 20.5254C130.159 20.5254 131.082 24.1101 131.082 25.9689C131.082 26.7655 131.082 27.6949 129.895 27.6949H121.325C121.325 30.483 123.039 32.209 125.808 32.209C127.522 32.209 128.577 31.5452 129.368 31.0141C129.5 30.8813 129.632 30.8813 129.895 30.8813C130.423 30.8813 130.686 31.2796 130.686 31.6779C130.686 31.9435 130.555 32.209 130.423 32.3418C130.027 32.7401 128.445 33.935 125.808 33.935C121.852 33.935 119.479 31.9435 119.479 27.1638C119.347 22.9152 121.589 20.5254 125.412 20.5254ZM125.412 22.2514C122.907 22.2514 121.457 23.8446 121.325 26.2344H129.236C129.104 24.2429 128.445 22.2514 125.412 22.2514Z" fill="#CCCCCC"/>
<path d="M135.433 23.7118C135.169 23.9774 134.905 24.1101 134.642 24.1101C134.114 24.1101 133.851 23.7118 133.851 23.3135C133.851 23.1808 133.851 22.9152 133.983 22.7825C134.774 21.5875 136.356 20.5254 138.861 20.5254C142.289 20.5254 144.135 22.3841 144.135 25.3051V33.0056C144.135 33.5367 143.739 33.935 143.212 33.935C142.685 33.935 142.289 33.5367 142.289 33.0056V31.9435C141.498 33.2712 139.784 33.935 138.07 33.935C134.905 33.935 132.928 32.4745 132.928 29.9519C132.928 27.5621 134.905 25.9689 138.07 25.9689H142.157V25.1723C142.157 23.3135 140.839 22.1186 138.729 22.1186C137.279 22.2514 136.356 22.6497 135.433 23.7118ZM142.289 28.757V27.5621H138.202C136.224 27.5621 134.905 28.3587 134.905 29.9519C134.905 31.4124 135.96 32.3418 138.202 32.3418C140.311 32.3418 142.289 31.1469 142.289 28.757Z" fill="#CCCCCC"/>
<path d="M149.541 22.9153C150.068 21.5876 151.65 20.6582 153.628 20.6582C154.156 20.6582 154.551 21.0565 154.551 21.5876C154.551 22.1187 154.156 22.517 153.628 22.517C150.859 22.517 149.541 24.2429 149.541 26.8983V33.1384C149.541 33.6695 149.145 34.0678 148.618 34.0678C148.09 34.0678 147.695 33.6695 147.695 33.1384V21.5876C147.695 21.0565 148.09 20.6582 148.618 20.6582C149.145 20.6582 149.541 21.0565 149.541 21.5876V22.9153Z" fill="#CCCCCC"/>
<path d="M168 25.4378V32.8728C168 33.4039 167.604 33.8022 167.077 33.8022C166.549 33.8022 166.154 33.4039 166.154 32.8728V25.8361C166.154 23.5791 165.495 22.1186 162.594 22.1186C159.693 22.1186 158.638 23.8446 158.638 25.9689V32.8728C158.638 33.4039 158.243 33.8022 157.715 33.8022C157.188 33.8022 156.792 33.4039 156.792 32.8728V21.5875C156.792 21.0565 157.188 20.6582 157.715 20.6582C158.243 20.6582 158.638 21.0565 158.638 21.5875V22.5169C159.166 21.4548 160.616 20.5254 162.594 20.5254C167.077 20.5254 168 23.1808 168 25.4378Z" fill="#CCCCCC"/>
</g>
<defs>
<clipPath id="clip0">
<rect x="2" y="3" width="166" height="47" fill="white"/>
</clipPath>
</defs>
</svg>
