<svg width="170" height="54" viewBox="0 0 170 54" fill="none" xmlns="http://www.w3.org/2000/svg">
<g clip-path="url(#clip0)">
<path fill-rule="evenodd" clip-rule="evenodd" d="M60.783 43.8394C58.5756 43.3212 55.8487 43.0622 53.1219 43.0622C50.7846 42.9326 48.3175 43.0622 43.9026 44.0984C39.4877 45.1347 33.1251 46.9482 28.9699 47.9845C24.8147 49.0207 22.7371 49.2798 20.6595 49.2798C19.6207 49.2798 18.5819 49.1503 17.8028 49.0207C16.8939 48.8912 16.1148 48.6321 15.4655 48.3731C14.8163 48.114 14.167 47.7254 13.7775 47.4663C13.2581 47.0777 12.8685 46.6891 12.479 46.3005C12.0894 45.9119 11.8297 45.3938 11.57 44.8756C11.3103 44.3575 11.1805 43.8394 10.9208 43.3212C10.7909 42.6736 10.6611 42.1554 10.6611 41.3782C10.6611 40.7306 10.6611 39.9534 10.6611 39.3057C10.7909 38.2694 11.0506 37.2332 11.4402 35.6788C11.9596 34.2539 12.6088 32.4404 13.6476 30.1088C14.6864 28.0363 16.1148 25.3161 17.8028 22.7254C19.4909 20.1347 21.3088 17.544 22.9968 15.342C24.6848 13.1399 26.3729 11.456 27.8012 10.0311C29.2296 8.60621 30.3982 7.56994 31.5669 6.79274C32.6057 6.01554 33.5146 5.49741 34.2937 5.1088C35.0728 4.7202 35.7221 4.46114 36.3713 4.3316C37.0206 4.20207 37.54 4.07253 38.0593 4.07253C38.4489 4.07253 38.7086 4.07253 38.9683 4.3316C39.228 4.59067 39.228 4.84974 39.228 5.23834C39.228 5.36787 39.228 5.62694 39.228 5.88601C38.4489 6.27461 37.54 6.92228 36.8907 7.44041C36.631 7.69948 36.3713 7.95854 36.1116 8.21761C35.5922 8.73575 35.3325 9.25388 35.2027 9.90155C35.0728 10.2902 35.5922 11.0674 35.8519 11.1969C36.8907 11.9741 38.0593 11.456 39.228 10.0311C39.4877 9.77202 39.7474 9.38342 39.8772 9.12435C40.1369 8.73575 40.2668 8.34715 40.3966 7.95854C41.0459 6.40414 41.3056 4.84974 40.3966 3.42487C40.1369 3.1658 39.8772 2.90673 39.6175 2.64766C39.3578 2.3886 38.9683 2.25906 38.4489 2.12953C38.0593 2 37.54 1.87046 36.7609 2C35.9818 2 35.0728 2.12953 33.9042 2.3886C32.7355 2.64766 31.5669 3.03626 30.1385 3.68393C28.7102 4.3316 27.152 5.1088 25.4639 6.27461C23.7759 7.44041 21.8282 8.86528 19.8804 10.5492C17.9327 12.3627 15.8551 14.3057 14.0372 16.5078C10.2715 20.9119 7.285 25.7047 5.59696 29.3316C4.68801 31.2746 4.16861 32.829 3.64921 34.3834C3.25967 35.8083 2.99997 37.1036 2.87012 38.399C2.87012 40.4715 2.99997 42.1554 3.25967 43.5803C3.38952 44.228 3.51937 44.8756 3.77906 45.3938C4.03876 46.0415 4.29846 46.5596 4.55816 46.9482C4.81786 47.4663 5.20741 47.8549 5.59696 48.3731C5.98651 48.7617 6.5059 49.1503 7.0253 49.5389C7.5447 49.9275 8.19395 50.1865 9.1029 50.5751C9.88199 50.8342 10.7909 51.0933 11.9596 51.3523C13.1282 51.4819 14.4267 51.6114 15.8551 51.6114C18.0625 51.7409 20.1401 51.4819 23.7759 50.7047C27.4117 49.9275 32.4758 48.5026 36.2415 47.7254C39.8772 46.9482 42.0847 46.8186 44.2921 46.8186C45.7205 46.8186 47.019 46.9482 48.0578 47.0777C49.0966 47.2073 50.0055 47.4663 50.7846 47.8549C51.5637 48.2435 52.213 48.6321 52.992 49.2798C53.7711 49.9275 54.5502 50.7047 55.3293 51.6114C57.6666 50.057 60.1338 49.0207 61.9517 48.7617C62.8606 48.6321 63.7696 48.5026 64.5487 48.5026C64.9382 48.5026 65.1979 48.5026 65.7173 48.6321C66.1069 48.6321 66.6263 48.7617 67.9247 49.1503C69.2232 49.5389 71.4307 50.3161 73.5083 51.2228C71.4307 49.2798 69.0934 47.4663 67.0158 46.3005C64.9382 45.0052 63.1203 44.228 60.783 43.8394ZM88.1813 14.8238H83.247L80.7799 19.3575H85.5843L88.1813 14.8238ZM160.507 6.92228C158.43 8.08808 156.612 8.99481 154.534 9.51295C152.457 10.0311 149.99 10.2902 147.652 10.2902L143.367 15.4715C143.757 15.4715 144.017 15.601 144.406 15.601C144.926 15.7306 145.575 15.7306 146.484 15.7306C148.042 15.7306 149.6 15.4715 151.158 15.0829C154.405 14.1762 158.17 12.3627 161.027 9.90155C162.455 8.73575 163.754 7.44041 164.663 6.14507C165.701 4.84974 166.351 3.5544 167 2.25906C164.922 4.07253 162.585 5.75647 160.507 6.92228ZM154.924 39.5648C154.015 40.7306 153.106 41.8964 152.327 42.8031C151.548 43.7098 151.028 44.228 150.509 44.7461C150.12 45.1347 149.73 45.5233 149.47 45.6529C149.211 45.9119 148.951 46.0414 148.821 46.171C148.431 46.43 148.172 46.43 147.782 46.43C147.393 46.3005 147.393 46.0415 147.393 45.7824C147.393 45.6528 147.393 45.7824 147.782 44.8756C148.172 44.0984 148.951 42.8031 149.6 41.3782L158.17 26.8705H154.015L152.587 28.1658C152.067 27.7772 151.548 27.5181 151.158 27.2591C150.769 27 150.509 27 150.249 27C149.99 27 149.73 26.8705 149.47 26.8705C148.042 26.8705 146.614 27.3886 145.055 28.2953C144.536 28.5544 144.146 28.943 143.497 29.3316C142.978 29.7202 142.329 30.2383 141.549 31.0155C140.77 31.6632 139.991 32.5699 138.433 34.513C136.875 36.456 134.667 39.4352 133.109 41.5078C131.551 43.5803 130.642 44.6166 129.993 45.3938C129.344 46.0415 129.084 46.3005 128.824 46.5596C128.564 46.6891 128.305 46.8187 128.175 46.9482C127.915 47.0777 127.785 47.0777 127.526 47.0777C127.136 47.0777 126.617 46.43 126.617 46.0415C126.487 45.2642 126.617 45.0052 126.876 43.8394C127.006 43.1917 127.266 42.1554 127.785 40.8601C128.175 39.5648 128.694 38.0104 129.344 36.456C132.59 34.3834 135.706 32.0518 138.173 30.1088C140.641 28.1658 142.329 26.3523 144.017 24.4093C145.705 22.3368 147.523 20.0052 149.211 17.4145L147.263 17.6736C145.964 19.487 144.666 21.171 143.108 22.9845C141.549 24.7979 139.732 26.6114 137.654 28.4249C135.576 30.2383 133.499 31.9223 131.161 33.4767C132.59 30.7565 134.148 28.1658 135.706 25.4456C137.264 22.8549 138.952 20.2642 140.641 17.9326C142.329 15.601 143.887 13.5285 145.445 11.715C146.873 9.90155 148.302 8.60621 149.34 7.56994C150.379 6.53367 151.288 5.88601 151.937 5.36787C152.587 4.84974 153.106 4.7202 153.366 4.46114C153.755 4.3316 154.015 4.20207 154.145 4.20207C154.275 4.20207 154.405 4.20207 154.534 4.3316C154.924 4.7202 154.924 4.97927 154.794 5.36787C154.794 5.4974 154.794 5.62694 154.534 6.14507C154.275 6.66321 154.015 7.56994 153.625 8.34715L155.314 8.08808C155.573 7.56994 155.963 7.05181 156.093 6.66321C156.222 6.27461 156.352 6.14507 156.352 5.88601C156.352 5.62694 156.482 5.36787 156.482 5.1088C156.482 4.20207 156.352 3.42487 155.573 2.7772C155.314 2.64766 155.184 2.51813 154.924 2.3886C154.015 2.12953 153.236 2.25906 152.197 2.51813C151.418 2.7772 150.639 3.03627 149.6 3.5544C148.561 4.07253 147.523 4.84974 146.094 5.88601C144.666 6.92228 143.108 8.47668 141.29 10.4197C139.472 12.3627 137.394 14.6943 135.317 17.544C133.239 20.2642 131.032 23.5026 128.954 26.7409C127.006 29.9793 125.188 33.3471 123.5 36.715H121.163C121.553 35.8083 122.072 34.772 122.332 34.1243C122.591 33.4767 122.721 32.9585 122.851 32.5699C123.111 31.4041 123.111 30.1088 122.721 29.0725C122.591 28.8135 122.462 28.4249 122.202 28.2953C121.423 27.3886 120.774 27.2591 119.865 27.2591C119.475 27.2591 119.085 27.2591 118.566 27.5181C118.047 27.6477 117.527 27.7772 116.748 28.1658C116.099 28.4249 115.32 28.943 114.541 29.4611C113.632 30.1088 112.723 30.7565 111.814 31.7927C110.775 32.6995 109.736 33.8653 108.827 35.0311C106.75 37.4922 105.192 40.2124 104.283 42.285C103.763 43.3212 103.504 44.228 103.244 45.1347C102.984 45.9119 102.854 46.6891 102.854 47.3368C102.854 47.9845 102.854 48.5026 102.854 48.8912C102.984 49.4093 103.114 49.7979 103.244 50.1865C103.374 50.5751 103.633 50.8342 104.023 51.0933C104.283 51.3523 104.672 51.6114 105.062 51.7409C105.451 51.8705 105.841 52 106.36 52C107.269 52 108.178 51.7409 109.217 51.2228C109.736 50.9637 110.386 50.5751 111.165 50.057C111.944 49.5389 112.723 48.7617 113.632 47.8549C114.541 46.9482 115.58 45.6529 116.748 44.0984C117.917 42.544 119.345 40.601 120.514 38.5285H122.851C122.072 40.4715 121.423 42.544 120.903 43.8394C120.514 45.1347 120.384 45.6528 120.254 46.171C120.124 47.2073 119.994 48.114 119.994 48.8912C119.994 49.2798 120.124 49.6684 120.254 49.9275C120.384 50.1865 120.514 50.5751 120.644 50.8342C120.774 51.0933 121.033 51.3523 121.293 51.4819C121.553 51.6114 121.812 51.8705 122.202 51.8705C122.462 52 122.851 52 123.241 52C124.539 52 125.708 51.6114 127.266 50.5751C127.785 50.1865 128.435 49.6684 129.214 48.8912C129.993 48.114 130.902 47.2073 131.811 46.171C131.811 46.8186 131.681 47.4663 131.681 47.9845C131.681 48.5026 131.681 48.8912 131.811 49.2798C131.811 49.6684 131.941 49.9275 132.07 50.057C132.2 50.3161 132.2 50.4456 132.33 50.7047C132.59 51.0933 132.72 51.2228 132.979 51.4819C133.499 51.7409 133.888 51.8705 134.408 51.8705C134.667 51.8705 134.927 51.8705 135.317 51.7409C135.966 51.6114 136.615 51.3523 137.394 50.9637C137.784 50.7047 138.303 50.4456 138.823 49.7979C139.472 49.2798 140.251 48.5026 141.03 47.7254C141.03 48.2435 140.9 48.8912 140.9 49.2798C140.9 49.6684 140.9 50.057 141.03 50.1865C141.03 50.4456 141.16 50.5751 141.16 50.8342C141.29 51.3523 141.809 51.8705 142.199 51.8705C143.497 52.2591 144.536 51.8705 145.964 51.2228C146.484 50.9637 147.133 50.5751 147.782 50.057C148.431 49.5389 149.211 48.8912 150.12 47.9845C151.028 47.0777 151.937 45.9119 152.976 44.487C154.015 43.0622 155.054 41.3782 156.093 39.5648H154.924ZM117.138 40.8601C116.488 41.7668 115.839 42.544 115.19 43.3212C114.541 44.0984 114.021 44.6166 113.502 45.1347C112.983 45.6528 112.593 45.9119 112.203 46.171C111.814 46.43 111.554 46.5596 111.424 46.6891C111.165 46.8187 111.035 46.8186 110.905 46.8186C110.386 46.8186 109.996 46.5596 109.606 46.0415C109.477 45.9119 109.347 45.6529 109.347 45.3938C109.217 44.8756 109.087 44.3575 109.217 43.7098C109.217 43.3212 109.347 42.8031 109.477 42.285C109.606 41.7668 109.736 41.2487 109.996 40.601C110.905 38.658 112.463 36.456 114.541 34.6425C114.8 35.1606 115.06 35.5492 115.45 36.0674C115.58 36.3264 115.839 36.456 116.099 36.715C116.359 36.9741 116.748 37.1036 117.268 37.3627C117.787 37.6218 118.436 37.8808 119.085 38.0104C118.306 39.0466 117.787 40.0829 117.138 40.8601ZM121.163 32.0518C121.163 32.3109 121.033 32.6995 121.033 32.9585C121.033 33.2176 120.903 33.6062 120.644 34.1243C120.384 34.772 119.865 35.6788 119.475 36.5855C118.956 36.456 118.436 36.1969 118.047 36.0674C117.657 35.9378 117.397 35.6788 117.268 35.5492C117.138 35.4197 116.878 35.2902 116.878 35.1606C116.618 34.9016 116.488 34.6425 116.359 34.2539C115.969 32.6995 116.229 31.0155 118.047 29.8497C118.566 29.4611 119.085 29.3316 119.605 29.3316C120.124 29.3316 120.514 29.3316 120.903 29.7202C121.293 30.1088 121.293 30.4974 121.293 31.1451C121.163 31.4041 121.163 31.7927 121.163 32.0518ZM143.757 42.0259C143.108 42.9326 142.458 43.8394 141.939 44.487C141.42 45.1347 141.03 45.5233 140.641 45.7824C140.251 46.0415 139.991 46.3005 139.732 46.43C139.212 46.6891 138.563 46.6891 138.173 46.43C137.784 46.0415 137.914 45.6528 137.914 45.1347C137.914 44.8756 138.044 44.487 138.044 44.0984C138.173 43.7098 138.303 43.1917 138.433 42.8031C138.563 42.285 138.823 41.7668 139.212 41.1192C139.602 40.4715 139.991 39.6943 140.511 38.9171C141.03 38.1399 141.679 37.1036 142.458 36.1969C143.238 35.2901 144.017 34.2539 144.796 33.4767C145.575 32.5699 146.354 31.9223 147.003 31.2746C147.652 30.7565 148.172 30.3679 148.561 30.1088C148.951 29.8497 149.211 29.7202 149.47 29.5907C149.73 29.4611 149.86 29.4611 149.99 29.4611C150.249 29.4611 150.509 29.4611 150.769 29.5907C151.028 29.8497 150.899 30.2383 150.769 30.6269C150.639 30.886 150.639 31.1451 150.379 31.5337C150.249 31.9223 149.99 32.3109 149.73 32.6995L143.757 42.0259ZM105.841 33.8653C106.101 32.829 106.23 31.7927 106.36 30.886C106.49 30.1088 106.36 29.4611 106.23 28.8135C106.101 28.5544 105.971 28.2953 105.971 28.1658C105.711 27.6477 105.321 27.5181 104.932 27.2591C104.672 27.1295 104.412 27 104.153 27C103.893 26.8705 103.504 26.8705 102.984 26.8705C102.595 26.8705 102.075 26.8705 101.556 27C99.608 27.3886 97.5304 28.4249 95.4529 30.7565C94.9335 31.4041 94.4141 32.0518 93.8947 32.829C93.3753 33.6062 92.8559 34.513 92.3365 35.5492C91.8171 36.5855 91.4275 37.6218 91.038 38.7876C90.6484 39.9534 90.3887 41.1192 90.129 42.285C91.1678 41.3782 92.3365 40.4715 93.1156 39.9534C93.8947 39.3057 94.4141 39.0466 95.0633 38.658C95.7126 38.2694 96.4916 37.8808 97.4006 37.4922C97.6603 36.1969 98.1797 34.9016 98.6991 33.7357C98.9588 33.2176 99.2185 32.6995 99.4782 32.3109C99.7379 31.9223 99.9976 31.5337 100.257 31.2746C100.907 30.4974 101.556 29.9793 102.205 29.7202C103.114 29.4611 103.893 29.3316 104.672 29.9793C105.062 30.3679 105.062 30.7565 105.062 31.1451C105.062 32.6995 104.672 34.1243 104.153 35.8083C103.893 36.5855 103.504 37.2332 103.114 38.1399C102.724 38.9171 102.205 39.6943 101.556 40.601C100.387 42.285 98.6991 44.0984 96.7514 45.5233C94.9335 46.9482 93.1156 47.9845 91.8171 48.3731C91.1678 48.5026 90.7783 48.6321 90.2589 48.6321C89.8693 48.6321 89.4798 48.6321 88.9604 48.5026C88.1813 48.2435 87.4022 47.7254 86.7529 46.9482C86.4932 46.5596 86.2335 46.171 85.9738 45.6529C85.5843 44.7461 85.4544 43.7098 85.5843 42.8031C85.7141 41.7668 85.9738 40.7306 86.6231 38.9171C87.2723 37.1036 88.441 34.513 89.8693 31.6632C91.4275 28.8135 93.2454 25.5751 95.0633 22.8549C96.8812 20.1347 98.5692 17.6736 100.257 15.8601C101.556 13.9171 102.984 12.3627 104.283 11.1969C105.581 10.0311 106.62 8.99481 107.659 8.21761C108.698 7.44041 109.477 6.92228 110.386 6.40414C111.165 6.01554 111.944 5.62694 112.593 5.36787C114.411 4.7202 115.969 4.59067 117.787 4.7202C116.359 5.4974 115.06 6.40414 113.891 7.31088C111.424 9.25388 109.736 11.1969 108.568 12.8808C107.918 13.7876 107.529 14.5648 107.139 15.2124C106.75 15.9896 106.49 16.6373 106.36 17.285C106.23 17.9326 106.101 18.5803 105.971 18.9689C105.971 19.487 105.971 19.7461 105.971 20.1347C105.971 20.3938 106.101 20.6528 106.23 20.9119C106.36 21.171 106.49 21.3005 106.62 21.5596C106.75 21.6891 107.009 21.9482 107.139 22.0777C107.399 22.2073 107.659 22.3368 107.918 22.3368C108.178 22.4663 108.568 22.4663 108.957 22.4663C109.736 22.4663 110.386 22.3368 111.295 21.8186C111.814 21.5596 112.333 21.3005 112.853 20.9119C113.372 20.5233 114.021 20.0052 114.671 19.3575C115.32 18.7098 115.969 18.0622 116.488 17.1554C117.138 16.3782 117.657 15.4715 118.177 14.5648C119.085 12.8808 119.865 11.1969 120.124 9.77202C120.254 9.12435 120.384 8.47668 120.514 7.82901C120.514 7.69948 120.514 7.56994 120.514 7.18134C120.514 6.92228 120.514 6.40414 120.514 6.01554C120.514 5.62694 120.514 5.49741 120.514 5.23834C122.072 5.23834 123.63 5.36787 125.188 5.75647C126.617 6.14507 128.045 6.79274 129.993 7.95854C131.941 9.25388 134.538 11.0674 137.005 13.1399L141.679 8.34715C140.121 7.05181 138.563 5.75647 137.135 4.84974C135.706 3.943 134.538 3.29533 133.499 2.90673C132.46 2.51813 131.421 2.12953 130.642 2C129.344 1.74093 128.175 1.61139 126.747 1.87046C126.227 1.87046 125.708 2 124.669 2.25906C123.63 2.51813 122.072 3.03627 120.514 3.5544C119.735 3.03627 118.826 2.51813 118.177 2.25906C117.527 2 117.138 1.87046 116.748 1.87046C115.19 1.61139 113.762 1.74093 111.944 2.3886C110.515 2.7772 108.957 3.42487 107.009 4.46114C105.062 5.4974 102.854 6.92228 100.517 8.60621C98.1797 10.2902 95.8424 12.3627 93.7648 14.4352C91.5574 16.6373 89.6096 18.8394 87.9216 21.0414C86.2335 23.2435 84.8052 25.3161 83.7664 27.2591C82.5977 29.2021 81.6888 31.0155 81.0396 32.829C80.3903 34.5129 79.8709 36.1969 79.4814 37.6218C79.0918 39.1762 78.8321 40.4715 78.8321 41.6373C78.7023 42.8031 78.7023 43.5803 78.8321 44.487C78.962 45.2642 79.0918 46.0414 79.4814 46.8186C79.7411 47.5959 80.2605 48.2435 80.65 48.8912C81.1694 49.5389 81.8186 50.057 82.4679 50.5751C83.1171 50.9637 83.8962 51.3523 84.6753 51.6114C86.3634 52.1295 87.9216 52.1295 89.8693 51.6114C90.7783 51.3523 91.9469 50.8342 93.1156 50.1865C95.5827 48.8912 98.3095 46.6891 100.387 44.228C102.595 41.7668 104.153 39.3057 105.062 36.9741C105.192 36.0674 105.581 34.9016 105.841 33.8653ZM118.436 6.14507C118.306 7.05181 118.177 7.95854 117.917 8.99481C117.657 10.0311 117.268 11.3264 116.748 12.3627C116.229 13.5285 115.709 14.5648 115.32 15.4715C114.8 16.3782 114.411 17.0259 113.891 17.6736C112.723 19.0984 111.814 19.8756 110.775 20.3938C109.736 20.7824 108.827 20.9119 107.918 20.3938C107.659 20.2642 107.399 19.8756 107.399 19.6166C107.269 18.5803 107.529 17.6736 107.918 16.6373C108.048 16.1192 108.308 15.7306 108.698 15.0829C108.957 14.5648 109.477 13.9171 109.996 13.2694C110.515 12.6218 111.165 11.8446 112.074 11.0674C112.983 10.2902 114.021 9.38342 115.06 8.47668C116.099 7.56994 117.268 6.79274 118.436 6.14507ZM72.7292 31.4041C71.8202 32.4404 71.4307 32.829 71.171 33.0881C70.9113 33.3471 70.6516 33.4767 70.5217 33.6062C70.1322 33.8653 69.7426 33.9948 69.4829 33.8653C69.2232 33.8653 68.9635 33.6062 68.9635 33.3471C68.9635 33.2176 68.9635 33.2176 69.0934 32.6995C69.2232 32.4404 69.3531 32.0518 69.8725 31.1451C70.3919 30.1088 71.171 28.6839 71.9501 27.1295L79.2217 14.8238H74.6769L73.768 15.8601C73.1187 15.4715 72.4695 15.2124 72.0799 14.9534C71.6904 14.6943 71.3008 14.6943 71.0411 14.6943C70.7814 14.6943 70.3919 14.5648 70.1322 14.5648C69.0934 14.5648 67.9247 14.8238 66.6263 15.601C66.1069 15.8601 65.5875 16.2487 64.8084 16.8964C64.1591 17.4145 63.2502 18.1917 61.5621 20.0052C60.0039 21.8186 57.5368 24.6684 55.589 27C53.6413 29.3316 52.0831 31.1451 50.9145 32.3109C49.7458 33.4767 49.0966 33.9948 48.5772 34.3834C48.0578 34.772 47.6682 35.0311 47.2787 35.1606C47.1488 35.5492 46.7593 35.6788 46.4996 35.6788C45.7205 35.8083 44.9414 35.8083 44.2921 35.4197C43.9026 35.1606 43.9026 34.9016 43.7727 34.513C43.6429 33.6062 43.7727 32.9585 43.9026 32.0518C44.0324 31.5337 44.1623 31.0155 44.422 30.3679C44.6817 29.7202 44.9414 28.943 45.4608 28.1658C45.8503 27.2591 46.4996 26.3523 47.1488 25.3161C48.5772 23.2435 50.5249 20.9119 52.0831 19.487C52.8622 18.7098 53.5114 18.1917 54.0308 17.9326C54.5502 17.544 54.8099 17.4145 55.0696 17.285C55.3293 17.1554 55.4592 17.1554 55.7189 17.1554C55.9786 17.1554 56.2383 17.1554 56.3681 17.4145C56.6278 17.6736 56.6278 17.8031 56.7577 18.1917C56.7577 18.3212 56.7577 18.5803 56.7577 18.8394C56.3681 18.9689 55.8487 18.9689 55.589 19.0984C55.1995 19.228 54.9398 19.3575 54.8099 19.487C54.5502 19.6166 54.4204 19.7461 54.2905 19.8756C53.2517 20.6528 53.1219 21.6891 53.1219 22.3368C53.1219 22.5958 53.3816 22.9845 53.6413 23.2435C54.4204 23.8912 55.4592 23.5026 56.6278 22.2073C56.7577 21.9482 57.0174 21.6891 57.1472 21.43C57.7965 20.5233 58.0562 19.6166 58.3159 18.8394C58.5756 17.6736 58.5756 16.2487 57.1472 15.0829C56.6278 14.6943 56.1084 14.5648 55.4592 14.5648C55.0696 14.5648 54.6801 14.5648 54.1607 14.6943C53.6413 14.8238 53.2517 14.9534 52.6025 15.2124C52.0831 15.4715 51.4339 15.7306 50.2652 16.6373C49.0966 17.544 47.4085 19.0984 46.11 20.2642C44.8115 21.43 43.7727 22.0777 42.9936 22.5958C42.2145 23.114 41.4354 23.5026 40.7862 23.7617C40.1369 24.0207 39.4877 24.2798 38.8384 24.4093C39.228 23.5026 39.6175 22.5959 39.8772 21.8186C40.1369 21.0414 40.3966 20.3938 40.5265 19.8756C40.6563 19.3575 40.6563 19.0984 40.7862 18.7098C40.7862 18.0622 40.7862 17.285 40.5265 16.7668C40.3966 16.5078 40.2668 16.2487 40.1369 16.1192C39.7474 15.601 39.4877 15.342 38.9683 15.2124C37.9295 14.6943 37.0206 14.8238 35.8519 15.0829C35.2027 15.2124 34.5534 15.4715 33.9042 15.8601C33.1251 16.2487 32.346 16.7668 31.3072 17.4145C30.3982 18.0622 29.3594 18.9689 28.3206 19.8756C27.2818 20.9119 26.243 21.9482 25.3341 23.114C23.5162 25.4456 22.0879 27.7772 21.3088 29.7202C20.9192 30.7565 20.6595 31.5337 20.3998 32.4404C19.8804 33.0881 19.7506 33.8653 19.7506 34.3834C19.7506 35.0311 19.7506 35.4197 19.7506 35.8083C19.7506 36.1969 19.8804 36.5855 20.0103 36.8446C20.1401 37.2332 20.27 37.4922 20.3998 37.7513C20.5297 38.0104 20.7894 38.2694 21.0491 38.399C21.3088 38.5285 21.5685 38.7876 21.958 38.7876C22.3476 38.9171 22.7371 38.9171 23.1266 38.9171C23.5162 38.9171 24.0356 38.7876 24.555 38.7876C25.0744 38.658 25.5938 38.5285 26.1132 38.2694C26.6326 38.0104 27.2818 37.6218 27.9311 37.2332C28.5803 36.715 29.3594 36.0674 30.2684 35.2902C31.1773 34.3834 32.0863 33.3471 33.3848 31.6632C34.6833 30.1088 36.1116 27.9067 37.54 25.7047L41.0459 24.9275C40.0071 26.8705 39.0981 28.6839 38.4489 29.9793C37.9295 31.2746 37.6698 31.7927 37.6698 32.3109C37.2803 34.1243 37.1504 35.9378 37.9295 37.3627C38.1892 37.7513 38.4489 38.1399 38.8384 38.5285C39.228 38.7876 39.7474 39.0466 40.2668 39.3057C40.7862 39.4352 41.4354 39.5648 42.0847 39.5648C43.6429 39.5648 45.0712 39.1762 47.019 38.0104C47.6682 37.6218 48.4473 37.1036 49.3563 36.1969C50.3951 35.2901 51.5637 34.1244 52.8622 32.6995C52.7323 33.8653 52.7323 35.0311 52.7323 35.6788C52.7323 36.456 52.7323 36.715 52.8622 36.9741C52.8622 37.2332 52.992 37.4922 52.992 37.6218C53.1219 37.7513 53.1219 37.8808 53.2517 38.0104C53.5114 38.5285 53.901 38.658 54.2905 38.7876C55.589 39.1762 56.6278 38.9171 57.9263 38.399C58.4457 38.1399 58.9651 37.8808 59.6144 37.3627C60.2636 36.8446 61.1726 36.1969 61.9517 35.4197C61.9517 35.9378 61.8218 36.3264 61.9517 36.715C61.9517 37.1036 61.9517 37.2332 62.0815 37.4922C62.0815 37.7513 62.2114 38.0104 62.3412 38.2694C62.7308 38.7876 63.2502 38.9171 63.8994 39.0466C64.1591 39.0466 64.4188 39.0466 64.8084 39.0466C65.977 39.0466 67.2755 38.658 68.7038 37.6218C69.4829 37.1036 70.262 36.456 71.171 35.5492C72.0799 34.6425 73.1187 33.4767 74.1575 32.0518C75.1963 30.6269 76.2351 28.943 77.2739 27.1295L76.365 26.8705C74.9366 28.8135 73.6381 30.3679 72.7292 31.4041ZM32.0863 31.2746C31.1773 32.5699 30.6579 32.9585 30.3982 33.2176C30.0087 33.4767 29.749 33.7357 29.6191 33.8653C29.3594 33.9948 29.2296 34.1243 28.9699 34.2539C28.0609 34.6425 27.0221 34.772 26.3729 33.7357C26.1132 33.3471 26.1132 32.9585 26.1132 32.4404C26.1132 32.1813 26.243 31.6632 26.3729 31.1451C26.5027 30.6269 26.7624 29.9793 27.2818 29.0725C27.6714 28.1658 28.3206 27.1295 29.0997 25.9637C29.8788 24.7979 30.9176 23.5026 31.9564 22.3368C32.346 22.9845 32.8654 23.5026 33.2549 24.0207C33.6445 24.4093 33.9042 24.6684 34.4236 24.9275C34.8131 25.1865 35.4624 25.4456 36.1116 25.7047C34.5534 27.7772 32.9952 29.9793 32.0863 31.2746ZM38.4489 19.8756C38.4489 20.1347 38.319 20.5233 38.319 20.7824C38.1892 21.0414 38.1892 21.43 37.9295 21.9482C37.6698 22.4663 37.2803 23.2435 36.8907 24.0207C36.3713 23.8912 35.8519 23.6321 35.4624 23.5026C35.0728 23.2435 34.8131 23.114 34.5534 22.9845C34.2937 22.8549 34.1639 22.7254 34.034 22.4663C33.9042 22.3368 33.7743 22.2073 33.6445 22.0777C32.9952 20.9119 32.9952 19.6166 34.2937 18.4508C34.4236 18.3212 34.6833 18.0622 34.943 17.9326C35.2027 17.8031 35.4624 17.6736 35.7221 17.544C36.5012 17.285 37.1504 17.0259 37.7996 17.544C38.5787 18.3212 38.4489 19.0984 38.4489 19.8756ZM64.6785 30.2383C64.289 30.886 63.7696 31.5337 63.38 32.0518C62.9905 32.5699 62.7308 32.9585 62.3412 33.2176C62.0815 33.4767 61.8218 33.7357 61.5621 33.8653C61.1726 34.1243 60.9129 34.2539 60.6532 34.3834C60.2636 34.513 59.7442 34.3834 59.3547 33.9948C58.9651 33.4767 58.9651 33.2176 58.9651 32.6995C58.9651 32.4404 59.095 32.1813 59.095 31.7927C59.2248 31.4041 59.3547 30.886 59.6144 30.3679C59.8741 29.7202 60.2636 29.0725 60.783 28.0363C61.3024 27.1295 62.0815 25.9637 62.8606 24.7979C63.7696 23.6321 64.6785 22.3368 65.5875 21.43C66.4964 20.3938 67.2755 19.6166 67.9247 18.9689C68.574 18.3212 69.0934 18.0622 69.3531 17.8031C69.7426 17.544 70.0023 17.4145 70.1322 17.4145C70.5217 17.285 70.7814 17.285 71.171 17.4145C71.6904 17.8031 71.4307 18.4508 71.4307 18.8394C71.4307 18.9689 71.3008 19.0984 71.0411 19.487C70.7814 19.8756 70.262 20.6528 69.8725 21.43L64.6785 30.2383ZM155.054 50.3161L154.664 48.7617H154.015V51.0933H154.405V49.2798L154.924 51.0933H155.443L155.963 49.2798V51.0933H156.352V48.7617H155.703L155.054 50.3161ZM158.17 50.3161C158.04 50.1865 158.04 50.1865 157.911 50.1865C158.17 50.1865 158.3 50.057 158.43 49.9275C158.56 49.7979 158.56 49.6684 158.56 49.5389C158.56 49.4093 158.56 49.2798 158.43 49.1503C158.3 49.0207 158.3 49.0207 158.17 48.8912C158.04 48.8912 157.91 48.8912 157.651 48.8912H156.612V51.2228H157.131V50.3161H157.261C157.391 50.3161 157.391 50.3161 157.521 50.3161C157.521 50.3161 157.651 50.3161 157.651 50.4456C157.651 50.4456 157.781 50.5751 157.911 50.8342L158.3 51.3523H158.819L158.56 50.9637C158.3 50.4456 158.17 50.3161 158.17 50.3161ZM157.391 49.7979H157.002V49.2798H157.391C157.521 49.2798 157.651 49.2798 157.781 49.2798C157.91 49.2798 157.911 49.2798 157.911 49.4093V49.5389C157.911 49.6684 157.911 49.6684 157.911 49.6684L157.781 49.7979C157.781 49.7979 157.651 49.7979 157.391 49.7979Z" fill="#CCCCCC"/>
</g>
<defs>
<clipPath id="clip0">
<rect x="3" y="2" width="164" height="50" fill="white"/>
</clipPath>
</defs>
</svg>
