<svg width="170" height="54" viewBox="0 0 170 54" fill="none" xmlns="http://www.w3.org/2000/svg">
<path fill-rule="evenodd" clip-rule="evenodd" d="M14.851 44.5915C15.3828 43.6166 16.0032 42.6417 16.7122 41.7554L14.9396 42.0213C12.8126 45.4778 9.17884 49.2001 4.74745 49.2001C3.15215 49.2001 2.17725 48.4911 2.17725 47.4276C2.17725 46.8072 2.62039 46.2754 3.15215 46.2754C3.68392 46.2754 4.12706 46.5413 4.12706 47.1617C4.12706 47.7821 3.68392 48.048 3.32941 48.048C3.15215 48.048 2.9749 48.048 2.9749 48.2252C2.9749 48.6684 3.9498 48.8456 4.74745 48.8456C8.7357 48.8456 11.3059 44.5915 13.1671 42.1099C11.04 42.553 9.17884 43.5279 7.93805 44.6801L7.7608 44.5915C8.64708 43.5279 11.3945 42.0213 13.3443 41.844C14.9396 39.5397 18.3075 35.6401 21.055 33.8675V33.7789C19.9028 34.4879 18.9279 34.9311 17.8644 34.9311C16.0032 34.9311 15.3828 33.0699 13.0785 33.0699C10.7741 33.0699 8.20394 35.1969 8.20394 37.5013C8.20394 38.9193 9.26747 39.5397 10.2424 39.5397C12.1922 39.5397 14.851 37.324 15.2942 35.5514H15.4714C15.0283 37.6785 12.9012 39.8056 10.5083 39.8056C8.91296 39.8056 7.93805 39.0079 7.93805 37.324C7.93805 34.8424 11.6604 32.2722 13.9647 32.2722C16.0032 32.2722 17.1553 34.3107 19.0165 34.3107C20.1687 34.3107 21.4095 33.4244 22.3844 32.6267L22.473 32.8926C19.2824 35.1969 17.1553 38.3875 15.0283 41.5781L16.8008 41.3122C17.6871 39.9828 18.9279 38.6534 19.4597 38.2103L19.5483 38.2989C18.7506 39.0079 17.8644 40.2487 17.244 41.3122L19.0165 41.0464C20.4346 39.1852 26.1954 32.5381 28.5883 32.5381C29.0315 32.5381 29.2973 32.804 29.2973 33.1585C29.2973 35.9946 23.4479 40.6032 20.6118 41.0464C19.6369 42.4644 16.9781 45.7436 16.9781 47.5162C16.9781 48.4025 17.7757 48.8456 18.5734 48.8456C21.9412 48.8456 25.3977 44.6801 25.3977 43.0848C25.3977 42.3758 25.0432 41.9326 24.4228 41.9326C22.9161 41.9326 21.2322 43.7052 20.3459 44.6801H20.0801C21.055 43.5279 22.7389 41.6668 24.4228 41.6668C25.3091 41.6668 25.7522 42.2872 25.7522 43.2621C25.7522 46.0095 21.4095 49.2001 18.9279 49.2001C17.1553 49.2001 16.535 48.3138 16.535 46.8072C16.535 45.0346 18.1302 42.8189 19.0165 41.4895L17.3326 41.7554C16.8008 42.4644 16.1804 43.5279 15.6487 44.5915H14.851ZM28.677 32.8926C27.0817 32.8926 21.6754 39.8942 20.8777 40.8691C23.8911 40.2487 29.1201 35.3742 29.1201 33.1585C29.1201 32.9812 28.9428 32.8926 28.677 32.8926Z" fill="#CCCCCC"/>
<path fill-rule="evenodd" clip-rule="evenodd" d="M35.3243 44.946C34.9698 45.2119 34.2607 45.655 33.5517 45.655C33.02 45.655 32.6654 45.4777 32.3996 45.2119C30.1839 47.9593 28.3227 49.2001 26.5501 49.2001C25.9297 49.2001 25.1321 48.6683 25.1321 47.7821C25.1321 45.5664 29.3862 41.5781 31.8678 41.5781C32.3109 41.5781 32.6654 41.7554 32.7541 42.1099C32.8427 42.0213 32.9313 42.0213 33.02 42.0213C33.3745 42.0213 33.4631 42.2871 33.4631 42.6417C33.4631 43.4393 32.9313 44.5915 32.4882 45.0346C32.8427 45.3005 33.1972 45.3891 33.5517 45.3891C33.9062 45.3891 34.6153 45.1232 35.2356 44.6801L35.3243 44.946ZM32.4882 42.2871C32.4882 42.1099 32.3109 41.844 31.9564 41.844C30.9815 41.844 29.1203 44.0597 26.6387 46.8958C26.107 47.5162 26.0184 47.8707 26.0184 48.3138C26.0184 48.5797 26.1956 48.9342 26.816 48.9342C28.4113 48.9342 30.5384 47.1617 32.1337 45.0346C31.9564 44.6801 31.8678 44.3256 31.8678 43.8824C31.8678 43.1734 32.1337 42.553 32.4882 42.2871Z" fill="#CCCCCC"/>
<path fill-rule="evenodd" clip-rule="evenodd" d="M42.3259 37.2354H43.8326L40.9079 40.3373H42.4146L42.2373 40.6032H40.7306L35.0584 46.7185C34.0835 47.7821 33.5518 48.3138 33.5518 48.5797C33.5518 48.757 33.8177 48.8456 34.0835 48.8456C34.7039 48.8456 36.122 48.2252 39.8443 44.8573L40.0216 45.0346C36.831 47.9593 34.9698 49.2001 33.9949 49.2001C33.4632 49.2001 33.1973 48.8456 33.1973 48.3138C33.1973 47.6934 33.5518 46.8072 34.8812 45.3891L39.224 40.6918H37.7173L37.8945 40.426H39.4898L42.3259 37.2354Z" fill="#CCCCCC"/>
<path fill-rule="evenodd" clip-rule="evenodd" d="M47.1116 45.3005C44.9845 47.1617 42.237 49.2001 39.7554 49.2001C39.0464 49.2001 38.2488 48.9342 38.2488 48.1366C38.2488 45.655 42.7688 41.844 45.2504 41.844C45.7821 41.844 46.2253 42.2871 46.2253 42.8189C46.2253 44.946 42.1484 46.0981 40.5531 46.0981C39.1351 47.6048 38.9578 48.1366 38.9578 48.4024C38.9578 48.8456 39.4009 48.9342 39.8441 48.9342C41.8825 48.9342 44.2755 47.2503 47.0229 45.0346V45.3005H47.1116ZM45.2504 42.0213C44.3641 42.0213 43.1233 43.0848 40.7304 45.7436C43.2119 45.7436 45.6935 43.6166 45.6935 42.4644C45.6935 42.1985 45.5163 42.0213 45.2504 42.0213Z" fill="#CCCCCC"/>
<path fill-rule="evenodd" clip-rule="evenodd" d="M53.3156 45.5664C49.8591 48.6683 48.0865 49.1115 47.1116 49.1115C46.2254 49.1115 45.7822 48.5797 45.7822 47.6934C45.7822 44.946 57.3925 32.6267 59.6968 32.6267C60.1399 32.6267 60.4944 32.8926 60.4944 33.4244C60.4944 36.0832 53.7587 40.426 50.3022 42.7303C50.3022 42.7303 46.2254 47.6934 46.2254 48.2252C46.2254 48.5797 46.4912 48.757 46.7571 48.757C48.0865 48.757 49.7705 48.0479 52.4293 45.7436L53.3156 45.5664ZM59.874 32.9812C58.9878 32.9812 55.7085 35.9946 50.834 42.1985H50.9226C55.354 39.0965 60.3172 35.9059 60.3172 33.6016C60.3172 33.1585 60.1399 32.9812 59.874 32.9812Z" fill="#CCCCCC"/>
<path fill-rule="evenodd" clip-rule="evenodd" d="M75.3841 42.0215C73.8775 43.4395 71.839 45.7439 70.1551 47.5164C69.8006 47.9596 69.6233 48.2254 69.6233 48.4027C69.6233 48.7572 69.8892 48.8458 70.1551 48.8458C71.5731 48.8458 75.0296 46.0984 76.0932 44.8576L76.359 45.0348C75.2069 46.187 71.7504 49.1117 70.0665 49.1117C69.4461 49.1117 69.0916 48.6686 69.0916 48.2254C69.0916 47.8709 69.1802 47.6051 69.3574 47.3392H69.2688C67.9394 48.4913 66.7872 49.2004 65.901 49.2004C65.0147 49.2004 64.3943 48.6686 64.3943 47.6937C64.3943 44.8576 69.4461 41.7556 71.3073 41.7556C72.0163 41.7556 72.7253 42.1101 72.7253 42.6419C72.7253 42.8191 72.7253 42.9078 72.6367 43.1737H72.7253L73.8775 42.0215H75.3841ZM71.5731 42.0215C70.5982 42.0215 69.712 42.4646 65.901 46.5415C65.0147 47.5164 65.0147 48.0482 65.0147 48.3141C65.0147 48.6686 65.2806 48.9345 65.901 48.9345C68.028 48.9345 72.4594 44.0599 72.4594 42.9078C72.3708 42.2874 71.9276 42.0215 71.5731 42.0215Z" fill="#CCCCCC"/>
<path fill-rule="evenodd" clip-rule="evenodd" d="M78.929 42.0213H80.3471L78.3087 44.1483L78.3973 44.2369C79.4608 43.262 81.2334 41.844 82.2969 41.844C83.0946 41.844 83.715 42.3758 83.715 43.262C83.715 45.1232 79.8153 47.8707 79.8153 48.6683C79.8153 48.8456 79.904 48.9342 80.1698 48.9342C80.8789 48.9342 82.3855 47.8707 85.5761 44.946V45.2118C83.0945 47.5162 81.0561 49.2001 80.1698 49.2001C79.6381 49.2001 79.2836 48.9342 79.2836 48.2252C79.2836 46.4526 83.1832 43.7052 83.1832 42.8189C83.1832 42.4644 82.9173 42.1985 82.4742 42.1985C81.0561 42.1985 77.4224 45.3005 74.3204 48.9342H72.7251L78.929 42.0213Z" fill="#CCCCCC"/>
<path fill-rule="evenodd" clip-rule="evenodd" d="M99.8451 35.197H101.529L89.9188 47.2504C89.2098 47.9594 89.0325 48.3139 89.0325 48.5798C89.0325 48.8457 89.2098 48.9343 89.6529 48.9343C90.9823 48.9343 92.5776 47.8708 95.6796 44.9461L95.7682 45.1233C92.489 48.1367 91.0709 49.2002 89.4756 49.2002C89.1211 49.2002 88.5007 49.023 88.5007 48.4026C88.5007 48.048 88.5007 47.7822 88.678 47.5163C87.7031 48.4912 86.4623 49.2888 85.4874 49.2888C84.4239 49.2888 84.0693 48.5798 84.0693 47.7822C84.0693 45.3006 88.3235 41.9327 90.8051 41.9327C91.6027 41.9327 92.3117 42.1986 92.3117 42.819C92.3117 43.0849 92.2231 43.2621 92.1345 43.528L99.8451 35.197ZM91.0709 42.11C90.0074 42.11 86.5509 44.9461 85.3101 46.7186C84.6897 47.6049 84.6011 47.8708 84.6011 48.2253C84.6011 48.6684 84.9556 48.9343 85.4874 48.9343C87.3486 48.9343 91.9572 43.9712 91.9572 42.9076C91.8686 42.3759 91.5141 42.11 91.0709 42.11Z" fill="#CCCCCC"/>
<path fill-rule="evenodd" clip-rule="evenodd" d="M113.316 34.7538C113.316 37.8558 110.303 41.5781 107.201 41.5781C105.872 41.5781 105.163 40.6919 105.163 39.4511C105.163 35.9946 111.012 32.3608 116.418 32.3608C117.925 32.3608 119.254 32.6267 119.963 32.9812C120.495 32.7154 121.027 32.5381 121.559 32.4495L121.647 32.6267C121.204 32.804 120.761 32.9812 120.318 33.0699C121.47 33.6903 122.445 34.7538 122.445 36.0832C122.445 38.4762 119.609 39.9828 117.571 40.3373C117.748 40.6919 117.836 40.9577 117.836 41.3122C117.836 42.9075 114.38 45.3891 114.38 47.4276C114.38 48.4025 115.266 48.8456 116.152 48.8456C118.191 48.8456 121.825 45.4778 121.825 43.4393C121.825 42.8189 121.293 42.3758 120.673 42.3758C119.786 42.3758 118.634 43.4393 118.102 44.1483L117.836 44.0597C118.457 43.3507 119.609 42.1099 120.673 42.1099C121.382 42.1099 122.179 42.553 122.179 43.6166C122.179 46.0095 118.989 49.2001 116.241 49.2001C114.734 49.2001 113.671 48.2252 113.671 46.6299C113.671 44.237 117.216 42.1099 117.216 40.426C116.95 40.5146 116.507 40.6032 115.887 40.6032C115.089 40.6032 114.38 40.0715 114.38 39.4511H114.291C111.544 43.3507 108.087 49.2887 102.504 49.2887C100.82 49.2887 99.7563 48.5797 99.7563 47.4276C99.7563 46.7185 100.377 46.2754 100.82 46.2754C101.44 46.2754 101.883 46.7185 101.883 47.3389C101.883 48.1366 100.731 48.048 100.731 48.2252C100.731 48.5797 101.529 48.9342 102.592 48.9342C108.53 48.9342 113.051 35.5514 119.609 33.2471C118.723 32.804 117.216 32.7154 116.596 32.7154C110.392 32.7154 105.429 36.7922 105.429 39.3624C105.429 40.426 105.96 41.4009 107.201 41.4009C109.328 41.4009 113.051 37.7671 113.051 34.8424H113.316V34.7538ZM119.963 33.2471C118.457 34.1334 116.95 35.4628 114.469 38.9193L114.557 39.0079C114.734 38.8307 115.089 38.8307 115.443 38.8307C115.975 38.8307 117.039 39.0965 117.482 39.9828C119.343 39.5397 121.382 37.5013 121.382 35.6401C121.382 34.4879 120.761 33.7789 119.963 33.2471ZM117.127 40.1601C116.95 39.4511 116.152 39.1852 115.355 39.1852C114.912 39.1852 114.646 39.2738 114.646 39.5397C114.646 39.8056 115.089 40.2487 115.975 40.2487C116.418 40.2487 116.862 40.2487 117.127 40.1601Z" fill="#CCCCCC"/>
<path fill-rule="evenodd" clip-rule="evenodd" d="M131.042 45.3005C128.915 47.1617 125.813 49.2001 123.42 49.2001C122.711 49.2001 121.914 48.9342 121.914 48.1366C121.914 45.655 126.434 41.844 128.915 41.844C129.447 41.844 129.89 42.2871 129.89 42.8189C129.89 44.946 125.813 46.0981 124.218 46.0981C122.8 47.6048 122.623 48.1366 122.623 48.4024C122.623 48.8456 123.066 48.9342 123.509 48.9342C125.547 48.9342 128.295 47.2503 130.954 45.0346V45.3005H131.042ZM128.915 42.0213C128.029 42.0213 126.788 43.0848 124.395 45.7436C126.877 45.7436 129.358 43.6166 129.358 42.4644C129.358 42.1985 129.181 42.0213 128.915 42.0213Z" fill="#CCCCCC"/>
<path fill-rule="evenodd" clip-rule="evenodd" d="M146.818 44.946C146.375 45.2119 145.754 45.655 144.957 45.655C144.425 45.655 144.159 45.4777 143.805 45.2119C141.589 47.9593 139.728 49.2001 138.044 49.2001C137.335 49.2001 136.537 48.6683 136.537 47.7821C136.537 45.5664 140.88 41.5781 143.273 41.5781C143.716 41.5781 144.07 41.7554 144.248 42.1099C144.336 42.0213 144.425 42.0213 144.514 42.0213C144.779 42.0213 144.957 42.2871 144.957 42.6417C144.957 43.4393 144.336 44.5915 143.982 45.0346C144.248 45.3005 144.602 45.3891 144.957 45.3891C145.4 45.3891 146.109 45.1232 146.641 44.6801L146.818 44.946ZM143.982 42.2871C143.893 42.1099 143.716 41.844 143.45 41.844C142.475 41.844 140.614 44.0597 138.132 46.8958C137.601 47.5162 137.423 47.8707 137.423 48.3138C137.423 48.5797 137.689 48.9342 138.31 48.9342C139.905 48.9342 142.032 47.1617 143.627 45.0346C143.45 44.6801 143.361 44.3256 143.361 43.8824C143.361 43.1734 143.627 42.553 143.982 42.2871Z" fill="#CCCCCC"/>
<path fill-rule="evenodd" clip-rule="evenodd" d="M149.122 42.0215H150.718L147.793 45.2121C148.502 44.6803 149.477 44.3258 150.629 43.8827C150.806 42.9078 152.047 41.7556 152.579 41.7556C152.933 41.7556 153.111 41.8442 153.111 42.1988C153.111 42.9964 151.604 43.8827 150.895 44.0599C150.895 44.6803 151.161 45.2121 151.693 45.2121C152.136 45.2121 155.681 43.5282 155.858 43.3509L155.947 43.5282C155.769 43.7054 152.047 45.478 151.693 45.478C151.072 45.478 150.629 44.9462 150.629 44.0599C148.679 44.5031 147.35 45.5666 146.02 46.9847L144.602 48.6686H143.096L149.122 42.0215Z" fill="#CCCCCC"/>
<path fill-rule="evenodd" clip-rule="evenodd" d="M160.467 37.2354H162.062L159.137 40.3373H160.555L160.378 40.6032H158.871L153.199 46.7185C152.313 47.7821 151.781 48.3138 151.781 48.5797C151.781 48.757 152.047 48.8456 152.224 48.8456C152.933 48.8456 155.326 48.4025 159.137 45.1232L159.049 45.3005C156.124 48.2252 153.288 49.2001 152.136 49.2001C151.604 49.2001 151.338 48.8456 151.338 48.3138C151.338 47.6934 151.781 46.8072 153.11 45.3891L157.453 40.6918H155.858L156.124 40.426H157.63L160.467 37.2354Z" fill="#CCCCCC"/>
<path fill-rule="evenodd" clip-rule="evenodd" d="M4.83609 5.06351H2V4.35449H17.7757L17.953 10.1153H17.244C16.8008 8.25411 16.4463 6.21568 14.4965 5.41803C13.8761 5.15214 12.724 5.06351 11.5718 5.06351H8.55845V13.2173C11.2173 13.2173 12.724 12.7741 12.9012 9.76079H13.6102V17.7373H12.9012C12.6353 14.5467 11.5718 13.8377 8.55845 14.0149V22.6118H11.3059V23.3208H2V22.6118H4.83609V5.06351Z" fill="#CCCCCC"/>
<path fill-rule="evenodd" clip-rule="evenodd" d="M18.3962 15.9647C18.3962 12.5082 21.4096 8.96313 25.0433 8.96313C28.4998 8.96313 31.6904 12.4196 31.6904 15.9647C31.6904 19.8644 29.2975 23.764 25.0433 23.764C20.7892 23.764 18.3962 19.7757 18.3962 15.9647ZM28.4998 13.749C28.4998 12.9514 28.4112 12.2424 28.1453 11.622C27.7908 10.2926 26.8159 9.40627 25.0433 9.40627C23.0935 9.40627 22.2072 10.2926 21.8527 11.622C21.5868 12.2424 21.4982 12.8628 21.4982 13.749V18.3577C21.4982 19.1553 21.4982 20.0416 21.6755 20.7506C22.1186 22.2573 23.0049 23.2322 24.9547 23.2322C26.9931 23.2322 27.7908 22.2573 28.1453 20.7506C28.3226 20.0416 28.4112 19.1553 28.4112 18.3577V13.749H28.4998Z" fill="#CCCCCC"/>
<path fill-rule="evenodd" clip-rule="evenodd" d="M47.9095 9.229V9.76077H45.7824V18.6235C45.7824 20.7506 45.3393 21.7255 44.453 22.6118C43.5667 23.3208 42.2373 23.6753 40.2875 23.6753C38.7808 23.6753 37.4514 23.2322 36.5651 22.5232C35.6788 21.9028 35.2357 20.4847 35.2357 18.0918V9.76077H33.1086V9.229H40.0216V9.76077H37.8945V17.4714C37.8945 20.3961 37.6287 22.9663 41.4397 22.9663C43.9212 22.9663 44.8961 21.371 44.8961 19.0667V9.76077H42.8577V9.229H47.9095Z" fill="#CCCCCC"/>
<path fill-rule="evenodd" clip-rule="evenodd" d="M54.2905 22.7891H56.4176V23.3208H49.5046V22.7891H51.6317V9.76077H49.5046V9.229H56.5949C58.8992 9.229 61.6466 9.49489 61.6466 12.4196C61.6466 14.8126 59.1651 15.6102 57.1266 15.8761C60.4059 16.4079 61.2035 18.1804 61.2035 21.6369C61.2035 22.3459 61.2921 23.2322 63.3306 22.7891V23.2322C62.7988 23.4095 62.1784 23.4981 61.558 23.4981C59.3423 23.4981 58.2788 22.4345 58.2788 20.3075C58.2788 18.5349 58.0129 17.2055 57.4811 16.7624C56.8607 16.3192 56.1517 16.0533 55.5313 16.0533H54.3792V22.7891H54.2905ZM54.2905 15.5216H56.0631C58.0129 15.5216 58.7219 14.6353 58.7219 12.6855C58.7219 10.3812 58.1015 9.76077 56.1517 9.76077H54.2905V15.5216Z" fill="#CCCCCC"/>
<path fill-rule="evenodd" clip-rule="evenodd" d="M72.1934 23.5867H71.7502V17.9146H72.5479C73.0797 20.662 74.7636 23.1436 77.7769 23.1436C79.9926 23.1436 82.0311 21.4597 82.0311 19.1554C82.0311 16.4965 79.6381 15.9648 77.511 15.1671C76.9793 14.9898 76.4475 14.8126 75.7385 14.6353C73.1683 13.8377 71.7502 11.8879 71.7502 9.14041C71.7502 6.21569 73.9659 4 76.9793 4C78.6632 4 79.8154 4.35451 81.1448 5.41804L82.2083 4.35451H82.6515V9.67218H81.7652C81.4993 7.01334 79.7267 4.70902 76.8906 4.70902C75.0295 4.70902 73.3455 6.12707 73.3455 7.98825C73.3455 10.2039 74.9408 10.3812 76.6248 10.8243C77.3338 11.0016 77.9542 11.2675 78.3973 11.3561C78.9291 11.5334 79.7267 11.7106 80.3471 11.9765C82.7401 13.1287 83.5377 14.9898 83.5377 17.5601C83.5377 21.1052 81.2334 23.764 77.5997 23.764C76.1816 23.764 74.4977 23.2322 73.5228 22.2573L72.1934 23.5867Z" fill="#CCCCCC"/>
<path fill-rule="evenodd" clip-rule="evenodd" d="M91.0711 9.76077V15.7875C93.1095 15.7875 94.173 15.5216 94.2617 13.2173H94.7934V19.0667H94.2617C94.0844 16.7624 93.3754 16.2306 91.0711 16.3192V22.7891H93.9958C96.7432 22.7891 97.3636 21.1938 97.8954 18.8008H98.4272L98.2499 23.3208H86.1965V22.7891H88.3236V9.76077H86.1965V9.229H97.984L98.0727 13.1286H97.5409C97.0978 11.0902 96.2115 10.2925 95.1479 10.0267C94.6162 9.8494 94.0844 9.8494 93.2868 9.8494H91.0711V9.76077Z" fill="#CCCCCC"/>
<path fill-rule="evenodd" clip-rule="evenodd" d="M100.022 23.4095V22.8777H101.795L106.847 9.05176H107.556L112.342 22.8777H114.114V23.4095H107.379V22.8777H109.594L108.265 19.244H103.656L102.327 22.8777H104.454V23.4095H100.022ZM103.833 18.6236H107.999L106.049 12.6855L103.833 18.6236Z" fill="#CCCCCC"/>
<path fill-rule="evenodd" clip-rule="evenodd" d="M116.241 23.5867H115.887V19.3326H116.418C116.862 21.371 118.102 23.2322 120.407 23.2322C122.091 23.2322 123.509 21.9028 123.509 20.3075C123.509 18.2691 121.736 17.9145 120.229 17.3828C119.786 17.2055 119.343 17.1169 118.9 16.9396C116.862 16.4079 115.975 14.9012 115.975 12.8628C115.975 10.6471 117.659 8.96313 119.875 8.96313C121.027 8.96313 122.002 9.22902 122.888 9.93804L123.686 9.14039H124.04V13.2173H123.42C123.154 11.1788 121.825 9.4949 119.786 9.4949C118.368 9.4949 117.128 10.4698 117.128 11.9765C117.128 13.5718 118.28 13.749 119.609 14.1035C120.141 14.2808 120.495 14.3694 120.939 14.5467C121.382 14.6353 121.913 14.8126 122.445 14.9898C124.218 15.7875 124.838 17.2055 124.838 19.1553C124.838 21.8142 123.066 23.8526 120.318 23.8526C119.343 23.8526 118.014 23.4095 117.305 22.7891L116.241 23.5867Z" fill="#CCCCCC"/>
<path fill-rule="evenodd" clip-rule="evenodd" d="M127.497 15.9647C127.497 12.5082 130.51 8.96313 134.144 8.96313C137.601 8.96313 140.703 12.4196 140.703 15.9647C140.703 19.8644 138.31 23.764 134.144 23.764C129.89 23.764 127.497 19.7757 127.497 15.9647ZM137.512 13.749C137.512 12.9514 137.423 12.2424 137.246 11.622C136.803 10.2926 135.917 9.40627 134.144 9.40627C132.194 9.40627 131.308 10.2926 130.954 11.622C130.776 12.2424 130.688 12.9514 130.688 13.749V18.3577C130.688 19.1553 130.688 20.0416 130.865 20.7506C131.219 22.2573 132.194 23.2322 134.144 23.2322C136.183 23.2322 136.98 22.2573 137.335 20.7506C137.512 20.0416 137.512 19.1553 137.512 18.3577V13.749Z" fill="#CCCCCC"/>
<path fill-rule="evenodd" clip-rule="evenodd" d="M154.706 23.6753H154.085L145.134 10.2039V22.7891H147.172V23.4094H142.386V22.7891H144.425V9.76077H142.386V9.229H147.793L154.085 18.5349V9.76077H152.047V9.229H156.833V9.76077H154.706V23.6753Z" fill="#CCCCCC"/>
<path fill-rule="evenodd" clip-rule="evenodd" d="M159.403 23.5867H159.049V19.3326H159.669C160.112 21.371 161.353 23.2322 163.569 23.2322C165.253 23.2322 166.759 21.9028 166.759 20.3075C166.759 18.2691 164.898 17.9145 163.391 17.3828C163.037 17.2055 162.594 17.1169 162.062 16.9396C160.112 16.4079 159.137 14.9012 159.137 12.8628C159.137 10.6471 160.821 8.96313 163.037 8.96313C164.366 8.96313 165.164 9.22902 166.139 9.93804L166.936 9.14039H167.291V13.2173H166.582C166.405 11.1788 165.075 9.4949 163.037 9.4949C161.619 9.4949 160.378 10.4698 160.378 11.9765C160.378 13.5718 161.442 13.749 162.771 14.1035C163.303 14.2808 163.746 14.3694 164.189 14.5467C164.543 14.6353 165.075 14.8126 165.607 14.9898C167.38 15.7875 168 17.2055 168 19.1553C168 21.8142 166.227 23.8526 163.569 23.8526C162.594 23.8526 161.264 23.4095 160.555 22.7891L159.403 23.5867Z" fill="#CCCCCC"/>
<path fill-rule="evenodd" clip-rule="evenodd" d="M165.873 45.4781C165.607 45.7439 163.657 47.162 161.796 47.871C161.973 47.6051 162.151 47.4279 162.328 47.2506C162.86 46.6302 163.125 45.9212 163.125 45.0349C163.037 44.06 162.239 43.351 161.619 42.5533C161.973 42.1988 162.682 41.4898 162.682 40.7808C162.682 40.6035 162.505 40.4263 162.328 40.4263C161.53 40.4263 161.176 41.3126 161.176 42.0216C161.176 42.1988 161.353 42.5533 161.353 42.5533C160.289 44.2373 158.074 45.6553 157.453 46.1871C157.276 46.3643 156.656 47.0734 156.656 47.871C156.567 48.6687 156.744 49.4663 157.985 49.4663C158.783 49.4663 160.112 49.1118 161.176 48.4028C163.569 47.6937 165.962 45.7439 165.962 45.7439L165.873 45.4781ZM157.808 49.2004C157.099 49.2004 157.01 48.58 157.01 48.0483C157.099 47.4279 157.365 46.9847 157.719 46.6302C158.162 46.0984 160.378 44.5918 161.619 42.7306C161.619 42.7306 162.239 43.7941 162.239 44.4145C162.416 46.6302 159.226 49.0232 157.808 49.2004Z" fill="#CCCCCC"/>
<path fill-rule="evenodd" clip-rule="evenodd" d="M138.044 45.3889C137.778 45.5662 135.828 46.9842 133.967 47.6933C134.144 47.516 134.321 47.2501 134.498 47.0729C135.03 46.4525 135.296 45.7435 135.296 44.8572C135.207 43.8823 134.41 43.1733 133.789 42.4642C134.144 42.0211 134.853 41.3121 134.853 40.6917C134.853 40.5144 134.676 40.2485 134.498 40.2485C133.701 40.2485 133.346 41.1348 133.346 41.8438C133.346 42.1097 133.524 42.3756 133.524 42.3756C132.46 44.0595 130.244 45.5662 129.624 46.0093C129.447 46.2752 128.826 46.9842 128.826 47.6933C128.738 48.4909 128.915 49.2886 130.156 49.2886C130.953 49.2886 132.283 48.9341 133.346 48.225C135.739 47.516 138.132 45.5662 138.132 45.5662L138.044 45.3889ZM129.89 49.0227C129.181 49.1113 129.092 48.4909 129.092 47.8705C129.181 47.3388 129.447 46.8956 129.801 46.4525C130.244 45.9207 132.46 44.414 133.701 42.5529C133.701 42.5529 134.321 43.6164 134.321 44.2368C134.498 46.4525 131.308 48.9341 129.89 49.0227Z" fill="#CCCCCC"/>
<path fill-rule="evenodd" clip-rule="evenodd" d="M60.6718 45.3892C60.3172 45.6551 58.4561 47.0731 56.5063 47.6935C56.6835 47.5163 56.9494 47.339 57.038 47.0731C57.5698 46.4527 57.9243 45.921 57.8357 44.8574C57.747 43.8825 56.9494 43.1735 56.329 42.4645C56.6835 42.11 57.3925 41.4009 57.3925 40.6919C57.3925 40.5147 57.2153 40.3374 57.038 40.3374C56.329 40.3374 55.9745 41.2237 55.9745 41.9327C55.9745 42.11 56.0631 42.4645 56.0631 42.4645C54.9996 44.1484 52.8725 45.5664 52.3407 46.0982C52.0749 46.2755 51.5431 46.9845 51.4545 47.7821C51.3658 48.5798 51.5431 49.2888 52.7839 49.2888C53.5815 49.2888 54.911 49.0229 55.9745 48.2253C58.3674 47.6049 60.7604 45.6551 60.7604 45.6551L60.6718 45.3892ZM52.518 49.0229C51.809 49.1116 51.7203 48.4912 51.809 47.8708C51.809 47.339 52.1635 46.8959 52.4294 46.4527C52.8725 45.921 55.0882 44.4143 56.4176 42.7304C56.4176 42.7304 56.9494 43.7053 56.9494 44.4143C57.1266 46.5413 54.0247 48.9343 52.518 49.0229Z" fill="#CCCCCC"/>
</svg>
