<svg width="170" height="54" viewBox="0 0 170 54" fill="none" xmlns="http://www.w3.org/2000/svg">
<g clip-path="url(#clip0)">
<path d="M65.6321 20.2104C65.6321 15.7262 62.5928 13.5789 56.4494 13.5789C53.9274 13.5789 51.4701 13.7052 50.0474 13.8315C50.0474 13.8315 49.5947 13.8946 49.5947 14.3368V36.1262C49.5947 36.1262 49.5947 36.5683 50.0474 36.5683H53.7334C53.7334 36.5683 54.1861 36.5683 54.1861 36.1262V27.9157C54.1861 27.9157 54.1861 27.4736 54.6387 27.4736H56.7081C56.7081 27.4736 57.1608 27.4736 57.3548 27.8525L61.2994 36.1894C61.2994 36.1894 61.4934 36.5683 61.9461 36.5683H66.0848C66.0848 36.5683 66.5375 36.5683 66.3435 36.1894L61.5581 26.7157C61.5581 26.7157 61.3641 26.3368 61.3641 26.2736C61.3641 26.2736 61.3641 26.3368 61.3641 26.2736C61.3641 26.2736 61.3641 26.2104 61.8168 26.0841C63.8214 25.3894 65.6321 23.1789 65.6321 20.2104ZM60.9761 20.4631C60.9761 22.6104 59.3594 23.9368 56.8374 23.9368H54.7034C54.7034 23.9368 54.2507 23.9368 54.2507 23.4946V17.6841C54.2507 17.6841 54.2507 17.242 54.5094 17.242C54.7681 17.242 55.6087 17.1789 56.7728 17.1789C59.3594 17.1157 60.9761 17.8736 60.9761 20.4631Z" fill="#CCCCCC"/>
<path d="M167.547 36.5052C167.547 36.5052 168 36.5052 168 36.0631V14.0842C168 14.0842 168 13.6421 167.547 13.6421H164.055C164.055 13.6421 163.602 13.6421 163.602 14.0842V22.421C163.602 22.421 163.602 22.8631 163.602 23.3052L163.732 29.2421V29.6842C163.732 29.6842 163.796 29.6842 163.732 29.6842C163.732 29.6842 163.667 29.6842 163.538 29.3052C161.21 24.3158 158.041 18.9474 155.26 14.021C155.26 14.021 155.066 13.6421 154.614 13.6421H150.216C150.216 13.6421 149.764 13.6421 149.764 14.0842V36.0631C149.764 36.0631 149.764 36.5052 150.216 36.5052H153.708C153.708 36.5052 154.161 36.5052 154.161 36.0631V27.3474C154.161 27.3474 154.161 26.9052 154.161 26.4631L154.032 20.5263C154.032 20.5263 154.032 20.0842 154.096 20.0842C154.096 20.0842 154.032 20.0842 154.096 20.0842C154.096 20.0842 154.161 20.0842 154.355 20.4631C155.907 23.7474 158.429 28.1052 162.891 36.0631C162.891 36.0631 163.085 36.4421 163.538 36.4421H167.547V36.5052Z" fill="#CCCCCC"/>
<path d="M136.507 36.821C142.844 36.821 145.754 33.4105 145.754 26.6526V14.0842C145.754 14.0842 145.754 13.6421 145.302 13.6421H141.486C141.486 13.6421 141.034 13.6421 141.034 14.0842V27.6C141.034 31.2631 139.482 33.1579 136.572 33.1579C133.791 33.1579 132.174 31.0737 132.174 27.6V14.0842C132.174 14.0842 132.174 13.6421 131.722 13.6421H127.906C127.906 13.6421 127.454 13.6421 127.454 14.0842V27.3474C127.518 33.8526 130.816 36.821 136.507 36.821Z" fill="#CCCCCC"/>
<path d="M100.423 13.6421C100.423 13.6421 99.9704 13.6421 99.7764 14.021L97.5777 19.1368L95.7024 24.1895H95.6377C95.6377 24.1895 95.573 24.1895 95.4437 23.8105L93.6977 19.2L91.5637 14.0842C91.5637 14.0842 91.3697 13.7052 90.9817 13.7052H86.5843C86.5843 13.7052 86.1317 13.7052 86.3257 14.0842L92.9864 27.3474C92.9864 27.3474 93.1804 27.7263 93.1804 28.1684V36.1263C93.1804 36.1263 93.1804 36.5684 93.633 36.5684H97.6424C97.6424 36.5684 98.0951 36.5684 98.0951 36.1263V28.1052C98.0951 28.1052 98.0951 27.6631 98.2891 27.2842L105.014 14.021C105.014 14.021 105.208 13.6421 104.756 13.6421H100.423Z" fill="#CCCCCC"/>
<path d="M119.888 27.0314C119.888 27.0314 119.435 27.0314 119.435 27.4735V32.3367C119.435 32.3367 119.435 32.7788 119.177 32.842C118.918 32.9051 118.077 33.0314 117.043 33.0314C112.71 33.0314 109.929 30.063 109.929 25.0735C109.929 19.8946 112.839 17.1788 117.237 17.1788C119.5 17.1788 121.763 17.5578 123.186 18.1262L123.315 14.842C123.315 14.842 123.315 14.3999 122.927 14.2104C122.022 13.8314 119.759 13.3262 117.107 13.3262C109.541 13.3262 105.015 18.1262 105.015 25.1999C105.015 31.9578 108.83 36.6946 116.655 36.6946C119.371 36.6946 122.216 36.1262 123.445 35.6841C123.445 35.6841 123.833 35.5578 123.833 35.1156V27.4735C123.833 27.4735 123.833 27.0314 123.38 27.0314H119.888Z" fill="#CCCCCC"/>
<path d="M75.0089 27.0315L76.1082 22.7368L77.4662 17.3683H77.5956C77.5956 17.3683 77.7249 17.3683 77.7896 17.8104L79.0182 22.7368L80.1822 27.0315H84.9029L80.8936 14.021C80.8936 14.021 80.7642 13.5789 80.3116 13.5789H75.2029C75.2029 13.5789 74.7502 13.5789 74.6209 14.021L70.5469 27.0315H75.0089Z" fill="#CCCCCC"/>
<path d="M86.0024 30.5684H81.1523L82.6397 35.9999L82.7043 36.2526C82.7043 36.2526 82.769 36.5052 83.2217 36.5052H87.3604C87.3604 36.5052 87.813 36.5052 87.6837 36.1263L86.0024 30.5684Z" fill="#CCCCCC"/>
<path d="M69.4475 30.5684L67.7661 36.0631C67.7661 36.0631 67.6368 36.442 68.0895 36.442H72.0988C72.0988 36.442 72.5515 36.442 72.6808 36.0631L74.1035 30.5684H69.4475Z" fill="#CCCCCC"/>
<path d="M22.6932 24.5685L20.7532 24.2527L21.5939 20.1475L18.1665 25.3264L20.1712 25.6422L19.2012 29.9369L22.6932 24.5685Z" fill="#CCCCCC"/>
<path d="M28.5779 36.2526C28.4486 34.3579 28.3193 32.5263 28.2546 30.6316C27.7373 30.6947 27.2846 30.7579 26.7673 30.7579C25.1506 32.4631 22.8872 33.4105 20.5592 33.4105C17.3906 33.4105 14.4159 31.6421 12.9285 28.9263C12.7345 28.8631 12.5405 28.8 12.3465 28.7368L12.6052 29.3684L11.5059 29.2421C11.1825 29.1789 10.7945 29.1789 10.4712 29.1158C11.3119 30.7579 12.7345 32.2737 14.4805 33.4105C15.5799 34.5473 16.2265 36.1263 16.2265 37.8316C16.2265 38.9052 15.9679 39.9158 15.5152 40.8C15.4505 40.9894 15.4505 41.3684 15.7092 41.4947C16.5499 41.8105 17.4552 42.0631 18.3606 42.0631C18.8132 42.0631 19.2012 42 19.5892 41.9368C19.5246 41.4947 19.4599 41.0526 19.4599 40.6105C19.4599 38.9052 20.1066 37.3263 21.2059 36.1894C22.1112 36.3789 23.6632 36.5052 23.4046 36.5052C23.4046 37.4526 23.6632 38.2737 24.0512 39.0947L24.6332 38.5263C24.4392 38.021 24.3746 37.4526 24.3746 36.8842C24.3746 36.7579 24.3746 36.6947 24.3746 36.5684C24.6979 36.5684 25.0859 36.5684 25.4092 36.5684C26.5086 36.5052 27.5433 36.4421 28.5779 36.2526Z" fill="#CCCCCC"/>
<path d="M20.5592 16.6736C22.9519 16.6736 25.1506 17.621 26.7672 19.3262C27.2846 19.3262 27.7372 19.3894 28.2546 19.4525C28.3192 17.621 28.4486 15.7262 28.5779 13.8946V13.8315C27.5432 13.7052 26.5086 13.5789 25.4739 13.5789C17.9079 13.5789 11.5705 17.3052 9.88916 22.3578C10.8592 21.9157 11.8938 21.5368 12.9285 21.1578C14.4158 18.442 17.3259 16.6736 20.5592 16.6736Z" fill="#CCCCCC"/>
<path d="M41.4466 25.1368C41.4466 23.9368 40.4119 22.9263 39.1833 22.9263C37.9546 22.9263 36.9199 23.9368 36.9199 25.1368C36.9199 26.3368 37.9546 27.3473 39.1833 27.3473C40.4119 27.2842 41.4466 26.3368 41.4466 25.1368Z" fill="#CCCCCC"/>
<path d="M17.4555 13.5157C18.2962 13.5157 19.0722 13.5789 19.8482 13.642C20.4949 13.4526 21.2062 13.3262 21.9176 13.1999C19.5895 12.3789 17.0675 11.9368 14.4809 11.9368C12.2175 11.9368 10.0835 12.2526 8.01416 12.8841L8.98416 15.4736C11.5062 14.2105 14.4162 13.5157 17.4555 13.5157Z" fill="#CCCCCC"/>
<path d="M28.772 25.0736C28.772 28.7999 28.9013 32.5262 29.2246 36.1893C29.936 36.063 30.5826 35.9367 31.2293 35.7472C31.488 32.2104 31.6173 28.6736 31.6173 25.0736C31.6173 21.4736 31.488 17.9367 31.2293 14.3999C30.5826 14.2104 29.936 14.0841 29.2246 13.9578C28.966 17.6209 28.772 21.2841 28.772 25.0736Z" fill="#CCCCCC"/>
<path d="M18.1665 14.1475C17.9078 14.1475 17.7138 14.1475 17.4551 14.1475C13.9631 14.1475 10.6004 15.158 7.69043 16.9896L10.3418 19.958C12.0231 17.3685 14.8038 15.3475 18.1665 14.1475Z" fill="#CCCCCC"/>
<path d="M36.4675 26.0212C36.3382 25.7054 36.2735 25.3896 36.2735 25.0738C36.2735 24.758 36.3382 24.4422 36.4675 24.1264C34.9155 24.1264 33.4282 23.6212 32.2642 22.8633C32.2642 23.558 32.2642 24.3159 32.2642 25.0106C32.2642 25.7685 32.2642 26.5264 32.2642 27.2843C33.4928 26.5264 34.9155 26.0843 36.4675 26.0212Z" fill="#CCCCCC"/>
<path d="M20.5594 31.6421C16.8734 31.6421 13.834 28.6737 13.834 25.0737C13.834 21.4737 16.8734 18.5053 20.5594 18.5053C24.2454 18.5053 27.2848 21.4737 27.2848 25.0737C27.2848 28.6737 24.2454 31.6421 20.5594 31.6421ZM28.1254 25.0737C28.1254 23.4316 28.1901 21.7263 28.1901 20.0842C27.6081 20.021 27.0261 19.9579 26.4441 19.9579C25.0214 18.3789 22.8874 17.3684 20.4947 17.3684C17.3261 17.3684 14.6101 19.1368 13.3814 21.7895C10.8594 22.6105 8.40203 23.7474 6.13868 25.1368C7.10869 25.7052 8.14336 26.2737 9.17803 26.7789C6.59135 27.2842 4.13401 28.2947 2 29.6842C4.13401 28.8631 6.46202 28.3579 8.91936 28.3579C9.8247 28.3579 10.6654 28.421 11.5707 28.5474C11.312 27.8526 11.118 27.1579 10.9887 26.4631C11.118 26.9052 11.312 27.3474 11.5707 27.7895C12.1527 28.0421 12.7994 28.2316 13.3814 28.421C14.6747 31.0105 17.3907 32.8421 20.4947 32.8421C22.8874 32.8421 24.9568 31.8316 26.4441 30.2526C27.0261 30.2526 27.6081 30.1895 28.1901 30.1263C28.1901 28.3579 28.1254 26.7158 28.1254 25.0737Z" fill="#CCCCCC"/>
</g>
<defs>
<clipPath id="clip0">
<rect x="2" y="12" width="166" height="30" fill="white"/>
</clipPath>
</defs>
</svg>
