<svg width="170" height="54" viewBox="0 0 170 54" fill="none" xmlns="http://www.w3.org/2000/svg">
<path fill-rule="evenodd" clip-rule="evenodd" d="M131.728 28.698C130.387 35.7026 125.298 38.0944 120.728 38.0944H95.8056V16.6797C95.8056 15.2013 96.216 14.9713 97.5432 14.1565L88.1777 14.0645C88.6771 14.301 90.0795 14.9779 90.0795 16.5615L90.0453 37.2402C90.0453 38.9815 89.286 39.6057 88.1709 39.9869L120.954 39.9737C129.457 40.0066 132.912 36.8722 135.381 34.0599C138.077 31.0175 139.507 25.3994 136.449 20.5632C134.253 17.074 130.114 14.1368 125.387 13.4271C124.292 13.2628 122.903 13 121.179 13C119.469 13 117.916 13.1906 116.712 13.4271C112.813 14.3142 107.846 16.7389 105.575 20.7274C103.228 24.8671 104.405 29.3616 106.143 31.8717C107.709 34.1913 111.458 37.2402 116.486 37.3979L116.637 37.3388C113.333 35.696 111.656 32.7128 110.637 28.6914C109.878 25.6162 110.425 21.0363 113.209 18.1516C115.282 16.0358 118.361 14.8859 121.179 14.853C124.025 14.8859 126.967 15.9044 129.026 18.0136C131.838 20.9048 132.31 25.7805 131.728 28.698ZM31.7658 37.9302L23.4196 27.7452C32.6825 26.3259 31.7658 13.8674 20.7721 13.8674H2C3.27929 14.2945 4.13443 14.9187 4.13443 16.1146V37.2599C4.14811 38.2521 3.43664 39.3889 2.47204 39.9671H11.3997C10.442 39.494 9.49788 38.147 9.49788 37.3388V28.1789H17.1463L26.3476 40L34.2217 39.9869C33.3803 39.5992 32.5456 38.8895 31.7658 37.9302ZM17.1257 26.2864H9.49104L9.45683 15.7927L18.5419 15.7598C25.1093 15.7927 26.676 26.1682 17.1257 26.2864ZM65.9782 16.7586C65.3078 15.3393 66.1014 14.5245 67.2575 14.0514H56.7427C57.8373 14.8793 59.0892 15.4838 59.5749 17.0806L71.4443 39.9737H74.215L85.325 16.3183C85.9612 14.9121 86.5906 14.577 87.2268 14.0579H81.0424C82.1712 14.3668 83.0811 15.313 82.3696 16.8374L74.2218 34.2044L65.9782 16.7586ZM142.53 37.0037C142.53 38.5675 141.128 39.632 140.581 39.9737H146.567C146.019 39.632 144.706 38.8041 144.706 37.2402V18.9073L163.396 39.9671H166.139V16.5286C166.139 14.9647 167.466 14.3996 168 14.0579H162.041C162.575 14.3996 163.977 15.1947 163.977 16.7454L163.943 31.9112L147.812 14.0645H139.206C140.122 14.5113 142.53 15.4707 142.53 17.6128V37.0037ZM56.127 14.0514H34.3722C35.4052 14.5836 36.3493 14.9844 36.3493 16.5943L36.3425 37.3453C36.3425 38.7778 35.7336 39.4283 34.7006 39.9737H57.2011L59.3218 33.705C58.2272 34.9469 55.6208 38.0616 50.8662 38.0484L42.2806 38.0353V27.6335H48.5265C50.5036 27.6335 51.5435 28.6848 52.2002 29.6902V23.5135C51.2698 24.7883 50.4489 25.6688 48.5128 25.6688H42.2806V15.8649L51.0714 15.8912C54.7725 15.9241 56.3596 18.1845 57.1805 19.5118L56.127 14.0514Z" fill="#CCCCCC"/>
</svg>
