<svg width="170" height="54" viewBox="0 0 170 54" fill="none" xmlns="http://www.w3.org/2000/svg">
<g clip-path="url(#clip0)">
<path fill-rule="evenodd" clip-rule="evenodd" d="M71.5395 32.2068C70.3593 32.2807 69.6218 32.2807 68.0729 32.2807C67.5566 32.2807 65.1226 32.2807 64.6063 32.2807C64.09 32.2807 64.09 32.5022 64.09 32.7238C64.09 32.9454 64.2375 33.0192 64.5325 33.0192C65.1226 33.0192 65.8601 33.0192 66.2289 33.3885C66.3764 33.5362 66.8927 34.2748 66.8927 34.8656V47.6426C66.8927 49.6367 66.2289 50.1537 65.4913 50.2275C64.8275 50.2275 64.0162 49.9321 63.2786 48.972L58.1894 42.6204C58.2631 42.3988 59.2957 41.8819 60.3283 41.2172C62.6886 39.5923 62.7623 38.0414 62.6886 36.6381C62.6148 34.3486 60.8446 31.8375 57.4518 31.8375C53.6164 31.7637 51.1824 32.2068 48.0109 31.8375C47.5683 31.7637 47.4946 32.0591 47.4946 32.3545C47.4946 32.5761 47.6421 32.65 47.9371 32.65C48.5272 32.65 49.1172 32.7238 49.5598 33.0192C49.781 33.1669 50.2973 33.6839 50.2973 34.2748V48.972C50.2973 49.6367 50.0761 50.1536 49.191 50.1536C48.2321 50.1536 47.7158 48.6027 47.4946 47.8641L42.5528 31.9853H40.7089L33.2594 49.8582C32.448 50.8922 32.0793 50.4491 32.0055 49.9321C31.858 49.0458 32.448 48.3073 32.3743 47.4949L32.0055 47.3472C31.7105 47.7903 31.563 48.3073 31.2679 48.7504C30.6041 49.8582 29.719 50.2275 28.7602 50.5968C26.7687 51.4092 24.261 51.2615 21.532 48.8981C19.7618 47.2733 18.8767 44.9099 18.6554 42.5466C18.5079 40.3309 18.9505 38.0414 20.1306 36.1212C22.0483 33.1669 26.3999 31.9114 29.4978 33.5362C31.0467 34.3486 31.4154 35.5303 31.6367 36.7858C31.7105 37.1551 32.153 37.3028 32.448 37.0813C32.6693 36.9336 32.5956 36.6381 32.5956 36.2689C32.3743 34.8656 32.5956 33.4624 32.8906 32.0591C31.4892 32.133 30.1616 31.9114 28.7602 31.7637C27.285 31.616 25.4411 31.616 23.5234 32.133C17.5491 33.6839 15.8526 38.5584 16.0002 42.6204C16.1477 47.1994 18.8767 49.8582 21.7532 51.1138C23.8184 52 26.3999 52.0739 28.7602 51.8523C29.5715 51.7785 30.3828 51.7046 31.1942 51.6308C32.6693 51.5569 34.7345 51.483 37.6111 51.5569C38.1274 51.5569 38.2011 51.3353 38.2011 51.0399C38.2011 50.8183 38.0536 50.7445 37.7586 50.7445H37.3898C36.8735 50.6706 36.1359 50.5968 35.9146 50.4491C35.6196 50.3014 35.3983 49.4151 35.6196 48.8243L37.4636 44.2452H43.8804L45.2818 48.8981C45.5031 49.7105 45.3556 50.1536 45.0606 50.4491C44.7655 50.7445 44.1755 50.8183 43.5854 50.8183C43.4379 50.8183 43.2904 50.8183 43.0691 50.8183C42.7741 50.8183 42.6266 50.8922 42.6266 51.1138C42.6266 51.4092 42.6266 51.5569 43.0691 51.6308H55.3866C55.9029 51.6308 55.9029 51.4092 55.9029 51.1138C55.9029 50.8922 55.7554 50.8183 55.4603 50.8183C54.354 50.8183 53.1001 50.4491 53.1001 48.972V34.3486C53.1001 33.6101 53.3214 33.1669 53.6164 33.0931C54.354 32.7238 55.1653 32.7238 55.9767 32.7977C59.2957 33.1669 59.812 34.8656 60.0333 36.4904C60.4758 40.257 58.1894 41.5864 55.7554 41.9557C55.1653 42.0296 54.5015 41.9557 54.059 42.1034C53.6164 42.2511 53.6164 42.9897 53.9852 43.1374C54.354 43.2113 54.944 43.0635 55.3128 43.2113L60.6234 50.0798C60.8446 50.3752 61.951 51.7046 62.246 51.7046H71.3182C71.8345 51.7046 71.8345 51.483 71.8345 51.2615C71.8345 51.0399 71.687 50.9661 71.3919 50.9661C70.2856 50.9661 69.7693 50.3752 69.6955 49.7844C69.6218 49.4151 69.6218 48.8243 69.6218 48.3073V34.9395C69.6218 34.2748 69.9906 33.6101 70.1381 33.4624C70.5806 33.0192 70.8756 33.0192 71.4657 33.0192C71.7607 33.0192 71.9082 32.9454 71.9082 32.7238C71.9082 32.4284 71.982 32.133 71.5395 32.2068ZM37.9799 42.7681L41.0777 35.0133L43.2904 42.6943L37.9799 42.7681Z" fill="#CCCCCC"/>
<path fill-rule="evenodd" clip-rule="evenodd" d="M153.484 32.0591H147.288C146.845 32.0591 146.772 32.2807 146.772 32.5761C146.772 32.7976 146.919 32.8715 147.214 32.8715C147.509 32.8715 147.804 32.9454 148.099 33.0192C148.616 33.1669 149.058 33.3885 149.279 33.6839C149.501 33.9793 149.722 34.4963 149.722 35.3826V46.6086C149.722 47.1256 149.574 47.4948 148.911 46.6824L137.552 32.0591H133.127C132.61 32.0591 132.61 32.2807 132.61 32.5022C132.61 32.7238 132.758 32.7976 133.053 32.7976C133.422 32.7976 133.717 32.7976 133.938 32.8715C134.676 33.1669 135.413 34.3486 135.413 35.4564V48.455C135.413 50.3752 131.946 50.449 131.43 48.8242L126.193 31.9114H124.645L117.269 49.4889C116.752 50.6706 115.646 50.3752 115.72 49.7105L116.015 47.7903C116.015 47.5687 115.72 47.4948 115.499 47.5687C115.13 47.7164 115.204 48.3072 115.056 48.6765C114.687 49.7843 113.433 50.2275 112.475 50.2275H109.967C109.45 50.2275 108.713 50.0059 108.492 49.6366C108.123 48.9719 107.975 48.1595 107.975 47.2733V42.1034C107.975 41.8818 108.27 41.6603 108.639 41.6603H112.548C112.991 41.6603 113.507 41.9557 113.728 42.325C113.95 42.6942 113.95 43.2112 114.023 43.6544C114.023 43.8021 114.097 43.9498 114.171 44.0236C114.318 44.1713 114.54 44.2452 114.687 44.0975V38.1152C114.687 37.9675 114.245 37.9675 114.171 38.2629C113.95 38.8538 114.023 39.3708 113.655 39.8139C113.507 40.0355 113.286 40.1832 113.065 40.3309C112.77 40.4786 112.327 40.5524 111.958 40.6263H108.565C107.975 40.6263 107.975 40.4047 107.975 39.9616V34.2747C107.975 33.5362 108.27 33.2408 108.713 33.2408H112.843C113.876 33.2408 114.318 33.61 114.687 34.127C114.835 34.2747 115.13 34.8656 115.204 35.0872C115.277 35.3087 115.13 35.6041 115.351 35.7519C115.646 35.8996 116.089 35.9734 116.089 35.161L116.162 31.9852C111.884 32.2068 107.607 32.2068 103.255 31.9114C102.812 31.9114 102.886 32.1329 102.886 32.3545C102.886 32.5761 103.034 32.6499 103.329 32.6499C103.697 32.6499 103.992 32.6499 104.287 32.7976C104.435 32.8715 104.656 33.0192 104.804 33.0931C105.32 33.4623 105.246 34.2747 105.246 34.9394L105.173 49.4151C105.173 49.6366 104.878 49.9321 104.656 50.1536C104.435 50.3013 104.214 50.449 103.992 50.5968C103.697 50.7445 103.402 50.7445 103.034 50.7445C102.739 50.7445 102.591 50.8183 102.591 51.0399C102.591 51.3353 102.591 51.483 103.107 51.483H121.252C121.768 51.483 121.768 51.2615 121.768 51.0399C121.768 50.8183 121.62 50.7445 121.325 50.7445C121.03 50.7445 120.809 50.7445 120.588 50.6706C120.367 50.6706 119.777 50.5229 119.629 50.3013C119.113 49.7843 119.039 49.2674 119.408 48.3072L121.03 44.3191H127.226L128.406 48.3072C128.775 49.6366 128.996 50.1536 128.406 50.5229C128.185 50.6706 127.595 50.6706 127.595 50.6706C127.447 50.6706 127.226 50.6706 126.931 50.6706C126.636 50.6706 126.488 50.7445 126.488 50.966C126.488 51.2615 126.488 51.4092 127.005 51.4092L138.88 51.3353C139.248 51.3353 139.396 51.1137 139.396 50.8183C139.396 50.5968 139.248 50.5229 138.953 50.5229C138.732 50.5229 138.511 50.5229 138.363 50.5229C137.995 50.449 137.626 50.3752 137.331 50.1536C137.036 49.9321 136.667 49.5628 136.667 48.2334V35.6041C136.667 35.0872 136.888 35.0133 137.109 35.2349L149.87 51.5569H151.05V35.0872C151.05 34.4225 151.197 33.7578 151.64 33.4623C151.935 33.2408 152.304 33.0931 152.599 32.9454C152.894 32.8715 153.189 32.7976 153.557 32.7976C153.852 32.7976 154 32.7238 154 32.5022C154 32.2068 154 32.0591 153.484 32.0591ZM121.62 43.1374L124.792 35.4564L127.005 43.2112L121.62 43.1374Z" fill="#CCCCCC"/>
<path fill-rule="evenodd" clip-rule="evenodd" d="M136.298 23.1964C136.151 23.1225 135.856 23.1964 135.782 23.418L135.266 24.8212C134.823 25.929 133.717 26.2983 133.053 26.446C132.094 26.6676 130.398 26.5937 129.66 26.2983C129.144 26.0767 128.554 25.6336 128.554 24.8212V10.5671C128.554 10.2717 128.48 9.90245 128.775 9.45932C129.07 8.86848 130.029 8.64691 130.619 8.64691C130.914 8.64691 131.061 8.57305 131.061 8.35149C131.061 8.05607 131.061 7.90836 130.545 7.90836C130.176 7.90836 127.226 8.05607 123.169 7.90836C122.653 7.90836 122.653 8.12992 122.653 8.35149C122.653 8.57305 122.801 8.64691 123.096 8.64691C123.686 8.64691 124.349 8.86847 124.792 9.31161C124.94 9.45932 125.161 9.9763 125.161 10.4194V25.1905C125.161 25.6336 125.087 25.929 124.792 26.2245C124.571 26.446 124.202 26.5199 123.907 26.5199C123.686 26.5199 123.538 26.2983 123.464 26.0767L117.638 7.98221H115.794L108.344 25.5598C107.828 26.1506 107.533 26.5199 107.164 26.5937C106.721 26.7414 106.5 26.7414 106.205 26.6676C105.468 26.5199 104.951 25.929 104.951 25.3382V20.6115L110.262 10.4933C110.483 10.0502 110.999 9.45932 111.294 9.23775C111.737 8.94233 112.106 8.72077 112.696 8.72077C112.991 8.72077 113.138 8.64691 113.138 8.42534C113.138 8.12992 113.138 7.90836 112.696 7.98221C110.631 8.05607 108.713 8.05607 106.5 7.98221C106.058 7.98221 106.058 8.20378 106.058 8.42534C106.058 8.64691 106.205 8.72077 106.5 8.72077C107.09 8.72077 107.68 8.79462 108.344 9.68088C108.492 9.90245 108.344 10.4933 108.27 10.8626L104.582 18.1742C104.361 18.6912 103.919 18.6912 103.771 18.2481L100.305 10.7149C100.157 10.3456 100.01 9.9763 100.231 9.60703C100.821 8.64691 101.78 8.64691 102.37 8.64691C102.665 8.64691 102.812 8.57305 102.812 8.35149C102.812 8.05607 102.812 7.8345 102.296 7.90836C101.19 7.98221 99.3457 8.05607 98.2394 7.98221C97.2805 7.98221 96.3217 7.98221 95.1415 7.98221C94.6252 7.98221 94.6252 8.20378 94.6252 8.42534C94.6252 8.64691 94.7728 8.72077 95.0678 8.72077C95.6578 8.72077 96.2479 9.01619 96.6167 9.53317C96.7642 9.75474 97.0592 10.124 97.2068 10.4933L102.222 20.833V25.3382C102.222 25.929 101.485 26.5199 101.411 26.5937C100.895 26.8892 100.083 27.1107 99.4932 27.1107C99.1982 27.1107 99.0507 27.1846 99.0507 27.4061C99.0507 27.8493 99.1244 27.9231 99.7883 27.9231H113.065C113.581 27.9231 113.507 27.7016 113.507 27.48C113.507 27.2584 113.36 27.1846 113.065 27.1846C112.401 27.1846 111.737 26.963 111.368 26.8153C110.631 26.5937 110.336 25.5598 110.778 24.5996L112.548 20.316H118.818L120.367 25.4859C120.514 25.929 119.924 26.5937 119.703 26.8153C119.26 27.1846 118.744 27.2584 118.154 27.2584C117.859 27.2584 117.711 27.3323 117.711 27.5538C117.711 27.8493 117.711 27.997 118.228 27.997H136.224C136.298 26.3722 136.224 26.2983 136.814 23.6395C136.814 23.2702 136.519 23.1964 136.298 23.1964ZM113.065 18.7651L116.089 11.5273L118.375 18.8389L113.065 18.7651Z" fill="#CCCCCC"/>
<path fill-rule="evenodd" clip-rule="evenodd" d="M58.263 15.22V11.8965H35.3982V15.22H44.1753V24.0826L39.8237 24.6734C39.2336 24.7473 38.201 23.861 38.9386 22.7532L40.2662 20.7591L35.3245 16.9186L36.4308 26.2983L46.8306 29.6217L57.2304 26.2983L58.3368 16.9186L53.395 20.7591L54.7226 22.6794C55.534 23.861 54.5014 24.7473 53.9113 24.6734L49.5596 24.0826V15.22H58.263Z" fill="#CCCCCC"/>
<path fill-rule="evenodd" clip-rule="evenodd" d="M53.9851 7.83456C54.3539 8.20384 54.3539 8.42541 53.9851 8.64697L51.7724 10.0502L49.4121 8.57312C49.1171 8.42541 49.1171 8.20384 49.4121 7.83456L50.961 6.20975L46.8306 2L42.774 6.2836L44.1753 7.90842C44.4704 8.2777 44.4704 8.42541 44.1016 8.72083L41.8889 10.1241L39.5286 8.64697C39.2336 8.49926 39.2336 8.2777 39.5286 7.90842L41.0775 6.2836L35.3245 2.59084L36.4308 10.8626H57.1566L58.263 2.59084L52.5837 6.2836L53.9851 7.83456Z" fill="#CCCCCC"/>
<path fill-rule="evenodd" clip-rule="evenodd" d="M96.1004 12.0444C94.3302 7.9085 89.1672 6.57911 84.8893 8.05621C81.2752 9.31175 77.9561 12.3398 77.5873 17.362C77.3661 21.1286 78.4724 25.6338 82.5291 27.3324C86.5857 29.0311 91.8225 28.1448 94.699 24.8214C97.6493 21.2763 97.7968 15.9587 96.1004 12.0444ZM94.404 18.4698C94.1827 24.8214 90.2736 27.3324 86.512 26.8893C83.1929 26.52 80.0213 23.3442 80.2426 17.6574C80.3901 13.2261 82.9716 8.5732 87.3971 8.72091C93.0764 8.79476 94.5515 14.3339 94.404 18.4698Z" fill="#CCCCCC"/>
<path fill-rule="evenodd" clip-rule="evenodd" d="M71.9818 18.765C72.4981 18.5435 73.3095 18.1742 73.6045 17.9526C76.4073 16.1063 76.6286 14.6292 76.6286 13.3736C76.7023 11.5272 75.891 9.607 74.2683 8.72074C73.8258 8.49917 73.3832 8.35146 72.9407 8.20375C72.0556 7.98218 71.0968 7.83447 70.2117 7.83447C68.3677 7.90833 66.5238 7.98218 64.6061 7.98218C63.6473 7.98218 63.131 7.90833 62.0984 7.90833C61.5821 7.90833 61.5821 8.12989 61.5821 8.35146C61.5821 8.57303 61.7296 8.64688 62.0246 8.64688C62.6147 8.64688 63.2047 8.79459 63.721 9.23772C63.9423 9.38543 64.3111 9.90242 64.3111 10.1978V25.3382C64.3111 25.7074 64.0161 26.2244 63.7948 26.3721C63.6473 26.5198 63.2047 26.7414 62.9097 26.8153C62.6147 26.8891 62.3196 26.963 61.9508 26.963C61.6558 26.963 61.5083 27.0368 61.5083 27.2584C61.5083 27.5538 61.5083 27.7015 62.0246 27.7015H69.3266C69.8429 27.7015 69.8429 27.48 69.8429 27.2584C69.8429 27.0368 69.6954 26.963 69.4003 26.963C68.884 26.963 68.3677 26.8891 67.7777 26.5198C67.3351 26.2244 67.2614 25.7074 67.2614 25.2643V9.23772C67.2614 9.09001 68.6628 8.9423 69.6216 8.9423C70.2854 8.9423 70.9492 8.9423 71.6131 9.16387C73.0144 9.607 74.3421 10.7887 74.1208 13.7429C73.9733 15.737 73.162 17.2879 70.2854 17.9526C69.6954 18.1004 69.1053 18.1004 68.5152 18.1004C68.3677 18.1004 67.9989 18.1742 67.9252 18.3958C67.8514 18.6173 67.9252 18.9128 67.9252 18.9128C68.1465 19.2082 68.4415 19.2082 68.5152 19.2082H69.4741L76.0385 27.8492H79.5788C80.0951 27.8492 80.0951 27.6277 80.0951 27.4061C80.0951 27.1845 79.9476 27.1107 79.6526 27.1107C79.2101 27.0368 79.1363 27.0368 78.8413 26.8153C78.62 26.6676 78.325 26.3721 78.0299 26.0029L71.9818 18.765Z" fill="#CCCCCC"/>
<path fill-rule="evenodd" clip-rule="evenodd" d="M102.37 42.9159C102.075 42.3251 100.673 41.2911 98.4606 41.2172C100.083 40.7002 101.19 39.297 101.632 38.263C102.444 35.9735 102.075 33.4624 99.7145 32.4284C98.9769 32.133 97.9443 31.7637 95.289 31.9853C92.8551 32.133 91.6749 32.0592 88.3559 32.0592C87.8396 32.0592 87.9133 32.2807 87.9133 32.5023C87.9133 32.7239 88.0608 32.7977 88.3559 32.7977C88.9459 32.7977 89.536 32.9454 89.9785 33.3147C90.2735 33.5363 90.6423 34.2748 90.6423 34.5702V47.3472C90.6423 47.8642 90.5686 48.3812 90.4948 48.8982C90.126 50.3014 89.6835 50.6707 88.5034 50.6707C88.2083 50.6707 88.0608 50.7446 88.0608 50.9661C88.0608 51.2615 88.0608 51.4092 88.5771 51.4831C91.6749 51.4831 90.8636 51.557 95.2153 51.8524C96.7642 51.9262 98.9769 51.6308 100.526 50.5968C102.665 49.3413 104.214 46.5348 102.37 42.9159ZM93.0763 33.9055C93.0763 33.6101 93.6664 33.167 94.4777 33.0193C95.2153 32.9454 96.1741 32.8716 96.9117 33.0193C98.6819 33.3147 99.6407 34.8657 99.567 36.7859C99.4932 39.4447 98.1656 40.1832 96.6904 40.5525C96.1741 40.7002 93.0026 41.0695 93.0026 40.331V33.9055H93.0763ZM98.2393 50.523C96.9855 51.1138 95.4366 51.1138 94.404 50.7445C93.7401 50.523 93.1501 50.1537 93.1501 49.3413V42.1035C93.1501 41.4388 96.0266 41.5865 97.2805 41.8081C99.7145 42.3251 100.378 43.7283 100.673 45.1315C100.895 46.7564 100.452 49.489 98.2393 50.523Z" fill="#CCCCCC"/>
<path fill-rule="evenodd" clip-rule="evenodd" d="M87.4708 42.9159C87.1758 42.3251 85.7744 41.2911 83.5617 41.2172C85.1843 40.7002 86.2907 39.297 86.7332 38.263C87.5446 35.9735 87.1758 33.4624 84.8156 32.4284C84.078 32.133 83.0454 31.7637 80.3901 31.9853C77.9561 32.133 76.776 32.0592 73.4569 32.0592C72.9406 32.0592 73.0144 32.2807 73.0144 32.5023C73.0144 32.7239 73.1619 32.7977 73.4569 32.7977C74.047 32.7977 74.637 32.9454 75.0796 33.3147C75.3746 33.5363 75.7434 34.2748 75.7434 34.5702V47.3472C75.7434 47.938 75.6696 48.455 75.5221 48.972C75.2271 50.0798 74.8583 50.6707 73.6044 50.6707C73.3094 50.6707 73.1619 50.7446 73.1619 50.9661C73.1619 51.2615 73.1619 51.4092 73.6782 51.4831C76.776 51.4831 75.9647 51.557 80.3164 51.8524C81.8653 51.9262 84.078 51.6308 85.6269 50.5968C87.7659 49.3413 89.241 46.5348 87.4708 42.9159ZM78.1774 33.9055C78.1774 33.6101 78.7675 33.167 79.5788 33.0193C80.3164 32.9454 81.2752 32.8716 82.0128 33.0193C83.783 33.3147 84.7418 34.8657 84.668 36.7859C84.5943 39.4447 83.2667 40.1832 81.7915 40.5525C81.2752 40.7002 78.1036 41.0695 78.1036 40.331V33.9055H78.1774ZM83.3404 50.523C82.0865 51.1138 80.5376 51.1138 79.505 50.7445C78.8412 50.523 78.2512 50.1537 78.2512 49.3413V42.1035C78.2512 41.4388 81.1277 41.5865 82.3816 41.8081C84.8156 42.3251 85.4794 43.7283 85.7744 45.1315C85.9957 46.7564 85.5531 49.489 83.3404 50.523Z" fill="#CCCCCC"/>
</g>
<defs>
<clipPath id="clip0">
<rect x="16" y="2" width="138" height="50" fill="white"/>
</clipPath>
</defs>
</svg>
