<?xml version="1.0" encoding="utf-8"?>
<!-- Generator: Adobe Illustrator 24.1.2, SVG Export Plug-In . SVG Version: 6.00 Build 0)  -->
<svg version="1.1" id="Isolation_Mode" xmlns="http://www.w3.org/2000/svg" xmlns:xlink="http://www.w3.org/1999/xlink" x="0px"
	 y="0px" viewBox="0 0 230.6 46.9" style="enable-background:new 0 0 230.6 46.9;" xml:space="preserve">
<style type="text/css">
	.st0{fill:#2C616D;}
</style>
<image style="display:none;overflow:visible;" width="1920" height="1080" xlink:href="3E2D973.jpg"  transform="matrix(0.9716 0 0 0.9716 -451.1423 -854.8115)">
</image>
<g>
	<g>
		<path class="st0" d="M25.6,24.5c0,7.9-3.8,12.8-9.9,12.8c-2.2,0-4.2-0.7-5.7-2.1c-0.5-0.4-1.2-0.1-1.2,0.5v9.4
			c0,0.4-0.3,0.7-0.7,0.7H2.2c-0.4,0-0.7-0.3-0.7-0.7v-32c0-0.4,0.3-0.7,0.7-0.7h5c0.4,0,0.7,0.3,0.7,0.7v1c0,0.7,0.8,1,1.3,0.5
			c1.6-1.8,3.8-2.8,6.5-2.8C21.8,11.7,25.6,16.6,25.6,24.5z M17.9,24.4c0-4.2-1.7-6.8-4.5-6.8c-2.8,0-4.5,2.7-4.5,6.8
			c0,4.2,1.7,6.8,4.5,6.8C16.1,31.3,17.9,28.6,17.9,24.4z"/>
		<path class="st0" d="M47.8,20.5v15.3c0,0.4-0.3,0.7-0.7,0.7h-5c-0.4,0-0.7-0.3-0.7-0.7v-0.3c0-0.6-0.7-1-1.2-0.5
			c-1.6,1.5-3.9,2.2-6.6,2.2c-5.1,0-8.3-2.8-8.3-7.2c0-4.8,3.7-7.7,9.9-7.7c1.6,0,3.1,0.2,4.5,0.5c0.5,0.1,0.9-0.2,0.9-0.7v-1.5
			c0-2.3-1.3-3.7-3.4-3.7c-1.6,0-2.8,0.9-3.6,2.5c-0.1,0.3-0.4,0.5-0.8,0.4L27.2,19c-0.4-0.1-0.7-0.5-0.6-0.9
			c1.3-3.9,5.2-6.4,10.7-6.4C43.8,11.7,47.8,15.1,47.8,20.5z M40.6,28v-0.4c0-0.3-0.2-0.6-0.5-0.7c-1.1-0.4-2.3-0.6-3.4-0.6
			c-2.5,0-4,1.1-4,3c0,1.8,1.3,2.9,3.5,2.9C39,32.2,40.6,30.6,40.6,28z"/>
		<path class="st0" d="M71.3,20.8l-5.5,0.9c-0.3,0.1-0.7-0.2-0.8-0.5c-0.7-2-2-3.5-4.1-3.5c-2.8,0-4.5,2.6-4.5,6.8
			c0,4.2,1.7,6.8,4.6,6.8c2.1,0,3.4-1.3,4.1-4c0.1-0.4,0.4-0.6,0.8-0.5l5.5,0.9c0.4,0.1,0.7,0.5,0.6,0.9c-1.1,5.6-5.3,8.7-11.3,8.7
			c-7.4,0-12-4.9-12-12.8s4.6-12.8,11.9-12.8c5.9,0,10,3.1,11.3,8.2C72,20.3,71.7,20.7,71.3,20.8z"/>
		<path class="st0" d="M81.4,27.5l-1,1.2c-0.1,0.1-0.2,0.3-0.2,0.5v6.8c0,0.4-0.3,0.7-0.7,0.7h-5.8c-0.4,0-0.7-0.3-0.7-0.7v-34
			c0-0.4,0.3-0.7,0.7-0.7h5.8c0.4,0,0.7,0.3,0.7,0.7v16.9c0,0.7,0.9,1,1.3,0.5l5.4-6.7c0.1-0.2,0.3-0.3,0.6-0.3h6.3
			c0.6,0,0.9,0.7,0.6,1.2l-6.6,8c-0.2,0.2-0.2,0.6-0.1,0.8l8.2,13.2c0.3,0.5,0,1.1-0.6,1.1h-6.8c-0.3,0-0.5-0.1-0.6-0.3l-5.2-8.7
			C82.3,27.1,81.7,27.1,81.4,27.5z"/>
		<path class="st0" d="M117,20.5v15.3c0,0.4-0.3,0.7-0.7,0.7h-5c-0.4,0-0.7-0.3-0.7-0.7v-0.3c0-0.6-0.7-1-1.2-0.5
			c-1.6,1.5-3.9,2.2-6.6,2.2c-5.1,0-8.3-2.8-8.3-7.2c0-4.8,3.7-7.7,9.9-7.7c1.6,0,3.1,0.2,4.5,0.5c0.5,0.1,0.9-0.2,0.9-0.7v-1.5
			c0-2.3-1.3-3.7-3.4-3.7c-1.6,0-2.8,0.9-3.6,2.5c-0.1,0.3-0.4,0.5-0.8,0.4L96.4,19c-0.4-0.1-0.7-0.5-0.6-0.9
			c1.3-3.9,5.2-6.4,10.7-6.4C112.9,11.7,117,15.1,117,20.5z M109.7,28v-0.4c0-0.3-0.2-0.6-0.5-0.7c-1.1-0.4-2.3-0.6-3.4-0.6
			c-2.5,0-4,1.1-4,3c0,1.8,1.3,2.9,3.5,2.9C108.1,32.2,109.7,30.6,109.7,28z"/>
		<path class="st0" d="M141.2,12.3c0.4,0,0.7,0.3,0.7,0.7v20.8c0,7.3-4.7,11.9-12.3,11.9c-5.4,0-9.3-2.3-10.8-6.1
			c-0.2-0.4,0.1-0.9,0.6-1l5.7-0.9c0.3,0,0.6,0.1,0.7,0.4c0.8,1.5,2.2,2.3,4,2.3c2.9,0,4.8-2.2,4.8-5.7v0c0-0.6-0.7-1-1.2-0.5
			c-1.6,1.4-3.6,2.2-5.9,2.2c-5.9,0-9.7-4.8-9.7-12.4c0-7.6,3.7-12.4,9.7-12.4c2.7,0,5,1,6.6,2.9c0.4,0.5,1.3,0.2,1.3-0.5l0-1
			c0-0.4,0.3-0.7,0.7-0.7H141.2z M134.6,24c0-4-1.8-6.5-4.5-6.5c-2.8,0-4.5,2.5-4.5,6.5s1.7,6.5,4.4,6.5
			C132.8,30.5,134.6,28,134.6,24z"/>
		<path class="st0" d="M143.9,35.9V13.1c0-0.4,0.3-0.7,0.7-0.7h5.9c0.4,0,0.7,0.3,0.7,0.7v22.8c0,0.4-0.3,0.7-0.7,0.7h-5.9
			C144.3,36.6,143.9,36.3,143.9,35.9z"/>
		<path class="st0" d="M176.6,21.3v14.6c0,0.4-0.3,0.7-0.7,0.7H170c-0.4,0-0.7-0.3-0.7-0.7v-14c0-2.6-1.5-4.2-3.9-4.2
			c-2.4,0-4,1.8-4.1,4.7l0,13.5c0,0.4-0.3,0.7-0.7,0.7h-5.9c-0.4,0-0.7-0.3-0.7-0.7V13.1c0-0.4,0.3-0.7,0.7-0.7h5
			c0.4,0,0.7,0.3,0.7,0.7v0.6c0,0.7,0.8,1,1.2,0.5c1.5-1.6,3.6-2.5,6.2-2.5C173.2,11.7,176.6,15.4,176.6,21.3z"/>
		<path class="st0" d="M201,12.3c0.4,0,0.7,0.3,0.7,0.7v20.8c0,7.3-4.7,11.9-12.3,11.9c-5.4,0-9.3-2.3-10.8-6.1
			c-0.2-0.4,0.1-0.9,0.6-1l5.7-0.9c0.3,0,0.6,0.1,0.7,0.4c0.8,1.5,2.2,2.3,4,2.3c2.9,0,4.8-2.2,4.8-5.7l0,0c0-0.6-0.7-1-1.2-0.5
			c-1.6,1.4-3.6,2.2-5.9,2.2c-5.9,0-9.7-4.8-9.7-12.4c0-7.6,3.7-12.4,9.7-12.4c2.7,0,5,1,6.6,2.9c0.4,0.5,1.3,0.2,1.3-0.5l0-1
			c0-0.4,0.3-0.7,0.7-0.7H201z M194.3,24c0-4-1.8-6.5-4.5-6.5c-2.8,0-4.5,2.5-4.5,6.5s1.7,6.5,4.4,6.5C192.6,30.5,194.3,28,194.3,24
			z"/>
	</g>
	<g id="nfmqEv_1_">
		<g>
			<g>
				<path class="st0" d="M210,18.6c-1.5-0.9-2.9-1.6-4.2-2.4c-1.1-0.7-1.1-1,0-1.6c1.5-0.9,3.1-1.8,4.7-2.6c0.7-0.4,1.3-0.3,2,0.1
					c1.2,0.7,2.4,1.4,3.6,2c0.5,0.3,0.9,0.4,1.5,0c1.1-0.8,2.4-1.4,3.6-2c0.7-0.4,1.4-0.5,2.2,0c1.5,0.9,3.1,1.8,4.6,2.6
					c0.1,0,0.2,0.1,0.2,0.2c0.5,0.4,0.5,0.7,0,1.1c-0.8,0.5-1.6,0.9-2.4,1.4c-0.6,0.4-1.2,0.7-1.9,1.2c0.5,0.5,1,0.8,1.5,1.1
					c0.5,0.3,1,0.6,1.6,0.9c1.6,0.8,2.2,2.2,2.2,3.9c0.1,3.1,0,6.3,0,9.4c0,1.1-0.4,2-1.4,2.6c-1.3,0.8-2.6,1.5-4,2.3
					c-0.9,0.5-1.2,0.4-1.4-0.7c-0.2-0.8-0.2-1.5-0.2-2.3c0-2.9,0-5.7,0-8.6c0-0.9-0.3-1.5-1.1-2c-1.3-0.7-2.5-1.4-3.7-2.2
					c-0.4-0.3-0.7-0.2-1.1,0c-1.3,0.8-2.6,1.5-3.8,2.2c-0.8,0.5-1.2,1.2-1.2,2.2c0.1,3,0,6,0,9.1c0,0.4,0,0.7,0,1.1
					c-0.1,1.6-0.4,1.8-1.9,1c-1.3-0.7-2.6-1.5-4-2.3c-0.7-0.4-1-1-1-1.8c0-1.5,0-3,0-4.5c0-1.9,0-3.9,0-5.8c0-1.7,0.8-2.8,2.2-3.6
					C207.7,19.8,208.8,19.3,210,18.6z"/>
			</g>
		</g>
	</g>
	<circle class="st0" cx="147.3" cy="6.9" r="2.9"/>
</g>
</svg>
