<svg xmlns="http://www.w3.org/2000/svg" width="170" height="54" fill="none" xmlns:v="https://vecta.io/nano"><g clip-path="url(#A)" fill="#ccc"><path d="M22.701 3C11.23 3 2 12.294 2 23.845S11.23 44.69 22.701 44.69v5.178c8.966 0 20.7-10.356 20.7-26.155C43.533 12.294 34.172 3 22.701 3zm0 36.511c-8.57 0-15.558-7.037-15.558-15.667S14.13 8.178 22.701 8.178s15.558 7.037 15.558 15.667-6.988 15.667-15.558 15.667zM22.7 13.489c-5.67 0-10.416 4.647-10.416 10.489S16.899 34.466 22.7 34.466s10.416-4.647 10.416-10.489S28.502 13.489 22.7 13.489zm0 15.667c-2.901 0-5.142-2.39-5.142-5.178S19.932 18.8 22.7 18.8s5.142 2.39 5.142 5.178-2.242 5.178-5.142 5.178zm25.975-4.913c0-6.638 3.428-9.825 9.23-9.825 2.769 0 5.274 1.195 6.593 2.921.132.133.264.398.264.531 0 .531-.396.929-.923.929-.264 0-.527-.133-.791-.398-1.055-1.328-2.901-2.39-5.142-2.39-4.483 0-7.12 2.655-7.12 8.099 0 5.842 2.637 7.966 7.12 7.966 1.978 0 3.956-.664 5.142-2.257.264-.265.527-.398.791-.398.527 0 .923.398.923.929 0 .266 0 .398-.132.531-1.319 1.726-3.956 2.921-6.592 2.921-5.933.266-9.361-2.655-9.361-9.559zm21.096-9.559v15.932c0 1.062.396 1.593 1.187 1.593.527 0 .923.398.923.797 0 .531-.395.797-.923.797-1.978 0-3.033-1.062-3.033-3.319V14.551c0-.531.396-.929.923-.929.527.133.923.531.923 1.062zm4.351 2.389c0-.797.395-1.062 1.055-1.062s1.055.266 1.055 1.062c0 .664-.396 1.062-1.055 1.062s-1.055-.398-1.055-1.062zM76.1 33.006c0 .531-.395.929-.923.929s-.923-.398-.923-.929V21.588c0-.531.396-.929.923-.929s.923.398.923.929v11.418zm9.098-12.481c2.637 0 4.087 1.328 4.483 1.859.132.133.264.398.264.531a.76.76 0 0 1-.791.797c-.264 0-.527-.133-.659-.398-.396-.531-1.187-1.328-3.164-1.328-2.769 0-4.087 1.593-4.087 5.045s1.45 5.045 4.087 5.045c1.714 0 2.769-.664 3.428-1.195.264-.133.396-.133.527-.133.527 0 .791.398.791.797 0 .265-.132.398-.396.664-.659.531-2.11 1.46-4.483 1.46-3.824 0-6.065-2.124-6.065-6.771 0-4.249 2.242-6.373 6.065-6.373zm16.349 12.879l-5.142-6.373-1.846 1.328v4.514c0 .531-.396.929-.923.929s-.923-.398-.923-.929V14.684c0-.531.396-.929.923-.929s.923.398.923.929v11.684l6.988-5.443c.264-.133.528-.265.66-.265.527 0 .923.398.923.929a.73.73 0 0 1-.396.664l-4.878 3.718 5.274 6.373c.131.133.263.398.263.531 0 .531-.395.929-.923.929-.395 0-.659-.133-.923-.398zm14.899-1.593c.528 0 .923.398.923.929s-.395.929-.923.929h-8.965c-.528 0-1.055-.398-1.055-.929V15.613c0-.531.395-.929 1.055-.929s1.054.398 1.054.929v16.198h7.911zm8.966-11.286c4.747 0 5.67 3.585 5.67 5.444 0 .797 0 1.726-1.187 1.726h-8.57c0 2.788 1.714 4.514 4.483 4.514 1.714 0 2.769-.664 3.56-1.195.132-.133.264-.133.527-.133.528 0 .791.398.791.797 0 .266-.131.531-.263.664-.396.398-1.978 1.593-4.615 1.593-3.956 0-6.329-1.992-6.329-6.771-.132-4.249 2.11-6.638 5.933-6.638zm0 1.726c-2.505 0-3.955 1.593-4.087 3.983h7.911c-.132-1.992-.791-3.983-3.824-3.983zm10.021 1.461c-.264.266-.528.398-.791.398-.528 0-.791-.398-.791-.797 0-.133 0-.398.132-.531.791-1.195 2.373-2.257 4.878-2.257 3.428 0 5.274 1.859 5.274 4.78v7.701c0 .531-.396.929-.923.929s-.923-.398-.923-.929v-1.062c-.791 1.328-2.505 1.992-4.219 1.992-3.165 0-5.142-1.461-5.142-3.983 0-2.39 1.977-3.983 5.142-3.983h4.087v-.797c0-1.859-1.318-3.054-3.428-3.054-1.45.133-2.373.531-3.296 1.593zm6.856 5.045v-1.195h-4.087c-1.978 0-3.297.797-3.297 2.39 0 1.461 1.055 2.39 3.297 2.39 2.109 0 4.087-1.195 4.087-3.585zm7.252-5.842c.527-1.328 2.109-2.257 4.087-2.257.528 0 .923.398.923.929s-.395.929-.923.929c-2.769 0-4.087 1.726-4.087 4.381v6.24c0 .531-.396.929-.923.929s-.923-.398-.923-.929V21.588c0-.531.395-.929.923-.929s.923.398.923.929v1.328zM168 25.438v7.435c0 .531-.396.929-.923.929s-.923-.398-.923-.929v-7.037c0-2.257-.659-3.717-3.56-3.717s-3.956 1.726-3.956 3.85v6.904c0 .531-.395.929-.923.929s-.923-.398-.923-.929V21.588c0-.531.396-.929.923-.929s.923.398.923.929v.929c.528-1.062 1.978-1.991 3.956-1.991 4.483 0 5.406 2.655 5.406 4.912z"/></g><defs><clipPath id="A"><path fill="#fff" d="M2 3h166v47H2z"/></clipPath></defs></svg>