<svg xmlns="http://www.w3.org/2000/svg" width="170" height="54" fill="none" xmlns:v="https://vecta.io/nano"><g fill="#ccc"><path d="M77.444 29.111l7.385-17.157h1.023l7.158 17.27h-1.25l-2.386-5.681h-8.181l-2.386 5.681-1.364-.114zm7.84-15.566l-3.863 8.976h7.613l-3.749-8.976zm12.158 15.679V12.067h11.135v1.136h-9.885v6.817h8.408v1.023h-8.408v8.181h-1.25zm15.793 0l.113-17.157h11.135v1.136h-9.885v6.817h8.408v1.023h-8.408v8.181h-1.363zm12.385.114l7.385-17.157h1.023l7.271 17.157h-1.363l-2.386-5.681h-8.181l-2.386 5.681h-1.363zm7.839-15.68l-3.863 8.976h7.613l-3.75-8.976zm12.044 15.68l.114-17.157h1.249l-.113 17.157h-1.25zm7.499 0l.114-17.157h7.158c.682 0 1.364.114 2.045.454.568.341 1.137.682 1.591 1.25.455.454.795 1.136 1.023 1.704.227.682.34 1.25.34 1.932s-.113 1.25-.34 1.818-.455 1.136-.796 1.591-.795.795-1.25 1.136-1.022.454-1.59.568l4.204 6.704h-1.477l-4.091-6.476h-5.567v6.476h-1.364zm1.25-7.613h6.022c.568 0 1.023-.114 1.477-.341s.796-.568 1.136-.909.569-.795.796-1.363c.227-.454.227-1.023.227-1.591s-.114-1.023-.341-1.591-.454-.909-.795-1.364a5.06 5.06 0 0 0-1.25-.909c-.454-.227-.909-.341-1.477-.341h-5.795v8.408zM52.561 43.427c.114.114.227.114.455.227s.454.114.682.114.454 0 .682-.114.341-.227.341-.455c.114-.227.114-.454.227-.795v-1.023-3.295h1.023v3.295c0 .454 0 .909-.114 1.363 0 .454-.114.795-.341 1.023-.114.341-.341.568-.682.682s-.682.227-1.25.227-1.023-.114-1.477-.454l.454-.795zm8.408 1.25v-1.136h.795v1.136h-.795zm11.135 0v-6.59h2.727c.341 0 .568.114.795.227s.454.341.682.455c.227.227.341.454.454.682s.114.568.114.795 0 .568-.114.795-.227.455-.454.682-.341.341-.682.455c-.227.114-.568.227-.795.227h-1.818v2.273h-.909zm1.136-3.181h1.704c.114 0 .227 0 .454-.114.114-.114.227-.114.341-.227s.114-.227.227-.341c0-.114.114-.341.114-.455 0-.227 0-.341-.114-.455 0-.114-.114-.227-.227-.341s-.227-.227-.341-.227c-.114-.114-.227-.114-.341-.114h-1.704l-.114 2.272zm7.386 3.181l2.613-6.59h.795l2.613 6.59h-1.136l-.568-1.704h-2.5l-.682 1.818-1.136-.114zm3.068-5.34l-1.136 2.84h2.159l-1.023-2.84zm7.612 5.453V38.2h2.84c.341 0 .568.114.795.227s.454.341.682.454c.227.227.341.454.454.682s.114.568.114.795 0 .454-.114.682-.114.341-.227.568a.88.88 0 0 1-.454.454.87.87 0 0 1-.568.227l1.591 2.5h-1.136l-1.477-2.272h-1.477v2.272h-1.023zm1.023-3.181h1.818c.114 0 .227 0 .455-.114.114-.114.227-.114.341-.227s.114-.227.227-.341c0-.114.114-.341.114-.454s0-.341-.114-.455-.114-.227-.227-.341-.227-.227-.341-.227c-.114-.114-.227-.114-.341-.114h-1.704l-.227 2.273zm8.862 3.181V38.2h1.022v6.59h-1.022zm10.112-4.999l-.227-.227c-.114-.114-.227-.114-.455-.227-.113-.114-.34-.114-.568-.114s-.341-.114-.568-.114a1.76 1.76 0 0 0-.909.227c-.227.114-.341.341-.341.682 0 .114 0 .341.114.341.114.114.114.227.341.227s.341.114.454.227c.228.114.455.114.682.227.341.114.568.227.909.227l.682.341c.227.114.341.341.454.568s.114.454.114.795a2.15 2.15 0 0 1-.227.909c-.114.227-.341.454-.568.568a5.53 5.53 0 0 1-.796.341c-.341.114-.568.114-.909.114-.454 0-1.022-.114-1.477-.227s-.909-.341-1.25-.682l.455-.909c.113.114.227.114.341.227s.341.227.568.227c.227.114.454.114.681.227s.455.114.796.114a2.15 2.15 0 0 0 .909-.227c.227-.113.341-.341.341-.682 0-.114 0-.341-.114-.455l-.341-.341c-.113-.114-.341-.114-.568-.227s-.454-.114-.795-.227-.568-.227-.909-.227c-.227-.114-.455-.227-.568-.341s-.228-.341-.341-.455c-.114-.227-.114-.454-.114-.682 0-.341.114-.568.227-.909.114-.227.341-.455.455-.682.227-.114.454-.341.795-.341.341-.114.568-.114.909-.114.455 0 .909.114 1.25.227s.682.341 1.023.568l-.455 1.023z"/><path fill-rule="evenodd" d="M166.068 9.114a1.75 1.75 0 0 1 1.705 1.704 1.75 1.75 0 0 1-1.705 1.704 1.75 1.75 0 0 1-1.704-1.704 1.75 1.75 0 0 1 1.704-1.704zm0-.114c1.023 0 1.932.909 1.932 1.932s-.909 1.931-1.932 1.931-1.931-.909-1.931-1.931c0-1.136.909-1.932 1.931-1.932z"/><path d="M165.273 12.181v-2.5h1.023c.113 0 .227 0 .34.114.114 0 .114.114.228.227s.113.114.113.227v.341.227c0 .114-.113.114-.113.227s-.114.114-.228.114-.113.114-.227.114l.568.909h-.227l-.568-.909h-.795v.909h-.114zm.227-1.136h.796.227c.113 0 .113-.114.113-.114s.114-.114.114-.227v-.227-.227c0-.114-.114-.114-.114-.227l-.113-.114h-.227-.796v1.136zM2.341 28.656L2.454 11.5h1.704v15.68h9.885v1.477H2.341zm14.089.114l7.272-17.157h1.364l7.158 17.157h-1.818l-2.273-5.34h-7.726l-2.159 5.34H16.43zm7.953-15.111l-3.522 8.408h6.931l-3.409-8.408zm21.588 1.249c-.455-.568-1.136-1.023-1.931-1.363s-1.704-.568-2.727-.568c-1.477 0-2.613.227-3.295.795s-1.023 1.364-1.023 2.272c0 .568.114.909.227 1.25.227.341.455.568.909.909s.909.454 1.477.682 1.363.341 2.159.568l2.5.682c.682.227 1.363.568 1.818.909.568.341.909.795 1.136 1.363s.455 1.136.455 1.932-.114 1.477-.455 2.045-.682 1.023-1.25 1.477c-.568.341-1.25.682-1.931.795-.795.227-1.591.227-2.5.227-2.727 0-4.999-.795-6.817-2.5l.795-1.363a8.08 8.08 0 0 0 2.5 1.704c1.023.454 2.272.682 3.522.682 1.363 0 2.386-.227 3.181-.682s1.136-1.25 1.136-2.272c0-.568-.114-1.023-.341-1.364a2.68 2.68 0 0 0-1.022-.909c-.454-.227-1.023-.454-1.591-.682-.682-.227-1.363-.341-2.273-.568l-2.386-.682c-.682-.227-1.25-.454-1.704-.795s-.795-.795-1.023-1.25-.341-1.023-.341-1.704c0-.795.114-1.477.454-2.159.341-.568.682-1.136 1.25-1.591s1.136-.682 1.931-.909a8.86 8.86 0 0 1 2.5-.341c1.136 0 2.159.227 3.068.568s1.704.795 2.386 1.477l-.795 1.363zm19.884-3.181l-.114 17.157h-1.704v-8.067H53.925v8.067H52.22l.114-17.157h1.704v7.613H64.15v-7.613h1.704z"/></g><path d="M2 41.223h43.176m77.262 0h43.176" stroke="#ccc"/></svg>