<svg xmlns="http://www.w3.org/2000/svg" width="170" height="54" fill="none" xmlns:v="https://vecta.io/nano"><path fill-rule="evenodd" d="M131.728 28.698c-1.341 7.005-6.43 9.396-11 9.396H95.806V16.68c0-1.478.41-1.708 1.738-2.523l-9.365-.092c.499.236 1.902.913 1.902 2.497l-.034 20.679c0 1.741-.759 2.365-1.874 2.747l32.783-.013c8.503.033 11.958-3.102 14.427-5.914 2.696-3.042 4.126-8.66 1.068-13.497-2.196-3.489-6.335-6.426-11.062-7.136-1.095-.164-2.484-.427-4.208-.427a23.57 23.57 0 0 0-4.467.427c-3.899.887-8.866 3.312-11.137 7.3-2.347 4.14-1.17 8.634.568 11.144 1.566 2.32 5.315 5.369 10.343 5.526l.151-.059c-3.304-1.643-4.981-4.626-6-8.647-.759-3.075-.212-7.655 2.572-10.54 2.073-2.116 5.152-3.266 7.97-3.299 2.846.033 5.788 1.051 7.847 3.161 2.812 2.891 3.284 7.767 2.702 10.684zM31.766 37.93L23.42 27.745c9.263-1.419 8.346-13.878-2.648-13.878H2c1.279.427 2.134 1.051 2.134 2.247V37.26c.014.992-.698 2.129-1.662 2.707H11.4c-.958-.473-1.902-1.82-1.902-2.628v-9.16h7.648L26.348 40l7.874-.013c-.841-.388-1.676-1.097-2.456-2.057zm-14.64-11.644H9.491l-.034-10.494 9.085-.033c6.567.033 8.134 10.408-1.416 10.527zm48.853-9.528c-.67-1.419.123-2.234 1.279-2.707H56.743c1.095.828 2.346 1.432 2.832 3.029l11.869 22.893h2.771l11.11-23.655c.636-1.406 1.266-1.741 1.902-2.26h-6.184c1.129.309 2.039 1.255 1.327 2.779l-8.148 17.367-8.244-17.446zm76.552 20.245c0 1.564-1.402 2.628-1.949 2.97h5.986c-.548-.342-1.861-1.17-1.861-2.733V18.907l18.69 21.06h2.743V16.529c0-1.564 1.327-2.129 1.861-2.471h-5.959c.534.342 1.936 1.137 1.936 2.688l-.034 15.166-16.131-17.847h-8.606c.916.447 3.324 1.406 3.324 3.548v19.391zM56.127 14.051H34.372c1.033.532 1.977.933 1.977 2.543l-.007 20.751c0 1.432-.609 2.083-1.642 2.628h22.5l2.121-6.269c-1.095 1.242-3.701 4.357-8.456 4.343l-8.586-.013V27.634h6.246c1.977 0 3.017 1.051 3.674 2.057v-6.177c-.93 1.275-1.751 2.155-3.687 2.155h-6.232v-9.804l8.791.026c3.701.033 5.288 2.293 6.109 3.621l-1.053-5.46z" fill="#ccc"/></svg>